<svg width="152" height="108" viewBox="0 0 152 108" fill="none" xmlns="http://www.w3.org/2000/svg">
<path d="M54.452 64.2192C53.968 63.5739 53.3887 63.0679 52.714 62.7012C52.054 62.3199 51.4087 62.1292 50.778 62.1292C50.0887 62.1292 49.4653 62.3052 48.908 62.6572C48.3507 63.0092 47.9107 63.5006 47.588 64.1312C47.2653 64.7472 47.104 65.4439 47.104 66.2212C47.104 66.9986 47.2653 67.7026 47.588 68.3332C47.9107 68.9492 48.3507 69.4406 48.908 69.8072C49.4653 70.1592 50.0887 70.3352 50.778 70.3352C51.3647 70.3352 51.988 70.1739 52.648 69.8512C53.3227 69.5286 53.924 69.0886 54.452 68.5312L57.092 71.3472C56.256 72.2566 55.244 72.9826 54.056 73.5252C52.8827 74.0679 51.7167 74.3393 50.558 74.3393C49.018 74.3393 47.6247 73.9946 46.378 73.3053C45.146 72.6012 44.178 71.6332 43.474 70.4012C42.77 69.1692 42.418 67.7906 42.418 66.2652C42.418 64.7692 42.7773 63.4199 43.496 62.2172C44.2147 60.9999 45.2047 60.0466 46.466 59.3572C47.7273 58.6679 49.1427 58.3232 50.712 58.3232C51.8707 58.3232 53.0293 58.5726 54.188 59.0712C55.3467 59.5699 56.3147 60.2372 57.092 61.0732L54.452 64.2192ZM58.6415 57.7072H63.0855V74.0312H58.6415V57.7072ZM71.6426 61.9093C72.9773 61.9093 74.1433 62.1659 75.1406 62.6792C76.1379 63.1779 76.9079 63.8892 77.4506 64.8132C78.0079 65.7372 78.2866 66.8152 78.2866 68.0472C78.2866 69.2646 78.0079 70.3426 77.4506 71.2812C76.9079 72.2052 76.1379 72.9239 75.1406 73.4372C74.1433 73.9359 72.9773 74.1853 71.6426 74.1853C70.3079 74.1853 69.1346 73.9359 68.1226 73.4372C67.1253 72.9239 66.3479 72.2052 65.7906 71.2812C65.2479 70.3426 64.9766 69.2646 64.9766 68.0472C64.9766 66.8152 65.2479 65.7372 65.7906 64.8132C66.3479 63.8892 67.1253 63.1779 68.1226 62.6792C69.1346 62.1659 70.3079 61.9093 71.6426 61.9093ZM71.6426 65.4292C70.9826 65.4292 70.4546 65.6786 70.0586 66.1772C69.6626 66.6612 69.4646 67.2992 69.4646 68.0912C69.4646 68.8979 69.6626 69.5432 70.0586 70.0272C70.4546 70.5112 70.9826 70.7532 71.6426 70.7532C72.2879 70.7532 72.8086 70.5112 73.2046 70.0272C73.6006 69.5432 73.7986 68.8979 73.7986 68.0912C73.7986 67.2992 73.6006 66.6612 73.2046 66.1772C72.8086 65.6786 72.2879 65.4292 71.6426 65.4292ZM92.0493 62.0632V74.0312H87.6053V72.2492C87.1946 72.8946 86.674 73.3859 86.0433 73.7232C85.4273 74.0606 84.7233 74.2293 83.9313 74.2293C83.0953 74.2293 82.3546 74.0459 81.7093 73.6792C81.0786 73.2979 80.5873 72.7626 80.2353 72.0732C79.8833 71.3839 79.7073 70.5772 79.7073 69.6532V62.0632H84.1513V68.3992C84.1513 68.9859 84.298 69.4552 84.5913 69.8072C84.8846 70.1446 85.2733 70.3132 85.7573 70.3132C86.3293 70.2986 86.7766 70.0786 87.0993 69.6532C87.4366 69.2279 87.6053 68.6706 87.6053 67.9812V62.0632H92.0493ZM107.075 57.7072V74.0312H102.631V72.6672C102.235 73.1512 101.758 73.5252 101.201 73.7892C100.643 74.0532 100.027 74.1853 99.3526 74.1853C98.2526 74.1853 97.2846 73.9286 96.4486 73.4152C95.6126 72.9019 94.96 72.1832 94.4906 71.2592C94.036 70.3206 93.8086 69.2279 93.8086 67.9812C93.8086 66.7639 94.0286 65.7006 94.4686 64.7912C94.9233 63.8672 95.5613 63.1559 96.3826 62.6572C97.204 62.1586 98.1573 61.9093 99.2426 61.9093C99.9466 61.9093 100.585 62.0412 101.157 62.3052C101.729 62.5692 102.22 62.9506 102.631 63.4492V57.7072H107.075ZM100.475 70.7752C101.12 70.7752 101.641 70.5332 102.037 70.0492C102.433 69.5506 102.631 68.8979 102.631 68.0912C102.631 67.2992 102.433 66.6612 102.037 66.1772C101.641 65.6786 101.12 65.4292 100.475 65.4292C99.8146 65.4292 99.2866 65.6786 98.8906 66.1772C98.4946 66.6612 98.2966 67.2992 98.2966 68.0912C98.2966 68.8979 98.4946 69.5506 98.8906 70.0492C99.2866 70.5332 99.8146 70.7752 100.475 70.7752Z" fill="#FF0000"/>
<path d="M131.725 48.1055C136.137 24.0416 117.598 2 93.3438 2C79.3286 2 66.7867 9.43498 59.8755 20.9434C50.4486 17.8973 40.7558 19.1955 32.7701 24.6929C24.7888 30.1871 20.0222 38.8861 19.6363 48.4006C8.97161 53.4248 2 64.0438 2 75.7109C2 77.7092 2.19598 79.7081 2.58217 81.6526C5.39157 95.7964 17.9112 106.062 32.3516 106.062H119.359C136.255 106.062 150 92.4468 150 75.7109C150 63.7686 142.755 52.9886 131.725 48.1055ZM119.359 97.3906H32.3516C20.5 97.3906 10.6719 87.7836 10.6719 75.7109C10.6719 66.6777 16.6084 58.5059 25.4441 55.3768L28.5226 54.2865L28.3246 51.0264C27.859 43.3663 31.3592 36.192 37.6877 31.8356C44.3797 27.2285 52.5894 26.9103 60.1042 30.3177L64.01 32.0888L65.8238 28.2026C70.7946 17.5533 81.5968 10.6719 93.3438 10.6719C110.08 10.6719 123.695 24.2876 123.695 41.0234C123.695 45.9739 122.651 48.9712 121.496 52.9397C124.729 54.618 125.252 54.9291 126.341 55.302C135.305 58.3724 141.328 66.5743 141.328 75.7109C141.328 87.6651 131.473 97.3906 119.359 97.3906Z" stroke="#FF0000" stroke-width="3.3739" stroke-linecap="round" stroke-linejoin="round" stroke-dasharray="0.56 6.75"/>
</svg>
