<svg width="414" height="81" viewBox="0 0 414 81" fill="none" xmlns="http://www.w3.org/2000/svg">
<path fill-rule="evenodd" clip-rule="evenodd" d="M3.98954 77.3521C3.98954 76.53 3.32143 75.8573 2.49477 75.8573C1.67038 75.8573 1 76.53 1 77.3521C1 78.1765 1.67038 78.8491 2.49477 78.8491C3.32143 78.8491 3.98954 78.1765 3.98954 77.3521Z" fill="#FF0000"/>
<path d="M3.98954 77.3521C3.98954 76.53 3.32143 75.8573 2.49477 75.8573C1.67038 75.8573 1 76.53 1 77.3521C1 78.1765 1.67038 78.8491 2.49477 78.8491C3.32143 78.8491 3.98954 78.1765 3.98954 77.3521" stroke="#FF0000"/>
<path fill-rule="evenodd" clip-rule="evenodd" d="M3.98954 62.382C3.98954 61.5554 3.32143 60.885 2.49477 60.885C1.67038 60.885 1 61.5554 1 62.382C1 63.2041 1.67038 63.8745 2.49477 63.8745C3.32143 63.8745 3.98954 63.2041 3.98954 62.382Z" fill="#FF0000"/>
<path d="M3.98954 62.382C3.98954 61.5554 3.32143 60.885 2.49477 60.885C1.67038 60.885 1 61.5554 1 62.382C1 63.2041 1.67038 63.8745 2.49477 63.8745C3.32143 63.8745 3.98954 63.2041 3.98954 62.382" stroke="#FF0000"/>
<path fill-rule="evenodd" clip-rule="evenodd" d="M3.98954 47.4088C3.98954 46.5844 3.32143 45.914 2.49477 45.914C1.67038 45.914 1 46.5844 1 47.4088C1 48.2332 1.67038 48.9036 2.49477 48.9036C3.32143 48.9036 3.98954 48.2332 3.98954 47.4088Z" fill="#FF0000"/>
<path d="M3.98954 47.4088C3.98954 46.5844 3.32143 45.914 2.49477 45.914C1.67038 45.914 1 46.5844 1 47.4088C1 48.2332 1.67038 48.9036 2.49477 48.9036C3.32143 48.9036 3.98954 48.2332 3.98954 47.4088" stroke="#FF0000"/>
<path fill-rule="evenodd" clip-rule="evenodd" d="M3.98954 32.4403C3.98954 31.6159 3.32143 30.9455 2.49477 30.9455C1.67038 30.9455 1 31.6159 1 32.4403C1 33.2624 1.67038 33.9351 2.49477 33.9351C3.32143 33.9351 3.98954 33.2624 3.98954 32.4403Z" fill="#FF0000"/>
<path d="M3.98954 32.4403C3.98954 31.6159 3.32143 30.9455 2.49477 30.9455C1.67038 30.9455 1 31.6159 1 32.4403C1 33.2624 1.67038 33.9351 2.49477 33.9351C3.32143 33.9351 3.98954 33.2624 3.98954 32.4403" stroke="#FF0000"/>
<path fill-rule="evenodd" clip-rule="evenodd" d="M3.98954 17.4661C3.98954 16.644 3.32143 15.9736 2.49477 15.9736C1.67038 15.9736 1 16.644 1 17.4661C1 18.2905 1.67038 18.9631 2.49477 18.9631C3.32143 18.9631 3.98954 18.2905 3.98954 17.4661Z" fill="#FF0000"/>
<path d="M3.98954 17.4661C3.98954 16.644 3.32143 15.9736 2.49477 15.9736C1.67038 15.9736 1 16.644 1 17.4661C1 18.2905 1.67038 18.9631 2.49477 18.9631C3.32143 18.9631 3.98954 18.2905 3.98954 17.4661" stroke="#FF0000"/>
<path fill-rule="evenodd" clip-rule="evenodd" d="M3.98954 2.49497C3.98954 1.67059 3.32143 1.0002 2.49477 1.0002C1.67038 1.0002 1 1.67059 1 2.49497C1 3.31936 1.67038 3.98975 2.49477 3.98975C3.32143 3.98975 3.98954 3.31936 3.98954 2.49497Z" fill="#FF0000"/>
<path d="M3.98954 2.49497C3.98954 1.67058 3.32143 1.0002 2.49477 1.0002C1.67038 1.0002 1 1.67059 1 2.49497C1 3.31936 1.67038 3.98975 2.49477 3.98975C3.32143 3.98975 3.98954 3.31936 3.98954 2.49497" stroke="#FF0000"/>
<path fill-rule="evenodd" clip-rule="evenodd" d="M18.9642 77.3521C18.9642 76.53 18.296 75.8573 17.4694 75.8573C16.6427 75.8573 15.9746 76.53 15.9746 77.3521C15.9746 78.1765 16.6427 78.8491 17.4694 78.8491C18.296 78.8491 18.9642 78.1765 18.9642 77.3521Z" fill="#FF0000"/>
<path d="M18.9642 77.3521C18.9642 76.53 18.296 75.8573 17.4694 75.8573C16.6427 75.8573 15.9746 76.53 15.9746 77.3521C15.9746 78.1765 16.6427 78.8491 17.4694 78.8491C18.296 78.8491 18.9642 78.1765 18.9642 77.3521" stroke="#FF0000"/>
<path fill-rule="evenodd" clip-rule="evenodd" d="M18.9642 62.382C18.9642 61.5554 18.296 60.885 17.4694 60.885C16.6427 60.885 15.9746 61.5554 15.9746 62.382C15.9746 63.2041 16.6427 63.8745 17.4694 63.8745C18.296 63.8745 18.9642 63.2041 18.9642 62.382Z" fill="#FF0000"/>
<path d="M18.9642 62.382C18.9642 61.5554 18.296 60.885 17.4694 60.885C16.6427 60.885 15.9746 61.5554 15.9746 62.382C15.9746 63.2041 16.6427 63.8745 17.4694 63.8745C18.296 63.8745 18.9642 63.2041 18.9642 62.382" stroke="#FF0000"/>
<path fill-rule="evenodd" clip-rule="evenodd" d="M18.9642 47.4088C18.9642 46.5844 18.296 45.914 17.4694 45.914C16.6427 45.914 15.9746 46.5844 15.9746 47.4088C15.9746 48.2332 16.6427 48.9036 17.4694 48.9036C18.296 48.9036 18.9642 48.2332 18.9642 47.4088Z" fill="#FF0000"/>
<path d="M18.9642 47.4088C18.9642 46.5844 18.296 45.914 17.4694 45.914C16.6427 45.914 15.9746 46.5844 15.9746 47.4088C15.9746 48.2332 16.6427 48.9036 17.4694 48.9036C18.296 48.9036 18.9642 48.2332 18.9642 47.4088" stroke="#FF0000"/>
<path fill-rule="evenodd" clip-rule="evenodd" d="M18.9642 32.4403C18.9642 31.6159 18.296 30.9455 17.4694 30.9455C16.6427 30.9455 15.9746 31.6159 15.9746 32.4403C15.9746 33.2624 16.6427 33.9351 17.4694 33.9351C18.296 33.9351 18.9642 33.2624 18.9642 32.4403Z" fill="#FF0000"/>
<path d="M18.9642 32.4403C18.9642 31.6159 18.296 30.9455 17.4694 30.9455C16.6427 30.9455 15.9746 31.6159 15.9746 32.4403C15.9746 33.2624 16.6427 33.9351 17.4694 33.9351C18.296 33.9351 18.9642 33.2624 18.9642 32.4403" stroke="#FF0000"/>
<path fill-rule="evenodd" clip-rule="evenodd" d="M18.9642 17.4661C18.9642 16.644 18.296 15.9736 17.4694 15.9736C16.6427 15.9736 15.9746 16.644 15.9746 17.4661C15.9746 18.2905 16.6427 18.9631 17.4694 18.9631C18.296 18.9631 18.9642 18.2905 18.9642 17.4661Z" fill="#FF0000"/>
<path d="M18.9642 17.4661C18.9642 16.644 18.296 15.9736 17.4694 15.9736C16.6427 15.9736 15.9746 16.644 15.9746 17.4661C15.9746 18.2905 16.6427 18.9631 17.4694 18.9631C18.296 18.9631 18.9642 18.2905 18.9642 17.4661" stroke="#FF0000"/>
<path fill-rule="evenodd" clip-rule="evenodd" d="M18.9642 2.49497C18.9642 1.67059 18.296 1.0002 17.4694 1.0002C16.6427 1.0002 15.9746 1.67059 15.9746 2.49497C15.9746 3.31936 16.6427 3.98975 17.4694 3.98975C18.296 3.98975 18.9642 3.31936 18.9642 2.49497Z" fill="#FF0000"/>
<path d="M18.9642 2.49497C18.9642 1.67058 18.296 1.0002 17.4694 1.0002C16.6427 1.0002 15.9746 1.67059 15.9746 2.49497C15.9746 3.31936 16.6427 3.98975 17.4694 3.98975C18.296 3.98975 18.9642 3.31936 18.9642 2.49497" stroke="#FF0000"/>
<path fill-rule="evenodd" clip-rule="evenodd" d="M33.9349 77.3521C33.9349 76.53 33.2645 75.8573 32.4401 75.8573C31.6157 75.8573 30.9453 76.53 30.9453 77.3521C30.9453 78.1765 31.6157 78.8491 32.4401 78.8491C33.2645 78.8491 33.9349 78.1765 33.9349 77.3521Z" fill="#FF0000"/>
<path d="M33.9349 77.3521C33.9349 76.53 33.2645 75.8573 32.4401 75.8573C31.6157 75.8573 30.9453 76.53 30.9453 77.3521C30.9453 78.1765 31.6157 78.8491 32.4401 78.8491C33.2645 78.8491 33.9349 78.1765 33.9349 77.3521" stroke="#FF0000"/>
<path fill-rule="evenodd" clip-rule="evenodd" d="M33.9349 62.382C33.9349 61.5554 33.2645 60.885 32.4401 60.885C31.6157 60.885 30.9453 61.5554 30.9453 62.382C30.9453 63.2041 31.6157 63.8745 32.4401 63.8745C33.2645 63.8745 33.9349 63.2041 33.9349 62.382Z" fill="#FF0000"/>
<path d="M33.9349 62.382C33.9349 61.5554 33.2645 60.885 32.4401 60.885C31.6157 60.885 30.9453 61.5554 30.9453 62.382C30.9453 63.2041 31.6157 63.8745 32.4401 63.8745C33.2645 63.8745 33.9349 63.2041 33.9349 62.382" stroke="#FF0000"/>
<path fill-rule="evenodd" clip-rule="evenodd" d="M33.9349 47.4088C33.9349 46.5844 33.2645 45.914 32.4401 45.914C31.6157 45.914 30.9453 46.5844 30.9453 47.4088C30.9453 48.2332 31.6157 48.9036 32.4401 48.9036C33.2645 48.9036 33.9349 48.2332 33.9349 47.4088Z" fill="#FF0000"/>
<path d="M33.9349 47.4088C33.9349 46.5844 33.2645 45.914 32.4401 45.914C31.6157 45.914 30.9453 46.5844 30.9453 47.4088C30.9453 48.2332 31.6157 48.9036 32.4401 48.9036C33.2645 48.9036 33.9349 48.2332 33.9349 47.4088" stroke="#FF0000"/>
<path fill-rule="evenodd" clip-rule="evenodd" d="M33.9349 32.4403C33.9349 31.6159 33.2645 30.9455 32.4401 30.9455C31.6157 30.9455 30.9453 31.6159 30.9453 32.4403C30.9453 33.2624 31.6157 33.9351 32.4401 33.9351C33.2645 33.9351 33.9349 33.2624 33.9349 32.4403Z" fill="#FF0000"/>
<path d="M33.9349 32.4403C33.9349 31.6159 33.2645 30.9455 32.4401 30.9455C31.6157 30.9455 30.9453 31.6159 30.9453 32.4403C30.9453 33.2624 31.6157 33.9351 32.4401 33.9351C33.2645 33.9351 33.9349 33.2624 33.9349 32.4403" stroke="#FF0000"/>
<path fill-rule="evenodd" clip-rule="evenodd" d="M33.9349 17.4661C33.9349 16.644 33.2645 15.9736 32.4401 15.9736C31.6157 15.9736 30.9453 16.644 30.9453 17.4661C30.9453 18.2905 31.6157 18.9631 32.4401 18.9631C33.2645 18.9631 33.9349 18.2905 33.9349 17.4661Z" fill="#FF0000"/>
<path d="M33.9349 17.4661C33.9349 16.644 33.2645 15.9736 32.4401 15.9736C31.6157 15.9736 30.9453 16.644 30.9453 17.4661C30.9453 18.2905 31.6157 18.9631 32.4401 18.9631C33.2645 18.9631 33.9349 18.2905 33.9349 17.4661" stroke="#FF0000"/>
<path fill-rule="evenodd" clip-rule="evenodd" d="M33.9349 2.49497C33.9349 1.67059 33.2645 1.0002 32.4401 1.0002C31.6157 1.0002 30.9453 1.67059 30.9453 2.49497C30.9453 3.31936 31.6157 3.98975 32.4401 3.98975C33.2645 3.98975 33.9349 3.31936 33.9349 2.49497Z" fill="#FF0000"/>
<path d="M33.9349 2.49497C33.9349 1.67058 33.2645 1.0002 32.4401 1.0002C31.6157 1.0002 30.9453 1.67059 30.9453 2.49497C30.9453 3.31936 31.6157 3.98975 32.4401 3.98975C33.2645 3.98975 33.9349 3.31936 33.9349 2.49497" stroke="#FF0000"/>
<path fill-rule="evenodd" clip-rule="evenodd" d="M48.9036 77.3521C48.9036 76.53 48.2355 75.8573 47.4088 75.8573C46.5822 75.8573 45.9141 76.53 45.9141 77.3521C45.9141 78.1765 46.5822 78.8491 47.4088 78.8491C48.2355 78.8491 48.9036 78.1765 48.9036 77.3521Z" fill="#FF0000"/>
<path d="M48.9036 77.3521C48.9036 76.53 48.2355 75.8573 47.4088 75.8573C46.5822 75.8573 45.9141 76.53 45.9141 77.3521C45.9141 78.1765 46.5822 78.8491 47.4088 78.8491C48.2355 78.8491 48.9036 78.1765 48.9036 77.3521" stroke="#FF0000"/>
<path fill-rule="evenodd" clip-rule="evenodd" d="M48.9036 62.382C48.9036 61.5554 48.2355 60.885 47.4088 60.885C46.5822 60.885 45.9141 61.5554 45.9141 62.382C45.9141 63.2041 46.5822 63.8745 47.4088 63.8745C48.2355 63.8745 48.9036 63.2041 48.9036 62.382Z" fill="#FF0000"/>
<path d="M48.9036 62.382C48.9036 61.5554 48.2355 60.885 47.4088 60.885C46.5822 60.885 45.9141 61.5554 45.9141 62.382C45.9141 63.2041 46.5822 63.8745 47.4088 63.8745C48.2355 63.8745 48.9036 63.2041 48.9036 62.382" stroke="#FF0000"/>
<path fill-rule="evenodd" clip-rule="evenodd" d="M48.9036 47.4088C48.9036 46.5844 48.2355 45.914 47.4088 45.914C46.5822 45.914 45.9141 46.5844 45.9141 47.4088C45.9141 48.2332 46.5822 48.9036 47.4088 48.9036C48.2355 48.9036 48.9036 48.2332 48.9036 47.4088Z" fill="#FF0000"/>
<path d="M48.9036 47.4088C48.9036 46.5844 48.2355 45.914 47.4088 45.914C46.5822 45.914 45.9141 46.5844 45.9141 47.4088C45.9141 48.2332 46.5822 48.9036 47.4088 48.9036C48.2355 48.9036 48.9036 48.2332 48.9036 47.4088" stroke="#FF0000"/>
<path fill-rule="evenodd" clip-rule="evenodd" d="M48.9036 32.4403C48.9036 31.6159 48.2355 30.9455 47.4088 30.9455C46.5822 30.9455 45.9141 31.6159 45.9141 32.4403C45.9141 33.2624 46.5822 33.9351 47.4088 33.9351C48.2355 33.9351 48.9036 33.2624 48.9036 32.4403Z" fill="#FF0000"/>
<path d="M48.9036 32.4403C48.9036 31.6159 48.2355 30.9455 47.4088 30.9455C46.5822 30.9455 45.9141 31.6159 45.9141 32.4403C45.9141 33.2624 46.5822 33.9351 47.4088 33.9351C48.2355 33.9351 48.9036 33.2624 48.9036 32.4403" stroke="#FF0000"/>
<path fill-rule="evenodd" clip-rule="evenodd" d="M48.9036 17.4661C48.9036 16.644 48.2355 15.9736 47.4088 15.9736C46.5822 15.9736 45.9141 16.644 45.9141 17.4661C45.9141 18.2905 46.5822 18.9631 47.4088 18.9631C48.2355 18.9631 48.9036 18.2905 48.9036 17.4661Z" fill="#FF0000"/>
<path d="M48.9036 17.4661C48.9036 16.644 48.2355 15.9736 47.4088 15.9736C46.5822 15.9736 45.9141 16.644 45.9141 17.4661C45.9141 18.2905 46.5822 18.9631 47.4088 18.9631C48.2355 18.9631 48.9036 18.2905 48.9036 17.4661" stroke="#FF0000"/>
<path fill-rule="evenodd" clip-rule="evenodd" d="M48.9036 2.49497C48.9036 1.67059 48.2355 1.0002 47.4088 1.0002C46.5822 1.0002 45.9141 1.67059 45.9141 2.49497C45.9141 3.31936 46.5822 3.98975 47.4088 3.98975C48.2355 3.98975 48.9036 3.31936 48.9036 2.49497Z" fill="#FF0000"/>
<path d="M48.9036 2.49497C48.9036 1.67058 48.2355 1.0002 47.4088 1.0002C46.5822 1.0002 45.9141 1.67059 45.9141 2.49497C45.9141 3.31936 46.5822 3.98975 47.4088 3.98975C48.2355 3.98975 48.9036 3.31936 48.9036 2.49497" stroke="#FF0000"/>
<path fill-rule="evenodd" clip-rule="evenodd" d="M63.8782 77.3521C63.8782 76.53 63.2078 75.8573 62.3834 75.8573C61.5568 75.8573 60.8887 76.53 60.8887 77.3521C60.8887 78.1765 61.5568 78.8491 62.3834 78.8491C63.2078 78.8491 63.8782 78.1765 63.8782 77.3521Z" fill="#FF0000"/>
<path d="M63.8782 77.3521C63.8782 76.53 63.2078 75.8573 62.3834 75.8573C61.5568 75.8573 60.8887 76.53 60.8887 77.3521C60.8887 78.1765 61.5568 78.8491 62.3834 78.8491C63.2078 78.8491 63.8782 78.1765 63.8782 77.3521" stroke="#FF0000"/>
<path fill-rule="evenodd" clip-rule="evenodd" d="M63.8782 62.382C63.8782 61.5554 63.2078 60.885 62.3834 60.885C61.5568 60.885 60.8887 61.5554 60.8887 62.382C60.8887 63.2041 61.5568 63.8745 62.3834 63.8745C63.2078 63.8745 63.8782 63.2041 63.8782 62.382Z" fill="#FF0000"/>
<path d="M63.8782 62.382C63.8782 61.5554 63.2078 60.885 62.3834 60.885C61.5568 60.885 60.8887 61.5554 60.8887 62.382C60.8887 63.2041 61.5568 63.8745 62.3834 63.8745C63.2078 63.8745 63.8782 63.2041 63.8782 62.382" stroke="#FF0000"/>
<path fill-rule="evenodd" clip-rule="evenodd" d="M63.8782 47.4088C63.8782 46.5844 63.2078 45.914 62.3834 45.914C61.5568 45.914 60.8887 46.5844 60.8887 47.4088C60.8887 48.2332 61.5568 48.9036 62.3834 48.9036C63.2078 48.9036 63.8782 48.2332 63.8782 47.4088Z" fill="#FF0000"/>
<path d="M63.8782 47.4088C63.8782 46.5844 63.2078 45.914 62.3834 45.914C61.5568 45.914 60.8887 46.5844 60.8887 47.4088C60.8887 48.2332 61.5568 48.9036 62.3834 48.9036C63.2078 48.9036 63.8782 48.2332 63.8782 47.4088" stroke="#FF0000"/>
<path fill-rule="evenodd" clip-rule="evenodd" d="M63.8782 32.4403C63.8782 31.6159 63.2078 30.9455 62.3834 30.9455C61.5568 30.9455 60.8887 31.6159 60.8887 32.4403C60.8887 33.2624 61.5568 33.9351 62.3834 33.9351C63.2078 33.9351 63.8782 33.2624 63.8782 32.4403Z" fill="#FF0000"/>
<path d="M63.8782 32.4403C63.8782 31.6159 63.2078 30.9455 62.3834 30.9455C61.5568 30.9455 60.8887 31.6159 60.8887 32.4403C60.8887 33.2624 61.5568 33.9351 62.3834 33.9351C63.2078 33.9351 63.8782 33.2624 63.8782 32.4403" stroke="#FF0000"/>
<path fill-rule="evenodd" clip-rule="evenodd" d="M63.8782 17.4661C63.8782 16.644 63.2078 15.9736 62.3834 15.9736C61.5568 15.9736 60.8887 16.644 60.8887 17.4661C60.8887 18.2905 61.5568 18.9631 62.3834 18.9631C63.2078 18.9631 63.8782 18.2905 63.8782 17.4661Z" fill="#FF0000"/>
<path d="M63.8782 17.4661C63.8782 16.644 63.2078 15.9736 62.3834 15.9736C61.5568 15.9736 60.8887 16.644 60.8887 17.4661C60.8887 18.2905 61.5568 18.9631 62.3834 18.9631C63.2078 18.9631 63.8782 18.2905 63.8782 17.4661" stroke="#FF0000"/>
<path fill-rule="evenodd" clip-rule="evenodd" d="M63.8782 2.49497C63.8782 1.67059 63.2078 1.0002 62.3834 1.0002C61.5568 1.0002 60.8887 1.67059 60.8887 2.49497C60.8887 3.31936 61.5568 3.98975 62.3834 3.98975C63.2078 3.98975 63.8782 3.31936 63.8782 2.49497Z" fill="#FF0000"/>
<path d="M63.8782 2.49497C63.8782 1.67058 63.2078 1.0002 62.3834 1.0002C61.5568 1.0002 60.8887 1.67059 60.8887 2.49497C60.8887 3.31936 61.5568 3.98975 62.3834 3.98975C63.2078 3.98975 63.8782 3.31936 63.8782 2.49497" stroke="#FF0000"/>
<path fill-rule="evenodd" clip-rule="evenodd" d="M78.8489 77.3521C78.8489 76.53 78.1808 75.8573 77.3541 75.8573C76.532 75.8573 75.8594 76.53 75.8594 77.3521C75.8594 78.1765 76.532 78.8491 77.3541 78.8491C78.1808 78.8491 78.8489 78.1765 78.8489 77.3521Z" fill="#FF0000"/>
<path d="M78.8489 77.3521C78.8489 76.53 78.1808 75.8573 77.3541 75.8573C76.532 75.8573 75.8594 76.53 75.8594 77.3521C75.8594 78.1765 76.532 78.8491 77.3541 78.8491C78.1808 78.8491 78.8489 78.1765 78.8489 77.3521" stroke="#FF0000"/>
<path fill-rule="evenodd" clip-rule="evenodd" d="M78.8489 62.382C78.8489 61.5554 78.1808 60.885 77.3541 60.885C76.532 60.885 75.8594 61.5554 75.8594 62.382C75.8594 63.2041 76.532 63.8745 77.3541 63.8745C78.1808 63.8745 78.8489 63.2041 78.8489 62.382Z" fill="#FF0000"/>
<path d="M78.8489 62.382C78.8489 61.5554 78.1808 60.885 77.3541 60.885C76.532 60.885 75.8594 61.5554 75.8594 62.382C75.8594 63.2041 76.532 63.8745 77.3541 63.8745C78.1808 63.8745 78.8489 63.2041 78.8489 62.382" stroke="#FF0000"/>
<path fill-rule="evenodd" clip-rule="evenodd" d="M78.8489 47.4088C78.8489 46.5844 78.1808 45.914 77.3541 45.914C76.532 45.914 75.8594 46.5844 75.8594 47.4088C75.8594 48.2332 76.532 48.9036 77.3541 48.9036C78.1808 48.9036 78.8489 48.2332 78.8489 47.4088Z" fill="#FF0000"/>
<path d="M78.8489 47.4088C78.8489 46.5844 78.1808 45.914 77.3541 45.914C76.532 45.914 75.8594 46.5844 75.8594 47.4088C75.8594 48.2332 76.532 48.9036 77.3541 48.9036C78.1808 48.9036 78.8489 48.2332 78.8489 47.4088" stroke="#FF0000"/>
<path fill-rule="evenodd" clip-rule="evenodd" d="M78.8489 32.4403C78.8489 31.6159 78.1808 30.9455 77.3541 30.9455C76.532 30.9455 75.8594 31.6159 75.8594 32.4403C75.8594 33.2624 76.532 33.9351 77.3541 33.9351C78.1808 33.9351 78.8489 33.2624 78.8489 32.4403Z" fill="#FF0000"/>
<path d="M78.8489 32.4403C78.8489 31.6159 78.1808 30.9455 77.3541 30.9455C76.532 30.9455 75.8594 31.6159 75.8594 32.4403C75.8594 33.2624 76.532 33.9351 77.3541 33.9351C78.1808 33.9351 78.8489 33.2624 78.8489 32.4403" stroke="#FF0000"/>
<path fill-rule="evenodd" clip-rule="evenodd" d="M78.8489 17.4661C78.8489 16.644 78.1808 15.9736 77.3541 15.9736C76.532 15.9736 75.8594 16.644 75.8594 17.4661C75.8594 18.2905 76.532 18.9631 77.3541 18.9631C78.1808 18.9631 78.8489 18.2905 78.8489 17.4661Z" fill="#FF0000"/>
<path d="M78.8489 17.4661C78.8489 16.644 78.1808 15.9736 77.3541 15.9736C76.532 15.9736 75.8594 16.644 75.8594 17.4661C75.8594 18.2905 76.532 18.9631 77.3541 18.9631C78.1808 18.9631 78.8489 18.2905 78.8489 17.4661" stroke="#FF0000"/>
<path fill-rule="evenodd" clip-rule="evenodd" d="M78.8489 2.49497C78.8489 1.67059 78.1808 1.0002 77.3541 1.0002C76.532 1.0002 75.8594 1.67059 75.8594 2.49497C75.8594 3.31936 76.532 3.98975 77.3541 3.98975C78.1808 3.98975 78.8489 3.31936 78.8489 2.49497Z" fill="#FF0000"/>
<path d="M78.8489 2.49497C78.8489 1.67058 78.1808 1.0002 77.3541 1.0002C76.532 1.0002 75.8594 1.67059 75.8594 2.49497C75.8594 3.31936 76.532 3.98975 77.3541 3.98975C78.1808 3.98975 78.8489 3.31936 78.8489 2.49497" stroke="#FF0000"/>
<path fill-rule="evenodd" clip-rule="evenodd" d="M93.8196 77.3521C93.8196 76.53 93.1515 75.8573 92.3248 75.8573C91.4982 75.8573 90.8301 76.53 90.8301 77.3521C90.8301 78.1765 91.4982 78.8491 92.3248 78.8491C93.1515 78.8491 93.8196 78.1765 93.8196 77.3521Z" fill="#FF0000"/>
<path d="M93.8196 77.3521C93.8196 76.53 93.1515 75.8573 92.3248 75.8573C91.4982 75.8573 90.8301 76.53 90.8301 77.3521C90.8301 78.1765 91.4982 78.8491 92.3248 78.8491C93.1515 78.8491 93.8196 78.1765 93.8196 77.3521" stroke="#FF0000"/>
<path fill-rule="evenodd" clip-rule="evenodd" d="M93.8196 62.382C93.8196 61.5554 93.1515 60.885 92.3248 60.885C91.4982 60.885 90.8301 61.5554 90.8301 62.382C90.8301 63.2041 91.4982 63.8745 92.3248 63.8745C93.1515 63.8745 93.8196 63.2041 93.8196 62.382Z" fill="#FF0000"/>
<path d="M93.8196 62.382C93.8196 61.5554 93.1515 60.885 92.3248 60.885C91.4982 60.885 90.8301 61.5554 90.8301 62.382C90.8301 63.2041 91.4982 63.8745 92.3248 63.8745C93.1515 63.8745 93.8196 63.2041 93.8196 62.382" stroke="#FF0000"/>
<path fill-rule="evenodd" clip-rule="evenodd" d="M93.8196 47.4088C93.8196 46.5844 93.1515 45.914 92.3248 45.914C91.4982 45.914 90.8301 46.5844 90.8301 47.4088C90.8301 48.2332 91.4982 48.9036 92.3248 48.9036C93.1515 48.9036 93.8196 48.2332 93.8196 47.4088Z" fill="#FF0000"/>
<path d="M93.8196 47.4088C93.8196 46.5844 93.1515 45.914 92.3248 45.914C91.4982 45.914 90.8301 46.5844 90.8301 47.4088C90.8301 48.2332 91.4982 48.9036 92.3248 48.9036C93.1515 48.9036 93.8196 48.2332 93.8196 47.4088" stroke="#FF0000"/>
<path fill-rule="evenodd" clip-rule="evenodd" d="M93.8196 32.4403C93.8196 31.6159 93.1515 30.9455 92.3248 30.9455C91.4982 30.9455 90.8301 31.6159 90.8301 32.4403C90.8301 33.2624 91.4982 33.9351 92.3248 33.9351C93.1515 33.9351 93.8196 33.2624 93.8196 32.4403Z" fill="#FF0000"/>
<path d="M93.8196 32.4403C93.8196 31.6159 93.1515 30.9455 92.3248 30.9455C91.4982 30.9455 90.8301 31.6159 90.8301 32.4403C90.8301 33.2624 91.4982 33.9351 92.3248 33.9351C93.1515 33.9351 93.8196 33.2624 93.8196 32.4403" stroke="#FF0000"/>
<path fill-rule="evenodd" clip-rule="evenodd" d="M93.8196 17.4661C93.8196 16.644 93.1515 15.9736 92.3248 15.9736C91.4982 15.9736 90.8301 16.644 90.8301 17.4661C90.8301 18.2905 91.4982 18.9631 92.3248 18.9631C93.1515 18.9631 93.8196 18.2905 93.8196 17.4661Z" fill="#FF0000"/>
<path d="M93.8196 17.4661C93.8196 16.644 93.1515 15.9736 92.3248 15.9736C91.4982 15.9736 90.8301 16.644 90.8301 17.4661C90.8301 18.2905 91.4982 18.9631 92.3248 18.9631C93.1515 18.9631 93.8196 18.2905 93.8196 17.4661" stroke="#FF0000"/>
<path fill-rule="evenodd" clip-rule="evenodd" d="M93.8196 2.49497C93.8196 1.67059 93.1515 1.0002 92.3248 1.0002C91.4982 1.0002 90.8301 1.67059 90.8301 2.49497C90.8301 3.31936 91.4982 3.98975 92.3248 3.98975C93.1515 3.98975 93.8196 3.31936 93.8196 2.49497Z" fill="#FF0000"/>
<path d="M93.8196 2.49497C93.8196 1.67058 93.1515 1.0002 92.3248 1.0002C91.4982 1.0002 90.8301 1.67059 90.8301 2.49497C90.8301 3.31936 91.4982 3.98975 92.3248 3.98975C93.1515 3.98975 93.8196 3.31936 93.8196 2.49497" stroke="#FF0000"/>
<path fill-rule="evenodd" clip-rule="evenodd" d="M110.751 77.3521C110.751 76.53 110.083 75.8573 109.256 75.8573C108.432 75.8573 107.762 76.53 107.762 77.3521C107.762 78.1765 108.432 78.8491 109.256 78.8491C110.083 78.8491 110.751 78.1765 110.751 77.3521Z" fill="#FF0000"/>
<path d="M110.751 77.3521C110.751 76.53 110.083 75.8573 109.256 75.8573C108.432 75.8573 107.762 76.53 107.762 77.3521C107.762 78.1765 108.432 78.8491 109.256 78.8491C110.083 78.8491 110.751 78.1765 110.751 77.3521" stroke="#FF0000"/>
<path fill-rule="evenodd" clip-rule="evenodd" d="M110.751 62.382C110.751 61.5554 110.083 60.885 109.256 60.885C108.432 60.885 107.762 61.5554 107.762 62.382C107.762 63.2041 108.432 63.8745 109.256 63.8745C110.083 63.8745 110.751 63.2041 110.751 62.382Z" fill="#FF0000"/>
<path d="M110.751 62.382C110.751 61.5554 110.083 60.885 109.256 60.885C108.432 60.885 107.762 61.5554 107.762 62.382C107.762 63.2041 108.432 63.8745 109.256 63.8745C110.083 63.8745 110.751 63.2041 110.751 62.382" stroke="#FF0000"/>
<path fill-rule="evenodd" clip-rule="evenodd" d="M110.751 47.4088C110.751 46.5844 110.083 45.914 109.256 45.914C108.432 45.914 107.762 46.5844 107.762 47.4088C107.762 48.2332 108.432 48.9036 109.256 48.9036C110.083 48.9036 110.751 48.2332 110.751 47.4088Z" fill="#FF0000"/>
<path d="M110.751 47.4088C110.751 46.5844 110.083 45.914 109.256 45.914C108.432 45.914 107.762 46.5844 107.762 47.4088C107.762 48.2332 108.432 48.9036 109.256 48.9036C110.083 48.9036 110.751 48.2332 110.751 47.4088" stroke="#FF0000"/>
<path fill-rule="evenodd" clip-rule="evenodd" d="M110.751 32.4403C110.751 31.6159 110.083 30.9455 109.256 30.9455C108.432 30.9455 107.762 31.6159 107.762 32.4403C107.762 33.2624 108.432 33.9351 109.256 33.9351C110.083 33.9351 110.751 33.2624 110.751 32.4403Z" fill="#FF0000"/>
<path d="M110.751 32.4403C110.751 31.6159 110.083 30.9455 109.256 30.9455C108.432 30.9455 107.762 31.6159 107.762 32.4403C107.762 33.2624 108.432 33.9351 109.256 33.9351C110.083 33.9351 110.751 33.2624 110.751 32.4403" stroke="#FF0000"/>
<path fill-rule="evenodd" clip-rule="evenodd" d="M110.751 17.4659C110.751 16.6437 110.083 15.9733 109.256 15.9733C108.432 15.9733 107.762 16.6437 107.762 17.4659C107.762 18.2902 108.432 18.9629 109.256 18.9629C110.083 18.9629 110.751 18.2902 110.751 17.4659Z" fill="#FF0000"/>
<path d="M110.751 17.4659C110.751 16.6437 110.083 15.9733 109.256 15.9733C108.432 15.9733 107.762 16.6437 107.762 17.4659C107.762 18.2902 108.432 18.9629 109.256 18.9629C110.083 18.9629 110.751 18.2902 110.751 17.4659" stroke="#FF0000"/>
<path fill-rule="evenodd" clip-rule="evenodd" d="M110.751 2.49497C110.751 1.67059 110.083 1.0002 109.256 1.0002C108.432 1.0002 107.762 1.67059 107.762 2.49497C107.762 3.31936 108.432 3.98975 109.256 3.98975C110.083 3.98975 110.751 3.31936 110.751 2.49497Z" fill="#FF0000"/>
<path d="M110.751 2.49497C110.751 1.67058 110.083 1.0002 109.256 1.0002C108.432 1.0002 107.762 1.67059 107.762 2.49497C107.762 3.31936 108.432 3.98975 109.256 3.98975C110.083 3.98975 110.751 3.31936 110.751 2.49497" stroke="#FF0000"/>
<path fill-rule="evenodd" clip-rule="evenodd" d="M125.726 77.3521C125.726 76.53 125.058 75.8573 124.231 75.8573C123.404 75.8573 122.736 76.53 122.736 77.3521C122.736 78.1765 123.404 78.8491 124.231 78.8491C125.058 78.8491 125.726 78.1765 125.726 77.3521Z" fill="#FF0000"/>
<path d="M125.726 77.3521C125.726 76.53 125.058 75.8573 124.231 75.8573C123.404 75.8573 122.736 76.53 122.736 77.3521C122.736 78.1765 123.404 78.8491 124.231 78.8491C125.058 78.8491 125.726 78.1765 125.726 77.3521" stroke="#FF0000"/>
<path fill-rule="evenodd" clip-rule="evenodd" d="M125.726 62.382C125.726 61.5554 125.058 60.885 124.231 60.885C123.404 60.885 122.736 61.5554 122.736 62.382C122.736 63.2041 123.404 63.8745 124.231 63.8745C125.058 63.8745 125.726 63.2041 125.726 62.382Z" fill="#FF0000"/>
<path d="M125.726 62.382C125.726 61.5554 125.058 60.885 124.231 60.885C123.404 60.885 122.736 61.5554 122.736 62.382C122.736 63.2041 123.404 63.8745 124.231 63.8745C125.058 63.8745 125.726 63.2041 125.726 62.382" stroke="#FF0000"/>
<path fill-rule="evenodd" clip-rule="evenodd" d="M125.726 47.4088C125.726 46.5844 125.058 45.914 124.231 45.914C123.404 45.914 122.736 46.5844 122.736 47.4088C122.736 48.2332 123.404 48.9036 124.231 48.9036C125.058 48.9036 125.726 48.2332 125.726 47.4088Z" fill="#FF0000"/>
<path d="M125.726 47.4088C125.726 46.5844 125.058 45.914 124.231 45.914C123.404 45.914 122.736 46.5844 122.736 47.4088C122.736 48.2332 123.404 48.9036 124.231 48.9036C125.058 48.9036 125.726 48.2332 125.726 47.4088" stroke="#FF0000"/>
<path fill-rule="evenodd" clip-rule="evenodd" d="M125.726 32.4403C125.726 31.6159 125.058 30.9455 124.231 30.9455C123.404 30.9455 122.736 31.6159 122.736 32.4403C122.736 33.2624 123.404 33.9351 124.231 33.9351C125.058 33.9351 125.726 33.2624 125.726 32.4403Z" fill="#FF0000"/>
<path d="M125.726 32.4403C125.726 31.6159 125.058 30.9455 124.231 30.9455C123.404 30.9455 122.736 31.6159 122.736 32.4403C122.736 33.2624 123.404 33.9351 124.231 33.9351C125.058 33.9351 125.726 33.2624 125.726 32.4403" stroke="#FF0000"/>
<path fill-rule="evenodd" clip-rule="evenodd" d="M125.726 17.4659C125.726 16.6437 125.058 15.9733 124.231 15.9733C123.404 15.9733 122.736 16.6437 122.736 17.4659C122.736 18.2902 123.404 18.9629 124.231 18.9629C125.058 18.9629 125.726 18.2902 125.726 17.4659Z" fill="#FF0000"/>
<path d="M125.726 17.4659C125.726 16.6437 125.058 15.9733 124.231 15.9733C123.404 15.9733 122.736 16.6437 122.736 17.4659C122.736 18.2902 123.404 18.9629 124.231 18.9629C125.058 18.9629 125.726 18.2902 125.726 17.4659" stroke="#FF0000"/>
<path fill-rule="evenodd" clip-rule="evenodd" d="M125.726 2.49497C125.726 1.67059 125.058 1.0002 124.231 1.0002C123.404 1.0002 122.736 1.67059 122.736 2.49497C122.736 3.31936 123.404 3.98975 124.231 3.98975C125.058 3.98975 125.726 3.31936 125.726 2.49497Z" fill="#FF0000"/>
<path d="M125.726 2.49497C125.726 1.67058 125.058 1.0002 124.231 1.0002C123.404 1.0002 122.736 1.67059 122.736 2.49497C122.736 3.31936 123.404 3.98975 124.231 3.98975C125.058 3.98975 125.726 3.31936 125.726 2.49497" stroke="#FF0000"/>
<path fill-rule="evenodd" clip-rule="evenodd" d="M140.697 77.3521C140.697 76.53 140.026 75.8573 139.202 75.8573C138.377 75.8573 137.707 76.53 137.707 77.3521C137.707 78.1765 138.377 78.8491 139.202 78.8491C140.026 78.8491 140.697 78.1765 140.697 77.3521Z" fill="#FF0000"/>
<path d="M140.697 77.3521C140.697 76.53 140.026 75.8573 139.202 75.8573C138.377 75.8573 137.707 76.53 137.707 77.3521C137.707 78.1765 138.377 78.8491 139.202 78.8491C140.026 78.8491 140.697 78.1765 140.697 77.3521" stroke="#FF0000"/>
<path fill-rule="evenodd" clip-rule="evenodd" d="M140.697 62.382C140.697 61.5554 140.026 60.885 139.202 60.885C138.377 60.885 137.707 61.5554 137.707 62.382C137.707 63.2041 138.377 63.8745 139.202 63.8745C140.026 63.8745 140.697 63.2041 140.697 62.382Z" fill="#FF0000"/>
<path d="M140.697 62.382C140.697 61.5554 140.026 60.885 139.202 60.885C138.377 60.885 137.707 61.5554 137.707 62.382C137.707 63.2041 138.377 63.8745 139.202 63.8745C140.026 63.8745 140.697 63.2041 140.697 62.382" stroke="#FF0000"/>
<path fill-rule="evenodd" clip-rule="evenodd" d="M140.697 47.4088C140.697 46.5844 140.026 45.914 139.202 45.914C138.377 45.914 137.707 46.5844 137.707 47.4088C137.707 48.2332 138.377 48.9036 139.202 48.9036C140.026 48.9036 140.697 48.2332 140.697 47.4088Z" fill="#FF0000"/>
<path d="M140.697 47.4088C140.697 46.5844 140.026 45.914 139.202 45.914C138.377 45.914 137.707 46.5844 137.707 47.4088C137.707 48.2332 138.377 48.9036 139.202 48.9036C140.026 48.9036 140.697 48.2332 140.697 47.4088" stroke="#FF0000"/>
<path fill-rule="evenodd" clip-rule="evenodd" d="M140.697 32.4403C140.697 31.6159 140.026 30.9455 139.202 30.9455C138.377 30.9455 137.707 31.6159 137.707 32.4403C137.707 33.2624 138.377 33.9351 139.202 33.9351C140.026 33.9351 140.697 33.2624 140.697 32.4403Z" fill="#FF0000"/>
<path d="M140.697 32.4403C140.697 31.6159 140.026 30.9455 139.202 30.9455C138.377 30.9455 137.707 31.6159 137.707 32.4403C137.707 33.2624 138.377 33.9351 139.202 33.9351C140.026 33.9351 140.697 33.2624 140.697 32.4403" stroke="#FF0000"/>
<path fill-rule="evenodd" clip-rule="evenodd" d="M140.697 17.4659C140.697 16.6437 140.026 15.9733 139.202 15.9733C138.377 15.9733 137.707 16.6437 137.707 17.4659C137.707 18.2902 138.377 18.9629 139.202 18.9629C140.026 18.9629 140.697 18.2902 140.697 17.4659Z" fill="#FF0000"/>
<path d="M140.697 17.4659C140.697 16.6437 140.026 15.9733 139.202 15.9733C138.377 15.9733 137.707 16.6437 137.707 17.4659C137.707 18.2902 138.377 18.9629 139.202 18.9629C140.026 18.9629 140.697 18.2902 140.697 17.4659" stroke="#FF0000"/>
<path fill-rule="evenodd" clip-rule="evenodd" d="M140.697 2.49497C140.697 1.67059 140.026 1.0002 139.202 1.0002C138.377 1.0002 137.707 1.67059 137.707 2.49497C137.707 3.31936 138.377 3.98975 139.202 3.98975C140.026 3.98975 140.697 3.31936 140.697 2.49497Z" fill="#FF0000"/>
<path d="M140.697 2.49497C140.697 1.67058 140.026 1.0002 139.202 1.0002C138.377 1.0002 137.707 1.67059 137.707 2.49497C137.707 3.31936 138.377 3.98975 139.202 3.98975C140.026 3.98975 140.697 3.31936 140.697 2.49497" stroke="#FF0000"/>
<path fill-rule="evenodd" clip-rule="evenodd" d="M155.665 77.3521C155.665 76.53 154.997 75.8573 154.171 75.8573C153.344 75.8573 152.676 76.53 152.676 77.3521C152.676 78.1765 153.344 78.8491 154.171 78.8491C154.997 78.8491 155.665 78.1765 155.665 77.3521Z" fill="#FF0000"/>
<path d="M155.665 77.3521C155.665 76.53 154.997 75.8573 154.171 75.8573C153.344 75.8573 152.676 76.53 152.676 77.3521C152.676 78.1765 153.344 78.8491 154.171 78.8491C154.997 78.8491 155.665 78.1765 155.665 77.3521" stroke="#FF0000"/>
<path fill-rule="evenodd" clip-rule="evenodd" d="M155.665 62.382C155.665 61.5554 154.997 60.885 154.171 60.885C153.344 60.885 152.676 61.5554 152.676 62.382C152.676 63.2041 153.344 63.8745 154.171 63.8745C154.997 63.8745 155.665 63.2041 155.665 62.382Z" fill="#FF0000"/>
<path d="M155.665 62.382C155.665 61.5554 154.997 60.885 154.171 60.885C153.344 60.885 152.676 61.5554 152.676 62.382C152.676 63.2041 153.344 63.8745 154.171 63.8745C154.997 63.8745 155.665 63.2041 155.665 62.382" stroke="#FF0000"/>
<path fill-rule="evenodd" clip-rule="evenodd" d="M155.665 47.4088C155.665 46.5844 154.997 45.914 154.171 45.914C153.344 45.914 152.676 46.5844 152.676 47.4088C152.676 48.2332 153.344 48.9036 154.171 48.9036C154.997 48.9036 155.665 48.2332 155.665 47.4088Z" fill="#FF0000"/>
<path d="M155.665 47.4088C155.665 46.5844 154.997 45.914 154.171 45.914C153.344 45.914 152.676 46.5844 152.676 47.4088C152.676 48.2332 153.344 48.9036 154.171 48.9036C154.997 48.9036 155.665 48.2332 155.665 47.4088" stroke="#FF0000"/>
<path fill-rule="evenodd" clip-rule="evenodd" d="M155.665 32.4403C155.665 31.6159 154.997 30.9455 154.171 30.9455C153.344 30.9455 152.676 31.6159 152.676 32.4403C152.676 33.2624 153.344 33.9351 154.171 33.9351C154.997 33.9351 155.665 33.2624 155.665 32.4403Z" fill="#FF0000"/>
<path d="M155.665 32.4403C155.665 31.6159 154.997 30.9455 154.171 30.9455C153.344 30.9455 152.676 31.6159 152.676 32.4403C152.676 33.2624 153.344 33.9351 154.171 33.9351C154.997 33.9351 155.665 33.2624 155.665 32.4403" stroke="#FF0000"/>
<path fill-rule="evenodd" clip-rule="evenodd" d="M155.665 17.4659C155.665 16.6437 154.997 15.9733 154.171 15.9733C153.344 15.9733 152.676 16.6437 152.676 17.4659C152.676 18.2902 153.344 18.9629 154.171 18.9629C154.997 18.9629 155.665 18.2902 155.665 17.4659Z" fill="#FF0000"/>
<path d="M155.665 17.4659C155.665 16.6437 154.997 15.9733 154.171 15.9733C153.344 15.9733 152.676 16.6437 152.676 17.4659C152.676 18.2902 153.344 18.9629 154.171 18.9629C154.997 18.9629 155.665 18.2902 155.665 17.4659" stroke="#FF0000"/>
<path fill-rule="evenodd" clip-rule="evenodd" d="M155.665 2.49497C155.665 1.67059 154.997 1.0002 154.171 1.0002C153.344 1.0002 152.676 1.67059 152.676 2.49497C152.676 3.31936 153.344 3.98975 154.171 3.98975C154.997 3.98975 155.665 3.31936 155.665 2.49497Z" fill="#FF0000"/>
<path d="M155.665 2.49497C155.665 1.67058 154.997 1.0002 154.171 1.0002C153.344 1.0002 152.676 1.67059 152.676 2.49497C152.676 3.31936 153.344 3.98975 154.171 3.98975C154.997 3.98975 155.665 3.31936 155.665 2.49497" stroke="#FF0000"/>
<path fill-rule="evenodd" clip-rule="evenodd" d="M170.64 77.3521C170.64 76.53 169.97 75.8573 169.145 75.8573C168.319 75.8573 167.65 76.53 167.65 77.3521C167.65 78.1765 168.319 78.8491 169.145 78.8491C169.97 78.8491 170.64 78.1765 170.64 77.3521Z" fill="#FF0000"/>
<path d="M170.64 77.3521C170.64 76.53 169.97 75.8573 169.145 75.8573C168.319 75.8573 167.65 76.53 167.65 77.3521C167.65 78.1765 168.319 78.8491 169.145 78.8491C169.97 78.8491 170.64 78.1765 170.64 77.3521" stroke="#FF0000"/>
<path fill-rule="evenodd" clip-rule="evenodd" d="M170.64 62.382C170.64 61.5554 169.97 60.885 169.145 60.885C168.319 60.885 167.65 61.5554 167.65 62.382C167.65 63.2041 168.319 63.8745 169.145 63.8745C169.97 63.8745 170.64 63.2041 170.64 62.382Z" fill="#FF0000"/>
<path d="M170.64 62.382C170.64 61.5554 169.97 60.885 169.145 60.885C168.319 60.885 167.65 61.5554 167.65 62.382C167.65 63.2041 168.319 63.8745 169.145 63.8745C169.97 63.8745 170.64 63.2041 170.64 62.382" stroke="#FF0000"/>
<path fill-rule="evenodd" clip-rule="evenodd" d="M170.64 47.4088C170.64 46.5844 169.97 45.914 169.145 45.914C168.319 45.914 167.65 46.5844 167.65 47.4088C167.65 48.2332 168.319 48.9036 169.145 48.9036C169.97 48.9036 170.64 48.2332 170.64 47.4088Z" fill="#FF0000"/>
<path d="M170.64 47.4088C170.64 46.5844 169.97 45.914 169.145 45.914C168.319 45.914 167.65 46.5844 167.65 47.4088C167.65 48.2332 168.319 48.9036 169.145 48.9036C169.97 48.9036 170.64 48.2332 170.64 47.4088" stroke="#FF0000"/>
<path fill-rule="evenodd" clip-rule="evenodd" d="M170.64 32.4403C170.64 31.6159 169.97 30.9455 169.145 30.9455C168.319 30.9455 167.65 31.6159 167.65 32.4403C167.65 33.2624 168.319 33.9351 169.145 33.9351C169.97 33.9351 170.64 33.2624 170.64 32.4403Z" fill="#FF0000"/>
<path d="M170.64 32.4403C170.64 31.6159 169.97 30.9455 169.145 30.9455C168.319 30.9455 167.65 31.6159 167.65 32.4403C167.65 33.2624 168.319 33.9351 169.145 33.9351C169.97 33.9351 170.64 33.2624 170.64 32.4403" stroke="#FF0000"/>
<path fill-rule="evenodd" clip-rule="evenodd" d="M170.64 17.4661C170.64 16.644 169.97 15.9736 169.145 15.9736C168.319 15.9736 167.65 16.644 167.65 17.4661C167.65 18.2905 168.319 18.9631 169.145 18.9631C169.97 18.9631 170.64 18.2905 170.64 17.4661Z" fill="#FF0000"/>
<path d="M170.64 17.4661C170.64 16.644 169.97 15.9736 169.145 15.9736C168.319 15.9736 167.65 16.644 167.65 17.4661C167.65 18.2905 168.319 18.9631 169.145 18.9631C169.97 18.9631 170.64 18.2905 170.64 17.4661" stroke="#FF0000"/>
<path fill-rule="evenodd" clip-rule="evenodd" d="M170.64 2.49497C170.64 1.67059 169.97 1.0002 169.145 1.0002C168.319 1.0002 167.65 1.67059 167.65 2.49497C167.65 3.31936 168.319 3.98975 169.145 3.98975C169.97 3.98975 170.64 3.31936 170.64 2.49497Z" fill="#FF0000"/>
<path d="M170.64 2.49497C170.64 1.67058 169.97 1.0002 169.145 1.0002C168.319 1.0002 167.65 1.67059 167.65 2.49497C167.65 3.31936 168.319 3.98975 169.145 3.98975C169.97 3.98975 170.64 3.31936 170.64 2.49497" stroke="#FF0000"/>
<path fill-rule="evenodd" clip-rule="evenodd" d="M185.611 77.3521C185.611 76.53 184.943 75.8573 184.116 75.8573C183.294 75.8573 182.621 76.53 182.621 77.3521C182.621 78.1765 183.294 78.8491 184.116 78.8491C184.943 78.8491 185.611 78.1765 185.611 77.3521Z" fill="#FF0000"/>
<path d="M185.611 77.3521C185.611 76.53 184.943 75.8573 184.116 75.8573C183.294 75.8573 182.621 76.53 182.621 77.3521C182.621 78.1765 183.294 78.8491 184.116 78.8491C184.943 78.8491 185.611 78.1765 185.611 77.3521" stroke="#FF0000"/>
<path fill-rule="evenodd" clip-rule="evenodd" d="M185.611 62.382C185.611 61.5554 184.943 60.885 184.116 60.885C183.294 60.885 182.621 61.5554 182.621 62.382C182.621 63.2041 183.294 63.8745 184.116 63.8745C184.943 63.8745 185.611 63.2041 185.611 62.382Z" fill="#FF0000"/>
<path d="M185.611 62.382C185.611 61.5554 184.943 60.885 184.116 60.885C183.294 60.885 182.621 61.5554 182.621 62.382C182.621 63.2041 183.294 63.8745 184.116 63.8745C184.943 63.8745 185.611 63.2041 185.611 62.382" stroke="#FF0000"/>
<path fill-rule="evenodd" clip-rule="evenodd" d="M185.611 47.4088C185.611 46.5844 184.943 45.914 184.116 45.914C183.294 45.914 182.621 46.5844 182.621 47.4088C182.621 48.2332 183.294 48.9036 184.116 48.9036C184.943 48.9036 185.611 48.2332 185.611 47.4088Z" fill="#FF0000"/>
<path d="M185.611 47.4088C185.611 46.5844 184.943 45.914 184.116 45.914C183.294 45.914 182.621 46.5844 182.621 47.4088C182.621 48.2332 183.294 48.9036 184.116 48.9036C184.943 48.9036 185.611 48.2332 185.611 47.4088" stroke="#FF0000"/>
<path fill-rule="evenodd" clip-rule="evenodd" d="M185.611 32.4403C185.611 31.6159 184.943 30.9455 184.116 30.9455C183.294 30.9455 182.621 31.6159 182.621 32.4403C182.621 33.2624 183.294 33.9351 184.116 33.9351C184.943 33.9351 185.611 33.2624 185.611 32.4403Z" fill="#FF0000"/>
<path d="M185.611 32.4403C185.611 31.6159 184.943 30.9455 184.116 30.9455C183.294 30.9455 182.621 31.6159 182.621 32.4403C182.621 33.2624 183.294 33.9351 184.116 33.9351C184.943 33.9351 185.611 33.2624 185.611 32.4403" stroke="#FF0000"/>
<path fill-rule="evenodd" clip-rule="evenodd" d="M185.611 17.4661C185.611 16.644 184.943 15.9736 184.116 15.9736C183.294 15.9736 182.621 16.644 182.621 17.4661C182.621 18.2905 183.294 18.9631 184.116 18.9631C184.943 18.9631 185.611 18.2905 185.611 17.4661Z" fill="#FF0000"/>
<path d="M185.611 17.4661C185.611 16.644 184.943 15.9736 184.116 15.9736C183.294 15.9736 182.621 16.644 182.621 17.4661C182.621 18.2905 183.294 18.9631 184.116 18.9631C184.943 18.9631 185.611 18.2905 185.611 17.4661" stroke="#FF0000"/>
<path fill-rule="evenodd" clip-rule="evenodd" d="M185.611 2.49497C185.611 1.67059 184.943 1.0002 184.116 1.0002C183.294 1.0002 182.621 1.67059 182.621 2.49497C182.621 3.31936 183.294 3.98975 184.116 3.98975C184.943 3.98975 185.611 3.31936 185.611 2.49497Z" fill="#FF0000"/>
<path d="M185.611 2.49497C185.611 1.67058 184.943 1.0002 184.116 1.0002C183.294 1.0002 182.621 1.67059 182.621 2.49497C182.621 3.31936 183.294 3.98975 184.116 3.98975C184.943 3.98975 185.611 3.31936 185.611 2.49497" stroke="#FF0000"/>
<path fill-rule="evenodd" clip-rule="evenodd" d="M200.581 77.3521C200.581 76.53 199.913 75.8573 199.087 75.8573C198.26 75.8573 197.592 76.53 197.592 77.3521C197.592 78.1765 198.26 78.8491 199.087 78.8491C199.913 78.8491 200.581 78.1765 200.581 77.3521Z" fill="#FF0000"/>
<path d="M200.581 77.3521C200.581 76.53 199.913 75.8573 199.087 75.8573C198.26 75.8573 197.592 76.53 197.592 77.3521C197.592 78.1765 198.26 78.8491 199.087 78.8491C199.913 78.8491 200.581 78.1765 200.581 77.3521" stroke="#FF0000"/>
<path fill-rule="evenodd" clip-rule="evenodd" d="M200.581 62.382C200.581 61.5554 199.913 60.885 199.087 60.885C198.26 60.885 197.592 61.5554 197.592 62.382C197.592 63.2041 198.26 63.8745 199.087 63.8745C199.913 63.8745 200.581 63.2041 200.581 62.382Z" fill="#FF0000"/>
<path d="M200.581 62.382C200.581 61.5554 199.913 60.885 199.087 60.885C198.26 60.885 197.592 61.5554 197.592 62.382C197.592 63.2041 198.26 63.8745 199.087 63.8745C199.913 63.8745 200.581 63.2041 200.581 62.382" stroke="#FF0000"/>
<path fill-rule="evenodd" clip-rule="evenodd" d="M200.581 47.4088C200.581 46.5844 199.913 45.914 199.087 45.914C198.26 45.914 197.592 46.5844 197.592 47.4088C197.592 48.2332 198.26 48.9036 199.087 48.9036C199.913 48.9036 200.581 48.2332 200.581 47.4088Z" fill="#FF0000"/>
<path d="M200.581 47.4088C200.581 46.5844 199.913 45.914 199.087 45.914C198.26 45.914 197.592 46.5844 197.592 47.4088C197.592 48.2332 198.26 48.9036 199.087 48.9036C199.913 48.9036 200.581 48.2332 200.581 47.4088" stroke="#FF0000"/>
<path fill-rule="evenodd" clip-rule="evenodd" d="M200.581 32.4403C200.581 31.6159 199.913 30.9455 199.087 30.9455C198.26 30.9455 197.592 31.6159 197.592 32.4403C197.592 33.2624 198.26 33.9351 199.087 33.9351C199.913 33.9351 200.581 33.2624 200.581 32.4403Z" fill="#FF0000"/>
<path d="M200.581 32.4403C200.581 31.6159 199.913 30.9455 199.087 30.9455C198.26 30.9455 197.592 31.6159 197.592 32.4403C197.592 33.2624 198.26 33.9351 199.087 33.9351C199.913 33.9351 200.581 33.2624 200.581 32.4403" stroke="#FF0000"/>
<path fill-rule="evenodd" clip-rule="evenodd" d="M200.581 17.4659C200.581 16.6437 199.913 15.9733 199.087 15.9733C198.26 15.9733 197.592 16.6437 197.592 17.4659C197.592 18.2902 198.26 18.9629 199.087 18.9629C199.913 18.9629 200.581 18.2902 200.581 17.4659Z" fill="#FF0000"/>
<path d="M200.581 17.4659C200.581 16.6437 199.913 15.9733 199.087 15.9733C198.26 15.9733 197.592 16.6437 197.592 17.4659C197.592 18.2902 198.26 18.9629 199.087 18.9629C199.913 18.9629 200.581 18.2902 200.581 17.4659" stroke="#FF0000"/>
<path fill-rule="evenodd" clip-rule="evenodd" d="M200.581 2.49497C200.581 1.67059 199.913 1.0002 199.087 1.0002C198.26 1.0002 197.592 1.67059 197.592 2.49497C197.592 3.31936 198.26 3.98975 199.087 3.98975C199.913 3.98975 200.581 3.31936 200.581 2.49497Z" fill="#FF0000"/>
<path d="M200.581 2.49497C200.581 1.67058 199.913 1.0002 199.087 1.0002C198.26 1.0002 197.592 1.67059 197.592 2.49497C197.592 3.31936 198.26 3.98975 199.087 3.98975C199.913 3.98975 200.581 3.31936 200.581 2.49497" stroke="#FF0000"/>
<path fill-rule="evenodd" clip-rule="evenodd" d="M216.408 78.4641C216.408 77.642 215.739 76.9694 214.913 76.9694C214.088 76.9694 213.418 77.642 213.418 78.4641C213.418 79.2885 214.088 79.9612 214.913 79.9612C215.739 79.9612 216.408 79.2885 216.408 78.4641Z" fill="#FF0000"/>
<path d="M216.408 78.4641C216.408 77.642 215.739 76.9694 214.913 76.9694C214.088 76.9694 213.418 77.642 213.418 78.4641C213.418 79.2885 214.088 79.9612 214.913 79.9612C215.739 79.9612 216.408 79.2885 216.408 78.4641" stroke="#FF0000"/>
<path fill-rule="evenodd" clip-rule="evenodd" d="M216.408 63.4941C216.408 62.6674 215.739 61.997 214.913 61.997C214.088 61.997 213.418 62.6674 213.418 63.4941C213.418 64.3162 214.088 64.9866 214.913 64.9866C215.739 64.9866 216.408 64.3162 216.408 63.4941Z" fill="#FF0000"/>
<path d="M216.408 63.4941C216.408 62.6674 215.739 61.997 214.913 61.997C214.088 61.997 213.418 62.6674 213.418 63.4941C213.418 64.3162 214.088 64.9866 214.913 64.9866C215.739 64.9866 216.408 64.3162 216.408 63.4941" stroke="#FF0000"/>
<path fill-rule="evenodd" clip-rule="evenodd" d="M216.408 48.5209C216.408 47.6965 215.739 47.0261 214.913 47.0261C214.088 47.0261 213.418 47.6965 213.418 48.5209C213.418 49.3452 214.088 50.0156 214.913 50.0156C215.739 50.0156 216.408 49.3452 216.408 48.5209Z" fill="#FF0000"/>
<path d="M216.408 48.5209C216.408 47.6965 215.739 47.0261 214.913 47.0261C214.088 47.0261 213.418 47.6965 213.418 48.5209C213.418 49.3452 214.088 50.0156 214.913 50.0156C215.739 50.0156 216.408 49.3452 216.408 48.5209" stroke="#FF0000"/>
<path fill-rule="evenodd" clip-rule="evenodd" d="M216.408 33.5523C216.408 32.728 215.739 32.0576 214.913 32.0576C214.088 32.0576 213.418 32.728 213.418 33.5523C213.418 34.3745 214.088 35.0471 214.913 35.0471C215.739 35.0471 216.408 34.3745 216.408 33.5523Z" fill="#FF0000"/>
<path d="M216.408 33.5523C216.408 32.728 215.739 32.0576 214.913 32.0576C214.088 32.0576 213.418 32.728 213.418 33.5523C213.418 34.3745 214.088 35.0471 214.913 35.0471C215.739 35.0471 216.408 34.3745 216.408 33.5523" stroke="#FF0000"/>
<path fill-rule="evenodd" clip-rule="evenodd" d="M216.408 18.5782C216.408 17.756 215.739 17.0857 214.913 17.0857C214.088 17.0857 213.418 17.756 213.418 18.5782C213.418 19.4025 214.088 20.0752 214.913 20.0752C215.739 20.0752 216.408 19.4025 216.408 18.5782Z" fill="#FF0000"/>
<path d="M216.408 18.5782C216.408 17.756 215.739 17.0857 214.913 17.0857C214.088 17.0857 213.418 17.756 213.418 18.5782C213.418 19.4025 214.088 20.0752 214.913 20.0752C215.739 20.0752 216.408 19.4025 216.408 18.5782" stroke="#FF0000"/>
<path fill-rule="evenodd" clip-rule="evenodd" d="M216.408 3.60703C216.408 2.78265 215.739 2.11226 214.913 2.11226C214.088 2.11226 213.418 2.78265 213.418 3.60703C213.418 4.43142 214.088 5.10181 214.913 5.10181C215.739 5.10181 216.408 4.43142 216.408 3.60703Z" fill="#FF0000"/>
<path d="M216.408 3.60703C216.408 2.78265 215.739 2.11226 214.913 2.11226C214.088 2.11226 213.418 2.78265 213.418 3.60703C213.418 4.43142 214.088 5.10181 214.913 5.10181C215.739 5.10181 216.408 4.43142 216.408 3.60703" stroke="#FF0000"/>
<path fill-rule="evenodd" clip-rule="evenodd" d="M231.382 78.4641C231.382 77.642 230.714 76.9694 229.887 76.9694C229.061 76.9694 228.393 77.642 228.393 78.4641C228.393 79.2885 229.061 79.9612 229.887 79.9612C230.714 79.9612 231.382 79.2885 231.382 78.4641Z" fill="#FF0000"/>
<path d="M231.382 78.4641C231.382 77.642 230.714 76.9694 229.887 76.9694C229.061 76.9694 228.393 77.642 228.393 78.4641C228.393 79.2885 229.061 79.9612 229.887 79.9612C230.714 79.9612 231.382 79.2885 231.382 78.4641" stroke="#FF0000"/>
<path fill-rule="evenodd" clip-rule="evenodd" d="M231.382 63.4941C231.382 62.6674 230.714 61.997 229.887 61.997C229.061 61.997 228.393 62.6674 228.393 63.4941C228.393 64.3162 229.061 64.9866 229.887 64.9866C230.714 64.9866 231.382 64.3162 231.382 63.4941Z" fill="#FF0000"/>
<path d="M231.382 63.4941C231.382 62.6674 230.714 61.997 229.887 61.997C229.061 61.997 228.393 62.6674 228.393 63.4941C228.393 64.3162 229.061 64.9866 229.887 64.9866C230.714 64.9866 231.382 64.3162 231.382 63.4941" stroke="#FF0000"/>
<path fill-rule="evenodd" clip-rule="evenodd" d="M231.382 48.5209C231.382 47.6965 230.714 47.0261 229.887 47.0261C229.061 47.0261 228.393 47.6965 228.393 48.5209C228.393 49.3452 229.061 50.0156 229.887 50.0156C230.714 50.0156 231.382 49.3452 231.382 48.5209Z" fill="#FF0000"/>
<path d="M231.382 48.5209C231.382 47.6965 230.714 47.0261 229.887 47.0261C229.061 47.0261 228.393 47.6965 228.393 48.5209C228.393 49.3452 229.061 50.0156 229.887 50.0156C230.714 50.0156 231.382 49.3452 231.382 48.5209" stroke="#FF0000"/>
<path fill-rule="evenodd" clip-rule="evenodd" d="M231.382 33.5523C231.382 32.728 230.714 32.0576 229.887 32.0576C229.061 32.0576 228.393 32.728 228.393 33.5523C228.393 34.3745 229.061 35.0471 229.887 35.0471C230.714 35.0471 231.382 34.3745 231.382 33.5523Z" fill="#FF0000"/>
<path d="M231.382 33.5523C231.382 32.728 230.714 32.0576 229.887 32.0576C229.061 32.0576 228.393 32.728 228.393 33.5523C228.393 34.3745 229.061 35.0471 229.887 35.0471C230.714 35.0471 231.382 34.3745 231.382 33.5523" stroke="#FF0000"/>
<path fill-rule="evenodd" clip-rule="evenodd" d="M231.382 18.5779C231.382 17.7558 230.714 17.0854 229.887 17.0854C229.061 17.0854 228.393 17.7558 228.393 18.5779C228.393 19.4023 229.061 20.075 229.887 20.075C230.714 20.075 231.382 19.4023 231.382 18.5779Z" fill="#FF0000"/>
<path d="M231.382 18.5779C231.382 17.7558 230.714 17.0854 229.887 17.0854C229.061 17.0854 228.393 17.7558 228.393 18.5779C228.393 19.4023 229.061 20.075 229.887 20.075C230.714 20.075 231.382 19.4023 231.382 18.5779" stroke="#FF0000"/>
<path fill-rule="evenodd" clip-rule="evenodd" d="M231.382 3.60703C231.382 2.78265 230.714 2.11226 229.887 2.11226C229.061 2.11226 228.393 2.78265 228.393 3.60703C228.393 4.43142 229.061 5.10181 229.887 5.10181C230.714 5.10181 231.382 4.43142 231.382 3.60703Z" fill="#FF0000"/>
<path d="M231.382 3.60703C231.382 2.78265 230.714 2.11226 229.887 2.11226C229.061 2.11226 228.393 2.78265 228.393 3.60703C228.393 4.43142 229.061 5.10181 229.887 5.10181C230.714 5.10181 231.382 4.43142 231.382 3.60703" stroke="#FF0000"/>
<path fill-rule="evenodd" clip-rule="evenodd" d="M246.353 78.4641C246.353 77.642 245.682 76.9694 244.858 76.9694C244.034 76.9694 243.363 77.642 243.363 78.4641C243.363 79.2885 244.034 79.9612 244.858 79.9612C245.682 79.9612 246.353 79.2885 246.353 78.4641Z" fill="#FF0000"/>
<path d="M246.353 78.4641C246.353 77.642 245.682 76.9694 244.858 76.9694C244.034 76.9694 243.363 77.642 243.363 78.4641C243.363 79.2885 244.034 79.9612 244.858 79.9612C245.682 79.9612 246.353 79.2885 246.353 78.4641" stroke="#FF0000"/>
<path fill-rule="evenodd" clip-rule="evenodd" d="M246.353 63.4941C246.353 62.6674 245.682 61.997 244.858 61.997C244.034 61.997 243.363 62.6674 243.363 63.4941C243.363 64.3162 244.034 64.9866 244.858 64.9866C245.682 64.9866 246.353 64.3162 246.353 63.4941Z" fill="#FF0000"/>
<path d="M246.353 63.4941C246.353 62.6674 245.682 61.997 244.858 61.997C244.034 61.997 243.363 62.6674 243.363 63.4941C243.363 64.3162 244.034 64.9866 244.858 64.9866C245.682 64.9866 246.353 64.3162 246.353 63.4941" stroke="#FF0000"/>
<path fill-rule="evenodd" clip-rule="evenodd" d="M246.353 48.5209C246.353 47.6965 245.682 47.0261 244.858 47.0261C244.034 47.0261 243.363 47.6965 243.363 48.5209C243.363 49.3452 244.034 50.0156 244.858 50.0156C245.682 50.0156 246.353 49.3452 246.353 48.5209Z" fill="#FF0000"/>
<path d="M246.353 48.5209C246.353 47.6965 245.682 47.0261 244.858 47.0261C244.034 47.0261 243.363 47.6965 243.363 48.5209C243.363 49.3452 244.034 50.0156 244.858 50.0156C245.682 50.0156 246.353 49.3452 246.353 48.5209" stroke="#FF0000"/>
<path fill-rule="evenodd" clip-rule="evenodd" d="M246.353 33.5523C246.353 32.728 245.682 32.0576 244.858 32.0576C244.034 32.0576 243.363 32.728 243.363 33.5523C243.363 34.3745 244.034 35.0471 244.858 35.0471C245.682 35.0471 246.353 34.3745 246.353 33.5523Z" fill="#FF0000"/>
<path d="M246.353 33.5523C246.353 32.728 245.682 32.0576 244.858 32.0576C244.034 32.0576 243.363 32.728 243.363 33.5523C243.363 34.3745 244.034 35.0471 244.858 35.0471C245.682 35.0471 246.353 34.3745 246.353 33.5523" stroke="#FF0000"/>
<path fill-rule="evenodd" clip-rule="evenodd" d="M246.353 18.5779C246.353 17.7558 245.682 17.0854 244.858 17.0854C244.034 17.0854 243.363 17.7558 243.363 18.5779C243.363 19.4023 244.034 20.075 244.858 20.075C245.682 20.075 246.353 19.4023 246.353 18.5779Z" fill="#FF0000"/>
<path d="M246.353 18.5779C246.353 17.7558 245.682 17.0854 244.858 17.0854C244.034 17.0854 243.363 17.7558 243.363 18.5779C243.363 19.4023 244.034 20.075 244.858 20.075C245.682 20.075 246.353 19.4023 246.353 18.5779" stroke="#FF0000"/>
<path fill-rule="evenodd" clip-rule="evenodd" d="M246.353 3.60703C246.353 2.78265 245.682 2.11226 244.858 2.11226C244.034 2.11226 243.363 2.78265 243.363 3.60703C243.363 4.43142 244.034 5.10181 244.858 5.10181C245.682 5.10181 246.353 4.43142 246.353 3.60703Z" fill="#FF0000"/>
<path d="M246.353 3.60703C246.353 2.78265 245.682 2.11226 244.858 2.11226C244.034 2.11226 243.363 2.78265 243.363 3.60703C243.363 4.43142 244.034 5.10181 244.858 5.10181C245.682 5.10181 246.353 4.43142 246.353 3.60703" stroke="#FF0000"/>
<path fill-rule="evenodd" clip-rule="evenodd" d="M261.322 78.4641C261.322 77.642 260.653 76.9694 259.827 76.9694C259 76.9694 258.332 77.642 258.332 78.4641C258.332 79.2885 259 79.9612 259.827 79.9612C260.653 79.9612 261.322 79.2885 261.322 78.4641Z" fill="#FF0000"/>
<path d="M261.322 78.4641C261.322 77.642 260.653 76.9694 259.827 76.9694C259 76.9694 258.332 77.642 258.332 78.4641C258.332 79.2885 259 79.9612 259.827 79.9612C260.653 79.9612 261.322 79.2885 261.322 78.4641" stroke="#FF0000"/>
<path fill-rule="evenodd" clip-rule="evenodd" d="M261.322 63.4941C261.322 62.6674 260.653 61.997 259.827 61.997C259 61.997 258.332 62.6674 258.332 63.4941C258.332 64.3162 259 64.9866 259.827 64.9866C260.653 64.9866 261.322 64.3162 261.322 63.4941Z" fill="#FF0000"/>
<path d="M261.322 63.4941C261.322 62.6674 260.653 61.997 259.827 61.997C259 61.997 258.332 62.6674 258.332 63.4941C258.332 64.3162 259 64.9866 259.827 64.9866C260.653 64.9866 261.322 64.3162 261.322 63.4941" stroke="#FF0000"/>
<path fill-rule="evenodd" clip-rule="evenodd" d="M261.322 48.5209C261.322 47.6965 260.653 47.0261 259.827 47.0261C259 47.0261 258.332 47.6965 258.332 48.5209C258.332 49.3452 259 50.0156 259.827 50.0156C260.653 50.0156 261.322 49.3452 261.322 48.5209Z" fill="#FF0000"/>
<path d="M261.322 48.5209C261.322 47.6965 260.653 47.0261 259.827 47.0261C259 47.0261 258.332 47.6965 258.332 48.5209C258.332 49.3452 259 50.0156 259.827 50.0156C260.653 50.0156 261.322 49.3452 261.322 48.5209" stroke="#FF0000"/>
<path fill-rule="evenodd" clip-rule="evenodd" d="M261.322 33.5523C261.322 32.728 260.653 32.0576 259.827 32.0576C259 32.0576 258.332 32.728 258.332 33.5523C258.332 34.3745 259 35.0471 259.827 35.0471C260.653 35.0471 261.322 34.3745 261.322 33.5523Z" fill="#FF0000"/>
<path d="M261.322 33.5523C261.322 32.728 260.653 32.0576 259.827 32.0576C259 32.0576 258.332 32.728 258.332 33.5523C258.332 34.3745 259 35.0471 259.827 35.0471C260.653 35.0471 261.322 34.3745 261.322 33.5523" stroke="#FF0000"/>
<path fill-rule="evenodd" clip-rule="evenodd" d="M261.322 18.5782C261.322 17.756 260.653 17.0857 259.827 17.0857C259 17.0857 258.332 17.756 258.332 18.5782C258.332 19.4025 259 20.0752 259.827 20.0752C260.653 20.0752 261.322 19.4025 261.322 18.5782Z" fill="#FF0000"/>
<path d="M261.322 18.5782C261.322 17.756 260.653 17.0857 259.827 17.0857C259 17.0857 258.332 17.756 258.332 18.5782C258.332 19.4025 259 20.0752 259.827 20.0752C260.653 20.0752 261.322 19.4025 261.322 18.5782" stroke="#FF0000"/>
<path fill-rule="evenodd" clip-rule="evenodd" d="M261.322 3.60703C261.322 2.78265 260.653 2.11226 259.827 2.11226C259 2.11226 258.332 2.78265 258.332 3.60703C258.332 4.43142 259 5.10181 259.827 5.10181C260.653 5.10181 261.322 4.43142 261.322 3.60703Z" fill="#FF0000"/>
<path d="M261.322 3.60703C261.322 2.78265 260.653 2.11226 259.827 2.11226C259 2.11226 258.332 2.78265 258.332 3.60703C258.332 4.43142 259 5.10181 259.827 5.10181C260.653 5.10181 261.322 4.43142 261.322 3.60703" stroke="#FF0000"/>
<path fill-rule="evenodd" clip-rule="evenodd" d="M276.296 78.4641C276.296 77.642 275.626 76.9694 274.801 76.9694C273.975 76.9694 273.307 77.642 273.307 78.4641C273.307 79.2885 273.975 79.9612 274.801 79.9612C275.626 79.9612 276.296 79.2885 276.296 78.4641Z" fill="#FF0000"/>
<path d="M276.296 78.4641C276.296 77.642 275.626 76.9694 274.801 76.9694C273.975 76.9694 273.307 77.642 273.307 78.4641C273.307 79.2885 273.975 79.9612 274.801 79.9612C275.626 79.9612 276.296 79.2885 276.296 78.4641" stroke="#FF0000"/>
<path fill-rule="evenodd" clip-rule="evenodd" d="M276.296 63.4941C276.296 62.6674 275.626 61.997 274.801 61.997C273.975 61.997 273.307 62.6674 273.307 63.4941C273.307 64.3162 273.975 64.9866 274.801 64.9866C275.626 64.9866 276.296 64.3162 276.296 63.4941Z" fill="#FF0000"/>
<path d="M276.296 63.4941C276.296 62.6674 275.626 61.997 274.801 61.997C273.975 61.997 273.307 62.6674 273.307 63.4941C273.307 64.3162 273.975 64.9866 274.801 64.9866C275.626 64.9866 276.296 64.3162 276.296 63.4941" stroke="#FF0000"/>
<path fill-rule="evenodd" clip-rule="evenodd" d="M276.296 48.5209C276.296 47.6965 275.626 47.0261 274.801 47.0261C273.975 47.0261 273.307 47.6965 273.307 48.5209C273.307 49.3452 273.975 50.0156 274.801 50.0156C275.626 50.0156 276.296 49.3452 276.296 48.5209Z" fill="#FF0000"/>
<path d="M276.296 48.5209C276.296 47.6965 275.626 47.0261 274.801 47.0261C273.975 47.0261 273.307 47.6965 273.307 48.5209C273.307 49.3452 273.975 50.0156 274.801 50.0156C275.626 50.0156 276.296 49.3452 276.296 48.5209" stroke="#FF0000"/>
<path fill-rule="evenodd" clip-rule="evenodd" d="M276.296 33.5523C276.296 32.728 275.626 32.0576 274.801 32.0576C273.975 32.0576 273.307 32.728 273.307 33.5523C273.307 34.3745 273.975 35.0471 274.801 35.0471C275.626 35.0471 276.296 34.3745 276.296 33.5523Z" fill="#FF0000"/>
<path d="M276.296 33.5523C276.296 32.728 275.626 32.0576 274.801 32.0576C273.975 32.0576 273.307 32.728 273.307 33.5523C273.307 34.3745 273.975 35.0471 274.801 35.0471C275.626 35.0471 276.296 34.3745 276.296 33.5523" stroke="#FF0000"/>
<path fill-rule="evenodd" clip-rule="evenodd" d="M276.296 18.5782C276.296 17.756 275.626 17.0857 274.801 17.0857C273.975 17.0857 273.307 17.756 273.307 18.5782C273.307 19.4025 273.975 20.0752 274.801 20.0752C275.626 20.0752 276.296 19.4025 276.296 18.5782Z" fill="#FF0000"/>
<path d="M276.296 18.5782C276.296 17.756 275.626 17.0857 274.801 17.0857C273.975 17.0857 273.307 17.756 273.307 18.5782C273.307 19.4025 273.975 20.0752 274.801 20.0752C275.626 20.0752 276.296 19.4025 276.296 18.5782" stroke="#FF0000"/>
<path fill-rule="evenodd" clip-rule="evenodd" d="M276.296 3.60703C276.296 2.78265 275.626 2.11226 274.801 2.11226C273.975 2.11226 273.307 2.78265 273.307 3.60703C273.307 4.43142 273.975 5.10181 274.801 5.10181C275.626 5.10181 276.296 4.43142 276.296 3.60703Z" fill="#FF0000"/>
<path d="M276.296 3.60703C276.296 2.78265 275.626 2.11226 274.801 2.11226C273.975 2.11226 273.307 2.78265 273.307 3.60703C273.307 4.43142 273.975 5.10181 274.801 5.10181C275.626 5.10181 276.296 4.43142 276.296 3.60703" stroke="#FF0000"/>
<path fill-rule="evenodd" clip-rule="evenodd" d="M291.267 78.4641C291.267 77.642 290.599 76.9694 289.772 76.9694C288.95 76.9694 288.277 77.642 288.277 78.4641C288.277 79.2885 288.95 79.9612 289.772 79.9612C290.599 79.9612 291.267 79.2885 291.267 78.4641Z" fill="#FF0000"/>
<path d="M291.267 78.4641C291.267 77.642 290.599 76.9694 289.772 76.9694C288.95 76.9694 288.277 77.642 288.277 78.4641C288.277 79.2885 288.95 79.9612 289.772 79.9612C290.599 79.9612 291.267 79.2885 291.267 78.4641" stroke="#FF0000"/>
<path fill-rule="evenodd" clip-rule="evenodd" d="M291.267 63.4941C291.267 62.6674 290.599 61.997 289.772 61.997C288.95 61.997 288.277 62.6674 288.277 63.4941C288.277 64.3162 288.95 64.9866 289.772 64.9866C290.599 64.9866 291.267 64.3162 291.267 63.4941Z" fill="#FF0000"/>
<path d="M291.267 63.4941C291.267 62.6674 290.599 61.997 289.772 61.997C288.95 61.997 288.277 62.6674 288.277 63.4941C288.277 64.3162 288.95 64.9866 289.772 64.9866C290.599 64.9866 291.267 64.3162 291.267 63.4941" stroke="#FF0000"/>
<path fill-rule="evenodd" clip-rule="evenodd" d="M291.267 48.5209C291.267 47.6965 290.599 47.0261 289.772 47.0261C288.95 47.0261 288.277 47.6965 288.277 48.5209C288.277 49.3452 288.95 50.0156 289.772 50.0156C290.599 50.0156 291.267 49.3452 291.267 48.5209Z" fill="#FF0000"/>
<path d="M291.267 48.5209C291.267 47.6965 290.599 47.0261 289.772 47.0261C288.95 47.0261 288.277 47.6965 288.277 48.5209C288.277 49.3452 288.95 50.0156 289.772 50.0156C290.599 50.0156 291.267 49.3452 291.267 48.5209" stroke="#FF0000"/>
<path fill-rule="evenodd" clip-rule="evenodd" d="M291.267 33.5523C291.267 32.728 290.599 32.0576 289.772 32.0576C288.95 32.0576 288.277 32.728 288.277 33.5523C288.277 34.3745 288.95 35.0471 289.772 35.0471C290.599 35.0471 291.267 34.3745 291.267 33.5523Z" fill="#FF0000"/>
<path d="M291.267 33.5523C291.267 32.728 290.599 32.0576 289.772 32.0576C288.95 32.0576 288.277 32.728 288.277 33.5523C288.277 34.3745 288.95 35.0471 289.772 35.0471C290.599 35.0471 291.267 34.3745 291.267 33.5523" stroke="#FF0000"/>
<path fill-rule="evenodd" clip-rule="evenodd" d="M291.267 18.5782C291.267 17.756 290.599 17.0857 289.772 17.0857C288.95 17.0857 288.277 17.756 288.277 18.5782C288.277 19.4025 288.95 20.0752 289.772 20.0752C290.599 20.0752 291.267 19.4025 291.267 18.5782Z" fill="#FF0000"/>
<path d="M291.267 18.5782C291.267 17.756 290.599 17.0857 289.772 17.0857C288.95 17.0857 288.277 17.756 288.277 18.5782C288.277 19.4025 288.95 20.0752 289.772 20.0752C290.599 20.0752 291.267 19.4025 291.267 18.5782" stroke="#FF0000"/>
<path fill-rule="evenodd" clip-rule="evenodd" d="M291.267 3.60703C291.267 2.78265 290.599 2.11226 289.772 2.11226C288.95 2.11226 288.277 2.78265 288.277 3.60703C288.277 4.43142 288.95 5.10181 289.772 5.10181C290.599 5.10181 291.267 4.43142 291.267 3.60703Z" fill="#FF0000"/>
<path d="M291.267 3.60703C291.267 2.78265 290.599 2.11226 289.772 2.11226C288.95 2.11226 288.277 2.78265 288.277 3.60703C288.277 4.43142 288.95 5.10181 289.772 5.10181C290.599 5.10181 291.267 4.43142 291.267 3.60703" stroke="#FF0000"/>
<path fill-rule="evenodd" clip-rule="evenodd" d="M306.238 78.4641C306.238 77.642 305.569 76.9694 304.743 76.9694C303.916 76.9694 303.248 77.642 303.248 78.4641C303.248 79.2885 303.916 79.9612 304.743 79.9612C305.569 79.9612 306.238 79.2885 306.238 78.4641Z" fill="#FF0000"/>
<path d="M306.238 78.4641C306.238 77.642 305.569 76.9694 304.743 76.9694C303.916 76.9694 303.248 77.642 303.248 78.4641C303.248 79.2885 303.916 79.9612 304.743 79.9612C305.569 79.9612 306.238 79.2885 306.238 78.4641" stroke="#FF0000"/>
<path fill-rule="evenodd" clip-rule="evenodd" d="M306.238 63.4941C306.238 62.6674 305.569 61.997 304.743 61.997C303.916 61.997 303.248 62.6674 303.248 63.4941C303.248 64.3162 303.916 64.9866 304.743 64.9866C305.569 64.9866 306.238 64.3162 306.238 63.4941Z" fill="#FF0000"/>
<path d="M306.238 63.4941C306.238 62.6674 305.569 61.997 304.743 61.997C303.916 61.997 303.248 62.6674 303.248 63.4941C303.248 64.3162 303.916 64.9866 304.743 64.9866C305.569 64.9866 306.238 64.3162 306.238 63.4941" stroke="#FF0000"/>
<path fill-rule="evenodd" clip-rule="evenodd" d="M306.238 48.5209C306.238 47.6965 305.569 47.0261 304.743 47.0261C303.916 47.0261 303.248 47.6965 303.248 48.5209C303.248 49.3452 303.916 50.0156 304.743 50.0156C305.569 50.0156 306.238 49.3452 306.238 48.5209Z" fill="#FF0000"/>
<path d="M306.238 48.5209C306.238 47.6965 305.569 47.0261 304.743 47.0261C303.916 47.0261 303.248 47.6965 303.248 48.5209C303.248 49.3452 303.916 50.0156 304.743 50.0156C305.569 50.0156 306.238 49.3452 306.238 48.5209" stroke="#FF0000"/>
<path fill-rule="evenodd" clip-rule="evenodd" d="M306.238 33.5523C306.238 32.728 305.569 32.0576 304.743 32.0576C303.916 32.0576 303.248 32.728 303.248 33.5523C303.248 34.3745 303.916 35.0471 304.743 35.0471C305.569 35.0471 306.238 34.3745 306.238 33.5523Z" fill="#FF0000"/>
<path d="M306.238 33.5523C306.238 32.728 305.569 32.0576 304.743 32.0576C303.916 32.0576 303.248 32.728 303.248 33.5523C303.248 34.3745 303.916 35.0471 304.743 35.0471C305.569 35.0471 306.238 34.3745 306.238 33.5523" stroke="#FF0000"/>
<path fill-rule="evenodd" clip-rule="evenodd" d="M306.238 18.5779C306.238 17.7558 305.569 17.0854 304.743 17.0854C303.916 17.0854 303.248 17.7558 303.248 18.5779C303.248 19.4023 303.916 20.075 304.743 20.075C305.569 20.075 306.238 19.4023 306.238 18.5779Z" fill="#FF0000"/>
<path d="M306.238 18.5779C306.238 17.7558 305.569 17.0854 304.743 17.0854C303.916 17.0854 303.248 17.7558 303.248 18.5779C303.248 19.4023 303.916 20.075 304.743 20.075C305.569 20.075 306.238 19.4023 306.238 18.5779" stroke="#FF0000"/>
<path fill-rule="evenodd" clip-rule="evenodd" d="M306.238 3.60703C306.238 2.78265 305.569 2.11226 304.743 2.11226C303.916 2.11226 303.248 2.78265 303.248 3.60703C303.248 4.43142 303.916 5.10181 304.743 5.10181C305.569 5.10181 306.238 4.43142 306.238 3.60703Z" fill="#FF0000"/>
<path d="M306.238 3.60703C306.238 2.78265 305.569 2.11226 304.743 2.11226C303.916 2.11226 303.248 2.78265 303.248 3.60703C303.248 4.43142 303.916 5.10181 304.743 5.10181C305.569 5.10181 306.238 4.43142 306.238 3.60703" stroke="#FF0000"/>
<path fill-rule="evenodd" clip-rule="evenodd" d="M323.169 78.4641C323.169 77.642 322.501 76.9694 321.674 76.9694C320.85 76.9694 320.18 77.642 320.18 78.4641C320.18 79.2885 320.85 79.9612 321.674 79.9612C322.501 79.9612 323.169 79.2885 323.169 78.4641Z" fill="#FF0000"/>
<path d="M323.169 78.4641C323.169 77.642 322.501 76.9694 321.674 76.9694C320.85 76.9694 320.18 77.642 320.18 78.4641C320.18 79.2885 320.85 79.9612 321.674 79.9612C322.501 79.9612 323.169 79.2885 323.169 78.4641" stroke="#FF0000"/>
<path fill-rule="evenodd" clip-rule="evenodd" d="M323.169 63.4941C323.169 62.6674 322.501 61.997 321.674 61.997C320.85 61.997 320.18 62.6674 320.18 63.4941C320.18 64.3162 320.85 64.9866 321.674 64.9866C322.501 64.9866 323.169 64.3162 323.169 63.4941Z" fill="#FF0000"/>
<path d="M323.169 63.4941C323.169 62.6674 322.501 61.997 321.674 61.997C320.85 61.997 320.18 62.6674 320.18 63.4941C320.18 64.3162 320.85 64.9866 321.674 64.9866C322.501 64.9866 323.169 64.3162 323.169 63.4941" stroke="#FF0000"/>
<path fill-rule="evenodd" clip-rule="evenodd" d="M323.169 48.5209C323.169 47.6965 322.501 47.0261 321.674 47.0261C320.85 47.0261 320.18 47.6965 320.18 48.5209C320.18 49.3452 320.85 50.0156 321.674 50.0156C322.501 50.0156 323.169 49.3452 323.169 48.5209Z" fill="#FF0000"/>
<path d="M323.169 48.5209C323.169 47.6965 322.501 47.0261 321.674 47.0261C320.85 47.0261 320.18 47.6965 320.18 48.5209C320.18 49.3452 320.85 50.0156 321.674 50.0156C322.501 50.0156 323.169 49.3452 323.169 48.5209" stroke="#FF0000"/>
<path fill-rule="evenodd" clip-rule="evenodd" d="M323.169 33.5523C323.169 32.728 322.501 32.0576 321.674 32.0576C320.85 32.0576 320.18 32.728 320.18 33.5523C320.18 34.3745 320.85 35.0471 321.674 35.0471C322.501 35.0471 323.169 34.3745 323.169 33.5523Z" fill="#FF0000"/>
<path d="M323.169 33.5523C323.169 32.728 322.501 32.0576 321.674 32.0576C320.85 32.0576 320.18 32.728 320.18 33.5523C320.18 34.3745 320.85 35.0471 321.674 35.0471C322.501 35.0471 323.169 34.3745 323.169 33.5523" stroke="#FF0000"/>
<path fill-rule="evenodd" clip-rule="evenodd" d="M323.169 18.5779C323.169 17.7558 322.501 17.0854 321.674 17.0854C320.85 17.0854 320.18 17.7558 320.18 18.5779C320.18 19.4023 320.85 20.075 321.674 20.075C322.501 20.075 323.169 19.4023 323.169 18.5779Z" fill="#FF0000"/>
<path d="M323.169 18.5779C323.169 17.7558 322.501 17.0854 321.674 17.0854C320.85 17.0854 320.18 17.7558 320.18 18.5779C320.18 19.4023 320.85 20.075 321.674 20.075C322.501 20.075 323.169 19.4023 323.169 18.5779" stroke="#FF0000"/>
<path fill-rule="evenodd" clip-rule="evenodd" d="M323.169 3.60703C323.169 2.78265 322.501 2.11226 321.674 2.11226C320.85 2.11226 320.18 2.78265 320.18 3.60703C320.18 4.43142 320.85 5.10181 321.674 5.10181C322.501 5.10181 323.169 4.43142 323.169 3.60703Z" fill="#FF0000"/>
<path d="M323.169 3.60703C323.169 2.78265 322.501 2.11226 321.674 2.11226C320.85 2.11226 320.18 2.78265 320.18 3.60703C320.18 4.43142 320.85 5.10181 321.674 5.10181C322.501 5.10181 323.169 4.43142 323.169 3.60703" stroke="#FF0000"/>
<path fill-rule="evenodd" clip-rule="evenodd" d="M338.144 78.4641C338.144 77.642 337.476 76.9694 336.649 76.9694C335.822 76.9694 335.154 77.642 335.154 78.4641C335.154 79.2885 335.822 79.9612 336.649 79.9612C337.476 79.9612 338.144 79.2885 338.144 78.4641Z" fill="#FF0000"/>
<path d="M338.144 78.4641C338.144 77.642 337.476 76.9694 336.649 76.9694C335.822 76.9694 335.154 77.642 335.154 78.4641C335.154 79.2885 335.822 79.9612 336.649 79.9612C337.476 79.9612 338.144 79.2885 338.144 78.4641" stroke="#FF0000"/>
<path fill-rule="evenodd" clip-rule="evenodd" d="M338.144 63.4941C338.144 62.6674 337.476 61.997 336.649 61.997C335.822 61.997 335.154 62.6674 335.154 63.4941C335.154 64.3162 335.822 64.9866 336.649 64.9866C337.476 64.9866 338.144 64.3162 338.144 63.4941Z" fill="#FF0000"/>
<path d="M338.144 63.4941C338.144 62.6674 337.476 61.997 336.649 61.997C335.822 61.997 335.154 62.6674 335.154 63.4941C335.154 64.3162 335.822 64.9866 336.649 64.9866C337.476 64.9866 338.144 64.3162 338.144 63.4941" stroke="#FF0000"/>
<path fill-rule="evenodd" clip-rule="evenodd" d="M338.144 48.5209C338.144 47.6965 337.476 47.0261 336.649 47.0261C335.822 47.0261 335.154 47.6965 335.154 48.5209C335.154 49.3452 335.822 50.0156 336.649 50.0156C337.476 50.0156 338.144 49.3452 338.144 48.5209Z" fill="#FF0000"/>
<path d="M338.144 48.5209C338.144 47.6965 337.476 47.0261 336.649 47.0261C335.822 47.0261 335.154 47.6965 335.154 48.5209C335.154 49.3452 335.822 50.0156 336.649 50.0156C337.476 50.0156 338.144 49.3452 338.144 48.5209" stroke="#FF0000"/>
<path fill-rule="evenodd" clip-rule="evenodd" d="M338.144 33.5523C338.144 32.728 337.476 32.0576 336.649 32.0576C335.822 32.0576 335.154 32.728 335.154 33.5523C335.154 34.3745 335.822 35.0471 336.649 35.0471C337.476 35.0471 338.144 34.3745 338.144 33.5523Z" fill="#FF0000"/>
<path d="M338.144 33.5523C338.144 32.728 337.476 32.0576 336.649 32.0576C335.822 32.0576 335.154 32.728 335.154 33.5523C335.154 34.3745 335.822 35.0471 336.649 35.0471C337.476 35.0471 338.144 34.3745 338.144 33.5523" stroke="#FF0000"/>
<path fill-rule="evenodd" clip-rule="evenodd" d="M338.144 18.5779C338.144 17.7558 337.476 17.0854 336.649 17.0854C335.822 17.0854 335.154 17.7558 335.154 18.5779C335.154 19.4023 335.822 20.075 336.649 20.075C337.476 20.075 338.144 19.4023 338.144 18.5779Z" fill="#FF0000"/>
<path d="M338.144 18.5779C338.144 17.7558 337.476 17.0854 336.649 17.0854C335.822 17.0854 335.154 17.7558 335.154 18.5779C335.154 19.4023 335.822 20.075 336.649 20.075C337.476 20.075 338.144 19.4023 338.144 18.5779" stroke="#FF0000"/>
<path fill-rule="evenodd" clip-rule="evenodd" d="M338.144 3.60703C338.144 2.78265 337.476 2.11226 336.649 2.11226C335.822 2.11226 335.154 2.78265 335.154 3.60703C335.154 4.43142 335.822 5.10181 336.649 5.10181C337.476 5.10181 338.144 4.43142 338.144 3.60703Z" fill="#FF0000"/>
<path d="M338.144 3.60703C338.144 2.78265 337.476 2.11226 336.649 2.11226C335.822 2.11226 335.154 2.78265 335.154 3.60703C335.154 4.43142 335.822 5.10181 336.649 5.10181C337.476 5.10181 338.144 4.43142 338.144 3.60703" stroke="#FF0000"/>
<path fill-rule="evenodd" clip-rule="evenodd" d="M353.115 78.4641C353.115 77.642 352.444 76.9694 351.62 76.9694C350.795 76.9694 350.125 77.642 350.125 78.4641C350.125 79.2885 350.795 79.9612 351.62 79.9612C352.444 79.9612 353.115 79.2885 353.115 78.4641Z" fill="#FF0000"/>
<path d="M353.115 78.4641C353.115 77.642 352.444 76.9694 351.62 76.9694C350.795 76.9694 350.125 77.642 350.125 78.4641C350.125 79.2885 350.795 79.9612 351.62 79.9612C352.444 79.9612 353.115 79.2885 353.115 78.4641" stroke="#FF0000"/>
<path fill-rule="evenodd" clip-rule="evenodd" d="M353.115 63.4941C353.115 62.6674 352.444 61.997 351.62 61.997C350.795 61.997 350.125 62.6674 350.125 63.4941C350.125 64.3162 350.795 64.9866 351.62 64.9866C352.444 64.9866 353.115 64.3162 353.115 63.4941Z" fill="#FF0000"/>
<path d="M353.115 63.4941C353.115 62.6674 352.444 61.997 351.62 61.997C350.795 61.997 350.125 62.6674 350.125 63.4941C350.125 64.3162 350.795 64.9866 351.62 64.9866C352.444 64.9866 353.115 64.3162 353.115 63.4941" stroke="#FF0000"/>
<path fill-rule="evenodd" clip-rule="evenodd" d="M353.115 48.5209C353.115 47.6965 352.444 47.0261 351.62 47.0261C350.795 47.0261 350.125 47.6965 350.125 48.5209C350.125 49.3452 350.795 50.0156 351.62 50.0156C352.444 50.0156 353.115 49.3452 353.115 48.5209Z" fill="#FF0000"/>
<path d="M353.115 48.5209C353.115 47.6965 352.444 47.0261 351.62 47.0261C350.795 47.0261 350.125 47.6965 350.125 48.5209C350.125 49.3452 350.795 50.0156 351.62 50.0156C352.444 50.0156 353.115 49.3452 353.115 48.5209" stroke="#FF0000"/>
<path fill-rule="evenodd" clip-rule="evenodd" d="M353.115 33.5523C353.115 32.728 352.444 32.0576 351.62 32.0576C350.795 32.0576 350.125 32.728 350.125 33.5523C350.125 34.3745 350.795 35.0471 351.62 35.0471C352.444 35.0471 353.115 34.3745 353.115 33.5523Z" fill="#FF0000"/>
<path d="M353.115 33.5523C353.115 32.728 352.444 32.0576 351.62 32.0576C350.795 32.0576 350.125 32.728 350.125 33.5523C350.125 34.3745 350.795 35.0471 351.62 35.0471C352.444 35.0471 353.115 34.3745 353.115 33.5523" stroke="#FF0000"/>
<path fill-rule="evenodd" clip-rule="evenodd" d="M353.115 18.5779C353.115 17.7558 352.444 17.0854 351.62 17.0854C350.795 17.0854 350.125 17.7558 350.125 18.5779C350.125 19.4023 350.795 20.075 351.62 20.075C352.444 20.075 353.115 19.4023 353.115 18.5779Z" fill="#FF0000"/>
<path d="M353.115 18.5779C353.115 17.7558 352.444 17.0854 351.62 17.0854C350.795 17.0854 350.125 17.7558 350.125 18.5779C350.125 19.4023 350.795 20.075 351.62 20.075C352.444 20.075 353.115 19.4023 353.115 18.5779" stroke="#FF0000"/>
<path fill-rule="evenodd" clip-rule="evenodd" d="M353.115 3.60703C353.115 2.78265 352.444 2.11226 351.62 2.11226C350.795 2.11226 350.125 2.78265 350.125 3.60703C350.125 4.43142 350.795 5.10181 351.62 5.10181C352.444 5.10181 353.115 4.43142 353.115 3.60703Z" fill="#FF0000"/>
<path d="M353.115 3.60703C353.115 2.78265 352.444 2.11226 351.62 2.11226C350.795 2.11226 350.125 2.78265 350.125 3.60703C350.125 4.43142 350.795 5.10181 351.62 5.10181C352.444 5.10181 353.115 4.43142 353.115 3.60703" stroke="#FF0000"/>
<path fill-rule="evenodd" clip-rule="evenodd" d="M368.085 78.4641C368.085 77.642 367.417 76.9694 366.59 76.9694C365.764 76.9694 365.096 77.642 365.096 78.4641C365.096 79.2885 365.764 79.9612 366.59 79.9612C367.417 79.9612 368.085 79.2885 368.085 78.4641Z" fill="#FF0000"/>
<path d="M368.085 78.4641C368.085 77.642 367.417 76.9694 366.59 76.9694C365.764 76.9694 365.096 77.642 365.096 78.4641C365.096 79.2885 365.764 79.9612 366.59 79.9612C367.417 79.9612 368.085 79.2885 368.085 78.4641" stroke="#FF0000"/>
<path fill-rule="evenodd" clip-rule="evenodd" d="M368.085 63.4941C368.085 62.6674 367.417 61.997 366.59 61.997C365.764 61.997 365.096 62.6674 365.096 63.4941C365.096 64.3162 365.764 64.9866 366.59 64.9866C367.417 64.9866 368.085 64.3162 368.085 63.4941Z" fill="#FF0000"/>
<path d="M368.085 63.4941C368.085 62.6674 367.417 61.997 366.59 61.997C365.764 61.997 365.096 62.6674 365.096 63.4941C365.096 64.3162 365.764 64.9866 366.59 64.9866C367.417 64.9866 368.085 64.3162 368.085 63.4941" stroke="#FF0000"/>
<path fill-rule="evenodd" clip-rule="evenodd" d="M368.085 48.5209C368.085 47.6965 367.417 47.0261 366.59 47.0261C365.764 47.0261 365.096 47.6965 365.096 48.5209C365.096 49.3452 365.764 50.0156 366.59 50.0156C367.417 50.0156 368.085 49.3452 368.085 48.5209Z" fill="#FF0000"/>
<path d="M368.085 48.5209C368.085 47.6965 367.417 47.0261 366.59 47.0261C365.764 47.0261 365.096 47.6965 365.096 48.5209C365.096 49.3452 365.764 50.0156 366.59 50.0156C367.417 50.0156 368.085 49.3452 368.085 48.5209" stroke="#FF0000"/>
<path fill-rule="evenodd" clip-rule="evenodd" d="M368.085 33.5523C368.085 32.728 367.417 32.0576 366.59 32.0576C365.764 32.0576 365.096 32.728 365.096 33.5523C365.096 34.3745 365.764 35.0471 366.59 35.0471C367.417 35.0471 368.085 34.3745 368.085 33.5523Z" fill="#FF0000"/>
<path d="M368.085 33.5523C368.085 32.728 367.417 32.0576 366.59 32.0576C365.764 32.0576 365.096 32.728 365.096 33.5523C365.096 34.3745 365.764 35.0471 366.59 35.0471C367.417 35.0471 368.085 34.3745 368.085 33.5523" stroke="#FF0000"/>
<path fill-rule="evenodd" clip-rule="evenodd" d="M368.085 18.5782C368.085 17.756 367.417 17.0857 366.59 17.0857C365.764 17.0857 365.096 17.756 365.096 18.5782C365.096 19.4025 365.764 20.0752 366.59 20.0752C367.417 20.0752 368.085 19.4025 368.085 18.5782Z" fill="#FF0000"/>
<path d="M368.085 18.5782C368.085 17.756 367.417 17.0857 366.59 17.0857C365.764 17.0857 365.096 17.756 365.096 18.5782C365.096 19.4025 365.764 20.0752 366.59 20.0752C367.417 20.0752 368.085 19.4025 368.085 18.5782" stroke="#FF0000"/>
<path fill-rule="evenodd" clip-rule="evenodd" d="M368.085 3.60703C368.085 2.78265 367.417 2.11226 366.59 2.11226C365.764 2.11226 365.096 2.78265 365.096 3.60703C365.096 4.43142 365.764 5.10181 366.59 5.10181C367.417 5.10181 368.085 4.43142 368.085 3.60703Z" fill="#FF0000"/>
<path d="M368.085 3.60703C368.085 2.78265 367.417 2.11226 366.59 2.11226C365.764 2.11226 365.096 2.78265 365.096 3.60703C365.096 4.43142 365.764 5.10181 366.59 5.10181C367.417 5.10181 368.085 4.43142 368.085 3.60703" stroke="#FF0000"/>
<path fill-rule="evenodd" clip-rule="evenodd" d="M383.06 78.4641C383.06 77.642 382.389 76.9694 381.565 76.9694C380.738 76.9694 380.07 77.642 380.07 78.4641C380.07 79.2885 380.738 79.9612 381.565 79.9612C382.389 79.9612 383.06 79.2885 383.06 78.4641Z" fill="#FF0000"/>
<path d="M383.06 78.4641C383.06 77.642 382.389 76.9694 381.565 76.9694C380.738 76.9694 380.07 77.642 380.07 78.4641C380.07 79.2885 380.738 79.9612 381.565 79.9612C382.389 79.9612 383.06 79.2885 383.06 78.4641" stroke="#FF0000"/>
<path fill-rule="evenodd" clip-rule="evenodd" d="M383.06 63.4941C383.06 62.6674 382.389 61.997 381.565 61.997C380.738 61.997 380.07 62.6674 380.07 63.4941C380.07 64.3162 380.738 64.9866 381.565 64.9866C382.389 64.9866 383.06 64.3162 383.06 63.4941Z" fill="#FF0000"/>
<path d="M383.06 63.4941C383.06 62.6674 382.389 61.997 381.565 61.997C380.738 61.997 380.07 62.6674 380.07 63.4941C380.07 64.3162 380.738 64.9866 381.565 64.9866C382.389 64.9866 383.06 64.3162 383.06 63.4941" stroke="#FF0000"/>
<path fill-rule="evenodd" clip-rule="evenodd" d="M383.06 48.5209C383.06 47.6965 382.389 47.0261 381.565 47.0261C380.738 47.0261 380.07 47.6965 380.07 48.5209C380.07 49.3452 380.738 50.0156 381.565 50.0156C382.389 50.0156 383.06 49.3452 383.06 48.5209Z" fill="#FF0000"/>
<path d="M383.06 48.5209C383.06 47.6965 382.389 47.0261 381.565 47.0261C380.738 47.0261 380.07 47.6965 380.07 48.5209C380.07 49.3452 380.738 50.0156 381.565 50.0156C382.389 50.0156 383.06 49.3452 383.06 48.5209" stroke="#FF0000"/>
<path fill-rule="evenodd" clip-rule="evenodd" d="M383.06 33.5523C383.06 32.728 382.389 32.0576 381.565 32.0576C380.738 32.0576 380.07 32.728 380.07 33.5523C380.07 34.3745 380.738 35.0471 381.565 35.0471C382.389 35.0471 383.06 34.3745 383.06 33.5523Z" fill="#FF0000"/>
<path d="M383.06 33.5523C383.06 32.728 382.389 32.0576 381.565 32.0576C380.738 32.0576 380.07 32.728 380.07 33.5523C380.07 34.3745 380.738 35.0471 381.565 35.0471C382.389 35.0471 383.06 34.3745 383.06 33.5523" stroke="#FF0000"/>
<path fill-rule="evenodd" clip-rule="evenodd" d="M383.06 18.5782C383.06 17.756 382.389 17.0857 381.565 17.0857C380.738 17.0857 380.07 17.756 380.07 18.5782C380.07 19.4025 380.738 20.0752 381.565 20.0752C382.389 20.0752 383.06 19.4025 383.06 18.5782Z" fill="#FF0000"/>
<path d="M383.06 18.5782C383.06 17.756 382.389 17.0857 381.565 17.0857C380.738 17.0857 380.07 17.756 380.07 18.5782C380.07 19.4025 380.738 20.0752 381.565 20.0752C382.389 20.0752 383.06 19.4025 383.06 18.5782" stroke="#FF0000"/>
<path fill-rule="evenodd" clip-rule="evenodd" d="M383.06 3.60703C383.06 2.78265 382.389 2.11226 381.565 2.11226C380.738 2.11226 380.07 2.78265 380.07 3.60703C380.07 4.43142 380.738 5.10181 381.565 5.10181C382.389 5.10181 383.06 4.43142 383.06 3.60703Z" fill="#FF0000"/>
<path d="M383.06 3.60703C383.06 2.78265 382.389 2.11226 381.565 2.11226C380.738 2.11226 380.07 2.78265 380.07 3.60703C380.07 4.43142 380.738 5.10181 381.565 5.10181C382.389 5.10181 383.06 4.43142 383.06 3.60703" stroke="#FF0000"/>
<path fill-rule="evenodd" clip-rule="evenodd" d="M398.031 78.4641C398.031 77.642 397.362 76.9694 396.536 76.9694C395.714 76.9694 395.041 77.642 395.041 78.4641C395.041 79.2885 395.714 79.9612 396.536 79.9612C397.362 79.9612 398.031 79.2885 398.031 78.4641Z" fill="#FF0000"/>
<path d="M398.031 78.4641C398.031 77.642 397.362 76.9694 396.536 76.9694C395.714 76.9694 395.041 77.642 395.041 78.4641C395.041 79.2885 395.714 79.9612 396.536 79.9612C397.362 79.9612 398.031 79.2885 398.031 78.4641" stroke="#FF0000"/>
<path fill-rule="evenodd" clip-rule="evenodd" d="M398.031 63.4941C398.031 62.6674 397.362 61.997 396.536 61.997C395.714 61.997 395.041 62.6674 395.041 63.4941C395.041 64.3162 395.714 64.9866 396.536 64.9866C397.362 64.9866 398.031 64.3162 398.031 63.4941Z" fill="#FF0000"/>
<path d="M398.031 63.4941C398.031 62.6674 397.362 61.997 396.536 61.997C395.714 61.997 395.041 62.6674 395.041 63.4941C395.041 64.3162 395.714 64.9866 396.536 64.9866C397.362 64.9866 398.031 64.3162 398.031 63.4941" stroke="#FF0000"/>
<path fill-rule="evenodd" clip-rule="evenodd" d="M398.031 48.5209C398.031 47.6965 397.362 47.0261 396.536 47.0261C395.714 47.0261 395.041 47.6965 395.041 48.5209C395.041 49.3452 395.714 50.0156 396.536 50.0156C397.362 50.0156 398.031 49.3452 398.031 48.5209Z" fill="#FF0000"/>
<path d="M398.031 48.5209C398.031 47.6965 397.362 47.0261 396.536 47.0261C395.714 47.0261 395.041 47.6965 395.041 48.5209C395.041 49.3452 395.714 50.0156 396.536 50.0156C397.362 50.0156 398.031 49.3452 398.031 48.5209" stroke="#FF0000"/>
<path fill-rule="evenodd" clip-rule="evenodd" d="M398.031 33.5523C398.031 32.728 397.362 32.0576 396.536 32.0576C395.714 32.0576 395.041 32.728 395.041 33.5523C395.041 34.3745 395.714 35.0471 396.536 35.0471C397.362 35.0471 398.031 34.3745 398.031 33.5523Z" fill="#FF0000"/>
<path d="M398.031 33.5523C398.031 32.728 397.362 32.0576 396.536 32.0576C395.714 32.0576 395.041 32.728 395.041 33.5523C395.041 34.3745 395.714 35.0471 396.536 35.0471C397.362 35.0471 398.031 34.3745 398.031 33.5523" stroke="#FF0000"/>
<path fill-rule="evenodd" clip-rule="evenodd" d="M398.031 18.5782C398.031 17.756 397.362 17.0857 396.536 17.0857C395.714 17.0857 395.041 17.756 395.041 18.5782C395.041 19.4025 395.714 20.0752 396.536 20.0752C397.362 20.0752 398.031 19.4025 398.031 18.5782Z" fill="#FF0000"/>
<path d="M398.031 18.5782C398.031 17.756 397.362 17.0857 396.536 17.0857C395.714 17.0857 395.041 17.756 395.041 18.5782C395.041 19.4025 395.714 20.0752 396.536 20.0752C397.362 20.0752 398.031 19.4025 398.031 18.5782" stroke="#FF0000"/>
<path fill-rule="evenodd" clip-rule="evenodd" d="M398.031 3.60703C398.031 2.78265 397.362 2.11226 396.536 2.11226C395.714 2.11226 395.041 2.78265 395.041 3.60703C395.041 4.43142 395.714 5.10181 396.536 5.10181C397.362 5.10181 398.031 4.43142 398.031 3.60703Z" fill="#FF0000"/>
<path d="M398.031 3.60703C398.031 2.78265 397.362 2.11226 396.536 2.11226C395.714 2.11226 395.041 2.78265 395.041 3.60703C395.041 4.43142 395.714 5.10181 396.536 5.10181C397.362 5.10181 398.031 4.43142 398.031 3.60703" stroke="#FF0000"/>
<path fill-rule="evenodd" clip-rule="evenodd" d="M412.999 78.4641C412.999 77.642 412.331 76.9694 411.505 76.9694C410.678 76.9694 410.01 77.642 410.01 78.4641C410.01 79.2885 410.678 79.9612 411.505 79.9612C412.331 79.9612 412.999 79.2885 412.999 78.4641Z" fill="#FF0000"/>
<path d="M412.999 78.4641C412.999 77.642 412.331 76.9694 411.505 76.9694C410.678 76.9694 410.01 77.642 410.01 78.4641C410.01 79.2885 410.678 79.9612 411.505 79.9612C412.331 79.9612 412.999 79.2885 412.999 78.4641" stroke="#FF0000"/>
<path fill-rule="evenodd" clip-rule="evenodd" d="M412.999 63.4941C412.999 62.6674 412.331 61.997 411.505 61.997C410.678 61.997 410.01 62.6674 410.01 63.4941C410.01 64.3162 410.678 64.9866 411.505 64.9866C412.331 64.9866 412.999 64.3162 412.999 63.4941Z" fill="#FF0000"/>
<path d="M412.999 63.4941C412.999 62.6674 412.331 61.997 411.505 61.997C410.678 61.997 410.01 62.6674 410.01 63.4941C410.01 64.3162 410.678 64.9866 411.505 64.9866C412.331 64.9866 412.999 64.3162 412.999 63.4941" stroke="#FF0000"/>
<path fill-rule="evenodd" clip-rule="evenodd" d="M412.999 48.5209C412.999 47.6965 412.331 47.0261 411.505 47.0261C410.678 47.0261 410.01 47.6965 410.01 48.5209C410.01 49.3452 410.678 50.0156 411.505 50.0156C412.331 50.0156 412.999 49.3452 412.999 48.5209Z" fill="#FF0000"/>
<path d="M412.999 48.5209C412.999 47.6965 412.331 47.0261 411.505 47.0261C410.678 47.0261 410.01 47.6965 410.01 48.5209C410.01 49.3452 410.678 50.0156 411.505 50.0156C412.331 50.0156 412.999 49.3452 412.999 48.5209" stroke="#FF0000"/>
<path fill-rule="evenodd" clip-rule="evenodd" d="M412.999 33.5523C412.999 32.728 412.331 32.0576 411.505 32.0576C410.678 32.0576 410.01 32.728 410.01 33.5523C410.01 34.3745 410.678 35.0471 411.505 35.0471C412.331 35.0471 412.999 34.3745 412.999 33.5523Z" fill="#FF0000"/>
<path d="M412.999 33.5523C412.999 32.728 412.331 32.0576 411.505 32.0576C410.678 32.0576 410.01 32.728 410.01 33.5523C410.01 34.3745 410.678 35.0471 411.505 35.0471C412.331 35.0471 412.999 34.3745 412.999 33.5523" stroke="#FF0000"/>
<path fill-rule="evenodd" clip-rule="evenodd" d="M412.999 18.5779C412.999 17.7558 412.331 17.0854 411.505 17.0854C410.678 17.0854 410.01 17.7558 410.01 18.5779C410.01 19.4023 410.678 20.075 411.505 20.075C412.331 20.075 412.999 19.4023 412.999 18.5779Z" fill="#FF0000"/>
<path d="M412.999 18.5779C412.999 17.7558 412.331 17.0854 411.505 17.0854C410.678 17.0854 410.01 17.7558 410.01 18.5779C410.01 19.4023 410.678 20.075 411.505 20.075C412.331 20.075 412.999 19.4023 412.999 18.5779" stroke="#FF0000"/>
<path fill-rule="evenodd" clip-rule="evenodd" d="M412.999 3.60703C412.999 2.78265 412.331 2.11226 411.505 2.11226C410.678 2.11226 410.01 2.78265 410.01 3.60703C410.01 4.43142 410.678 5.10181 411.505 5.10181C412.331 5.10181 412.999 4.43142 412.999 3.60703Z" fill="#FF0000"/>
<path d="M412.999 3.60703C412.999 2.78265 412.331 2.11226 411.505 2.11226C410.678 2.11226 410.01 2.78265 410.01 3.60703C410.01 4.43142 410.678 5.10181 411.505 5.10181C412.331 5.10181 412.999 4.43142 412.999 3.60703" stroke="#FF0000"/>
</svg>
