<svg width="152" height="106" viewBox="0 0 152 106" fill="none" xmlns="http://www.w3.org/2000/svg">
<path d="M136.992 2H15.0078C7.8353 2 2 7.83531 2 15.0078V90.3901C2 97.5626 7.8353 103.398 15.0078 103.398H136.992C144.165 103.398 150 97.5626 150 90.3901V15.0078C150 7.83531 144.165 2 136.992 2ZM135.295 10.6719L133.558 12.1175L81.1609 55.7489C78.1703 58.2388 73.8291 58.2388 70.8391 55.7489L18.4416 12.1175L16.7055 10.6719H135.295ZM10.6719 16.9324L53.3641 52.4822L10.6719 80.895V16.9324ZM136.992 94.7261H15.0078C12.9127 94.7261 11.1604 93.2322 10.7589 91.2541L60.3172 58.2718L65.2902 62.4129C68.393 64.9966 72.1968 66.2884 76.0003 66.2884C79.8038 66.2884 83.6073 64.9966 86.7103 62.4129L91.6834 58.2718L141.241 91.2538C140.84 93.2325 139.087 94.7261 136.992 94.7261ZM141.328 80.895L98.6359 52.4825L141.328 16.9324V80.895Z" stroke="#FF0000" stroke-width="3.3739" stroke-linecap="round" stroke-linejoin="round" stroke-dasharray="0.56 6.75"/>
</svg>
