<svg width="364" height="364" viewBox="0 0 364 364" fill="none" xmlns="http://www.w3.org/2000/svg">
<path d="M329.875 5.6875H34.125C18.4446 5.6875 5.6875 18.4446 5.6875 34.125V244.562C5.6875 260.243 18.4446 273 34.125 273H140.555C145.213 279.654 147.875 287.571 147.875 295.75C147.875 301.688 146.476 307.5 143.956 312.812H119.438C103.757 312.812 91 325.57 91 341.25V352.625C91 355.764 93.5423 358.312 96.6875 358.312H267.312C270.458 358.312 273 355.764 273 352.625V341.25C273 325.57 260.243 312.812 244.562 312.812H220.044C217.518 307.5 216.125 301.682 216.125 295.75C216.125 287.463 218.719 279.694 223.422 273H329.875C345.555 273 358.312 260.243 358.312 244.562V34.125C358.312 18.4446 345.555 5.6875 329.875 5.6875ZM34.125 17.0625H329.875C339.282 17.0625 346.938 24.7179 346.938 34.125V193.375H335.562V39.8125C335.562 33.5392 330.461 28.4375 324.188 28.4375H39.8125C33.5392 28.4375 28.4375 33.5392 28.4375 39.8125V193.375H17.0625V34.125C17.0625 24.7179 24.7179 17.0625 34.125 17.0625ZM228.455 91.0171C233.21 87.3828 239.063 85.3125 245.16 85.3125C256.899 85.3125 267.432 92.9167 271.368 104.24C272.17 106.527 274.32 108.062 276.742 108.062H324.188V119.438H276.674C274.257 119.438 272.107 120.962 271.311 123.237C267.881 132.985 259.39 140.282 249.664 141.824C241.923 143.063 234.331 141.027 228.421 136.477C240.541 136 250.25 125.984 250.25 113.75C250.25 101.528 240.558 91.5233 228.455 91.0171ZM324.188 96.6875H280.564C274.132 82.9294 260.374 73.9375 245.16 73.9375C231.185 73.9375 218.167 81.5815 211.183 93.8779C210.182 95.641 210.193 97.7966 211.211 99.5483C212.229 101.3 214.106 102.375 216.131 102.375H227.5C233.773 102.375 238.875 107.477 238.875 113.75C238.875 120.023 233.773 125.125 227.494 125.125L216.119 125.131C214.1 125.131 212.223 126.206 211.211 127.963C210.193 129.715 210.182 131.876 211.183 133.634C218.309 146.157 231.203 153.562 245.165 153.562C247.241 153.562 249.34 153.398 251.45 153.068C263.923 151.083 274.939 142.523 280.479 130.818H324.188V193.381H39.8125V39.8125H324.188V96.6875ZM261.625 341.25V346.938H102.375V341.25C102.375 331.843 110.03 324.188 119.438 324.188H244.562C253.97 324.188 261.625 331.843 261.625 341.25ZM207.781 312.812H156.219C158.152 307.353 159.25 301.602 159.25 295.75C159.25 287.81 157.35 280.03 153.864 273H210.136C206.655 280.035 204.75 287.827 204.75 295.75C204.75 301.597 205.853 307.353 207.781 312.812ZM329.875 261.625H34.125C24.7179 261.625 17.0625 253.97 17.0625 244.562V204.75H346.938V244.562C346.938 253.97 339.282 261.625 329.875 261.625Z" stroke="#FF0000" stroke-width="4" stroke-linecap="round" stroke-linejoin="bevel" stroke-dasharray="0.5 6"/>
<path d="M182 216.125C172.593 216.125 164.938 223.78 164.938 233.188C164.938 242.595 172.593 250.25 182 250.25C191.407 250.25 199.062 242.595 199.062 233.188C199.062 223.78 191.407 216.125 182 216.125ZM182 238.875C178.861 238.875 176.312 236.321 176.312 233.188C176.312 230.054 178.861 227.5 182 227.5C185.139 227.5 187.688 230.054 187.688 233.188C187.688 236.321 185.139 238.875 182 238.875Z" stroke="#FF0000" stroke-width="4" stroke-linecap="round" stroke-linejoin="bevel" stroke-dasharray="0.5 6"/>
<path d="M79.625 130.812H87.4851L89.7658 135.38L81.2914 143.854C79.0676 146.078 79.0676 149.672 81.2914 151.896L98.3539 168.959C100.578 171.182 104.172 171.182 106.396 168.959L114.87 160.484L119.438 162.765V170.625C119.438 173.764 121.98 176.312 125.125 176.312H147.875C151.02 176.312 153.562 173.764 153.562 170.625V162.765L158.13 160.484L166.604 168.959C168.828 171.182 172.422 171.182 174.646 168.959L191.709 151.896C193.932 149.672 193.932 146.078 191.709 143.854L183.234 135.38L185.515 130.812H193.375C196.52 130.812 199.062 128.264 199.062 125.125V102.375C199.062 99.2355 196.52 96.6875 193.375 96.6875H185.515L183.234 92.1204L191.709 83.6461C193.932 81.4222 193.932 77.8278 191.709 75.6039L174.646 58.5414C172.422 56.3176 168.828 56.3176 166.604 58.5414L158.13 67.0158L153.562 64.7351V56.875C153.562 53.7355 151.02 51.1875 147.875 51.1875H125.125C121.98 51.1875 119.438 53.7355 119.438 56.875V64.7351L114.87 67.0158L106.396 58.5414C104.172 56.3176 100.578 56.3176 98.3539 58.5414L81.2914 75.6039C79.0676 77.8278 79.0676 81.4222 81.2914 83.6461L89.7658 92.1204L87.4851 96.6875H79.625C76.4798 96.6875 73.9375 99.2355 73.9375 102.375V125.125C73.9375 128.264 76.4798 130.812 79.625 130.812ZM85.3125 108.062H91C93.1556 108.062 95.1234 106.845 96.0903 104.917L101.778 93.5423C102.87 91.3526 102.443 88.7079 100.709 86.9789L93.3546 79.625L102.375 70.6046L109.729 77.9586C111.469 79.6932 114.114 80.1141 116.292 79.0278L127.667 73.3403C129.595 72.3734 130.812 70.4056 130.812 68.25V62.5625H142.188V68.25C142.188 70.4056 143.405 72.3734 145.333 73.3403L156.708 79.0278C158.897 80.1084 161.536 79.6932 163.271 77.9586L170.625 70.6046L179.645 79.625L172.291 86.9789C170.557 88.7079 170.13 91.3526 171.222 93.5423L176.91 104.917C177.877 106.845 179.844 108.062 182 108.062H187.688V119.438H182C179.844 119.438 177.877 120.655 176.91 122.583L171.222 133.958C170.13 136.147 170.557 138.792 172.291 140.521L179.645 147.875L170.625 156.895L163.271 149.541C161.536 147.812 158.897 147.397 156.708 148.472L145.333 154.16C143.405 155.127 142.188 157.094 142.188 159.25V164.938H130.812V159.25C130.812 157.094 129.595 155.127 127.667 154.16L116.292 148.472C114.103 147.386 111.464 147.801 109.729 149.541L102.375 156.895L93.3546 147.875L100.709 140.521C102.443 138.792 102.87 136.147 101.778 133.958L96.0903 122.583C95.1234 120.655 93.1556 119.438 91 119.438H85.3125V108.062Z" stroke="#FF0000" stroke-width="4" stroke-linecap="round" stroke-linejoin="bevel" stroke-dasharray="0.5 6"/>
<path d="M136.5 142.188C152.18 142.188 164.938 129.43 164.938 113.75C164.938 98.0696 152.18 85.3125 136.5 85.3125C120.82 85.3125 108.062 98.0696 108.062 113.75C108.062 129.43 120.82 142.188 136.5 142.188ZM136.5 96.6875C145.907 96.6875 153.562 104.343 153.562 113.75C153.562 123.157 145.907 130.812 136.5 130.812C127.093 130.812 119.438 123.157 119.438 113.75C119.438 104.343 127.093 96.6875 136.5 96.6875Z" stroke="#FF0000" stroke-width="4" stroke-linecap="round" stroke-linejoin="bevel" stroke-dasharray="0.5 6"/>
</svg>
