<svg width="115" height="130" viewBox="0 0 115 130" fill="none" xmlns="http://www.w3.org/2000/svg">
<path d="M44.5952 117.758C19.8117 117.758 2.5 101.352 2.5 77.8574C2.5 50.6008 16.1073 39.2982 16.6808 38.8299C17.7122 37.9985 19.096 37.7459 20.3431 38.1353C21.6007 38.53 22.5847 39.535 22.953 40.8031C22.9846 40.9136 25.3261 48.7644 31.0669 55.4733C29.783 41.9502 31.9035 19.0609 55.9346 2.68061C57.1028 1.89658 58.5919 1.78082 59.86 2.38068C61.1229 2.9858 61.9753 4.21708 62.0911 5.61675C62.7541 13.6201 67.0531 21.8234 72.0413 31.3264C76.2824 39.414 81.0918 48.5802 83.9701 58.7883C84.5594 60.8878 83.3439 63.0662 81.2444 63.6608C79.1449 64.2765 76.9665 63.0294 76.3719 60.9352C73.7146 51.5163 69.3051 43.1131 65.0483 34.9887C61.1018 27.4642 57.3238 20.2606 55.4137 12.9834C30.5933 34.1205 40.5857 63.8187 40.6909 64.1397C41.2329 65.6814 40.7646 67.402 39.507 68.4544C38.2494 69.5173 36.4761 69.6752 35.0501 68.8912C26.0523 63.9081 20.6904 55.3207 17.8911 49.4011C14.6182 54.2631 10.3929 63.3346 10.3929 77.8574C10.3929 99.968 27.573 109.866 44.5952 109.866C48.0523 109.866 51.4305 109.466 54.6244 108.666C56.7134 108.129 58.8761 109.424 59.4022 111.544C59.9337 113.654 58.6393 115.801 56.524 116.322C52.7091 117.274 48.6943 117.758 44.5952 117.758V117.758Z" stroke="#FF0000" stroke-width="3.3739" stroke-linecap="round" stroke-linejoin="round" stroke-dasharray="0.56 6.75"/>
<path d="M80.11 99.3418V97.6548H80.11L80.11 99.3418ZM74.8509 99.3418V101.029H74.8509L74.8509 99.3418ZM103.791 99.3418V101.029V99.3418ZM98.5266 99.3418V97.6548V99.3418ZM102.473 91.4489H100.786C100.786 92.3806 101.541 93.1359 102.473 93.1359V91.4489ZM76.1636 91.4489V93.1359C77.0952 93.1359 77.8505 92.3806 77.8505 91.4489H76.1636ZM94.5802 91.4489V93.1359C95.5119 93.1359 96.2672 92.3806 96.2672 91.4489H94.5802ZM84.0564 91.4489H82.3695C82.3695 92.3806 83.1247 93.1359 84.0564 93.1359V91.4489ZM79.9077 97.6548C78.976 97.6548 78.2208 98.4101 78.2208 99.3418C78.2208 100.273 78.976 101.029 79.9077 101.029L79.9077 97.6548ZM75.0532 101.029C75.9849 101.029 76.7401 100.273 76.7401 99.3418C76.7401 98.4101 75.9849 97.6548 75.0532 97.6548L75.0532 101.029ZM74.6709 97.6602C73.7409 97.7157 73.032 98.5147 73.0875 99.4447C73.143 100.375 73.9419 101.084 74.8719 101.028L74.6709 97.6602ZM75.2218 100.678C75.2773 99.7483 74.5683 98.9493 73.6383 98.8938C72.7083 98.8383 71.9094 99.5473 71.8538 100.477L75.2218 100.678ZM71.8485 100.893C71.8485 101.825 72.6038 102.58 73.5354 102.58C74.4671 102.58 75.2224 101.825 75.2224 100.893H71.8485ZM75.2224 106.56C75.2224 105.628 74.4671 104.873 73.5354 104.873C72.6038 104.873 71.8485 105.628 71.8485 106.56H75.2224ZM71.8485 107.032C71.8485 107.964 72.6038 108.719 73.5354 108.719C74.4671 108.719 75.2224 107.964 75.2224 107.032H71.8485ZM75.2224 112.699C75.2224 111.767 74.4671 111.012 73.5354 111.012C72.6038 111.012 71.8485 111.767 71.8485 112.699H75.2224ZM71.8485 113.171C71.8485 114.103 72.6038 114.858 73.5354 114.858C74.4671 114.858 75.2224 114.103 75.2224 113.171H71.8485ZM75.2224 118.838C75.2224 117.906 74.4671 117.151 73.5354 117.151C72.6038 117.151 71.8485 117.906 71.8485 118.838H75.2224ZM71.8538 119.254C71.9094 120.184 72.7083 120.893 73.6383 120.837C74.5683 120.782 75.2773 119.983 75.2218 119.053L71.8538 119.254ZM74.8719 118.703C73.9419 118.648 73.143 119.357 73.0875 120.287C73.032 121.217 73.7409 122.015 74.6709 122.071L74.8719 118.703ZM75.1292 122.076C76.0609 122.076 76.8161 121.321 76.8161 120.389C76.8161 119.458 76.0609 118.702 75.1292 118.702V122.076ZM81.8078 118.702C80.8761 118.702 80.1208 119.458 80.1208 120.389C80.1208 121.321 80.8761 122.076 81.8078 122.076V118.702ZM82.3643 122.076C83.296 122.076 84.0513 121.321 84.0513 120.389C84.0513 119.458 83.296 118.702 82.3643 118.702V122.076ZM89.0429 118.702C88.1112 118.702 87.3559 119.458 87.3559 120.389C87.3559 121.321 88.1112 122.076 89.0429 122.076V118.702ZM89.5994 122.076C90.5311 122.076 91.2864 121.321 91.2864 120.389C91.2864 119.458 90.5311 118.702 89.5994 118.702V122.076ZM96.278 118.702C95.3463 118.702 94.591 119.458 94.591 120.389C94.591 121.321 95.3463 122.076 96.278 122.076V118.702ZM96.8345 122.076C97.7662 122.076 98.5215 121.321 98.5215 120.389C98.5215 119.458 97.7662 118.702 96.8345 118.702V122.076ZM103.513 118.702C102.581 118.702 101.826 119.458 101.826 120.389C101.826 121.321 102.581 122.076 103.513 122.076V118.702ZM103.971 122.071C104.901 122.015 105.61 121.217 105.555 120.287C105.499 119.357 104.7 118.648 103.77 118.703L103.971 122.071ZM103.421 119.053C103.365 119.983 104.074 120.782 105.004 120.837C105.934 120.893 106.733 120.184 106.788 119.254L103.421 119.053ZM106.794 118.838C106.794 117.906 106.039 117.151 105.107 117.151C104.175 117.151 103.42 117.906 103.42 118.838H106.794ZM103.42 113.171C103.42 114.103 104.175 114.858 105.107 114.858C106.039 114.858 106.794 114.103 106.794 113.171H103.42ZM106.794 112.699C106.794 111.767 106.039 111.012 105.107 111.012C104.175 111.012 103.42 111.767 103.42 112.699H106.794ZM103.42 107.032C103.42 107.964 104.175 108.719 105.107 108.719C106.039 108.719 106.794 107.964 106.794 107.032H103.42ZM106.794 106.56C106.794 105.628 106.039 104.873 105.107 104.873C104.175 104.873 103.42 105.628 103.42 106.56H106.794ZM103.42 100.893C103.42 101.825 104.175 102.58 105.107 102.58C106.039 102.58 106.794 101.825 106.794 100.893H103.42ZM106.788 100.477C106.733 99.5473 105.934 98.8383 105.004 98.8938C104.074 98.9493 103.365 99.7483 103.421 100.678L106.788 100.477ZM103.77 101.028C104.7 101.084 105.499 100.375 105.555 99.4447C105.61 98.5147 104.901 97.7157 103.971 97.6602L103.77 101.028ZM103.589 97.6548C102.657 97.6548 101.902 98.4101 101.902 99.3418C101.902 100.273 102.657 101.029 103.589 101.029L103.589 97.6548ZM98.7291 101.029C99.6608 101.029 100.416 100.273 100.416 99.3418C100.416 98.4101 99.6608 97.6548 98.7291 97.6548L98.7291 101.029ZM98.2905 97.6548C97.3589 97.6548 96.6036 98.4101 96.6036 99.3418C96.6036 100.273 97.3589 101.029 98.2905 101.029V97.6548ZM92.6239 101.029C93.5556 101.029 94.3108 100.273 94.3108 99.3418C94.3108 98.4101 93.5556 97.6548 92.6239 97.6548V101.029ZM92.1517 97.6548C91.22 97.6548 90.4647 98.4101 90.4647 99.3418C90.4647 100.273 91.22 101.029 92.1517 101.029V97.6548ZM86.485 101.029C87.4167 101.029 88.1719 100.273 88.1719 99.3418C88.1719 98.4101 87.4167 97.6548 86.485 97.6548V101.029ZM86.0128 97.6548C85.0811 97.6548 84.3258 98.4101 84.3258 99.3418C84.3258 100.273 85.0811 101.029 86.0128 101.029V97.6548ZM80.3461 101.029C81.2778 101.029 82.0331 100.273 82.0331 99.3418C82.0331 98.4101 81.2778 97.6548 80.3461 97.6548V101.029ZM104.16 91.1454C104.16 90.2137 103.405 89.4584 102.473 89.4584C101.541 89.4584 100.786 90.2137 100.786 91.1454H104.16ZM100.786 83.8597C100.786 84.7913 101.541 85.5466 102.473 85.5466C103.405 85.5466 104.16 84.7913 104.16 83.8597H100.786ZM104.157 83.2567C104.139 82.3252 103.368 81.5851 102.437 81.6037C101.505 81.6222 100.765 82.3924 100.784 83.3239L104.157 83.2567ZM99.3637 78.0266C99.8144 78.842 100.841 79.1377 101.656 78.687C102.472 78.2363 102.767 77.21 102.317 76.3945L99.3637 78.0266ZM102.017 75.8774C101.534 75.0808 100.496 74.8267 99.6998 75.3098C98.9032 75.793 98.6491 76.8304 99.1322 77.627L102.017 75.8774ZM95.2474 73.7422C96.044 74.2253 97.0814 73.9712 97.5646 73.1746C98.0477 72.3779 97.7936 71.3405 96.997 70.8574L95.2474 73.7422ZM96.4799 70.5578C95.6644 70.1071 94.6381 70.4028 94.1874 71.2182C93.7367 72.0336 94.0324 73.06 94.8478 73.5107L96.4799 70.5578ZM89.5505 72.0906C90.482 72.1091 91.2522 71.369 91.2707 70.4375C91.2893 69.506 90.5492 68.7359 89.6177 68.7173L89.5505 72.0906ZM89.019 68.7173C88.0875 68.7359 87.3474 69.506 87.3659 70.4375C87.3844 71.369 88.1546 72.1091 89.0861 72.0906L89.019 68.7173ZM83.7888 73.5107C84.6043 73.06 84.8999 72.0336 84.4493 71.2182C83.9986 70.4028 82.9722 70.1071 82.1568 70.5578L83.7888 73.5107ZM81.6397 70.8574C80.8431 71.3405 80.5889 72.3779 81.0721 73.1746C81.5552 73.9712 82.5927 74.2253 83.3893 73.7422L81.6397 70.8574ZM79.5044 77.627C79.9875 76.8304 79.7334 75.793 78.9368 75.3098C78.1402 74.8267 77.1027 75.0808 76.6196 75.8774L79.5044 77.627ZM76.32 76.3945C75.8694 77.21 76.165 78.2363 76.9804 78.687C77.7959 79.1377 78.8222 78.842 79.2729 78.0266L76.32 76.3945ZM77.8528 83.3239C77.8714 82.3924 77.1313 81.6222 76.1998 81.6037C75.2683 81.5851 74.4981 82.3252 74.4796 83.2567L77.8528 83.3239ZM74.4766 83.8597C74.4766 84.7913 75.2319 85.5466 76.1636 85.5466C77.0952 85.5466 77.8505 84.7913 77.8505 83.8597H74.4766ZM77.8505 91.1454C77.8505 90.2137 77.0952 89.4584 76.1636 89.4584C75.2319 89.4584 74.4766 90.2137 74.4766 91.1454H77.8505ZM76.1131 89.762C75.1814 89.762 74.4261 90.5173 74.4261 91.4489C74.4261 92.3806 75.1814 93.1359 76.1131 93.1359V89.762ZM74.9014 93.1359C75.8331 93.1359 76.5884 92.3806 76.5884 91.4489C76.5884 90.5173 75.8331 89.762 74.9014 89.762V93.1359ZM74.5218 89.7669C73.5905 89.7947 72.8582 90.5722 72.886 91.5035C72.9138 92.4347 73.6913 93.1671 74.6226 93.1393L74.5218 89.7669ZM69.6988 95.1833C70.377 94.5445 70.409 93.4769 69.7702 92.7986C69.1314 92.1204 68.0638 92.0885 67.3855 92.7272L69.6988 95.1833ZM66.9209 93.1919C66.2821 93.8701 66.3141 94.9378 66.9923 95.5765C67.6705 96.2153 68.7381 96.1834 69.3769 95.5051L66.9209 93.1919ZM67.3329 100.429C67.3608 99.4977 66.6284 98.7202 65.6971 98.6923C64.7658 98.6645 63.9884 99.3969 63.9605 100.328L67.3329 100.429ZM63.9556 100.893C63.9556 101.825 64.7109 102.58 65.6426 102.58C66.5743 102.58 67.3295 101.825 67.3295 100.893H63.9556ZM67.3295 106.56C67.3295 105.628 66.5743 104.873 65.6426 104.873C64.7109 104.873 63.9556 105.628 63.9556 106.56H67.3295ZM63.9556 107.032C63.9556 107.964 64.7109 108.719 65.6426 108.719C66.5743 108.719 67.3295 107.964 67.3295 107.032H63.9556ZM67.3295 112.699C67.3295 111.767 66.5743 111.012 65.6426 111.012C64.7109 111.012 63.9556 111.767 63.9556 112.699H67.3295ZM63.9556 113.171C63.9556 114.103 64.7109 114.858 65.6426 114.858C66.5743 114.858 67.3295 114.103 67.3295 113.171H63.9556ZM67.3295 118.838C67.3295 117.906 66.5743 117.151 65.6426 117.151C64.7109 117.151 63.9556 117.906 63.9556 118.838H67.3295ZM63.9605 119.403C63.9884 120.334 64.7658 121.067 65.6971 121.039C66.6284 121.011 67.3608 120.234 67.3329 119.302L63.9605 119.403ZM69.3769 124.226C68.7381 123.548 67.6705 123.516 66.9923 124.155C66.3141 124.793 66.2821 125.861 66.9209 126.539L69.3769 124.226ZM67.3856 127.004C68.0638 127.643 69.1314 127.611 69.7702 126.933C70.409 126.254 70.377 125.187 69.6988 124.548L67.3856 127.004ZM74.6226 126.592C73.6913 126.564 72.9138 127.296 72.886 128.228C72.8582 129.159 73.5906 129.936 74.5218 129.964L74.6226 126.592ZM75.1292 129.969C76.0609 129.969 76.8161 129.214 76.8161 128.282C76.8161 127.351 76.0609 126.595 75.1292 126.595V129.969ZM81.8078 126.595C80.8761 126.595 80.1208 127.351 80.1208 128.282C80.1208 129.214 80.8761 129.969 81.8078 129.969V126.595ZM82.3643 129.969C83.296 129.969 84.0513 129.214 84.0513 128.282C84.0513 127.351 83.296 126.595 82.3643 126.595V129.969ZM89.0429 126.595C88.1112 126.595 87.3559 127.351 87.3559 128.282C87.3559 129.214 88.1112 129.969 89.0429 129.969V126.595ZM89.5994 129.969C90.5311 129.969 91.2864 129.214 91.2864 128.282C91.2864 127.351 90.5311 126.595 89.5994 126.595V129.969ZM96.278 126.595C95.3463 126.595 94.591 127.351 94.591 128.282C94.591 129.214 95.3463 129.969 96.278 129.969V126.595ZM96.8345 129.969C97.7662 129.969 98.5215 129.214 98.5215 128.282C98.5215 127.351 97.7662 126.595 96.8345 126.595V129.969ZM103.513 126.595C102.581 126.595 101.826 127.351 101.826 128.282C101.826 129.214 102.581 129.969 103.513 129.969V126.595ZM104.12 129.964C105.052 129.936 105.784 129.159 105.756 128.228C105.728 127.296 104.951 126.564 104.02 126.592L104.12 129.964ZM108.944 124.548C108.265 125.187 108.233 126.254 108.872 126.933C109.511 127.611 110.579 127.643 111.257 127.004L108.944 124.548ZM111.721 126.539C112.36 125.861 112.328 124.793 111.65 124.155C110.972 123.516 109.904 123.548 109.265 124.226L111.721 126.539ZM111.309 119.302C111.282 120.234 112.014 121.011 112.945 121.039C113.876 121.067 114.654 120.334 114.682 119.403L111.309 119.302ZM114.687 118.838C114.687 117.906 113.931 117.151 113 117.151C112.068 117.151 111.313 117.906 111.313 118.838H114.687ZM111.313 113.171C111.313 114.103 112.068 114.858 113 114.858C113.931 114.858 114.687 114.103 114.687 113.171H111.313ZM114.687 112.699C114.687 111.767 113.931 111.012 113 111.012C112.068 111.012 111.313 111.767 111.313 112.699H114.687ZM111.313 107.032C111.313 107.964 112.068 108.719 113 108.719C113.931 108.719 114.687 107.964 114.687 107.032H111.313ZM114.687 106.56C114.687 105.628 113.931 104.873 113 104.873C112.068 104.873 111.313 105.628 111.313 106.56H114.687ZM111.313 100.893C111.313 101.825 112.068 102.58 113 102.58C113.931 102.58 114.687 101.825 114.687 100.893H111.313ZM114.682 100.328C114.654 99.3969 113.876 98.6645 112.945 98.6923C112.014 98.7202 111.282 99.4977 111.309 100.429L114.682 100.328ZM109.265 95.5051C109.904 96.1834 110.972 96.2153 111.65 95.5765C112.328 94.9378 112.36 93.8701 111.721 93.1919L109.265 95.5051ZM111.257 92.7272C110.579 92.0885 109.511 92.1204 108.872 92.7986C108.233 93.4769 108.265 94.5445 108.944 95.1833L111.257 92.7272ZM104.02 93.1393C104.951 93.1671 105.728 92.4347 105.756 91.5035C105.784 90.5722 105.052 89.7947 104.12 89.7669L104.02 93.1393ZM103.741 89.762C102.809 89.762 102.054 90.5173 102.054 91.4489C102.054 92.3806 102.809 93.1359 103.741 93.1359V89.762ZM102.524 93.1359C103.455 93.1359 104.211 92.3806 104.211 91.4489C104.211 90.5173 103.455 89.762 102.524 89.762V93.1359ZM94.1755 89.762C93.2438 89.762 92.4885 90.5173 92.4885 91.4489C92.4885 92.3806 93.2438 93.1359 94.1755 93.1359V89.762ZM84.4612 93.1359C85.3929 93.1359 86.1481 92.3806 86.1481 91.4489C86.1481 90.5173 85.3929 89.762 84.4612 89.762V93.1359ZM85.7434 91.1454C85.7434 90.2137 84.9881 89.4584 84.0564 89.4584C83.1247 89.4584 82.3695 90.2137 82.3695 91.1454H85.7434ZM82.3695 83.8597C82.3695 84.7913 83.1247 85.5466 84.0564 85.5466C84.9881 85.5466 85.7434 84.7913 85.7434 83.8597H82.3695ZM85.7498 83.3387C85.8053 82.4086 85.0964 81.6097 84.1664 81.5542C83.2364 81.4987 82.4374 82.2076 82.3819 83.1376L85.7498 83.3387ZM88.8999 76.6197C87.9699 76.6752 87.2609 77.4741 87.3164 78.4042C87.3719 79.3342 88.1709 80.0431 89.1009 79.9876L88.8999 76.6197ZM89.5357 79.9876C90.4658 80.0431 91.2647 79.3342 91.3202 78.4042C91.3757 77.4741 90.6668 76.6752 89.7368 76.6197L89.5357 79.9876ZM96.2547 83.1376C96.1992 82.2076 95.4003 81.4987 94.4702 81.5542C93.5402 81.6097 92.8313 82.4086 92.8868 83.3387L96.2547 83.1376ZM92.8933 83.8597C92.8933 84.7913 93.6485 85.5466 94.5802 85.5466C95.5119 85.5466 96.2672 84.7913 96.2672 83.8597H92.8933ZM96.2672 91.1454C96.2672 90.2137 95.5119 89.4584 94.5802 89.4584C93.6485 89.4584 92.8933 90.2137 92.8933 91.1454H96.2672ZM80.11 97.6548H79.9077L79.9077 101.029H80.11L80.11 97.6548ZM75.0532 97.6548H74.8509L74.8509 101.029H75.0532L75.0532 97.6548ZM74.8509 97.6548C74.7907 97.6548 74.7307 97.6566 74.6709 97.6602L74.8719 101.028C74.8648 101.029 74.8578 101.029 74.8509 101.029V97.6548ZM71.8538 100.477C71.8503 100.537 71.8485 100.597 71.8485 100.657H75.2224C75.2224 100.664 75.2222 100.671 75.2218 100.678L71.8538 100.477ZM71.8485 100.657V100.893H75.2224V100.657H71.8485ZM71.8485 106.56V107.032H75.2224V106.56H71.8485ZM71.8485 112.699V113.171H75.2224V112.699H71.8485ZM71.8485 118.838V119.074H75.2224V118.838H71.8485ZM71.8485 119.074C71.8485 119.134 71.8503 119.194 71.8538 119.254L75.2218 119.053C75.2222 119.06 75.2224 119.067 75.2224 119.074H71.8485ZM74.6709 122.071C74.7307 122.075 74.7907 122.076 74.8509 122.076V118.702C74.8578 118.702 74.8648 118.703 74.8719 118.703L74.6709 122.071ZM74.8509 122.076H75.1292V118.702H74.8509V122.076ZM81.8078 122.076H82.3643V118.702H81.8078V122.076ZM89.0429 122.076H89.5994V118.702H89.0429V122.076ZM96.278 122.076H96.8345V118.702H96.278V122.076ZM103.513 122.076H103.791V118.702H103.513V122.076ZM103.791 122.076C103.852 122.076 103.912 122.075 103.971 122.071L103.77 118.703C103.778 118.703 103.785 118.702 103.791 118.702V122.076ZM106.788 119.254C106.792 119.194 106.794 119.134 106.794 119.074H103.42C103.42 119.067 103.42 119.06 103.421 119.053L106.788 119.254ZM106.794 119.074V118.838H103.42V119.074H106.794ZM106.794 113.171V112.699H103.42V113.171H106.794ZM106.794 107.032V106.56H103.42V107.032H106.794ZM106.794 100.893V100.657H103.42V100.893H106.794ZM106.794 100.657C106.794 100.597 106.792 100.537 106.788 100.477L103.421 100.678C103.42 100.671 103.42 100.664 103.42 100.657H106.794ZM103.971 97.6602C103.912 97.6566 103.852 97.6548 103.791 97.6548V101.029C103.785 101.029 103.778 101.029 103.77 101.028L103.971 97.6602ZM103.791 97.6548H103.589L103.589 101.029H103.791V97.6548ZM98.7291 97.6548H98.5266V101.029H98.7291L98.7291 97.6548ZM98.5266 97.6548H98.2905V101.029H98.5266V97.6548ZM92.6239 97.6548H92.1517V101.029H92.6239V97.6548ZM86.485 97.6548H86.0128V101.029H86.485V97.6548ZM80.3461 97.6548H80.11V101.029H80.3461V97.6548ZM104.16 91.4489V91.1454H100.786V91.4489H104.16ZM104.16 83.8597V83.5561H100.786V83.8597H104.16ZM104.16 83.5561C104.16 83.4561 104.159 83.3563 104.157 83.2567L100.784 83.3239C100.785 83.4011 100.786 83.4785 100.786 83.5561H104.16ZM102.317 76.3945C102.22 76.22 102.12 76.0476 102.017 75.8774L99.1322 77.627C99.212 77.7585 99.2892 77.8918 99.3637 78.0266L102.317 76.3945ZM96.997 70.8574C96.8268 70.7542 96.6544 70.6543 96.4799 70.5578L94.8478 73.5107C94.9826 73.5852 95.1159 73.6624 95.2474 73.7422L96.997 70.8574ZM89.6177 68.7173C89.5181 68.7154 89.4183 68.7144 89.3183 68.7144V72.0883C89.3959 72.0883 89.4733 72.089 89.5505 72.0906L89.6177 68.7173ZM89.3183 68.7144C89.2183 68.7144 89.1185 68.7154 89.019 68.7173L89.0861 72.0906C89.1633 72.089 89.2407 72.0883 89.3183 72.0883V68.7144ZM82.1568 70.5578C81.9822 70.6543 81.8098 70.7542 81.6397 70.8574L83.3893 73.7422C83.5208 73.6624 83.654 73.5852 83.7888 73.5107L82.1568 70.5578ZM76.6196 75.8774C76.5164 76.0476 76.4165 76.22 76.32 76.3945L79.2729 78.0266C79.3475 77.8918 79.4246 77.7585 79.5044 77.627L76.6196 75.8774ZM74.4796 83.2567C74.4776 83.3563 74.4766 83.4561 74.4766 83.5561H77.8505C77.8505 83.4785 77.8513 83.4011 77.8528 83.3239L74.4796 83.2567ZM74.4766 83.5561V83.8597H77.8505V83.5561H74.4766ZM74.4766 91.1454V91.4489H77.8505V91.1454H74.4766ZM76.1636 89.762H76.1131V93.1359H76.1636V89.762ZM74.9014 89.762H74.8509V93.1359H74.9014V89.762ZM74.8509 89.762C74.7409 89.762 74.6312 89.7636 74.5218 89.7669L74.6226 93.1393C74.6984 93.137 74.7745 93.1359 74.8509 93.1359V89.762ZM67.3855 92.7272C67.2261 92.8775 67.0711 93.0324 66.9209 93.1919L69.3769 95.5051C69.481 95.3947 69.5883 95.2873 69.6988 95.1833L67.3855 92.7272ZM63.9605 100.328C63.9573 100.438 63.9556 100.547 63.9556 100.657H67.3295C67.3295 100.581 67.3307 100.505 67.3329 100.429L63.9605 100.328ZM63.9556 100.657V100.893H67.3295V100.657H63.9556ZM63.9556 106.56V107.032H67.3295V106.56H63.9556ZM63.9556 112.699V113.171H67.3295V112.699H63.9556ZM63.9556 118.838V119.074H67.3295V118.838H63.9556ZM63.9556 119.074C63.9556 119.184 63.9573 119.294 63.9605 119.403L67.3329 119.302C67.3307 119.226 67.3295 119.15 67.3295 119.074H63.9556ZM66.9209 126.539C67.0711 126.699 67.2261 126.854 67.3856 127.004L69.6988 124.548C69.5883 124.444 69.481 124.337 69.3769 124.226L66.9209 126.539ZM74.5218 129.964C74.6312 129.968 74.7409 129.969 74.8509 129.969V126.595C74.7745 126.595 74.6984 126.594 74.6226 126.592L74.5218 129.964ZM74.8509 129.969H75.1292V126.595H74.8509V129.969ZM81.8078 129.969H82.3643V126.595H81.8078V129.969ZM89.0429 129.969H89.5994V126.595H89.0429V129.969ZM96.278 129.969H96.8345V126.595H96.278V129.969ZM103.513 129.969H103.791V126.595H103.513V129.969ZM103.791 129.969C103.901 129.969 104.011 129.968 104.12 129.964L104.02 126.592C103.944 126.594 103.868 126.595 103.791 126.595V129.969ZM111.257 127.004C111.416 126.854 111.571 126.699 111.721 126.539L109.265 124.226C109.161 124.337 109.054 124.444 108.944 124.548L111.257 127.004ZM114.682 119.403C114.685 119.294 114.687 119.184 114.687 119.074H111.313C111.313 119.15 111.312 119.226 111.309 119.302L114.682 119.403ZM114.687 119.074V118.838H111.313V119.074H114.687ZM114.687 113.171V112.699H111.313V113.171H114.687ZM114.687 107.032V106.56H111.313V107.032H114.687ZM114.687 100.893V100.657H111.313V100.893H114.687ZM114.687 100.657C114.687 100.547 114.685 100.438 114.682 100.328L111.309 100.429C111.312 100.505 111.313 100.581 111.313 100.657H114.687ZM111.721 93.1919C111.571 93.0324 111.416 92.8775 111.257 92.7272L108.944 95.1833C109.054 95.2873 109.161 95.3947 109.265 95.5051L111.721 93.1919ZM104.12 89.7669C104.011 89.7636 103.901 89.762 103.791 89.762V93.1359C103.868 93.1359 103.944 93.137 104.02 93.1393L104.12 89.7669ZM103.791 89.762H103.741V93.1359H103.791V89.762ZM102.524 89.762H102.473V93.1359H102.524V89.762ZM94.5802 89.762H94.1755V93.1359H94.5802V89.762ZM84.4612 89.762H84.0564V93.1359H84.4612V89.762ZM85.7434 91.4489V91.1454H82.3695V91.4489H85.7434ZM85.7434 83.8597V83.5561H82.3695V83.8597H85.7434ZM85.7434 83.5561C85.7434 83.4829 85.7456 83.4104 85.7498 83.3387L82.3819 83.1376C82.3736 83.2763 82.3695 83.4158 82.3695 83.5561H85.7434ZM89.1009 79.9876C89.1726 79.9833 89.2451 79.9811 89.3183 79.9811V76.6072C89.178 76.6072 89.0385 76.6114 88.8999 76.6197L89.1009 79.9876ZM89.3183 79.9811C89.3915 79.9811 89.464 79.9833 89.5357 79.9876L89.7368 76.6197C89.5981 76.6114 89.4586 76.6072 89.3183 76.6072V79.9811ZM92.8868 83.3387C92.8911 83.4104 92.8933 83.4829 92.8933 83.5561H96.2672C96.2672 83.4158 96.263 83.2763 96.2547 83.1376L92.8868 83.3387ZM92.8933 83.5561V83.8597H96.2672V83.5561H92.8933ZM92.8933 91.1454V91.4489H96.2672V91.1454H92.8933Z" fill="#FF0000"/>
</svg>
