<svg width="358" height="358" viewBox="0 0 358 358" fill="none" xmlns="http://www.w3.org/2000/svg">
<path d="M326.875 2.6875H31.125C15.4446 2.6875 2.6875 15.4446 2.6875 31.125V241.562C2.6875 257.243 15.4446 270 31.125 270H137.555C142.213 276.654 144.875 284.571 144.875 292.75C144.875 298.688 143.476 304.5 140.956 309.812H116.438C100.757 309.812 88 322.57 88 338.25V349.625C88 352.764 90.5423 355.312 93.6875 355.312H264.312C267.458 355.312 270 352.764 270 349.625V338.25C270 322.57 257.243 309.812 241.562 309.812H217.044C214.518 304.5 213.125 298.682 213.125 292.75C213.125 284.463 215.719 276.694 220.422 270H326.875C342.555 270 355.312 257.243 355.312 241.562V31.125C355.312 15.4446 342.555 2.6875 326.875 2.6875ZM31.125 14.0625H326.875C336.282 14.0625 343.938 21.7179 343.938 31.125V190.375H332.562V36.8125C332.562 30.5392 327.461 25.4375 321.188 25.4375H36.8125C30.5392 25.4375 25.4375 30.5392 25.4375 36.8125V190.375H14.0625V31.125C14.0625 21.7179 21.7179 14.0625 31.125 14.0625ZM225.455 88.0171C230.21 84.3828 236.063 82.3125 242.16 82.3125C253.899 82.3125 264.432 89.9167 268.368 101.24C269.17 103.527 271.32 105.062 273.742 105.062H321.188V116.438H273.674C271.257 116.438 269.107 117.962 268.311 120.237C264.881 129.985 256.39 137.282 246.664 138.824C238.923 140.063 231.331 138.027 225.421 133.477C237.541 133 247.25 122.984 247.25 110.75C247.25 98.5276 237.558 88.5233 225.455 88.0171ZM321.188 93.6875H277.564C271.132 79.9294 257.374 70.9375 242.16 70.9375C228.185 70.9375 215.167 78.5815 208.183 90.8779C207.182 92.641 207.193 94.7966 208.211 96.5483C209.229 98.3001 211.106 99.375 213.131 99.375H224.5C230.773 99.375 235.875 104.477 235.875 110.75C235.875 117.023 230.773 122.125 224.494 122.125L213.119 122.131C211.1 122.131 209.223 123.206 208.211 124.963C207.193 126.715 207.182 128.876 208.183 130.634C215.309 143.157 228.203 150.562 242.165 150.562C244.241 150.562 246.34 150.398 248.45 150.068C260.923 148.083 271.939 139.523 277.479 127.818H321.188V190.381H36.8125V36.8125H321.188V93.6875ZM258.625 338.25V343.938H99.375V338.25C99.375 328.843 107.03 321.188 116.438 321.188H241.562C250.97 321.188 258.625 328.843 258.625 338.25ZM204.781 309.812H153.219C155.152 304.353 156.25 298.602 156.25 292.75C156.25 284.81 154.35 277.03 150.864 270H207.136C203.655 277.035 201.75 284.827 201.75 292.75C201.75 298.597 202.853 304.353 204.781 309.812ZM326.875 258.625H31.125C21.7179 258.625 14.0625 250.97 14.0625 241.562V201.75H343.938V241.562C343.938 250.97 336.282 258.625 326.875 258.625Z" stroke="#FF0000" stroke-width="4" stroke-linecap="round" stroke-linejoin="bevel" stroke-dasharray="0.5 6"/>
</svg>
