<svg width="254" height="111" viewBox="0 0 254 111" fill="none" xmlns="http://www.w3.org/2000/svg">
<path d="M73.8452 4.82086L75.5103 4.55011L75.5096 4.54613L73.8452 4.82086ZM70.0792 2.12388L70.1843 3.80755C70.1946 3.80691 70.2048 3.80618 70.2151 3.80535L70.0792 2.12388ZM68.047 22.5692L66.7702 21.4666L66.7661 21.4713L68.047 22.5692ZM65.6664 24.9657L64.5571 23.6948C63.9805 24.198 63.815 25.0263 64.1537 25.7124C64.4924 26.3986 65.2506 26.7709 66.0007 26.6192L65.6664 24.9657ZM95.3198 35.107L94.0582 36.2269L94.0598 36.2287L95.3198 35.107ZM94.2611 39.8189L93.515 38.3059L93.5117 38.3075L94.2611 39.8189ZM84.2349 56.342L82.5532 56.4742L82.5532 56.4753L84.2349 56.342ZM96.8617 71.842L97.4151 70.2483L97.409 70.2462L96.8617 71.842ZM98.8655 73.5789L97.3385 74.2958L97.3407 74.3005L98.8655 73.5789ZM98.83 76.0675L97.3236 75.3082L97.3199 75.3155L98.83 76.0675ZM91.7598 87.9988L93.1248 88.99L93.125 88.9898L91.7598 87.9988ZM70.4357 103.164L70.4302 104.851C70.4359 104.851 70.4416 104.851 70.4473 104.851L70.4357 103.164ZM61.4043 101.105L62.0528 99.5475L62.0519 99.5471L61.4043 101.105ZM61.3956 101.101L62.0431 99.5435L62.0415 99.5428L61.3956 101.101ZM52.4938 99.1721L52.5039 100.859C52.5157 100.859 52.5274 100.859 52.5391 100.858L52.4938 99.1721ZM43.4991 101.131L42.8693 99.5659L42.8691 99.5659L43.4991 101.131ZM43.4696 101.143L44.0988 102.708L44.0995 102.708L43.4696 101.143ZM43.438 101.155L44.067 102.721L44.0672 102.721L43.438 101.155ZM34.3387 103.183L34.3251 104.87H34.3387V103.183ZM13.3485 88.7441L14.7142 87.7537L14.7134 87.7527L13.3485 88.7441ZM7.30869 37.7283L5.93889 36.7436L5.93766 36.7454L7.30869 37.7283ZM44.5212 26.6686L44.0031 28.274L44.0035 28.2742L44.5212 26.6686ZM44.5583 26.6806L45.0759 25.075L44.5583 26.6806ZM45.3357 26.9305L44.8219 28.5373C45.3586 28.709 45.9457 28.6012 46.3865 28.2502C46.8274 27.8992 47.0638 27.3512 47.0167 26.7896L45.3357 26.9305ZM51.5617 11.0738L52.8069 12.212L52.809 12.2097L51.5617 11.0738ZM62.405 18.7353L63.5263 19.9956C63.5808 19.9472 63.632 19.8953 63.6798 19.8402L62.405 18.7353ZM62.3979 18.7416L61.2767 17.4812C61.22 17.5316 61.1668 17.5858 61.1174 17.6434L62.3979 18.7416ZM66.9029 9.10951L68.5799 9.29311C68.6413 8.73173 68.4178 8.17684 67.9844 7.81481C67.551 7.45277 66.9652 7.33163 66.4237 7.49206L66.9029 9.10951ZM57.0758 15.053L58.3201 16.192L58.322 16.19L57.0758 15.053ZM52.4286 24.6093L50.7491 24.451C50.6989 24.9842 50.9048 25.5095 51.304 25.8666C51.7031 26.2236 52.2481 26.3699 52.7724 26.2608L52.4286 24.6093ZM85.7982 84.5754L87.1634 85.5664L87.1638 85.5658L85.7982 84.5754ZM70.3788 96.854L70.346 98.5407C70.3613 98.541 70.3765 98.5411 70.3917 98.5409L70.3788 96.854ZM90.9214 76.3328L92.4194 77.1084C92.6279 76.7058 92.6655 76.2363 92.5239 75.8056C92.3822 75.375 92.0731 75.0194 91.6664 74.8192L90.9214 76.3328ZM77.1506 56.7905L78.8322 56.657L78.8322 56.6569L77.1506 56.7905ZM87.1411 36.465L88.1035 37.8505C88.5325 37.5526 88.7992 37.0727 88.8259 36.5511C88.8526 36.0295 88.6361 35.525 88.2398 35.1848L87.1411 36.465ZM61.8037 32.7054L62.3492 34.3017L62.3493 34.3017L61.8037 32.7054ZM61.7809 32.7132L62.3264 34.3095L62.3264 34.3095L61.7809 32.7132ZM61.7545 32.7222L62.3 34.3186L62.3 34.3186L61.7545 32.7222ZM42.1328 32.621L41.6163 34.2269L41.6163 34.2269L42.1328 32.621ZM42.1053 32.6121L42.6218 31.0062L42.6207 31.0059L42.1053 32.6121ZM42.0353 32.5897L41.5198 34.196L41.5199 34.196L42.0353 32.5897ZM13.2917 41.1264L11.922 40.1417L11.9211 40.1429L13.2917 41.1264ZM19.3173 85.3207L20.6835 84.3311L20.6823 84.3295L19.3173 85.3207ZM34.4027 96.8667L34.3885 98.5536C34.421 98.5538 34.4536 98.5532 34.4862 98.5516L34.4027 96.8667ZM40.5349 95.395L41.1601 96.9619L41.1674 96.9589L40.5349 95.395ZM52.4583 92.8685L52.4767 91.1817C52.4681 91.1816 52.4595 91.1816 52.4508 91.1816L52.4583 92.8685ZM64.4171 95.3887L65.0646 93.8309L65.0631 93.8303L64.4171 95.3887ZM72.2143 5.3118C72.3506 6.23345 73.2083 6.87009 74.1299 6.73377C75.0516 6.59745 75.6882 5.7398 75.5519 4.81815L72.2143 5.3118ZM75.442 11.2598C75.6025 10.3421 74.9887 9.46795 74.0709 9.3074C73.1532 9.14686 72.2791 9.76068 72.1185 10.6784L75.442 11.2598ZM72.035 11.1237C71.8522 12.0373 72.4446 12.9261 73.3582 13.1089C74.2718 13.2917 75.1606 12.6992 75.3434 11.7857L72.035 11.1237ZM73.2626 17.7934C73.6779 16.9594 73.3385 15.9467 72.5044 15.5314C71.6704 15.1161 70.6577 15.4555 70.2424 16.2896L73.2626 17.7934ZM70.0331 16.6996C69.6012 17.5251 69.9203 18.5444 70.7458 18.9764C71.5713 19.4083 72.5906 19.0892 73.0225 18.2637L70.0331 16.6996ZM69.4942 23.4725C70.0971 22.7622 70.0099 21.6976 69.2996 21.0948C68.5892 20.492 67.5246 20.5791 66.9218 21.2895L69.4942 23.4725ZM66.6876 21.5623C66.0772 22.2662 66.1529 23.3316 66.8567 23.942C67.5606 24.5525 68.626 24.4768 69.2365 23.7729L66.6876 21.5623ZM66.8802 26.145C67.5788 25.5286 67.6455 24.4625 67.0291 23.7639C66.4127 23.0653 65.3467 22.9986 64.6481 23.6149L66.8802 26.145ZM66.2435 26.5711C67.1581 26.3934 67.7555 25.508 67.5778 24.5934C67.4002 23.6788 66.5147 23.0814 65.6001 23.2591L66.2435 26.5711ZM72.124 22.6141C71.1924 22.6208 70.4426 23.3815 70.4493 24.3132C70.456 25.2448 71.2167 25.9946 72.1484 25.9879L72.124 22.6141ZM72.6313 25.9881C73.5629 25.9971 74.3254 25.2492 74.3344 24.3176C74.3434 23.3859 73.5955 22.6234 72.6639 22.6144L72.6313 25.9881ZM78.9947 23.384C78.0872 23.1731 77.1806 23.7379 76.9697 24.6454C76.7588 25.5529 77.3235 26.4595 78.231 26.6704L78.9947 23.384ZM78.6905 26.7813C79.5942 27.0077 80.5104 26.4586 80.7368 25.5548C80.9632 24.6511 80.4141 23.7349 79.5103 23.5085L78.6905 26.7813ZM85.479 25.6513C84.6366 25.2534 83.6311 25.6137 83.2332 26.4561C82.8352 27.2985 83.1955 28.304 84.0379 28.702L85.479 25.6513ZM84.4659 28.9083C85.302 29.3194 86.313 28.9749 86.7241 28.1388C87.1352 27.3027 86.7907 26.2917 85.9546 25.8806L84.4659 28.9083ZM91.3468 29.1818C90.5999 28.6249 89.5429 28.7788 88.986 29.5257C88.429 30.2726 88.583 31.3296 89.3299 31.8865L91.3468 29.1818ZM89.7094 32.174C90.4478 32.7421 91.507 32.6041 92.0751 31.8658C92.6433 31.1274 92.5053 30.0682 91.7669 29.5L89.7094 32.174ZM96.4055 33.7905C95.7817 33.0984 94.715 33.043 94.023 33.6668C93.3309 34.2906 93.2756 35.3573 93.8993 36.0493L96.4055 33.7905ZM94.0927 36.267C94.6887 36.9831 95.7524 37.0805 96.4685 36.4846C97.1846 35.8886 97.282 34.8249 96.6861 34.1088L94.0927 36.267ZM97.6971 37.8795C97.8628 36.9626 97.2539 36.0851 96.3371 35.9194C95.4202 35.7537 94.5427 36.3626 94.377 37.2794L97.6971 37.8795ZM94.358 37.366C94.1233 38.2676 94.6639 39.1888 95.5656 39.4235C96.4672 39.6582 97.3884 39.1176 97.6231 38.216L94.358 37.366ZM95.1492 41.2592C95.9724 40.8228 96.2858 39.8017 95.8494 38.9786C95.4129 38.1554 94.3919 37.842 93.5687 38.2784L95.1492 41.2592ZM93.2573 38.4355C92.4276 38.8592 92.0984 39.8753 92.522 40.7051C92.9457 41.5349 93.9618 41.8641 94.7916 41.4404L93.2573 38.4355ZM90.1154 44.8167C90.7701 44.1538 90.7634 43.0857 90.1005 42.431C89.4376 41.7763 88.3695 41.783 87.7149 42.4459L90.1154 44.8167ZM87.3149 42.8632C86.6803 43.5453 86.7188 44.6128 87.4009 45.2474C88.083 45.882 89.1505 45.8434 89.7851 45.1613L87.3149 42.8632ZM86.787 49.9426C87.1175 49.0716 86.6793 48.0975 85.8082 47.767C84.9371 47.4365 83.963 47.8747 83.6325 48.7458L86.787 49.9426ZM83.4344 49.2955C83.1334 50.1772 83.6042 51.136 84.4859 51.437C85.3676 51.738 86.3264 51.2673 86.6274 50.3856L83.4344 49.2955ZM85.8998 55.9717C85.841 55.0419 85.0396 54.3358 84.1098 54.3945C83.18 54.4533 82.4738 55.2547 82.5326 56.1845L85.8998 55.9717ZM82.5792 56.7728C82.6673 57.7003 83.4906 58.3807 84.4181 58.2926C85.3456 58.2045 86.0261 57.3811 85.9379 56.4536L82.5792 56.7728ZM87.5834 62.0537C87.1551 61.2263 86.1372 60.9028 85.3098 61.3311C84.4824 61.7594 84.1589 62.7773 84.5872 63.6047L87.5834 62.0537ZM84.8699 64.1302C85.3242 64.9436 86.3519 65.2347 87.1653 64.7804C87.9787 64.3261 88.2698 63.2984 87.8154 62.485L84.8699 64.1302ZM91.5743 66.9937C90.8595 66.3962 89.7956 66.4913 89.1981 67.2062C88.6006 67.9211 88.6957 68.9849 89.4106 69.5824L91.5743 66.9937ZM89.8704 69.9555C90.6022 70.5321 91.6629 70.4063 92.2395 69.6745C92.8161 68.9427 92.6903 67.882 91.9585 67.3054L89.8704 69.9555ZM97.172 70.1633C96.2946 69.8499 95.3293 70.3072 95.016 71.1846C94.7026 72.062 95.1598 73.0273 96.0372 73.3406L97.172 70.1633ZM96.3649 73.456C97.2366 73.7849 98.2099 73.3447 98.5387 72.473C98.8675 71.6013 98.4273 70.628 97.5556 70.2992L96.3649 73.456ZM100.321 72.7159C99.8963 71.8867 98.8798 71.5587 98.0505 71.9833C97.2212 72.408 96.8932 73.4245 97.3179 74.2538L100.321 72.7159ZM97.3578 74.3383C97.7273 75.1936 98.7202 75.5874 99.5755 75.2179C100.431 74.8484 100.825 73.8555 100.455 73.0002L97.3578 74.3383ZM100.404 76.6866C100.795 75.8411 100.427 74.8384 99.5816 74.4472C98.736 74.0559 97.7334 74.4242 97.3422 75.2698L100.404 76.6866ZM97.2003 75.5557C96.7845 76.3895 97.1234 77.4024 97.9571 77.8182C98.7909 78.2339 99.8038 77.895 100.22 77.0613L97.2003 75.5557ZM97.1899 82.8236C97.6554 82.0166 97.3786 80.985 96.5715 80.5195C95.7645 80.0539 94.7329 80.3308 94.2674 81.1379L97.1899 82.8236ZM94.0065 81.5852C93.5332 82.3877 93.8001 83.4219 94.6026 83.8952C95.4051 84.3685 96.4393 84.1016 96.9126 83.2991L94.0065 81.5852ZM93.285 88.7689C93.8308 88.0137 93.661 86.9592 92.9059 86.4135C92.1508 85.8677 91.0963 86.0375 90.5505 86.7926L93.285 88.7689ZM90.2435 87.2155C89.6944 87.9682 89.8596 89.0235 90.6123 89.5725C91.365 90.1216 92.4203 89.9564 92.9693 89.2037L90.2435 87.2155ZM89.0201 94.2429C89.6263 93.5354 89.5442 92.4705 88.8367 91.8643C88.1292 91.2581 87.0643 91.3401 86.4581 92.0476L89.0201 94.2429ZM86.1264 92.4311C85.5137 93.133 85.586 94.1986 86.2879 94.8113C86.9898 95.424 88.0554 95.3517 88.6681 94.6499L86.1264 92.4311ZM84.05 99.2545C84.7618 98.6532 84.8513 97.5889 84.2501 96.8772C83.6488 96.1655 82.5845 96.0759 81.8728 96.6772L84.05 99.2545ZM81.4926 96.9929C80.771 97.5822 80.6637 98.6449 81.2529 99.3665C81.8422 100.088 82.9049 100.196 83.6266 99.6063L81.4926 96.9929ZM77.9615 103.177C78.8117 102.796 79.1921 101.798 78.8111 100.948C78.4302 100.098 77.4321 99.7172 76.5818 100.098L77.9615 103.177ZM76.1447 100.287C75.2844 100.645 74.8767 101.632 75.2343 102.492C75.5918 103.352 76.5791 103.76 77.4394 103.403L76.1447 100.287ZM70.7369 104.847C71.6683 104.825 72.4061 104.053 72.3848 103.121C72.3635 102.19 71.5911 101.452 70.6597 101.473L70.7369 104.847ZM70.1103 101.473C69.1788 101.455 68.4086 102.195 68.3901 103.126C68.3716 104.058 69.1117 104.828 70.0432 104.846L70.1103 101.473ZM61.0933 102.802C61.9548 103.157 62.9408 102.746 63.2955 101.884C63.6503 101.023 63.2395 100.037 62.378 99.6822L61.0933 102.802ZM62.0515 99.547C61.1912 99.1893 60.2039 99.5969 59.8463 100.457C59.4886 101.317 59.8962 102.305 60.7565 102.662L62.0515 99.547ZM60.7484 102.659C61.6087 103.017 62.596 102.609 62.9536 101.749C63.3113 100.889 62.9037 99.9012 62.0434 99.5436L60.7484 102.659ZM61.713 99.4068C60.8518 99.0511 59.8655 99.4609 59.5098 100.322C59.1542 101.183 59.5639 102.17 60.4251 102.525L61.713 99.4068ZM52.8648 100.852C53.7964 100.843 54.5439 100.08 54.5343 99.1481C54.5247 98.2165 53.7617 97.469 52.8301 97.4786L52.8648 100.852ZM52.1049 97.4899C51.1733 97.5074 50.4325 98.2768 50.45 99.2083C50.4676 100.14 51.237 100.881 52.1685 100.863L52.1049 97.4899ZM44.4581 102.563C45.3228 102.217 45.7427 101.235 45.3958 100.37C45.049 99.5051 44.0669 99.0853 43.2022 99.4321L44.4581 102.563ZM42.868 99.5664C42.0037 99.9143 41.5851 100.897 41.933 101.761C42.2809 102.626 43.2636 103.044 44.1279 102.696L42.868 99.5664ZM44.1006 102.707C44.9649 102.359 45.3835 101.377 45.0356 100.512C44.6877 99.6481 43.7051 99.2295 42.8408 99.5774L44.1006 102.707ZM42.8392 99.578C41.9747 99.9255 41.5556 100.908 41.9031 101.772C42.2506 102.637 43.2331 103.056 44.0975 102.708L42.8392 99.578ZM44.0684 102.72C44.9328 102.373 45.3519 101.39 45.0044 100.526C44.6569 99.6613 43.6744 99.2422 42.81 99.5897L44.0684 102.72ZM42.4823 99.7213C41.6174 100.068 41.1971 101.05 41.5435 101.914C41.8899 102.779 42.8718 103.2 43.7367 102.853L42.4823 99.7213ZM34.9067 104.867C35.8382 104.851 36.5804 104.082 36.5644 103.151C36.5484 102.219 35.7803 101.477 34.8488 101.493L34.9067 104.867ZM34.5164 101.496C33.5847 101.496 32.8294 102.251 32.8294 103.183C32.8294 104.115 33.5847 104.87 34.5164 104.87V101.496ZM34.3459 104.87C35.2775 104.87 36.0328 104.115 36.0328 103.183C36.0328 102.251 35.2775 101.496 34.3459 101.496V104.87ZM34.1214 101.492C33.1899 101.471 32.4176 102.209 32.3963 103.14C32.375 104.072 33.1128 104.844 34.0442 104.865L34.1214 101.492ZM27.5156 103.545C28.3839 103.883 29.3616 103.453 29.6994 102.585C30.0371 101.716 29.607 100.739 28.7387 100.401L27.5156 103.545ZM28.3082 100.227C27.4492 99.8665 26.4604 100.271 26.0999 101.13C25.7393 101.989 26.1434 102.977 27.0025 103.338L28.3082 100.227ZM21.3887 99.9957C22.1243 100.567 23.1841 100.434 23.7558 99.6988C24.3275 98.9632 24.1946 97.9033 23.459 97.3316L21.3887 99.9957ZM23.0827 97.0339C22.3571 96.4495 21.2951 96.564 20.7107 97.2896C20.1263 98.0152 20.2408 99.0771 20.9664 99.6615L23.0827 97.0339ZM16.3697 95.2424C16.991 95.9367 18.0574 95.9958 18.7517 95.3745C19.446 94.7532 19.5051 93.6867 18.8838 92.9925L16.3697 95.2424ZM18.5579 92.6245C17.9437 91.9239 16.8779 91.8538 16.1773 92.468C15.4767 93.0822 15.4066 94.148 16.0208 94.8486L18.5579 92.6245ZM12.1343 89.9426C12.6831 90.6955 13.7383 90.861 14.4912 90.3122C15.2441 89.7634 15.4095 88.7082 14.8607 87.9553L12.1343 89.9426ZM14.542 87.5155C13.9981 86.7591 12.944 86.5869 12.1876 87.1309C11.4312 87.6748 11.2589 88.7289 11.8029 89.4853L14.542 87.5155ZM7.84033 83.2576C8.29484 84.0709 9.3226 84.3618 10.1359 83.9072C10.9492 83.4527 11.24 82.425 10.7855 81.6117L7.84033 83.2576ZM10.5034 81.1013C10.0567 80.2836 9.03182 79.983 8.21421 80.4297C7.39661 80.8764 7.09593 81.9013 7.54264 82.7189L10.5034 81.1013ZM4.38456 76.0414C4.73243 76.9057 5.71508 77.3243 6.57938 76.9765C7.44368 76.6286 7.86233 75.646 7.51447 74.7817L4.38456 76.0414ZM7.29929 74.2392C6.96015 73.3714 5.98177 72.9429 5.11401 73.282C4.24625 73.6211 3.81771 74.5995 4.15685 75.4673L7.29929 74.2392ZM1.89575 68.4204C2.12323 69.3239 3.04005 69.8719 3.94353 69.6444C4.84701 69.4169 5.39502 68.5001 5.16754 67.5966L1.89575 68.4204ZM5.02864 67.0318C4.81117 66.1259 3.90046 65.5678 2.99452 65.7853C2.08858 66.0027 1.53047 66.9135 1.74795 67.8194L5.02864 67.0318ZM0.519696 60.495C0.60673 61.4226 1.42926 62.104 2.35686 62.017C3.28446 61.93 3.96588 61.1075 3.87885 60.1798L0.519696 60.495ZM3.8287 59.6061C3.75351 58.6774 2.93975 57.9856 2.01111 58.0608C1.08247 58.136 0.39061 58.9497 0.465796 59.8784L3.8287 59.6061ZM0.477414 52.4051C0.3945 53.333 1.07956 54.1525 2.00754 54.2354C2.93553 54.3184 3.75502 53.6333 3.83793 52.7053L0.477414 52.4051ZM3.89331 52.1359C3.99081 51.2093 3.31872 50.3792 2.39216 50.2817C1.46559 50.1842 0.635428 50.8563 0.53793 51.7828L3.89331 52.1359ZM2.09423 44.4049C1.80233 45.2896 2.28295 46.2435 3.16772 46.5354C4.05249 46.8273 5.00637 46.3467 5.29827 45.4619L2.09423 44.4049ZM5.48048 44.9276C5.79009 44.0489 5.32873 43.0856 4.45 42.776C3.57128 42.4663 2.60794 42.9277 2.29832 43.8064L5.48048 44.9276ZM5.75273 37.0067C5.21929 37.7706 5.40607 38.8222 6.16992 39.3557C6.93377 39.8891 7.98543 39.7023 8.51887 38.9385L5.75273 37.0067ZM8.83619 38.4955C9.38652 37.7437 9.22322 36.6881 8.47145 36.1378C7.71968 35.5875 6.66412 35.7508 6.11379 36.5025L8.83619 38.4955ZM10.8921 31.2168C10.1999 31.8404 10.1442 32.9071 10.7678 33.5993C11.3914 34.2915 12.458 34.3472 13.1503 33.7236L10.8921 31.2168ZM13.5523 33.3676C14.255 32.7559 14.3288 31.6903 13.7171 30.9876C13.1054 30.2848 12.0398 30.211 11.3371 30.8228L13.5523 33.3676ZM17.1632 26.719C16.3501 27.174 16.0599 28.2019 16.5148 29.0149C16.9698 29.828 17.9977 30.1182 18.8108 29.6633L17.1632 26.719ZM19.2809 29.4056C20.1018 28.9649 20.41 27.9422 19.9693 27.1213C19.5286 26.3005 18.506 25.9922 17.6851 26.4329L19.2809 29.4056ZM24.3086 23.7508C23.4117 24.0029 22.889 24.9343 23.1411 25.8313C23.3932 26.7282 24.3246 27.2509 25.2215 26.9988L24.3086 23.7508ZM25.7364 26.8594C26.638 26.6245 27.1785 25.7032 26.9436 24.8016C26.7087 23.9001 25.7874 23.3596 24.8858 23.5945L25.7364 26.8594ZM32.0055 22.6274C31.0738 22.6374 30.3267 23.4008 30.3368 24.3324C30.3468 25.264 31.1102 26.0111 32.0418 26.0011L32.0055 22.6274ZM32.5335 26.0006C33.4651 26.0084 34.2267 25.2595 34.2345 24.3278C34.2423 23.3962 33.4934 22.6346 32.5617 22.6268L32.5335 26.0006ZM38.6092 23.2746C37.6962 23.0893 36.8058 23.6793 36.6205 24.5924C36.4352 25.5055 37.0252 26.3959 37.9383 26.5811L38.6092 23.2746ZM38.3861 26.6752C39.2965 26.8731 40.195 26.2954 40.3928 25.385C40.5907 24.4746 40.013 23.5761 39.1026 23.3783L38.3861 26.6752ZM44.8105 24.9894C43.9237 24.7034 42.9731 25.1905 42.6872 26.0772C42.4013 26.9639 42.8883 27.9145 43.775 28.2005L44.8105 24.9894ZM44.005 28.2746C44.8917 28.5605 45.8423 28.0735 46.1282 27.1867C46.4141 26.3 45.927 25.3494 45.0403 25.0635L44.005 28.2746ZM45.0745 25.0745C44.1878 24.7886 43.2372 25.2757 42.9513 26.1624C42.6654 27.0492 43.1525 27.9998 44.0392 28.2857L45.0745 25.0745ZM44.0705 28.2958C44.9572 28.5817 45.9078 28.0946 46.1937 27.2079C46.4796 26.3211 45.9926 25.3705 45.1058 25.0846L44.0705 28.2958ZM45.8198 25.3143C44.9325 25.0303 43.983 25.5195 43.699 26.4069C43.4151 27.2942 43.9043 28.2438 44.7917 28.5277L45.8198 25.3143ZM46.995 26.4911C46.9377 25.5612 46.1374 24.8538 45.2075 24.9111C44.2776 24.9684 43.5702 25.7687 43.6275 26.6986L46.995 26.4911ZM45.1255 18.0698C44.7793 18.9347 45.1998 19.9166 46.0647 20.2628C46.9297 20.609 47.9116 20.1885 48.2578 19.3236L45.1255 18.0698ZM48.4978 18.7494C48.8702 17.8954 48.4797 16.9012 47.6256 16.5289C46.7716 16.1566 45.7774 16.5471 45.4051 17.4011L48.4978 18.7494ZM50.077 10.2009C49.4567 10.896 49.5173 11.9624 50.2124 12.5828C50.9075 13.2031 51.9739 13.1425 52.5942 12.4474L50.077 10.2009ZM52.9773 12.0272C53.613 11.3461 53.5762 10.2786 52.8951 9.64287C52.214 9.00717 51.1465 9.04397 50.5108 9.72507L52.9773 12.0272ZM55.805 5.34826C55.0225 5.85386 54.798 6.89811 55.3035 7.68067C55.8091 8.46323 56.8534 8.68776 57.636 8.18217L55.805 5.34826ZM58.0661 7.90969C58.8576 7.41816 59.1007 6.37809 58.6092 5.58662C58.1177 4.79515 57.0776 4.55199 56.2861 5.04352L58.0661 7.90969ZM62.4156 2.07266C61.5393 2.38909 61.0854 3.35598 61.4018 4.23228C61.7182 5.10858 62.6851 5.56244 63.5614 5.24602L62.4156 2.07266ZM64.0415 5.07754C64.9234 4.77703 65.3947 3.81851 65.0942 2.93663C64.7937 2.05474 63.8351 1.58345 62.9533 1.88397L64.0415 5.07754ZM69.6843 0.460179C68.7552 0.530158 68.0588 1.34003 68.1288 2.26907C68.1988 3.19812 69.0086 3.89453 69.9377 3.82455L69.6843 0.460179ZM70.3268 3.7991C71.258 3.77023 71.9895 2.99191 71.9606 2.06068C71.9317 1.12945 71.1534 0.397944 70.2222 0.426819L70.3268 3.7991ZM75.4495 4.24439C75.237 3.33726 74.3294 2.77411 73.4223 2.98657C72.5151 3.19902 71.952 4.10662 72.1645 5.01376L75.4495 4.24439ZM61.2835 17.4751C60.5874 18.0944 60.5251 19.1607 61.1444 19.8568C61.7636 20.5529 62.83 20.6152 63.526 19.9959L61.2835 17.4751ZM63.5195 20.0017C64.2156 19.3825 64.2778 18.3162 63.6586 17.6201C63.0393 16.924 61.973 16.8617 61.2769 17.481L63.5195 20.0017ZM60.9847 17.7958C60.3682 18.4943 60.4346 19.5604 61.1331 20.1769C61.8316 20.7935 62.8976 20.7271 63.5142 20.0286L60.9847 17.7958ZM58.9499 23.803C59.7477 23.3217 60.0042 22.2849 59.5229 21.4872C59.0416 20.6894 58.0047 20.4329 57.207 20.9142L58.9499 23.803ZM56.8512 21.1232C56.0423 21.5854 55.7613 22.6159 56.2235 23.4248C56.6858 24.2337 57.7163 24.5147 58.5252 24.0525L56.8512 21.1232ZM53.0166 26.2082C53.9259 26.0056 54.4989 25.1041 54.2962 24.1947C54.0936 23.2854 53.1921 22.7124 52.2828 22.9151L53.0166 26.2082ZM54.1478 24.4155C54.2688 23.4917 53.618 22.6447 52.6942 22.5238C51.7704 22.4028 50.9234 23.0536 50.8025 23.9774L54.1478 24.4155ZM55.5305 14.2498C54.9162 14.9503 54.9861 16.0162 55.6866 16.6304C56.3871 17.2447 57.4529 17.1748 58.0672 16.4743L55.5305 14.2498ZM58.4567 16.0445C59.0947 15.3655 59.0614 14.2979 58.3824 13.6599C57.7034 13.022 56.6358 13.0552 55.9979 13.7342L58.4567 16.0445ZM60.5348 10.1215C59.7388 10.6056 59.4859 11.6434 59.97 12.4394C60.454 13.2354 61.4918 13.4883 62.2878 13.0043L60.5348 10.1215ZM62.6446 12.7919C63.4496 12.3228 63.7219 11.29 63.2528 10.485C62.7837 9.68002 61.7509 9.40772 60.9459 9.8768L62.6446 12.7919ZM66.1929 7.5618C65.3025 7.83601 64.8029 8.78012 65.0771 9.67053C65.3514 10.5609 66.2955 11.0605 67.1859 10.7863L66.1929 7.5618ZM65.181 9.28631C65.0513 10.2089 65.6942 11.0619 66.6168 11.1915C67.5394 11.3212 68.3924 10.6783 68.522 9.75569L65.181 9.28631ZM63.9716 19.496C64.5663 18.7789 64.4671 17.7154 63.75 17.1206C63.0329 16.5258 61.9694 16.625 61.3746 17.3421L63.9716 19.496ZM84.2822 83.7917C83.7332 84.5445 83.8985 85.5997 84.6513 86.1487C85.4041 86.6976 86.4593 86.5324 87.0083 85.7796L84.2822 83.7917ZM83.0348 90.8118C83.6482 90.1105 83.5769 89.0448 82.8756 88.4314C82.1743 87.8181 81.1086 87.8894 80.4952 88.5907L83.0348 90.8118ZM80.1618 88.9677C79.5407 89.6622 79.6002 90.7287 80.2947 91.3497C80.9891 91.9708 82.0556 91.9113 82.6767 91.2168L80.1618 88.9677ZM77.8393 95.7184C78.5921 95.1694 78.7572 94.1142 78.2082 93.3614C77.6592 92.6087 76.6039 92.4436 75.8512 92.9926L77.8393 95.7184ZM75.4629 93.2678C74.6954 93.796 74.5014 94.8464 75.0295 95.6139C75.5577 96.3813 76.6081 96.5754 77.3756 96.0472L75.4629 93.2678ZM70.7091 98.5332C71.64 98.4949 72.3636 97.7093 72.3253 96.7784C72.287 95.8475 71.5014 95.1239 70.5705 95.1621L70.7091 98.5332ZM70.2015 95.1616C69.2704 95.1282 68.4885 95.8559 68.4551 96.7869C68.4217 97.718 69.1493 98.4999 70.0804 98.5333L70.2015 95.1616ZM63.9953 97.0397C64.8569 97.3942 65.8427 96.983 66.1971 96.1214C66.5516 95.2597 66.1404 94.2739 65.2788 93.9195L63.9953 97.0397ZM64.8412 93.7386C63.9797 93.3837 62.9937 93.7944 62.6388 94.6559C62.284 95.5173 62.6947 96.5033 63.5561 96.8582L64.8412 93.7386ZM58.4434 95.1943C59.3537 95.3928 60.2525 94.8158 60.4511 93.9055C60.6496 92.9952 60.0726 92.0964 59.1623 91.8979L58.4434 95.1943ZM58.6706 91.7951C57.7569 91.6126 56.8683 92.2052 56.6857 93.1188C56.5032 94.0324 57.0958 94.9211 58.0094 95.1036L58.6706 91.7951ZM52.6677 94.5586C53.5993 94.5745 54.3674 93.8323 54.3833 92.9007C54.3993 91.9692 53.657 91.2011 52.7255 91.1852L52.6677 94.5586ZM52.2018 91.1835C51.2702 91.1938 50.5234 91.9574 50.5337 92.8891C50.544 93.8207 51.3076 94.5675 52.2392 94.5572L52.2018 91.1835ZM46.9312 95.0975C47.8439 94.9105 48.4323 94.0191 48.2453 93.1063C48.0584 92.1936 47.1669 91.6052 46.2542 91.7922L46.9312 95.0975ZM45.7634 91.8973C44.8542 92.1007 44.282 93.0026 44.4853 93.9118C44.6887 94.821 45.5906 95.3932 46.4998 95.1899L45.7634 91.8973ZM41.3852 96.8709C42.2491 96.522 42.6666 95.5389 42.3178 94.675C41.9689 93.8111 40.9858 93.3935 40.1219 93.7424L41.3852 96.8709ZM39.6892 93.9157C38.8225 94.2574 38.3969 95.2371 38.7387 96.1039C39.0804 96.9706 40.0601 97.3961 40.9268 97.0544L39.6892 93.9157ZM34.7498 98.537C35.6797 98.4799 36.3873 97.6797 36.3302 96.7498C36.2731 95.8198 35.4729 95.1123 34.543 95.1694L34.7498 98.537ZM34.2126 95.1751C33.2816 95.1407 32.4989 95.8676 32.4645 96.7987C32.4301 97.7297 33.157 98.5124 34.088 98.5468L34.2126 95.1751ZM27.5907 96.3417C28.3762 96.8426 29.4191 96.6119 29.9201 95.8264C30.421 95.0408 30.1903 93.9979 29.4047 93.497L27.5907 96.3417ZM29.0249 93.2468C28.2542 92.7232 27.205 92.9236 26.6815 93.6942C26.1579 94.4649 26.3583 95.5141 27.129 96.0376L29.0249 93.2468ZM22.327 91.7678C22.9566 92.4545 24.0237 92.5007 24.7105 91.8711C25.3972 91.2415 25.4434 90.1743 24.8138 89.4876L22.327 91.7678ZM24.4895 89.1295C23.8685 88.435 22.802 88.3754 22.1075 88.9964C21.413 89.6175 21.3535 90.6839 21.9745 91.3784L24.4895 89.1295ZM18.1011 86.5168C18.6495 87.27 19.7046 87.436 20.4578 86.8876C21.211 86.3392 21.377 85.2841 20.8286 84.5309L18.1011 86.5168ZM20.5087 84.0891C19.9651 83.3324 18.911 83.1598 18.1544 83.7034C17.3977 84.247 17.2251 85.3011 17.7687 86.0577L20.5087 84.0891ZM13.7915 79.7349C14.2369 80.5532 15.2613 80.8556 16.0796 80.4102C16.898 79.9649 17.2004 78.9405 16.755 78.1221L13.7915 79.7349ZM16.4756 77.602C16.0392 76.7789 15.0182 76.4654 14.195 76.9018C13.3719 77.3382 13.0583 78.3593 13.4948 79.1824L16.4756 77.602ZM10.4374 72.3447C10.7583 73.2194 11.7275 73.6684 12.6022 73.3475C13.4768 73.0266 13.9258 72.0574 13.6049 71.1827L10.4374 72.3447ZM13.4069 70.6331C13.0964 69.7547 12.1326 69.2943 11.2542 69.6048C10.3758 69.9153 9.91542 70.8792 10.2259 71.7576L13.4069 70.6331ZM8.25215 64.5073C8.42733 65.4224 9.31114 66.0222 10.2262 65.847C11.1413 65.6718 11.7411 64.788 11.5659 63.873L8.25215 64.5073ZM11.4601 63.2996C11.2971 62.3823 10.4214 61.7707 9.50411 61.9336C8.58679 62.0965 7.97523 62.9723 8.13816 63.8896L11.4601 63.2996ZM7.45394 56.3684C7.45473 57.3001 8.21065 58.0547 9.14233 58.0539C10.074 58.0532 10.8286 57.2972 10.8278 56.3656L7.45394 56.3684ZM10.832 55.7897C10.8461 54.8581 10.1024 54.0914 9.17084 54.0773C8.23927 54.0631 7.47261 54.8068 7.45844 55.7384L10.832 55.7897ZM8.38806 48.1637C8.16707 49.0688 8.72164 49.9817 9.62673 50.2027C10.5318 50.4237 11.4447 49.8691 11.6657 48.964L8.38806 48.1637ZM11.8061 48.4151C12.0471 47.5151 11.5128 46.5902 10.6129 46.3492C9.71289 46.1083 8.78798 46.6425 8.54702 47.5425L11.8061 48.4151ZM11.7306 40.4136C11.2014 41.1804 11.394 42.231 12.1608 42.7602C12.9275 43.2894 13.9782 43.0968 14.5074 42.33L11.7306 40.4136ZM14.8207 41.892C15.3727 41.1415 15.2117 40.0856 14.4611 39.5336C13.7105 38.9816 12.6546 39.1426 12.1026 39.8932L14.8207 41.892ZM17.1835 34.5865C16.4572 35.17 16.3415 36.2318 16.925 36.9581C17.5085 37.6844 18.5703 37.8002 19.2966 37.2167L17.1835 34.5865ZM19.7216 36.8829C20.4606 36.3156 20.5997 35.2566 20.0324 34.5176C19.4651 33.7786 18.4061 33.6394 17.667 34.2067L19.7216 36.8829ZM24.0779 30.557C23.211 30.8983 22.785 31.8778 23.1263 32.7447C23.4677 33.6116 24.4472 34.0376 25.3141 33.6963L24.0779 30.557ZM25.8143 33.5065C26.6895 33.187 27.1399 32.2185 26.8204 31.3433C26.501 30.4682 25.5325 30.0177 24.6573 30.3372L25.8143 33.5065ZM31.9849 28.9443C31.0533 28.9587 30.3098 29.7255 30.3241 30.6571C30.3385 31.5887 31.1053 32.3322 32.0369 32.3178L31.9849 28.9443ZM32.652 32.3191C33.5835 32.3364 34.3527 31.5953 34.37 30.6638C34.3873 29.7323 33.6462 28.9631 32.7147 28.9458L32.652 32.3191ZM42.1844 30.8659C41.2972 30.5817 40.3475 31.0706 40.0633 31.9578C39.779 32.8451 40.2679 33.7948 41.1552 34.079L42.1844 30.8659ZM41.5225 34.1968C42.4097 34.4815 43.3596 33.9931 43.6443 33.106C43.9289 32.2189 43.4405 31.2689 42.5534 30.9843L41.5225 34.1968ZM42.618 31.005C41.7309 30.7203 40.781 31.2087 40.4963 32.0958C40.2116 32.983 40.7 33.9329 41.5871 34.2176L42.618 31.005ZM41.5898 34.2184C42.4768 34.5037 43.427 34.0159 43.7123 33.129C43.9975 32.242 43.5098 31.2918 42.6228 31.0065L41.5898 34.2184ZM42.6482 31.0147C41.7613 30.7295 40.811 31.2172 40.5258 32.1042C40.2405 32.9911 40.7283 33.9413 41.6152 34.2266L42.6482 31.0147ZM42.0019 34.3509C42.889 34.6356 43.839 34.1473 44.1237 33.2602C44.4084 32.3731 43.9201 31.4231 43.033 31.1384L42.0019 34.3509ZM52.0152 32.9933C51.0837 32.9755 50.3141 33.7162 50.2963 34.6477C50.2785 35.5792 51.0192 36.3488 51.9507 36.3666L52.0152 32.9933ZM52.789 36.367C53.7205 36.3496 54.4615 35.5802 54.444 34.6487C54.4265 33.7172 53.6572 32.9762 52.7257 32.9937L52.789 36.367ZM60.86 31.2451C59.9781 31.5458 59.507 32.5044 59.8077 33.3862C60.1084 34.268 61.067 34.7392 61.9488 34.4385L60.86 31.2451ZM62.301 34.3182C63.1826 34.017 63.6531 33.058 63.3518 32.1764C63.0505 31.2948 62.0916 30.8243 61.21 31.1256L62.301 34.3182ZM61.2344 31.1172C60.3528 31.4185 59.8823 32.3774 60.1836 33.259C60.4849 34.1407 61.4438 34.6111 62.3254 34.3099L61.2344 31.1172ZM62.3273 34.3092C63.2089 34.008 63.6794 33.049 63.3781 32.1674C63.0769 31.2858 62.1179 30.8153 61.2363 31.1166L62.3273 34.3092ZM61.2574 31.1094C60.3758 31.4107 59.9053 32.3696 60.2066 33.2512C60.5078 34.1328 61.4667 34.6033 62.3484 34.302L61.2574 31.1094ZM62.7432 34.1672C63.6251 33.8667 64.0964 32.9082 63.7959 32.0263C63.4954 31.1445 62.5368 30.6732 61.655 30.9737L62.7432 34.1672ZM71.961 28.9326C71.0295 28.9464 70.2855 29.7129 70.2994 30.6444C70.3132 31.576 71.0797 32.32 72.0112 32.3061L71.961 28.9326ZM72.6865 32.3056C73.618 32.3214 74.386 31.579 74.4018 30.6474C74.4175 29.7159 73.6752 28.9479 72.7436 28.9322L72.6865 32.3056ZM80.6115 30.5509C79.7448 30.209 78.765 30.6343 78.4231 31.501C78.0812 32.3677 78.5065 33.3474 79.3732 33.6894L80.6115 30.5509ZM79.9079 33.9086C80.7652 34.2734 81.7559 33.8741 82.1207 33.0168C82.4854 32.1595 82.0862 31.1688 81.2289 30.804L79.9079 33.9086ZM87.9871 34.9706C87.273 34.3722 86.209 34.466 85.6106 35.1801C85.0122 35.8942 85.106 36.9581 85.8201 37.5566L87.9871 34.9706ZM85.9134 35.266C85.1542 35.8061 84.9766 36.8593 85.5167 37.6185C86.0567 38.3777 87.11 38.5553 87.8691 38.0153L85.9134 35.266ZM82.9573 42.6973C83.5265 41.9598 83.39 40.9004 82.6525 40.3312C81.9149 39.762 80.8555 39.8985 80.2863 40.6361L82.9573 42.6973ZM79.8934 41.1595C79.3441 41.912 79.5089 42.9673 80.2615 43.5166C81.014 44.0659 82.0693 43.9011 82.6186 43.1486L79.8934 41.1595ZM79.6152 49.1482C79.8851 48.2564 79.381 47.3148 78.4893 47.0449C77.5975 46.775 76.6559 47.2791 76.386 48.1708L79.6152 49.1482ZM76.2046 48.8026C75.9604 49.7017 76.4912 50.6285 77.3903 50.8728C78.2894 51.1171 79.2162 50.5862 79.4605 49.6871L76.2046 48.8026ZM78.8116 56.3743C78.7499 55.4447 77.9463 54.7411 77.0167 54.8027C76.0871 54.8644 75.3834 55.668 75.4451 56.5976L78.8116 56.3743ZM75.4985 57.2675C75.5851 58.1951 76.4073 58.8769 77.3349 58.7904C78.2626 58.7038 78.9444 57.8817 78.8579 56.954L75.4985 57.2675ZM80.6897 63.8123C80.3015 62.9653 79.3002 62.5934 78.4533 62.9817C77.6063 63.3699 77.2344 64.3712 77.6227 65.2181L80.6897 63.8123ZM77.9184 65.8403C78.3302 66.676 79.3415 67.0197 80.1772 66.608C81.013 66.1962 81.3567 65.1849 80.945 64.3492L77.9184 65.8403ZM85.0959 70.1359C84.439 69.4752 83.3709 69.4721 82.7102 70.129C82.0495 70.7859 82.0464 71.854 82.7033 72.5147L85.0959 70.1359ZM83.1929 72.9946C83.8667 73.6381 84.9345 73.6135 85.578 72.9398C86.2215 72.266 86.197 71.1982 85.5232 70.5547L83.1929 72.9946ZM91.3961 74.6843C90.565 74.2632 89.55 74.5956 89.1289 75.4266C88.7078 76.2577 89.0402 77.2728 89.8713 77.6939L91.3961 74.6843ZM89.2536 75.8835C88.8221 76.7093 89.1418 77.7284 89.9676 78.1599C90.7933 78.5913 91.8125 78.2717 92.2439 77.4459L89.2536 75.8835ZM87.3857 85.2588C87.9305 84.503 87.7593 83.4487 87.0034 82.9039C86.2476 82.3592 85.1933 82.5304 84.6486 83.2862L87.3857 85.2588ZM72.1801 5.09162C72.192 5.1649 72.2034 5.23829 72.2143 5.3118L75.5519 4.81815C75.5387 4.72871 75.5248 4.63936 75.5103 4.55011L72.1801 5.09162ZM72.1185 10.6784C72.0926 10.8268 72.0647 10.9752 72.035 11.1237L75.3434 11.7857C75.3784 11.6105 75.4113 11.4352 75.442 11.2598L72.1185 10.6784ZM70.2424 16.2896C70.1742 16.4265 70.1044 16.5632 70.0331 16.6996L73.0225 18.2637C73.1043 18.1074 73.1843 17.9506 73.2626 17.7934L70.2424 16.2896ZM66.9218 21.2895C66.8716 21.3486 66.8211 21.4077 66.7702 21.4666L69.3237 23.6717C69.3809 23.6055 69.4378 23.5391 69.4942 23.4725L66.9218 21.2895ZM66.7661 21.4713C66.7401 21.5017 66.7139 21.532 66.6876 21.5623L69.2365 23.7729C69.267 23.7377 69.2974 23.7024 69.3278 23.667L66.7661 21.4713ZM64.6481 23.6149C64.6178 23.6416 64.5875 23.6682 64.5571 23.6948L66.7757 26.2366C66.8106 26.2062 66.8454 26.1756 66.8802 26.145L64.6481 23.6149ZM66.0007 26.6192C66.0812 26.6029 66.1621 26.5869 66.2435 26.5711L65.6001 23.2591C65.5103 23.2765 65.4209 23.2943 65.332 23.3122L66.0007 26.6192ZM72.1484 25.9879C72.2308 25.9873 72.3136 25.987 72.3968 25.987V22.6131C72.3055 22.6131 72.2146 22.6134 72.124 22.6141L72.1484 25.9879ZM72.3968 25.987C72.4749 25.987 72.5531 25.9874 72.6313 25.9881L72.6639 22.6144C72.5749 22.6135 72.4858 22.6131 72.3968 22.6131V25.987ZM78.231 26.6704C78.3843 26.706 78.5375 26.743 78.6905 26.7813L79.5103 23.5085C79.3387 23.4655 79.1668 23.424 78.9947 23.384L78.231 26.6704ZM84.0379 28.702C84.181 28.7695 84.3236 28.8383 84.4659 28.9083L85.9546 25.8806C85.7966 25.8029 85.6381 25.7264 85.479 25.6513L84.0379 28.702ZM89.3299 31.8865C89.457 31.9813 89.5835 32.0771 89.7094 32.174L91.7669 29.5C91.6276 29.3928 91.4875 29.2868 91.3468 29.1818L89.3299 31.8865ZM93.8993 36.0493C93.9525 36.1083 94.0054 36.1675 94.0582 36.2269L96.5815 33.9872C96.523 33.9214 96.4644 33.8558 96.4055 33.7905L93.8993 36.0493ZM94.0598 36.2287C94.0711 36.2414 94.0821 36.2542 94.0927 36.267L96.6861 34.1088C96.6514 34.0671 96.616 34.026 96.5798 33.9854L94.0598 36.2287ZM94.377 37.2794C94.3743 37.2941 94.3714 37.3088 94.3682 37.3235L97.6641 38.0445C97.6761 37.9896 97.6871 37.9346 97.6971 37.8795L94.377 37.2794ZM94.3682 37.3235C94.3651 37.3377 94.3617 37.3519 94.358 37.366L97.6231 38.216C97.6379 38.1592 97.6516 38.1021 97.6641 38.0445L94.3682 37.3235ZM93.5687 38.2784C93.5511 38.2878 93.5332 38.2969 93.515 38.3059L95.0071 41.3319C95.0549 41.3084 95.1023 41.2841 95.1492 41.2592L93.5687 38.2784ZM93.5117 38.3075C93.4265 38.3498 93.3417 38.3924 93.2573 38.4355L94.7916 41.4404C94.8641 41.4034 94.937 41.3667 95.0104 41.3303L93.5117 38.3075ZM87.7149 42.4459C87.5791 42.5834 87.4458 42.7225 87.3149 42.8632L89.7851 45.1613C89.893 45.0453 90.0032 44.9304 90.1154 44.8167L87.7149 42.4459ZM83.6325 48.7458C83.5634 48.9278 83.4974 49.1111 83.4344 49.2955L86.6274 50.3856C86.6781 50.237 86.7313 50.0894 86.787 49.9426L83.6325 48.7458ZM82.5326 56.1845C82.5387 56.281 82.5456 56.3776 82.5532 56.4742L85.9167 56.2098C85.9104 56.1303 85.9048 56.0509 85.8998 55.9717L82.5326 56.1845ZM82.5532 56.4753C82.5611 56.5746 82.5697 56.6738 82.5792 56.7728L85.9379 56.4536C85.9302 56.3722 85.9231 56.2906 85.9166 56.2088L82.5532 56.4753ZM84.5872 63.6047C84.6786 63.7814 84.7729 63.9566 84.8699 64.1302L87.8154 62.485C87.7358 62.3424 87.6585 62.1986 87.5834 62.0537L84.5872 63.6047ZM89.4106 69.5824C89.5618 69.7088 89.715 69.8332 89.8704 69.9555L91.9585 67.3054C91.8286 67.2031 91.7005 67.0992 91.5743 66.9937L89.4106 69.5824ZM96.0372 73.3406C96.1293 73.3735 96.2217 73.4059 96.3145 73.4377L97.409 70.2462C97.3297 70.219 97.2507 70.1914 97.172 70.1633L96.0372 73.3406ZM96.3084 73.4356C96.3275 73.4422 96.3463 73.449 96.3649 73.456L97.5556 70.2992C97.5091 70.2817 97.4622 70.2647 97.4151 70.2483L96.3084 73.4356ZM97.3179 74.2538C97.325 74.2677 97.3319 74.2817 97.3385 74.2958L100.393 72.862C100.369 72.8128 100.346 72.7641 100.321 72.7159L97.3179 74.2538ZM97.3407 74.3005C97.3467 74.3131 97.3524 74.3257 97.3578 74.3383L100.455 73.0002C100.434 72.9523 100.413 72.9047 100.39 72.8573L97.3407 74.3005ZM97.3422 75.2698C97.3362 75.2826 97.33 75.2954 97.3236 75.3083L100.336 76.8267C100.36 76.7803 100.382 76.7336 100.404 76.6866L97.3422 75.2698ZM97.3199 75.3155C97.2797 75.3963 97.2398 75.4763 97.2003 75.5557L100.22 77.0613C100.259 76.9813 100.3 76.9007 100.34 76.8195L97.3199 75.3155ZM94.2674 81.1379C94.181 81.2876 94.0941 81.4366 94.0065 81.5852L96.9126 83.2991C97.0059 83.141 97.0982 82.9826 97.1899 82.8236L94.2674 81.1379ZM90.5505 86.7926C90.4991 86.8637 90.4472 86.9354 90.3947 87.0078L93.125 88.9898C93.1789 88.9156 93.2322 88.842 93.285 88.7689L90.5505 86.7926ZM90.3949 87.0075C90.3445 87.0768 90.294 87.1462 90.2435 87.2155L92.9693 89.2037C93.0213 89.1324 93.0731 89.0612 93.1248 88.99L90.3949 87.0075ZM86.4581 92.0476C86.348 92.1761 86.2374 92.3039 86.1264 92.4311L88.6681 94.6499C88.7861 94.5147 88.9034 94.3791 89.0201 94.2429L86.4581 92.0476ZM81.8728 96.6772C81.7465 96.7838 81.6198 96.889 81.4926 96.9929L83.6266 99.6063C83.7686 99.4903 83.9098 99.373 84.05 99.2545L81.8728 96.6772ZM76.5818 100.098C76.4367 100.163 76.291 100.226 76.1447 100.287L77.4394 103.403C77.6146 103.33 77.7886 103.255 77.9615 103.177L76.5818 100.098ZM70.6597 101.473C70.5813 101.475 70.5028 101.476 70.424 101.477L70.4473 104.851C70.5441 104.85 70.6406 104.849 70.7369 104.847L70.6597 101.473ZM70.4411 101.477C70.3297 101.477 70.2195 101.475 70.1103 101.473L70.0432 104.846C70.1711 104.849 70.3001 104.85 70.4302 104.851L70.4411 101.477ZM62.378 99.6822C62.2692 99.6374 62.1609 99.5925 62.0528 99.5475L60.7558 102.662C60.8669 102.708 60.9794 102.755 61.0933 102.802L62.378 99.6822ZM62.0519 99.5471L62.0515 99.547L60.7565 102.662L60.7568 102.663L62.0519 99.5471ZM62.0434 99.5436L62.0431 99.5435L60.7481 102.659L60.7484 102.659L62.0434 99.5436ZM62.0415 99.5428C61.933 99.4978 61.8232 99.4523 61.713 99.4068L60.4251 102.525C60.533 102.57 60.6408 102.614 60.7497 102.66L62.0415 99.5428ZM52.8301 97.4786C52.7041 97.4799 52.5769 97.4823 52.4485 97.4857L52.5391 100.858C52.6491 100.855 52.7576 100.853 52.8648 100.852L52.8301 97.4786ZM52.4837 97.4852C52.356 97.4859 52.2297 97.4875 52.1049 97.4899L52.1685 100.863C52.2787 100.861 52.3905 100.86 52.5039 100.859L52.4837 97.4852ZM43.2022 99.4321C43.0909 99.4767 42.9797 99.5214 42.8693 99.5659L44.1289 102.696C44.2396 102.651 44.349 102.607 44.4581 102.563L43.2022 99.4321ZM42.8691 99.5659L42.868 99.5664L44.1279 102.696L44.129 102.696L42.8691 99.5659ZM42.8408 99.5774L42.8396 99.5778L44.0995 102.708L44.1006 102.707L42.8408 99.5774ZM42.8404 99.5775L42.8392 99.578L44.0975 102.708L44.0988 102.708L42.8404 99.5775ZM42.81 99.5897L42.8088 99.5902L44.0672 102.721L44.0684 102.72L42.81 99.5897ZM42.8089 99.5902C42.7 99.6339 42.5914 99.6776 42.4823 99.7213L43.7367 102.853C43.848 102.809 43.9584 102.764 44.067 102.721L42.8089 99.5902ZM34.8488 101.493C34.7415 101.495 34.6331 101.496 34.5235 101.496V104.87C34.6523 104.87 34.7801 104.869 34.9067 104.867L34.8488 101.493ZM34.5235 101.496H34.5164V104.87H34.5235V101.496ZM34.3459 101.496H34.3387V104.87H34.3459V101.496ZM34.3524 101.496C34.2752 101.495 34.1982 101.494 34.1214 101.492L34.0442 104.865C34.1376 104.868 34.2313 104.869 34.3251 104.87L34.3524 101.496ZM28.7387 100.401C28.5945 100.345 28.451 100.287 28.3082 100.227L27.0025 103.338C27.1723 103.409 27.3434 103.479 27.5156 103.545L28.7387 100.401ZM23.459 97.3316C23.3329 97.2337 23.2075 97.1344 23.0827 97.0339L20.9664 99.6615C21.1061 99.7741 21.2469 99.8855 21.3887 99.9957L23.459 97.3316ZM18.8838 92.9925C18.7745 92.8703 18.6658 92.7477 18.5579 92.6245L16.0208 94.8486C16.1362 94.9802 16.2525 95.1115 16.3697 95.2424L18.8838 92.9925ZM14.8607 87.9553C14.8117 87.888 14.7629 87.8208 14.7142 87.7537L11.9829 89.7344C12.0331 89.8037 12.0836 89.8731 12.1343 89.9426L14.8607 87.9553ZM14.7134 87.7527C14.6561 87.6737 14.599 87.5947 14.542 87.5155L11.8029 89.4853C11.8629 89.5688 11.9231 89.6522 11.9836 89.7354L14.7134 87.7527ZM10.7855 81.6117C10.6906 81.4418 10.5965 81.2716 10.5034 81.1013L7.54264 82.7189C7.64089 82.8988 7.74012 83.0783 7.84033 83.2576L10.7855 81.6117ZM7.51447 74.7817C7.44172 74.6009 7.37 74.4201 7.29929 74.2392L4.15685 75.4673C4.23169 75.6588 4.30759 75.8501 4.38456 76.0414L7.51447 74.7817ZM5.16754 67.5966C5.12011 67.4082 5.07381 67.22 5.02864 67.0318L1.74795 67.8194C1.79602 68.0197 1.84529 68.22 1.89575 68.4204L5.16754 67.5966ZM3.87885 60.1798C3.86087 59.9882 3.84415 59.797 3.8287 59.6061L0.465796 59.8784C0.482415 60.0836 0.500383 60.2892 0.519696 60.495L3.87885 60.1798ZM3.83793 52.7053C3.85495 52.5148 3.87341 52.325 3.89331 52.1359L0.53793 51.7828C0.516169 51.9896 0.495998 52.1971 0.477414 52.4051L3.83793 52.7053ZM5.29827 45.4619C5.35738 45.2827 5.41812 45.1046 5.48048 44.9276L2.29832 43.8064C2.2284 44.0049 2.16037 44.2044 2.09423 44.4049L5.29827 45.4619ZM8.51887 38.9385C8.57205 38.8623 8.62567 38.7866 8.67973 38.7111L5.93766 36.7454C5.87548 36.8321 5.81384 36.9192 5.75273 37.0067L8.51887 38.9385ZM8.67849 38.7129C8.73076 38.6401 8.78333 38.5677 8.83619 38.4955L6.11379 36.5025C6.05517 36.5826 5.99687 36.663 5.93889 36.7436L8.67849 38.7129ZM13.1503 33.7236C13.2834 33.6037 13.4174 33.485 13.5523 33.3676L11.3371 30.8228C11.1877 30.9528 11.0394 31.0841 10.8921 31.2168L13.1503 33.7236ZM18.8108 29.6633C18.9669 29.5759 19.1236 29.49 19.2809 29.4056L17.6851 26.4329C17.5104 26.5267 17.3364 26.6221 17.1632 26.719L18.8108 29.6633ZM25.2215 26.9988C25.3929 26.9507 25.5646 26.9042 25.7364 26.8594L24.8858 23.5945C24.6931 23.6447 24.5006 23.6968 24.3086 23.7508L25.2215 26.9988ZM32.0418 26.0011C32.1301 26.0001 32.2183 25.9996 32.3065 25.9996V22.6257C32.2062 22.6257 32.1058 22.6263 32.0055 22.6274L32.0418 26.0011ZM32.3065 25.9996C32.3824 25.9996 32.4581 26 32.5335 26.0006L32.5617 22.6268C32.4769 22.6261 32.3919 22.6257 32.3065 22.6257V25.9996ZM37.9383 26.5811C38.0885 26.6116 38.2377 26.643 38.3861 26.6752L39.1026 23.3783C38.9395 23.3428 38.775 23.3083 38.6092 23.2746L37.9383 26.5811ZM43.775 28.2005C43.8512 28.225 43.9272 28.2495 44.0031 28.274L45.0393 25.0632C44.9634 25.0387 44.8871 25.0141 44.8105 24.9894L43.775 28.2005ZM44.0035 28.2742L44.005 28.2746L45.0403 25.0635L45.0389 25.0631L44.0035 28.2742ZM44.0392 28.2857L44.0406 28.2861L45.0759 25.075L45.0745 25.0745L44.0392 28.2857ZM44.0406 28.2861C44.0506 28.2893 44.0605 28.2926 44.0705 28.2958L45.1058 25.0846C45.0959 25.0814 45.0859 25.0782 45.0759 25.075L44.0406 28.2861ZM44.7917 28.5277C44.8017 28.5309 44.8118 28.5341 44.8219 28.5373L45.8495 25.3237C45.8396 25.3206 45.8297 25.3174 45.8198 25.3143L44.7917 28.5277ZM47.0167 26.7896C47.0084 26.6904 47.0012 26.5909 46.995 26.4911L43.6275 26.6986C43.6352 26.8231 43.6442 26.9474 43.6546 27.0715L47.0167 26.7896ZM48.2578 19.3236C48.3345 19.1321 48.4145 18.9407 48.4978 18.7494L45.4051 17.4011C45.3082 17.6234 45.215 17.8463 45.1255 18.0698L48.2578 19.3236ZM52.5942 12.4474C52.6645 12.3687 52.7354 12.2902 52.8069 12.212L50.3166 9.93566C50.2361 10.0238 50.1562 10.1122 50.077 10.2009L52.5942 12.4474ZM52.809 12.2097C52.8646 12.1486 52.9207 12.0878 52.9773 12.0272L50.5108 9.72507C50.4448 9.79573 50.3794 9.86671 50.3145 9.93799L52.809 12.2097ZM57.636 8.18217C57.7783 8.09021 57.9217 7.99937 58.0661 7.90969L56.2861 5.04352C56.1247 5.14376 55.9643 5.24535 55.805 5.34826L57.636 8.18217ZM63.5614 5.24602C63.7213 5.1883 63.8813 5.13213 64.0415 5.07754L62.9533 1.88397C62.7737 1.94516 62.5944 2.00807 62.4156 2.07266L63.5614 5.24602ZM69.9377 3.82455C70.0201 3.81834 70.1023 3.81268 70.1843 3.80755L69.974 0.440212C69.8775 0.446238 69.7809 0.452896 69.6843 0.460179L69.9377 3.82455ZM70.2151 3.80535C70.2527 3.80232 70.2899 3.80025 70.3268 3.7991L70.2222 0.426819C70.1295 0.429692 70.0366 0.434876 69.9433 0.442411L70.2151 3.80535ZM72.1645 5.01376C72.1708 5.04075 72.1762 5.06803 72.1808 5.0956L75.5096 4.54613C75.4929 4.44448 75.4728 4.34386 75.4495 4.24439L72.1645 5.01376ZM61.2838 17.4749L61.2835 17.4751L63.526 19.9959L63.5263 19.9956L61.2838 17.4749ZM61.2769 17.481L61.2767 17.4812L63.5192 20.002L63.5195 20.0017L61.2769 17.481ZM61.1174 17.6434C61.0736 17.6944 61.0294 17.7453 60.9847 17.7958L63.5142 20.0286C63.5694 19.966 63.6242 19.9031 63.6785 19.8398L61.1174 17.6434ZM57.207 20.9142C57.0892 20.9853 56.9706 21.0549 56.8512 21.1232L58.5252 24.0525C58.6677 23.9711 58.8093 23.8879 58.9499 23.803L57.207 20.9142ZM52.2828 22.9151C52.2167 22.9298 52.1508 22.944 52.0849 22.9577L52.7724 26.2608C52.8538 26.2439 52.9352 26.2263 53.0166 26.2082L52.2828 22.9151ZM54.1082 24.7675C54.1192 24.6505 54.1324 24.5331 54.1478 24.4155L50.8025 23.9774C50.7819 24.1347 50.7641 24.2926 50.7491 24.451L54.1082 24.7675ZM58.0672 16.4743C58.1514 16.3783 58.2357 16.2842 58.3201 16.192L55.8314 13.9139C55.7308 14.0239 55.6304 14.1359 55.5305 14.2498L58.0672 16.4743ZM58.322 16.19C58.3663 16.1414 58.4112 16.0929 58.4567 16.0445L55.9979 13.7342C55.9412 13.7945 55.8851 13.8551 55.8296 13.916L58.322 16.19ZM62.2878 13.0043C62.4059 12.9325 62.5248 12.8617 62.6446 12.7919L60.9459 9.8768C60.808 9.95715 60.671 10.0387 60.5348 10.1215L62.2878 13.0043ZM67.1859 10.7863C67.2514 10.7661 67.3168 10.7463 67.3822 10.727L66.4237 7.49206C66.3467 7.51486 66.2698 7.53811 66.1929 7.5618L67.1859 10.7863ZM65.226 8.92591C65.2128 9.0466 65.1978 9.16674 65.181 9.28631L68.522 9.75569C68.5436 9.60263 68.5629 9.44842 68.5799 9.29311L65.226 8.92591ZM61.3746 17.3421C61.2885 17.4459 61.2068 17.5421 61.1303 17.6303L63.6798 19.8402C63.7719 19.7339 63.8695 19.6191 63.9716 19.496L61.3746 17.3421ZM84.433 83.5844C84.3829 83.6534 84.3326 83.7225 84.2822 83.7917L87.0083 85.7796C87.0602 85.7084 87.1119 85.6373 87.1634 85.5664L84.433 83.5844ZM80.4952 88.5907C80.3845 88.7173 80.2733 88.843 80.1618 88.9677L82.6767 91.2168C82.7968 91.0825 82.9162 90.9475 83.0348 90.8118L80.4952 88.5907ZM75.8512 92.9926C75.7217 93.087 75.5922 93.1788 75.4629 93.2678L77.3756 96.0472C77.5312 95.9401 77.6858 95.8305 77.8393 95.7184L75.8512 92.9926ZM70.5705 95.1621C70.5022 95.165 70.434 95.1666 70.3659 95.1671L70.3917 98.5409C70.4977 98.5401 70.6035 98.5375 70.7091 98.5332L70.5705 95.1621ZM70.4116 95.1674C70.3407 95.166 70.2706 95.1641 70.2015 95.1616L70.0804 98.5333C70.1683 98.5365 70.2568 98.5389 70.346 98.5407L70.4116 95.1674ZM65.2788 93.9195C65.2081 93.8905 65.1368 93.8609 65.0646 93.8309L63.7697 96.9465C63.8453 96.9779 63.9204 97.009 63.9953 97.0397L65.2788 93.9195ZM65.0631 93.8303C64.9899 93.7999 64.9159 93.7694 64.8412 93.7386L63.5561 96.8582C63.6281 96.8878 63.6998 96.9175 63.7712 96.9471L65.0631 93.8303ZM59.1623 91.8979C59.0008 91.8626 58.8369 91.8284 58.6706 91.7951L58.0094 95.1036C58.1563 95.133 58.301 95.1632 58.4434 95.1943L59.1623 91.8979ZM52.7255 91.1852C52.643 91.1838 52.5601 91.1826 52.4767 91.1817L52.4398 94.5554C52.5162 94.5562 52.5922 94.5573 52.6677 94.5586L52.7255 91.1852ZM52.4508 91.1816C52.3674 91.182 52.2844 91.1826 52.2018 91.1835L52.2392 94.5572C52.3143 94.5564 52.3898 94.5558 52.4657 94.5555L52.4508 91.1816ZM46.2542 91.7922C46.0882 91.8262 45.9246 91.8613 45.7634 91.8973L46.4998 95.1899C46.6415 95.1582 46.7852 95.1274 46.9312 95.0975L46.2542 91.7922ZM40.1219 93.7424C40.0481 93.7722 39.9748 93.8018 39.9024 93.8311L41.1674 96.9589C41.2399 96.9296 41.3123 96.9003 41.3852 96.8709L40.1219 93.7424ZM39.9098 93.8282C39.8353 93.8579 39.7618 93.887 39.6892 93.9157L40.9268 97.0544C41.0041 97.0239 41.0818 96.9931 41.16 96.9619L39.9098 93.8282ZM34.543 95.1694C34.4695 95.1739 34.3949 95.178 34.3193 95.1818L34.4862 98.5516C34.5749 98.5472 34.6628 98.5423 34.7498 98.537L34.543 95.1694ZM34.4169 95.1798C34.3488 95.1792 34.2806 95.1777 34.2126 95.1751L34.088 98.5468C34.1879 98.5504 34.2881 98.5527 34.3885 98.5536L34.4169 95.1798ZM29.4047 93.497C29.278 93.4161 29.1514 93.3327 29.0249 93.2468L27.129 96.0376C27.2817 96.1413 27.4356 96.2428 27.5907 96.3417L29.4047 93.497ZM24.8138 89.4876C24.7052 89.3692 24.5971 89.2498 24.4895 89.1295L21.9745 91.3784C22.0911 91.5089 22.2086 91.6387 22.327 91.7678L24.8138 89.4876ZM20.8286 84.5309C20.7801 84.4642 20.7317 84.3976 20.6835 84.3311L17.9511 86.3103C18.0009 86.379 18.0509 86.4478 18.1011 86.5168L20.8286 84.5309ZM20.6823 84.3295C20.6242 84.2494 20.5663 84.1692 20.5087 84.0891L17.7687 86.0577C17.8296 86.1425 17.8908 86.2272 17.9523 86.3119L20.6823 84.3295ZM16.755 78.1221C16.6607 77.9488 16.5675 77.7754 16.4756 77.602L13.4948 79.1824C13.5924 79.3666 13.6913 79.5507 13.7915 79.7349L16.755 78.1221ZM13.6049 71.1827C13.5376 70.9993 13.4716 70.8161 13.4069 70.6331L10.2259 71.7576C10.2951 71.9531 10.3655 72.1488 10.4374 72.3447L13.6049 71.1827ZM11.5659 63.873C11.5292 63.6813 11.4939 63.4902 11.4601 63.2996L8.13816 63.8896C8.17465 64.095 8.21264 64.301 8.25215 64.5073L11.5659 63.873ZM10.8278 56.3656C10.8277 56.1726 10.8291 55.9807 10.832 55.7897L7.45844 55.7384C7.45527 55.9475 7.45376 56.1575 7.45394 56.3684L10.8278 56.3656ZM11.6657 48.964C11.7108 48.7792 11.7576 48.5962 11.8061 48.4151L8.54702 47.5425C8.49202 47.7479 8.43903 47.955 8.38806 48.1637L11.6657 48.964ZM14.5074 42.33C14.5586 42.2558 14.6102 42.1824 14.6623 42.1098L11.9211 40.1429C11.8569 40.2323 11.7934 40.3226 11.7306 40.4136L14.5074 42.33ZM14.6614 42.1111C14.7141 42.0377 14.7672 41.9647 14.8207 41.892L12.1026 39.8932C12.042 39.9756 11.9818 40.0584 11.922 40.1417L14.6614 42.1111ZM19.2966 37.2167C19.4373 37.1037 19.5789 36.9924 19.7216 36.8829L17.667 34.2067C17.5047 34.3313 17.3435 34.4579 17.1835 34.5865L19.2966 37.2167ZM25.3141 33.6963C25.4804 33.6308 25.6471 33.5675 25.8143 33.5065L24.6573 30.3372C24.4635 30.4079 24.2704 30.4812 24.0779 30.557L25.3141 33.6963ZM32.0369 32.3178C32.1245 32.3165 32.212 32.3158 32.2994 32.3158V28.9419C32.1946 28.9419 32.0897 28.9427 31.9849 28.9443L32.0369 32.3178ZM32.2994 32.3158C32.4177 32.3158 32.5352 32.3169 32.652 32.3191L32.7147 28.9458C32.5771 28.9432 32.4387 28.9419 32.2994 28.9419V32.3158ZM41.1552 34.079C41.2763 34.1178 41.3977 34.1568 41.5198 34.196L42.5507 30.9834C42.4287 30.9443 42.3065 30.905 42.1844 30.8659L41.1552 34.079ZM41.5199 34.196L41.5225 34.1968L42.5534 30.9843L42.5507 30.9834L41.5199 34.196ZM41.5871 34.2176L41.5898 34.2184L42.6207 31.0059L42.618 31.005L41.5871 34.2176ZM41.5888 34.2181L41.5898 34.2184L42.6228 31.0065L42.6218 31.0062L41.5888 34.2181ZM41.6152 34.2266L41.6163 34.2269L42.6493 31.0151L42.6482 31.0147L41.6152 34.2266ZM41.6163 34.2269C41.7443 34.2681 41.873 34.3095 42.0019 34.3509L43.033 31.1384C42.9051 31.0973 42.7774 31.0563 42.6493 31.015L41.6163 34.2269ZM51.9507 36.3666C52.0954 36.3694 52.2409 36.3708 52.3872 36.3708V32.9969C52.2626 32.9969 52.1386 32.9957 52.0152 32.9933L51.9507 36.3666ZM52.3872 36.3708C52.522 36.3708 52.6559 36.3695 52.789 36.367L52.7257 32.9937C52.6136 32.9958 52.5008 32.9969 52.3872 32.9969V36.3708ZM61.9488 34.4385C62.0663 34.3984 62.1835 34.3584 62.3 34.3186L61.209 31.1259C61.0924 31.1658 60.9762 31.2055 60.86 31.2451L61.9488 34.4385ZM62.3 34.3186L62.301 34.3182L61.21 31.1256L61.209 31.1259L62.3 34.3186ZM62.3254 34.3099L62.3264 34.3095L61.2354 31.1169L61.2344 31.1172L62.3254 34.3099ZM62.3264 34.3095L62.3273 34.3092L61.2363 31.1166L61.2354 31.1169L62.3264 34.3095ZM62.3484 34.302L62.3492 34.3017L61.2583 31.1091L61.2574 31.1094L62.3484 34.302ZM62.3493 34.3017C62.4809 34.2567 62.6119 34.212 62.7432 34.1672L61.655 30.9737C61.5221 31.0189 61.3897 31.0642 61.2582 31.1091L62.3493 34.3017ZM72.0112 32.3061C72.1408 32.3042 72.2717 32.3032 72.4039 32.3032V28.9293C72.255 28.9293 72.1074 28.9304 71.961 28.9326L72.0112 32.3061ZM72.4039 32.3032C72.498 32.3032 72.5922 32.304 72.6865 32.3056L72.7436 28.9322C72.6304 28.9302 72.5171 28.9293 72.4039 28.9293V32.3032ZM79.3732 33.6894C79.5519 33.7599 79.7301 33.8329 79.9079 33.9086L81.2289 30.804C81.0238 30.7168 80.818 30.6324 80.6115 30.5509L79.3732 33.6894ZM85.8201 37.5566C85.8945 37.6189 85.9687 37.6818 86.0425 37.7452L88.2398 35.1848C88.1559 35.1129 88.0717 35.0415 87.9871 34.9706L85.8201 37.5566ZM86.1788 35.0795C86.0898 35.1413 86.0014 35.2034 85.9134 35.266L87.8691 38.0153C87.9468 37.96 88.0249 37.9051 88.1035 37.8505L86.1788 35.0795ZM80.2863 40.6361C80.1528 40.809 80.0218 40.9835 79.8934 41.1595L82.6186 43.1486C82.7292 42.997 82.8421 42.8466 82.9573 42.6973L80.2863 40.6361ZM76.386 48.1708C76.3226 48.3804 76.2621 48.591 76.2046 48.8026L79.4605 49.6871C79.5095 49.5066 79.5611 49.3269 79.6152 49.1482L76.386 48.1708ZM75.4451 56.5976C75.4523 56.7063 75.4602 56.8151 75.4689 56.9241L78.8322 56.6569C78.8247 56.5626 78.8178 56.4684 78.8116 56.3743L75.4451 56.5976ZM75.4689 56.924C75.478 57.0387 75.4879 57.1532 75.4985 57.2675L78.8579 56.954C78.8486 56.8552 78.8401 56.7562 78.8322 56.657L75.4689 56.924ZM77.6227 65.2181C77.7184 65.4269 77.817 65.6343 77.9184 65.8403L80.945 64.3492C80.8574 64.1714 80.7723 63.9924 80.6897 63.8123L77.6227 65.2181ZM82.7033 72.5147C82.8642 72.6765 83.0274 72.8365 83.1929 72.9946L85.5232 70.5547C85.3787 70.4167 85.2363 70.2771 85.0959 70.1359L82.7033 72.5147ZM89.8713 77.6939C89.9725 77.7452 90.0742 77.796 90.1764 77.8463L91.6664 74.8192C91.5759 74.7747 91.4858 74.7297 91.3961 74.6843L89.8713 77.6939ZM89.4233 75.5571C89.3662 75.6674 89.3097 75.7762 89.2536 75.8835L92.2439 77.4459C92.302 77.3347 92.3605 77.2222 92.4194 77.1084L89.4233 75.5571ZM84.6486 83.2862C84.5777 83.3845 84.5057 83.4841 84.4326 83.585L87.1638 85.5658C87.2389 85.4623 87.3128 85.36 87.3857 85.2588L84.6486 83.2862Z" fill="#FF0000"/>
<path d="M251.262 12.9918C250.793 12.6266 250.173 12.4594 249.55 12.5324L206.095 17.7029C205.021 17.8297 204.221 18.6447 204.221 19.6077V53.4212C204.221 54.4822 205.189 55.3433 206.383 55.3433H249.837C251.031 55.3433 252 54.4822 252 53.4212V14.4372C252 13.8817 251.732 13.3551 251.262 12.9918ZM247.675 45.4991C247.675 48.8128 244.989 51.4991 241.675 51.4991H214.545C211.232 51.4991 208.545 48.8128 208.545 45.4991V26.618C208.545 23.5785 210.818 21.0191 213.837 20.66L240.966 17.4323C244.536 17.0077 247.675 19.7956 247.675 23.3903V45.4991Z" stroke="#FF0000" stroke-width="3.3739" stroke-linecap="round" stroke-linejoin="round" stroke-dasharray="0.56 6.75"/>
<path d="M191.246 65.0574C191.246 65.0574 191.246 65.0574 191.246 65.0574C191.246 65.0574 191.244 65.0574 191.242 65.0574L150.365 65.1323C149.171 65.1343 148.207 65.9953 148.207 67.0544V95.8875C148.207 96.8543 149.016 97.6712 150.095 97.7942L190.972 102.419C191.065 102.428 191.155 102.434 191.246 102.434C191.77 102.434 192.28 102.265 192.676 101.954C193.141 101.588 193.409 101.064 193.409 100.512V66.9794C193.409 66.4682 193.182 65.98 192.773 65.6186C192.369 65.2592 191.817 65.0574 191.246 65.0574ZM-nan -nanL189.084 98.3304L157.857 94.7968C154.824 94.4535 152.532 91.8875 152.532 88.8348V74.9616C152.532 71.6522 155.211 68.9677 158.521 68.9616L183.073 68.9164C186.391 68.9103 189.084 71.5984 189.084 74.9164V98.3304L-nan -nanL-nan -nanZ" stroke="#FF0000" stroke-width="3.3739" stroke-linecap="round" stroke-linejoin="round" stroke-dasharray="0.56 6.75"/>
<path d="M190.97 18.6412L149.886 23.3407C148.807 23.4656 148 24.2825 148 25.2474V53.4212C148 54.4822 148.969 55.3433 150.162 55.3433H191.247C192.44 55.3433 193.409 54.4822 193.409 53.4212V20.5479C193.409 19.9943 193.141 19.4696 192.676 19.1044C192.211 18.7392 191.584 18.5701 190.97 18.6412ZM189.084 45.4991C189.084 48.8128 186.398 51.4991 183.084 51.4991H158.325C155.011 51.4991 152.325 48.8128 152.325 45.4991V32.2915C152.325 29.2417 154.613 26.677 157.643 26.3304L182.403 23.4977C185.963 23.0904 189.084 25.875 189.084 29.4589V45.4991Z" stroke="#FF0000" stroke-width="3.3739" stroke-linecap="round" stroke-linejoin="round" stroke-dasharray="0.56 6.75"/>
<path d="M249.841 65.1324L206.387 65.0786H206.385C205.812 65.0786 205.263 65.2804 204.858 65.6399C204.452 66.0012 204.225 66.4894 204.225 67.0007V101.474C204.225 102.435 205.025 103.25 206.097 103.378L249.552 108.603C249.645 108.614 249.742 108.62 249.837 108.62C250.358 108.62 250.864 108.453 251.26 108.145C251.729 107.78 251.999 107.253 251.999 106.698V67.0545C251.999 65.9935 251.033 65.1344 249.841 65.1324ZM247.675 97.7326C247.675 101.33 244.531 104.119 240.959 103.69L213.829 100.429C210.814 100.066 208.545 97.5084 208.545 94.4716V74.9321C208.545 71.6155 211.236 68.928 214.552 68.9321L241.682 68.9654C244.993 68.9695 247.675 71.6546 247.675 74.9654V97.7326Z" stroke="#FF0000" stroke-width="3.3739" stroke-linecap="round" stroke-linejoin="round" stroke-dasharray="0.56 6.75"/>
</svg>
