<svg width="110" height="130" viewBox="0 0 110 130" fill="none" xmlns="http://www.w3.org/2000/svg">
<path d="M105.6 17.126L56.1761 2.29883C55.4848 2.09113 54.7467 2.09113 54.0547 2.29883L4.63074 17.126C3.06928 17.5943 2 19.0315 2 20.6616V75.0276C2 82.0989 4.86256 89.3375 10.5082 96.5424C14.8203 102.045 20.7856 107.571 28.2388 112.966C40.7593 122.029 53.0881 127.589 53.6068 127.821C54.0867 128.036 54.6008 128.143 55.1152 128.143C55.6292 128.143 56.1436 128.036 56.6235 127.821C57.1422 127.589 69.4708 122.029 81.9913 112.966C89.4442 107.571 95.4096 102.045 99.7216 96.5424C105.367 89.3378 108.23 82.0992 108.23 75.0276V20.6616C108.23 19.0315 107.161 17.5943 105.6 17.126ZM100.847 75.0276C100.847 87.542 88.2908 99.2763 77.7572 106.917C68.3136 113.766 58.7364 118.627 55.1154 120.373C51.4944 118.627 41.9169 113.766 32.4733 106.917C21.9395 99.2763 9.38281 87.542 9.38281 75.0276V23.408L55.1152 9.68829L100.847 23.408V75.0276V75.0276Z" stroke="#FF0000" stroke-width="3.3739" stroke-linecap="round" stroke-linejoin="round" stroke-dasharray="0.56 6.75"/>
<path d="M24.8184 49.4912H30.2792L35.1302 63.5452L40.0089 49.4912H45.2203L37.625 68.9229H32.3582L24.8184 49.4912Z" fill="#FF0000"/>
<path d="M55.5993 49.4912C58.0756 49.4912 59.9975 50.0918 61.365 51.293C62.7325 52.4757 63.4163 54.1482 63.4163 56.3103C63.4163 58.6018 62.7325 60.3852 61.365 61.6603C59.9975 62.9169 58.0756 63.5452 55.5993 63.5452H52.1343V68.9229H47.0615V49.4912H55.5993ZM55.3498 59.4981C56.3847 59.4981 57.1793 59.2394 57.7337 58.722C58.3066 58.2045 58.593 57.4561 58.593 56.4766C58.593 55.5342 58.3066 54.8134 57.7337 54.3145C57.1793 53.797 56.3847 53.5383 55.3498 53.5383H52.1343V59.4981H55.3498Z" fill="#FF0000"/>
<path d="M79.1803 49.4912H83.8927V68.9229H79.4575L70.6426 57.3082V68.9229H65.9024V49.4912H70.3654L79.208 61.189L79.1803 49.4912Z" fill="#FF0000"/>
</svg>
