<svg width="279" height="130" viewBox="0 0 279 130" fill="none" xmlns="http://www.w3.org/2000/svg">
<path d="M208.595 117.758C183.812 117.758 166.5 101.352 166.5 77.8574C166.5 50.6008 180.107 39.2982 180.681 38.8299C181.712 37.9985 183.096 37.7459 184.343 38.1353C185.601 38.53 186.585 39.535 186.953 40.8031C186.985 40.9136 189.326 48.7644 195.067 55.4733C193.783 41.9502 195.904 19.0609 219.935 2.68061C221.103 1.89658 222.592 1.78082 223.86 2.38068C225.123 2.9858 225.975 4.21708 226.091 5.61675C226.754 13.6201 231.053 21.8234 236.041 31.3264C240.282 39.414 245.092 48.5802 247.97 58.7883C248.559 60.8878 247.344 63.0662 245.244 63.6608C243.145 64.2765 240.966 63.0294 240.372 60.9352C237.715 51.5163 233.305 43.1131 229.048 34.9887C225.102 27.4642 221.324 20.2606 219.414 12.9834C194.593 34.1205 204.586 63.8187 204.691 64.1397C205.233 65.6814 204.765 67.402 203.507 68.4544C202.249 69.5173 200.476 69.6752 199.05 68.8912C190.052 63.9081 184.69 55.3207 181.891 49.4011C178.618 54.2631 174.393 63.3346 174.393 77.8574C174.393 99.968 191.573 109.866 208.595 109.866C212.052 109.866 215.43 109.466 218.624 108.666C220.713 108.129 222.876 109.424 223.402 111.544C223.934 113.654 222.639 115.801 220.524 116.322C216.709 117.274 212.694 117.758 208.595 117.758V117.758Z" stroke="#FF0000" stroke-width="3.3739" stroke-linecap="round" stroke-linejoin="round" stroke-dasharray="0.56 6.75"/>
<path d="M244.11 99.3418V97.6548H244.11L244.11 99.3418ZM238.851 99.3418V101.029H238.851L238.851 99.3418ZM267.791 99.3418V101.029V99.3418ZM262.527 99.3418V97.6548V99.3418ZM266.473 91.4489H264.786C264.786 92.3806 265.541 93.1359 266.473 93.1359V91.4489ZM240.164 91.4489V93.1359C241.095 93.1359 241.851 92.3806 241.851 91.4489H240.164ZM258.58 91.4489V93.1359C259.512 93.1359 260.267 92.3806 260.267 91.4489H258.58ZM248.056 91.4489H246.369C246.369 92.3806 247.125 93.1359 248.056 93.1359V91.4489ZM243.908 97.6548C242.976 97.6548 242.221 98.4101 242.221 99.3418C242.221 100.273 242.976 101.029 243.908 101.029L243.908 97.6548ZM239.053 101.029C239.985 101.029 240.74 100.273 240.74 99.3418C240.74 98.4101 239.985 97.6548 239.053 97.6548L239.053 101.029ZM238.671 97.6602C237.741 97.7157 237.032 98.5147 237.087 99.4447C237.143 100.375 237.942 101.084 238.872 101.028L238.671 97.6602ZM239.222 100.678C239.277 99.7483 238.568 98.9493 237.638 98.8938C236.708 98.8383 235.909 99.5473 235.854 100.477L239.222 100.678ZM235.848 100.893C235.848 101.825 236.604 102.58 237.535 102.58C238.467 102.58 239.222 101.825 239.222 100.893H235.848ZM239.222 106.56C239.222 105.628 238.467 104.873 237.535 104.873C236.604 104.873 235.848 105.628 235.848 106.56H239.222ZM235.848 107.032C235.848 107.964 236.604 108.719 237.535 108.719C238.467 108.719 239.222 107.964 239.222 107.032H235.848ZM239.222 112.699C239.222 111.767 238.467 111.012 237.535 111.012C236.604 111.012 235.848 111.767 235.848 112.699H239.222ZM235.848 113.171C235.848 114.103 236.604 114.858 237.535 114.858C238.467 114.858 239.222 114.103 239.222 113.171H235.848ZM239.222 118.838C239.222 117.906 238.467 117.151 237.535 117.151C236.604 117.151 235.848 117.906 235.848 118.838H239.222ZM235.854 119.254C235.909 120.184 236.708 120.893 237.638 120.837C238.568 120.782 239.277 119.983 239.222 119.053L235.854 119.254ZM238.872 118.703C237.942 118.648 237.143 119.357 237.087 120.287C237.032 121.217 237.741 122.015 238.671 122.071L238.872 118.703ZM239.129 122.076C240.061 122.076 240.816 121.321 240.816 120.389C240.816 119.458 240.061 118.702 239.129 118.702V122.076ZM245.808 118.702C244.876 118.702 244.121 119.458 244.121 120.389C244.121 121.321 244.876 122.076 245.808 122.076V118.702ZM246.364 122.076C247.296 122.076 248.051 121.321 248.051 120.389C248.051 119.458 247.296 118.702 246.364 118.702V122.076ZM253.043 118.702C252.111 118.702 251.356 119.458 251.356 120.389C251.356 121.321 252.111 122.076 253.043 122.076V118.702ZM253.599 122.076C254.531 122.076 255.286 121.321 255.286 120.389C255.286 119.458 254.531 118.702 253.599 118.702V122.076ZM260.278 118.702C259.346 118.702 258.591 119.458 258.591 120.389C258.591 121.321 259.346 122.076 260.278 122.076V118.702ZM260.835 122.076C261.766 122.076 262.521 121.321 262.521 120.389C262.521 119.458 261.766 118.702 260.835 118.702V122.076ZM267.513 118.702C266.581 118.702 265.826 119.458 265.826 120.389C265.826 121.321 266.581 122.076 267.513 122.076V118.702ZM267.971 122.071C268.901 122.015 269.61 121.217 269.555 120.287C269.499 119.357 268.7 118.648 267.77 118.703L267.971 122.071ZM267.421 119.053C267.365 119.983 268.074 120.782 269.004 120.837C269.934 120.893 270.733 120.184 270.788 119.254L267.421 119.053ZM270.794 118.838C270.794 117.906 270.039 117.151 269.107 117.151C268.175 117.151 267.42 117.906 267.42 118.838H270.794ZM267.42 113.171C267.42 114.103 268.175 114.858 269.107 114.858C270.039 114.858 270.794 114.103 270.794 113.171H267.42ZM270.794 112.699C270.794 111.767 270.039 111.012 269.107 111.012C268.175 111.012 267.42 111.767 267.42 112.699H270.794ZM267.42 107.032C267.42 107.964 268.175 108.719 269.107 108.719C270.039 108.719 270.794 107.964 270.794 107.032H267.42ZM270.794 106.56C270.794 105.628 270.039 104.873 269.107 104.873C268.175 104.873 267.42 105.628 267.42 106.56H270.794ZM267.42 100.893C267.42 101.825 268.175 102.58 269.107 102.58C270.039 102.58 270.794 101.825 270.794 100.893H267.42ZM270.788 100.477C270.733 99.5473 269.934 98.8383 269.004 98.8938C268.074 98.9493 267.365 99.7483 267.421 100.678L270.788 100.477ZM267.77 101.028C268.7 101.084 269.499 100.375 269.555 99.4447C269.61 98.5147 268.901 97.7157 267.971 97.6602L267.77 101.028ZM267.589 97.6548C266.657 97.6548 265.902 98.4101 265.902 99.3418C265.902 100.273 266.657 101.029 267.589 101.029L267.589 97.6548ZM262.729 101.029C263.661 101.029 264.416 100.273 264.416 99.3418C264.416 98.4101 263.661 97.6548 262.729 97.6548L262.729 101.029ZM262.291 97.6548C261.359 97.6548 260.604 98.4101 260.604 99.3418C260.604 100.273 261.359 101.029 262.291 101.029V97.6548ZM256.624 101.029C257.556 101.029 258.311 100.273 258.311 99.3418C258.311 98.4101 257.556 97.6548 256.624 97.6548V101.029ZM256.152 97.6548C255.22 97.6548 254.465 98.4101 254.465 99.3418C254.465 100.273 255.22 101.029 256.152 101.029V97.6548ZM250.485 101.029C251.417 101.029 252.172 100.273 252.172 99.3418C252.172 98.4101 251.417 97.6548 250.485 97.6548V101.029ZM250.013 97.6548C249.081 97.6548 248.326 98.4101 248.326 99.3418C248.326 100.273 249.081 101.029 250.013 101.029V97.6548ZM244.346 101.029C245.278 101.029 246.033 100.273 246.033 99.3418C246.033 98.4101 245.278 97.6548 244.346 97.6548V101.029ZM268.16 91.1454C268.16 90.2137 267.405 89.4584 266.473 89.4584C265.541 89.4584 264.786 90.2137 264.786 91.1454H268.16ZM264.786 83.8597C264.786 84.7913 265.541 85.5466 266.473 85.5466C267.405 85.5466 268.16 84.7913 268.16 83.8597H264.786ZM268.157 83.2567C268.139 82.3252 267.368 81.5851 266.437 81.6037C265.505 81.6222 264.765 82.3924 264.784 83.3239L268.157 83.2567ZM263.364 78.0266C263.814 78.842 264.841 79.1377 265.656 78.687C266.472 78.2363 266.767 77.21 266.317 76.3945L263.364 78.0266ZM266.017 75.8774C265.534 75.0808 264.496 74.8267 263.7 75.3098C262.903 75.793 262.649 76.8304 263.132 77.627L266.017 75.8774ZM259.247 73.7422C260.044 74.2253 261.081 73.9712 261.565 73.1746C262.048 72.3779 261.794 71.3405 260.997 70.8574L259.247 73.7422ZM260.48 70.5578C259.664 70.1071 258.638 70.4028 258.187 71.2182C257.737 72.0336 258.032 73.06 258.848 73.5107L260.48 70.5578ZM253.551 72.0906C254.482 72.1091 255.252 71.369 255.271 70.4375C255.289 69.506 254.549 68.7359 253.618 68.7173L253.551 72.0906ZM253.019 68.7173C252.087 68.7359 251.347 69.506 251.366 70.4375C251.384 71.369 252.155 72.1091 253.086 72.0906L253.019 68.7173ZM247.789 73.5107C248.604 73.06 248.9 72.0336 248.449 71.2182C247.999 70.4028 246.972 70.1071 246.157 70.5578L247.789 73.5107ZM245.64 70.8574C244.843 71.3405 244.589 72.3779 245.072 73.1746C245.555 73.9712 246.593 74.2253 247.389 73.7422L245.64 70.8574ZM243.504 77.627C243.988 76.8304 243.733 75.793 242.937 75.3098C242.14 74.8267 241.103 75.0808 240.62 75.8774L243.504 77.627ZM240.32 76.3945C239.869 77.21 240.165 78.2363 240.98 78.687C241.796 79.1377 242.822 78.842 243.273 78.0266L240.32 76.3945ZM241.853 83.3239C241.871 82.3924 241.131 81.6222 240.2 81.6037C239.268 81.5851 238.498 82.3252 238.48 83.2567L241.853 83.3239ZM238.477 83.8597C238.477 84.7913 239.232 85.5466 240.164 85.5466C241.095 85.5466 241.851 84.7913 241.851 83.8597H238.477ZM241.851 91.1454C241.851 90.2137 241.095 89.4584 240.164 89.4584C239.232 89.4584 238.477 90.2137 238.477 91.1454H241.851ZM240.113 89.762C239.181 89.762 238.426 90.5173 238.426 91.4489C238.426 92.3806 239.181 93.1359 240.113 93.1359V89.762ZM238.901 93.1359C239.833 93.1359 240.588 92.3806 240.588 91.4489C240.588 90.5173 239.833 89.762 238.901 89.762V93.1359ZM238.522 89.7669C237.591 89.7947 236.858 90.5722 236.886 91.5035C236.914 92.4347 237.691 93.1671 238.623 93.1393L238.522 89.7669ZM233.699 95.1833C234.377 94.5445 234.409 93.4769 233.77 92.7986C233.131 92.1204 232.064 92.0885 231.386 92.7272L233.699 95.1833ZM230.921 93.1919C230.282 93.8701 230.314 94.9378 230.992 95.5765C231.671 96.2153 232.738 96.1834 233.377 95.5051L230.921 93.1919ZM231.333 100.429C231.361 99.4977 230.628 98.7202 229.697 98.6923C228.766 98.6645 227.988 99.3969 227.961 100.328L231.333 100.429ZM227.956 100.893C227.956 101.825 228.711 102.58 229.643 102.58C230.574 102.58 231.33 101.825 231.33 100.893H227.956ZM231.33 106.56C231.33 105.628 230.574 104.873 229.643 104.873C228.711 104.873 227.956 105.628 227.956 106.56H231.33ZM227.956 107.032C227.956 107.964 228.711 108.719 229.643 108.719C230.574 108.719 231.33 107.964 231.33 107.032H227.956ZM231.33 112.699C231.33 111.767 230.574 111.012 229.643 111.012C228.711 111.012 227.956 111.767 227.956 112.699H231.33ZM227.956 113.171C227.956 114.103 228.711 114.858 229.643 114.858C230.574 114.858 231.33 114.103 231.33 113.171H227.956ZM231.33 118.838C231.33 117.906 230.574 117.151 229.643 117.151C228.711 117.151 227.956 117.906 227.956 118.838H231.33ZM227.961 119.403C227.988 120.334 228.766 121.067 229.697 121.039C230.628 121.011 231.361 120.234 231.333 119.302L227.961 119.403ZM233.377 124.226C232.738 123.548 231.671 123.516 230.992 124.155C230.314 124.793 230.282 125.861 230.921 126.539L233.377 124.226ZM231.386 127.004C232.064 127.643 233.131 127.611 233.77 126.933C234.409 126.254 234.377 125.187 233.699 124.548L231.386 127.004ZM238.623 126.592C237.691 126.564 236.914 127.296 236.886 128.228C236.858 129.159 237.591 129.936 238.522 129.964L238.623 126.592ZM239.129 129.969C240.061 129.969 240.816 129.214 240.816 128.282C240.816 127.351 240.061 126.595 239.129 126.595V129.969ZM245.808 126.595C244.876 126.595 244.121 127.351 244.121 128.282C244.121 129.214 244.876 129.969 245.808 129.969V126.595ZM246.364 129.969C247.296 129.969 248.051 129.214 248.051 128.282C248.051 127.351 247.296 126.595 246.364 126.595V129.969ZM253.043 126.595C252.111 126.595 251.356 127.351 251.356 128.282C251.356 129.214 252.111 129.969 253.043 129.969V126.595ZM253.599 129.969C254.531 129.969 255.286 129.214 255.286 128.282C255.286 127.351 254.531 126.595 253.599 126.595V129.969ZM260.278 126.595C259.346 126.595 258.591 127.351 258.591 128.282C258.591 129.214 259.346 129.969 260.278 129.969V126.595ZM260.835 129.969C261.766 129.969 262.521 129.214 262.521 128.282C262.521 127.351 261.766 126.595 260.835 126.595V129.969ZM267.513 126.595C266.581 126.595 265.826 127.351 265.826 128.282C265.826 129.214 266.581 129.969 267.513 129.969V126.595ZM268.12 129.964C269.052 129.936 269.784 129.159 269.756 128.228C269.728 127.296 268.951 126.564 268.02 126.592L268.12 129.964ZM272.944 124.548C272.265 125.187 272.233 126.254 272.872 126.933C273.511 127.611 274.579 127.643 275.257 127.004L272.944 124.548ZM275.721 126.539C276.36 125.861 276.328 124.793 275.65 124.155C274.972 123.516 273.904 123.548 273.265 124.226L275.721 126.539ZM275.309 119.302C275.282 120.234 276.014 121.011 276.945 121.039C277.876 121.067 278.654 120.334 278.682 119.403L275.309 119.302ZM278.687 118.838C278.687 117.906 277.931 117.151 277 117.151C276.068 117.151 275.313 117.906 275.313 118.838H278.687ZM275.313 113.171C275.313 114.103 276.068 114.858 277 114.858C277.931 114.858 278.687 114.103 278.687 113.171H275.313ZM278.687 112.699C278.687 111.767 277.931 111.012 277 111.012C276.068 111.012 275.313 111.767 275.313 112.699H278.687ZM275.313 107.032C275.313 107.964 276.068 108.719 277 108.719C277.931 108.719 278.687 107.964 278.687 107.032H275.313ZM278.687 106.56C278.687 105.628 277.931 104.873 277 104.873C276.068 104.873 275.313 105.628 275.313 106.56H278.687ZM275.313 100.893C275.313 101.825 276.068 102.58 277 102.58C277.931 102.58 278.687 101.825 278.687 100.893H275.313ZM278.682 100.328C278.654 99.3969 277.876 98.6645 276.945 98.6923C276.014 98.7202 275.282 99.4977 275.309 100.429L278.682 100.328ZM273.265 95.5051C273.904 96.1834 274.972 96.2153 275.65 95.5765C276.328 94.9378 276.36 93.8701 275.721 93.1919L273.265 95.5051ZM275.257 92.7272C274.579 92.0885 273.511 92.1204 272.872 92.7986C272.233 93.4769 272.265 94.5445 272.944 95.1833L275.257 92.7272ZM268.02 93.1393C268.951 93.1671 269.728 92.4347 269.756 91.5035C269.784 90.5722 269.052 89.7947 268.12 89.7669L268.02 93.1393ZM267.741 89.762C266.809 89.762 266.054 90.5173 266.054 91.4489C266.054 92.3806 266.809 93.1359 267.741 93.1359V89.762ZM266.524 93.1359C267.455 93.1359 268.211 92.3806 268.211 91.4489C268.211 90.5173 267.455 89.762 266.524 89.762V93.1359ZM258.175 89.762C257.244 89.762 256.489 90.5173 256.489 91.4489C256.489 92.3806 257.244 93.1359 258.175 93.1359V89.762ZM248.461 93.1359C249.393 93.1359 250.148 92.3806 250.148 91.4489C250.148 90.5173 249.393 89.762 248.461 89.762V93.1359ZM249.743 91.1454C249.743 90.2137 248.988 89.4584 248.056 89.4584C247.125 89.4584 246.369 90.2137 246.369 91.1454H249.743ZM246.369 83.8597C246.369 84.7913 247.125 85.5466 248.056 85.5466C248.988 85.5466 249.743 84.7913 249.743 83.8597H246.369ZM249.75 83.3387C249.805 82.4086 249.096 81.6097 248.166 81.5542C247.236 81.4987 246.437 82.2076 246.382 83.1376L249.75 83.3387ZM252.9 76.6197C251.97 76.6752 251.261 77.4741 251.316 78.4042C251.372 79.3342 252.171 80.0431 253.101 79.9876L252.9 76.6197ZM253.536 79.9876C254.466 80.0431 255.265 79.3342 255.32 78.4042C255.376 77.4741 254.667 76.6752 253.737 76.6197L253.536 79.9876ZM260.255 83.1376C260.199 82.2076 259.4 81.4987 258.47 81.5542C257.54 81.6097 256.831 82.4086 256.887 83.3387L260.255 83.1376ZM256.893 83.8597C256.893 84.7913 257.649 85.5466 258.58 85.5466C259.512 85.5466 260.267 84.7913 260.267 83.8597H256.893ZM260.267 91.1454C260.267 90.2137 259.512 89.4584 258.58 89.4584C257.649 89.4584 256.893 90.2137 256.893 91.1454H260.267ZM244.11 97.6548H243.908L243.908 101.029H244.11L244.11 97.6548ZM239.053 97.6548H238.851L238.851 101.029H239.053L239.053 97.6548ZM238.851 97.6548C238.791 97.6548 238.731 97.6566 238.671 97.6602L238.872 101.028C238.865 101.029 238.858 101.029 238.851 101.029V97.6548ZM235.854 100.477C235.85 100.537 235.848 100.597 235.848 100.657H239.222C239.222 100.664 239.222 100.671 239.222 100.678L235.854 100.477ZM235.848 100.657V100.893H239.222V100.657H235.848ZM235.848 106.56V107.032H239.222V106.56H235.848ZM235.848 112.699V113.171H239.222V112.699H235.848ZM235.848 118.838V119.074H239.222V118.838H235.848ZM235.848 119.074C235.848 119.134 235.85 119.194 235.854 119.254L239.222 119.053C239.222 119.06 239.222 119.067 239.222 119.074H235.848ZM238.671 122.071C238.731 122.075 238.791 122.076 238.851 122.076V118.702C238.858 118.702 238.865 118.703 238.872 118.703L238.671 122.071ZM238.851 122.076H239.129V118.702H238.851V122.076ZM245.808 122.076H246.364V118.702H245.808V122.076ZM253.043 122.076H253.599V118.702H253.043V122.076ZM260.278 122.076H260.835V118.702H260.278V122.076ZM267.513 122.076H267.791V118.702H267.513V122.076ZM267.791 122.076C267.852 122.076 267.912 122.075 267.971 122.071L267.77 118.703C267.778 118.703 267.785 118.702 267.791 118.702V122.076ZM270.788 119.254C270.792 119.194 270.794 119.134 270.794 119.074H267.42C267.42 119.067 267.42 119.06 267.421 119.053L270.788 119.254ZM270.794 119.074V118.838H267.42V119.074H270.794ZM270.794 113.171V112.699H267.42V113.171H270.794ZM270.794 107.032V106.56H267.42V107.032H270.794ZM270.794 100.893V100.657H267.42V100.893H270.794ZM270.794 100.657C270.794 100.597 270.792 100.537 270.788 100.477L267.421 100.678C267.42 100.671 267.42 100.664 267.42 100.657H270.794ZM267.971 97.6602C267.912 97.6566 267.852 97.6548 267.791 97.6548V101.029C267.785 101.029 267.778 101.029 267.77 101.028L267.971 97.6602ZM267.791 97.6548H267.589L267.589 101.029H267.791V97.6548ZM262.729 97.6548H262.527V101.029H262.729L262.729 97.6548ZM262.527 97.6548H262.291V101.029H262.527V97.6548ZM256.624 97.6548H256.152V101.029H256.624V97.6548ZM250.485 97.6548H250.013V101.029H250.485V97.6548ZM244.346 97.6548H244.11V101.029H244.346V97.6548ZM268.16 91.4489V91.1454H264.786V91.4489H268.16ZM268.16 83.8597V83.5561H264.786V83.8597H268.16ZM268.16 83.5561C268.16 83.4561 268.159 83.3563 268.157 83.2567L264.784 83.3239C264.785 83.4011 264.786 83.4785 264.786 83.5561H268.16ZM266.317 76.3945C266.22 76.22 266.12 76.0476 266.017 75.8774L263.132 77.627C263.212 77.7585 263.289 77.8918 263.364 78.0266L266.317 76.3945ZM260.997 70.8574C260.827 70.7542 260.654 70.6543 260.48 70.5578L258.848 73.5107C258.983 73.5852 259.116 73.6624 259.247 73.7422L260.997 70.8574ZM253.618 68.7173C253.518 68.7154 253.418 68.7144 253.318 68.7144V72.0883C253.396 72.0883 253.473 72.089 253.551 72.0906L253.618 68.7173ZM253.318 68.7144C253.218 68.7144 253.119 68.7154 253.019 68.7173L253.086 72.0906C253.163 72.089 253.241 72.0883 253.318 72.0883V68.7144ZM246.157 70.5578C245.982 70.6543 245.81 70.7542 245.64 70.8574L247.389 73.7422C247.521 73.6624 247.654 73.5852 247.789 73.5107L246.157 70.5578ZM240.62 75.8774C240.516 76.0476 240.417 76.22 240.32 76.3945L243.273 78.0266C243.347 77.8918 243.425 77.7585 243.504 77.627L240.62 75.8774ZM238.48 83.2567C238.478 83.3563 238.477 83.4561 238.477 83.5561H241.851C241.851 83.4785 241.851 83.4011 241.853 83.3239L238.48 83.2567ZM238.477 83.5561V83.8597H241.851V83.5561H238.477ZM238.477 91.1454V91.4489H241.851V91.1454H238.477ZM240.164 89.762H240.113V93.1359H240.164V89.762ZM238.901 89.762H238.851V93.1359H238.901V89.762ZM238.851 89.762C238.741 89.762 238.631 89.7636 238.522 89.7669L238.623 93.1393C238.698 93.137 238.774 93.1359 238.851 93.1359V89.762ZM231.386 92.7272C231.226 92.8775 231.071 93.0324 230.921 93.1919L233.377 95.5051C233.481 95.3947 233.588 95.2873 233.699 95.1833L231.386 92.7272ZM227.961 100.328C227.957 100.438 227.956 100.547 227.956 100.657H231.33C231.33 100.581 231.331 100.505 231.333 100.429L227.961 100.328ZM227.956 100.657V100.893H231.33V100.657H227.956ZM227.956 106.56V107.032H231.33V106.56H227.956ZM227.956 112.699V113.171H231.33V112.699H227.956ZM227.956 118.838V119.074H231.33V118.838H227.956ZM227.956 119.074C227.956 119.184 227.957 119.294 227.961 119.403L231.333 119.302C231.331 119.226 231.33 119.15 231.33 119.074H227.956ZM230.921 126.539C231.071 126.699 231.226 126.854 231.386 127.004L233.699 124.548C233.588 124.444 233.481 124.337 233.377 124.226L230.921 126.539ZM238.522 129.964C238.631 129.968 238.741 129.969 238.851 129.969V126.595C238.774 126.595 238.698 126.594 238.623 126.592L238.522 129.964ZM238.851 129.969H239.129V126.595H238.851V129.969ZM245.808 129.969H246.364V126.595H245.808V129.969ZM253.043 129.969H253.599V126.595H253.043V129.969ZM260.278 129.969H260.835V126.595H260.278V129.969ZM267.513 129.969H267.791V126.595H267.513V129.969ZM267.791 129.969C267.901 129.969 268.011 129.968 268.12 129.964L268.02 126.592C267.944 126.594 267.868 126.595 267.791 126.595V129.969ZM275.257 127.004C275.416 126.854 275.571 126.699 275.721 126.539L273.265 124.226C273.161 124.337 273.054 124.444 272.944 124.548L275.257 127.004ZM278.682 119.403C278.685 119.294 278.687 119.184 278.687 119.074H275.313C275.313 119.15 275.312 119.226 275.309 119.302L278.682 119.403ZM278.687 119.074V118.838H275.313V119.074H278.687ZM278.687 113.171V112.699H275.313V113.171H278.687ZM278.687 107.032V106.56H275.313V107.032H278.687ZM278.687 100.893V100.657H275.313V100.893H278.687ZM278.687 100.657C278.687 100.547 278.685 100.438 278.682 100.328L275.309 100.429C275.312 100.505 275.313 100.581 275.313 100.657H278.687ZM275.721 93.1919C275.571 93.0324 275.416 92.8775 275.257 92.7272L272.944 95.1833C273.054 95.2873 273.161 95.3947 273.265 95.5051L275.721 93.1919ZM268.12 89.7669C268.011 89.7636 267.901 89.762 267.791 89.762V93.1359C267.868 93.1359 267.944 93.137 268.02 93.1393L268.12 89.7669ZM267.791 89.762H267.741V93.1359H267.791V89.762ZM266.524 89.762H266.473V93.1359H266.524V89.762ZM258.58 89.762H258.175V93.1359H258.58V89.762ZM248.461 89.762H248.056V93.1359H248.461V89.762ZM249.743 91.4489V91.1454H246.369V91.4489H249.743ZM249.743 83.8597V83.5561H246.369V83.8597H249.743ZM249.743 83.5561C249.743 83.4829 249.746 83.4104 249.75 83.3387L246.382 83.1376C246.374 83.2763 246.369 83.4158 246.369 83.5561H249.743ZM253.101 79.9876C253.173 79.9833 253.245 79.9811 253.318 79.9811V76.6072C253.178 76.6072 253.038 76.6114 252.9 76.6197L253.101 79.9876ZM253.318 79.9811C253.392 79.9811 253.464 79.9833 253.536 79.9876L253.737 76.6197C253.598 76.6114 253.459 76.6072 253.318 76.6072V79.9811ZM256.887 83.3387C256.891 83.4104 256.893 83.4829 256.893 83.5561H260.267C260.267 83.4158 260.263 83.2763 260.255 83.1376L256.887 83.3387ZM256.893 83.5561V83.8597H260.267V83.5561H256.893ZM256.893 91.1454V91.4489H260.267V91.1454H256.893Z" fill="#FF0000"/>
<path d="M105.6 17.126L56.1761 2.29883C55.4848 2.09113 54.7467 2.09113 54.0547 2.29883L4.63074 17.126C3.06928 17.5943 2 19.0315 2 20.6616V75.0276C2 82.0989 4.86256 89.3375 10.5082 96.5424C14.8203 102.045 20.7856 107.571 28.2388 112.966C40.7593 122.029 53.0881 127.589 53.6068 127.821C54.0867 128.036 54.6008 128.143 55.1152 128.143C55.6292 128.143 56.1436 128.036 56.6235 127.821C57.1422 127.589 69.4708 122.029 81.9913 112.966C89.4442 107.571 95.4096 102.045 99.7216 96.5424C105.367 89.3378 108.23 82.0992 108.23 75.0276V20.6616C108.23 19.0315 107.161 17.5943 105.6 17.126ZM100.847 75.0276C100.847 87.542 88.2908 99.2763 77.7572 106.917C68.3136 113.766 58.7364 118.627 55.1154 120.373C51.4944 118.627 41.9169 113.766 32.4733 106.917C21.9395 99.2763 9.38281 87.542 9.38281 75.0276V23.408L55.1152 9.68829L100.847 23.408V75.0276V75.0276Z" stroke="#FF0000" stroke-width="3.3739" stroke-linecap="round" stroke-linejoin="round" stroke-dasharray="0.56 6.75"/>
<path d="M24.8184 49.4912H30.2792L35.1302 63.5452L40.0089 49.4912H45.2203L37.625 68.9229H32.3582L24.8184 49.4912Z" fill="#FF0000"/>
<path d="M55.5993 49.4912C58.0756 49.4912 59.9975 50.0918 61.365 51.293C62.7325 52.4757 63.4163 54.1482 63.4163 56.3103C63.4163 58.6018 62.7325 60.3852 61.365 61.6603C59.9975 62.9169 58.0756 63.5452 55.5993 63.5452H52.1343V68.9229H47.0615V49.4912H55.5993ZM55.3498 59.4981C56.3847 59.4981 57.1793 59.2394 57.7337 58.722C58.3066 58.2045 58.593 57.4561 58.593 56.4766C58.593 55.5342 58.3066 54.8134 57.7337 54.3145C57.1793 53.797 56.3847 53.5383 55.3498 53.5383H52.1343V59.4981H55.3498Z" fill="#FF0000"/>
<path d="M79.1803 49.4912H83.8927V68.9229H79.4575L70.6426 57.3082V68.9229H65.9024V49.4912H70.3654L79.208 61.189L79.1803 49.4912Z" fill="#FF0000"/>
</svg>
