<svg width="180" height="72" viewBox="0 0 180 72" fill="none" xmlns="http://www.w3.org/2000/svg">
<path fill-rule="evenodd" clip-rule="evenodd" d="M3.68814 69.6543C3.68814 68.9151 3.08738 68.3102 2.34407 68.3102C1.6028 68.3102 1 68.9151 1 69.6543C1 70.3956 1.6028 71.0004 2.34407 71.0004C3.08738 71.0004 3.68814 70.3956 3.68814 69.6543Z" fill="#FF0000"/>
<path d="M3.68814 69.6543C3.68814 68.9151 3.08738 68.3102 2.34407 68.3102C1.6028 68.3102 1 68.9151 1 69.6543C1 70.3956 1.6028 71.0004 2.34407 71.0004C3.08738 71.0004 3.68814 70.3956 3.68814 69.6543" stroke="#FF0000"/>
<path fill-rule="evenodd" clip-rule="evenodd" d="M3.68814 56.1935C3.68814 55.4502 3.08738 54.8474 2.34407 54.8474C1.6028 54.8474 1 55.4502 1 56.1935C1 56.9327 1.6028 57.5355 2.34407 57.5355C3.08738 57.5355 3.68814 56.9327 3.68814 56.1935Z" fill="#FF0000"/>
<path d="M3.68814 56.1935C3.68814 55.4502 3.08738 54.8474 2.34407 54.8474C1.6028 54.8474 1 55.4502 1 56.1935C1 56.9327 1.6028 57.5355 2.34407 57.5355C3.08738 57.5355 3.68814 56.9327 3.68814 56.1935" stroke="#FF0000"/>
<path fill-rule="evenodd" clip-rule="evenodd" d="M3.68814 42.7299C3.68814 41.9886 3.08738 41.3858 2.34407 41.3858C1.6028 41.3858 1 41.9886 1 42.7299C1 43.4712 1.6028 44.074 2.34407 44.074C3.08738 44.074 3.68814 43.4712 3.68814 42.7299Z" fill="#FF0000"/>
<path d="M3.68814 42.7299C3.68814 41.9886 3.08738 41.3858 2.34407 41.3858C1.6028 41.3858 1 41.9886 1 42.7299C1 43.4712 1.6028 44.074 2.34407 44.074C3.08738 44.074 3.68814 43.4712 3.68814 42.7299" stroke="#FF0000"/>
<path fill-rule="evenodd" clip-rule="evenodd" d="M3.68814 29.2706C3.68814 28.5293 3.08738 27.9265 2.34407 27.9265C1.6028 27.9265 1 28.5293 1 29.2706C1 30.0098 1.6028 30.6146 2.34407 30.6146C3.08738 30.6146 3.68814 30.0098 3.68814 29.2706Z" fill="#FF0000"/>
<path d="M3.68814 29.2706C3.68814 28.5293 3.08738 27.9265 2.34407 27.9265C1.6028 27.9265 1 28.5293 1 29.2706C1 30.0098 1.6028 30.6146 2.34407 30.6146C3.08738 30.6146 3.68814 30.0098 3.68814 29.2706" stroke="#FF0000"/>
<path fill-rule="evenodd" clip-rule="evenodd" d="M3.68814 15.8058C3.68814 15.0666 3.08738 14.4638 2.34407 14.4638C1.6028 14.4638 1 15.0666 1 15.8058C1 16.5471 1.6028 17.1519 2.34407 17.1519C3.08738 17.1519 3.68814 16.5471 3.68814 15.8058Z" fill="#FF0000"/>
<path d="M3.68814 15.8058C3.68814 15.0666 3.08738 14.4638 2.34407 14.4638C1.6028 14.4638 1 15.0666 1 15.8058C1 16.5471 1.6028 17.1519 2.34407 17.1519C3.08738 17.1519 3.68814 16.5471 3.68814 15.8058" stroke="#FF0000"/>
<path fill-rule="evenodd" clip-rule="evenodd" d="M3.68814 2.34404C3.68814 1.60276 3.08738 0.999966 2.34407 0.999966C1.6028 0.999966 1 1.60276 1 2.34404C1 3.08531 1.6028 3.68811 2.34407 3.68811C3.08738 3.68811 3.68814 3.08531 3.68814 2.34404Z" fill="#FF0000"/>
<path d="M3.68814 2.34404C3.68814 1.60276 3.08738 0.999966 2.34407 0.999966C1.6028 0.999966 1 1.60276 1 2.34404C1 3.08531 1.6028 3.68811 2.34407 3.68811C3.08738 3.68811 3.68814 3.08531 3.68814 2.34404" stroke="#FF0000"/>
<path fill-rule="evenodd" clip-rule="evenodd" d="M17.151 69.6543C17.151 68.9151 16.5503 68.3102 15.807 68.3102C15.0637 68.3102 14.4629 68.9151 14.4629 69.6543C14.4629 70.3956 15.0637 71.0004 15.807 71.0004C16.5503 71.0004 17.151 70.3956 17.151 69.6543Z" fill="#FF0000"/>
<path d="M17.151 69.6543C17.151 68.9151 16.5503 68.3102 15.807 68.3102C15.0636 68.3102 14.4629 68.9151 14.4629 69.6543C14.4629 70.3956 15.0637 71.0004 15.807 71.0004C16.5503 71.0004 17.151 70.3956 17.151 69.6543" stroke="#FF0000"/>
<path fill-rule="evenodd" clip-rule="evenodd" d="M17.151 56.1935C17.151 55.4502 16.5503 54.8474 15.807 54.8474C15.0637 54.8474 14.4629 55.4502 14.4629 56.1935C14.4629 56.9327 15.0637 57.5355 15.807 57.5355C16.5503 57.5355 17.151 56.9327 17.151 56.1935Z" fill="#FF0000"/>
<path d="M17.151 56.1935C17.151 55.4502 16.5503 54.8474 15.807 54.8474C15.0636 54.8474 14.4629 55.4502 14.4629 56.1935C14.4629 56.9327 15.0637 57.5355 15.807 57.5355C16.5503 57.5355 17.151 56.9327 17.151 56.1935" stroke="#FF0000"/>
<path fill-rule="evenodd" clip-rule="evenodd" d="M17.151 42.7299C17.151 41.9886 16.5503 41.3858 15.807 41.3858C15.0637 41.3858 14.4629 41.9886 14.4629 42.7299C14.4629 43.4712 15.0637 44.074 15.807 44.074C16.5503 44.074 17.151 43.4712 17.151 42.7299Z" fill="#FF0000"/>
<path d="M17.151 42.7299C17.151 41.9886 16.5503 41.3858 15.807 41.3858C15.0636 41.3858 14.4629 41.9886 14.4629 42.7299C14.4629 43.4712 15.0637 44.074 15.807 44.074C16.5503 44.074 17.151 43.4712 17.151 42.7299" stroke="#FF0000"/>
<path fill-rule="evenodd" clip-rule="evenodd" d="M17.151 29.2706C17.151 28.5293 16.5503 27.9265 15.807 27.9265C15.0637 27.9265 14.4629 28.5293 14.4629 29.2706C14.4629 30.0098 15.0637 30.6146 15.807 30.6146C16.5503 30.6146 17.151 30.0098 17.151 29.2706Z" fill="#FF0000"/>
<path d="M17.151 29.2706C17.151 28.5293 16.5503 27.9265 15.807 27.9265C15.0636 27.9265 14.4629 28.5293 14.4629 29.2706C14.4629 30.0098 15.0637 30.6146 15.807 30.6146C16.5503 30.6146 17.151 30.0098 17.151 29.2706" stroke="#FF0000"/>
<path fill-rule="evenodd" clip-rule="evenodd" d="M17.151 15.8058C17.151 15.0666 16.5503 14.4638 15.807 14.4638C15.0637 14.4638 14.4629 15.0666 14.4629 15.8058C14.4629 16.5471 15.0637 17.1519 15.807 17.1519C16.5503 17.1519 17.151 16.5471 17.151 15.8058Z" fill="#FF0000"/>
<path d="M17.151 15.8058C17.151 15.0666 16.5503 14.4638 15.807 14.4638C15.0636 14.4638 14.4629 15.0666 14.4629 15.8058C14.4629 16.5471 15.0637 17.1519 15.807 17.1519C16.5503 17.1519 17.151 16.5471 17.151 15.8058" stroke="#FF0000"/>
<path fill-rule="evenodd" clip-rule="evenodd" d="M17.151 2.34404C17.151 1.60276 16.5503 0.999966 15.807 0.999966C15.0637 0.999966 14.4629 1.60276 14.4629 2.34404C14.4629 3.08531 15.0637 3.68811 15.807 3.68811C16.5503 3.68811 17.151 3.08531 17.151 2.34404Z" fill="#FF0000"/>
<path d="M17.151 2.34404C17.151 1.60276 16.5503 0.999966 15.807 0.999966C15.0636 0.999966 14.4629 1.60276 14.4629 2.34404C14.4629 3.08531 15.0637 3.68811 15.807 3.68811C16.5503 3.68811 17.151 3.08531 17.151 2.34404" stroke="#FF0000"/>
<path fill-rule="evenodd" clip-rule="evenodd" d="M30.6139 69.6543C30.6139 68.9151 30.0111 68.3102 29.2699 68.3102C28.5286 68.3102 27.9258 68.9151 27.9258 69.6543C27.9258 70.3956 28.5286 71.0004 29.2699 71.0004C30.0111 71.0004 30.6139 70.3956 30.6139 69.6543Z" fill="#FF0000"/>
<path d="M30.6139 69.6543C30.6139 68.9151 30.0111 68.3102 29.2699 68.3102C28.5286 68.3102 27.9258 68.9151 27.9258 69.6543C27.9258 70.3956 28.5286 71.0004 29.2699 71.0004C30.0111 71.0004 30.6139 70.3956 30.6139 69.6543" stroke="#FF0000"/>
<path fill-rule="evenodd" clip-rule="evenodd" d="M30.6139 56.1935C30.6139 55.4502 30.0111 54.8474 29.2699 54.8474C28.5286 54.8474 27.9258 55.4502 27.9258 56.1935C27.9258 56.9327 28.5286 57.5355 29.2699 57.5355C30.0111 57.5355 30.6139 56.9327 30.6139 56.1935Z" fill="#FF0000"/>
<path d="M30.6139 56.1935C30.6139 55.4502 30.0111 54.8474 29.2699 54.8474C28.5286 54.8474 27.9258 55.4502 27.9258 56.1935C27.9258 56.9327 28.5286 57.5355 29.2699 57.5355C30.0111 57.5355 30.6139 56.9327 30.6139 56.1935" stroke="#FF0000"/>
<path fill-rule="evenodd" clip-rule="evenodd" d="M30.6139 42.7299C30.6139 41.9886 30.0111 41.3858 29.2699 41.3858C28.5286 41.3858 27.9258 41.9886 27.9258 42.7299C27.9258 43.4712 28.5286 44.074 29.2699 44.074C30.0111 44.074 30.6139 43.4712 30.6139 42.7299Z" fill="#FF0000"/>
<path d="M30.6139 42.7299C30.6139 41.9886 30.0111 41.3858 29.2699 41.3858C28.5286 41.3858 27.9258 41.9886 27.9258 42.7299C27.9258 43.4712 28.5286 44.074 29.2699 44.074C30.0111 44.074 30.6139 43.4712 30.6139 42.7299" stroke="#FF0000"/>
<path fill-rule="evenodd" clip-rule="evenodd" d="M30.6139 29.2706C30.6139 28.5293 30.0111 27.9265 29.2699 27.9265C28.5286 27.9265 27.9258 28.5293 27.9258 29.2706C27.9258 30.0098 28.5286 30.6146 29.2699 30.6146C30.0111 30.6146 30.6139 30.0098 30.6139 29.2706Z" fill="#FF0000"/>
<path d="M30.6139 29.2706C30.6139 28.5293 30.0111 27.9265 29.2699 27.9265C28.5286 27.9265 27.9258 28.5293 27.9258 29.2706C27.9258 30.0098 28.5286 30.6146 29.2699 30.6146C30.0111 30.6146 30.6139 30.0098 30.6139 29.2706" stroke="#FF0000"/>
<path fill-rule="evenodd" clip-rule="evenodd" d="M30.6139 15.8058C30.6139 15.0666 30.0111 14.4638 29.2699 14.4638C28.5286 14.4638 27.9258 15.0666 27.9258 15.8058C27.9258 16.5471 28.5286 17.1519 29.2699 17.1519C30.0111 17.1519 30.6139 16.5471 30.6139 15.8058Z" fill="#FF0000"/>
<path d="M30.6139 15.8058C30.6139 15.0666 30.0111 14.4638 29.2699 14.4638C28.5286 14.4638 27.9258 15.0666 27.9258 15.8058C27.9258 16.5471 28.5286 17.1519 29.2699 17.1519C30.0111 17.1519 30.6139 16.5471 30.6139 15.8058" stroke="#FF0000"/>
<path fill-rule="evenodd" clip-rule="evenodd" d="M30.6139 2.34404C30.6139 1.60276 30.0111 0.999966 29.2699 0.999966C28.5286 0.999966 27.9258 1.60276 27.9258 2.34404C27.9258 3.08531 28.5286 3.68811 29.2699 3.68811C30.0111 3.68811 30.6139 3.08531 30.6139 2.34404Z" fill="#FF0000"/>
<path d="M30.6139 2.34404C30.6139 1.60276 30.0111 0.999966 29.2699 0.999966C28.5286 0.999966 27.9258 1.60276 27.9258 2.34404C27.9258 3.08531 28.5286 3.68811 29.2699 3.68811C30.0111 3.68811 30.6139 3.08531 30.6139 2.34404" stroke="#FF0000"/>
<path fill-rule="evenodd" clip-rule="evenodd" d="M44.0749 69.6543C44.0749 68.9151 43.4741 68.3102 42.7308 68.3102C41.9875 68.3102 41.3867 68.9151 41.3867 69.6543C41.3867 70.3956 41.9875 71.0004 42.7308 71.0004C43.4741 71.0004 44.0749 70.3956 44.0749 69.6543Z" fill="#FF0000"/>
<path d="M44.0749 69.6543C44.0749 68.9151 43.4741 68.3102 42.7308 68.3102C41.9875 68.3102 41.3867 68.9151 41.3867 69.6543C41.3867 70.3956 41.9875 71.0004 42.7308 71.0004C43.4741 71.0004 44.0749 70.3956 44.0749 69.6543" stroke="#FF0000"/>
<path fill-rule="evenodd" clip-rule="evenodd" d="M44.0749 56.1935C44.0749 55.4502 43.4741 54.8474 42.7308 54.8474C41.9875 54.8474 41.3867 55.4502 41.3867 56.1935C41.3867 56.9327 41.9875 57.5355 42.7308 57.5355C43.4741 57.5355 44.0749 56.9327 44.0749 56.1935Z" fill="#FF0000"/>
<path d="M44.0749 56.1935C44.0749 55.4502 43.4741 54.8474 42.7308 54.8474C41.9875 54.8474 41.3867 55.4502 41.3867 56.1935C41.3867 56.9327 41.9875 57.5355 42.7308 57.5355C43.4741 57.5355 44.0749 56.9327 44.0749 56.1935" stroke="#FF0000"/>
<path fill-rule="evenodd" clip-rule="evenodd" d="M44.0749 42.7299C44.0749 41.9886 43.4741 41.3858 42.7308 41.3858C41.9875 41.3858 41.3867 41.9886 41.3867 42.7299C41.3867 43.4712 41.9875 44.074 42.7308 44.074C43.4741 44.074 44.0749 43.4712 44.0749 42.7299Z" fill="#FF0000"/>
<path d="M44.0749 42.7299C44.0749 41.9886 43.4741 41.3858 42.7308 41.3858C41.9875 41.3858 41.3867 41.9886 41.3867 42.7299C41.3867 43.4712 41.9875 44.074 42.7308 44.074C43.4741 44.074 44.0749 43.4712 44.0749 42.7299" stroke="#FF0000"/>
<path fill-rule="evenodd" clip-rule="evenodd" d="M44.0749 29.2706C44.0749 28.5293 43.4741 27.9265 42.7308 27.9265C41.9875 27.9265 41.3867 28.5293 41.3867 29.2706C41.3867 30.0098 41.9875 30.6146 42.7308 30.6146C43.4741 30.6146 44.0749 30.0098 44.0749 29.2706Z" fill="#FF0000"/>
<path d="M44.0749 29.2706C44.0749 28.5293 43.4741 27.9265 42.7308 27.9265C41.9875 27.9265 41.3867 28.5293 41.3867 29.2706C41.3867 30.0098 41.9875 30.6146 42.7308 30.6146C43.4741 30.6146 44.0749 30.0098 44.0749 29.2706" stroke="#FF0000"/>
<path fill-rule="evenodd" clip-rule="evenodd" d="M44.0749 15.8058C44.0749 15.0666 43.4741 14.4638 42.7308 14.4638C41.9875 14.4638 41.3867 15.0666 41.3867 15.8058C41.3867 16.5471 41.9875 17.1519 42.7308 17.1519C43.4741 17.1519 44.0749 16.5471 44.0749 15.8058Z" fill="#FF0000"/>
<path d="M44.0749 15.8058C44.0749 15.0666 43.4741 14.4638 42.7308 14.4638C41.9875 14.4638 41.3867 15.0666 41.3867 15.8058C41.3867 16.5471 41.9875 17.1519 42.7308 17.1519C43.4741 17.1519 44.0749 16.5471 44.0749 15.8058" stroke="#FF0000"/>
<path fill-rule="evenodd" clip-rule="evenodd" d="M44.0749 2.34404C44.0749 1.60276 43.4741 0.999966 42.7308 0.999966C41.9875 0.999966 41.3867 1.60276 41.3867 2.34404C41.3867 3.08531 41.9875 3.68811 42.7308 3.68811C43.4741 3.68811 44.0749 3.08531 44.0749 2.34404Z" fill="#FF0000"/>
<path d="M44.0749 2.34404C44.0749 1.60276 43.4741 0.999966 42.7308 0.999966C41.9875 0.999966 41.3867 1.60276 41.3867 2.34404C41.3867 3.08531 41.9875 3.68811 42.7308 3.68811C43.4741 3.68811 44.0749 3.08531 44.0749 2.34404" stroke="#FF0000"/>
<path fill-rule="evenodd" clip-rule="evenodd" d="M57.5397 69.6543C57.5397 68.9151 56.9369 68.3102 56.1956 68.3102C55.4523 68.3102 54.8516 68.9151 54.8516 69.6543C54.8516 70.3956 55.4523 71.0004 56.1956 71.0004C56.9369 71.0004 57.5397 70.3956 57.5397 69.6543Z" fill="#FF0000"/>
<path d="M57.5397 69.6543C57.5397 68.9151 56.9369 68.3102 56.1956 68.3102C55.4523 68.3102 54.8516 68.9151 54.8516 69.6543C54.8516 70.3956 55.4523 71.0004 56.1956 71.0004C56.9369 71.0004 57.5397 70.3956 57.5397 69.6543" stroke="#FF0000"/>
<path fill-rule="evenodd" clip-rule="evenodd" d="M57.5397 56.1935C57.5397 55.4502 56.9369 54.8474 56.1956 54.8474C55.4523 54.8474 54.8516 55.4502 54.8516 56.1935C54.8516 56.9327 55.4523 57.5355 56.1956 57.5355C56.9369 57.5355 57.5397 56.9327 57.5397 56.1935Z" fill="#FF0000"/>
<path d="M57.5397 56.1935C57.5397 55.4502 56.9369 54.8474 56.1956 54.8474C55.4523 54.8474 54.8516 55.4502 54.8516 56.1935C54.8516 56.9327 55.4523 57.5355 56.1956 57.5355C56.9369 57.5355 57.5397 56.9327 57.5397 56.1935" stroke="#FF0000"/>
<path fill-rule="evenodd" clip-rule="evenodd" d="M57.5397 42.7299C57.5397 41.9886 56.9369 41.3858 56.1956 41.3858C55.4523 41.3858 54.8516 41.9886 54.8516 42.7299C54.8516 43.4712 55.4523 44.074 56.1956 44.074C56.9369 44.074 57.5397 43.4712 57.5397 42.7299Z" fill="#FF0000"/>
<path d="M57.5397 42.7299C57.5397 41.9886 56.9369 41.3858 56.1956 41.3858C55.4523 41.3858 54.8516 41.9886 54.8516 42.7299C54.8516 43.4712 55.4523 44.074 56.1956 44.074C56.9369 44.074 57.5397 43.4712 57.5397 42.7299" stroke="#FF0000"/>
<path fill-rule="evenodd" clip-rule="evenodd" d="M57.5397 29.2706C57.5397 28.5293 56.9369 27.9265 56.1956 27.9265C55.4523 27.9265 54.8516 28.5293 54.8516 29.2706C54.8516 30.0098 55.4523 30.6146 56.1956 30.6146C56.9369 30.6146 57.5397 30.0098 57.5397 29.2706Z" fill="#FF0000"/>
<path d="M57.5397 29.2706C57.5397 28.5293 56.9369 27.9265 56.1956 27.9265C55.4523 27.9265 54.8516 28.5293 54.8516 29.2706C54.8516 30.0098 55.4523 30.6146 56.1956 30.6146C56.9369 30.6146 57.5397 30.0098 57.5397 29.2706" stroke="#FF0000"/>
<path fill-rule="evenodd" clip-rule="evenodd" d="M57.5397 15.8058C57.5397 15.0666 56.9369 14.4638 56.1956 14.4638C55.4523 14.4638 54.8516 15.0666 54.8516 15.8058C54.8516 16.5471 55.4523 17.1519 56.1956 17.1519C56.9369 17.1519 57.5397 16.5471 57.5397 15.8058Z" fill="#FF0000"/>
<path d="M57.5397 15.8058C57.5397 15.0666 56.9369 14.4638 56.1956 14.4638C55.4523 14.4638 54.8516 15.0666 54.8516 15.8058C54.8516 16.5471 55.4523 17.1519 56.1956 17.1519C56.9369 17.1519 57.5397 16.5471 57.5397 15.8058" stroke="#FF0000"/>
<path fill-rule="evenodd" clip-rule="evenodd" d="M57.5397 2.34404C57.5397 1.60276 56.9369 0.999966 56.1956 0.999966C55.4523 0.999966 54.8516 1.60276 54.8516 2.34404C54.8516 3.08531 55.4523 3.68811 56.1956 3.68811C56.9369 3.68811 57.5397 3.08531 57.5397 2.34404Z" fill="#FF0000"/>
<path d="M57.5397 2.34404C57.5397 1.60276 56.9369 0.999966 56.1956 0.999966C55.4523 0.999966 54.8516 1.60276 54.8516 2.34404C54.8516 3.08531 55.4523 3.68811 56.1956 3.68811C56.9369 3.68811 57.5397 3.08531 57.5397 2.34404" stroke="#FF0000"/>
<path fill-rule="evenodd" clip-rule="evenodd" d="M70.9987 69.6543C70.9987 68.9151 70.3979 68.3102 69.6546 68.3102C68.9154 68.3102 68.3105 68.9151 68.3105 69.6543C68.3105 70.3956 68.9154 71.0004 69.6546 71.0004C70.3979 71.0004 70.9987 70.3956 70.9987 69.6543Z" fill="#FF0000"/>
<path d="M70.9987 69.6543C70.9987 68.9151 70.3979 68.3102 69.6546 68.3102C68.9154 68.3102 68.3105 68.9151 68.3105 69.6543C68.3105 70.3956 68.9154 71.0004 69.6546 71.0004C70.3979 71.0004 70.9987 70.3956 70.9987 69.6543" stroke="#FF0000"/>
<path fill-rule="evenodd" clip-rule="evenodd" d="M70.9987 56.1935C70.9987 55.4502 70.3979 54.8474 69.6546 54.8474C68.9154 54.8474 68.3105 55.4502 68.3105 56.1935C68.3105 56.9327 68.9154 57.5355 69.6546 57.5355C70.3979 57.5355 70.9987 56.9327 70.9987 56.1935Z" fill="#FF0000"/>
<path d="M70.9987 56.1935C70.9987 55.4502 70.3979 54.8474 69.6546 54.8474C68.9154 54.8474 68.3105 55.4502 68.3105 56.1935C68.3105 56.9327 68.9154 57.5355 69.6546 57.5355C70.3979 57.5355 70.9987 56.9327 70.9987 56.1935" stroke="#FF0000"/>
<path fill-rule="evenodd" clip-rule="evenodd" d="M70.9987 42.7299C70.9987 41.9886 70.3979 41.3858 69.6546 41.3858C68.9154 41.3858 68.3105 41.9886 68.3105 42.7299C68.3105 43.4712 68.9154 44.074 69.6546 44.074C70.3979 44.074 70.9987 43.4712 70.9987 42.7299Z" fill="#FF0000"/>
<path d="M70.9987 42.7299C70.9987 41.9886 70.3979 41.3858 69.6546 41.3858C68.9154 41.3858 68.3105 41.9886 68.3105 42.7299C68.3105 43.4712 68.9154 44.074 69.6546 44.074C70.3979 44.074 70.9987 43.4712 70.9987 42.7299" stroke="#FF0000"/>
<path fill-rule="evenodd" clip-rule="evenodd" d="M70.9987 29.2706C70.9987 28.5293 70.3979 27.9265 69.6546 27.9265C68.9154 27.9265 68.3105 28.5293 68.3105 29.2706C68.3105 30.0098 68.9154 30.6146 69.6546 30.6146C70.3979 30.6146 70.9987 30.0098 70.9987 29.2706Z" fill="#FF0000"/>
<path d="M70.9987 29.2706C70.9987 28.5293 70.3979 27.9265 69.6546 27.9265C68.9154 27.9265 68.3105 28.5293 68.3105 29.2706C68.3105 30.0098 68.9154 30.6146 69.6546 30.6146C70.3979 30.6146 70.9987 30.0098 70.9987 29.2706" stroke="#FF0000"/>
<path fill-rule="evenodd" clip-rule="evenodd" d="M70.9987 15.8058C70.9987 15.0666 70.3979 14.4638 69.6546 14.4638C68.9154 14.4638 68.3105 15.0666 68.3105 15.8058C68.3105 16.5471 68.9154 17.1519 69.6546 17.1519C70.3979 17.1519 70.9987 16.5471 70.9987 15.8058Z" fill="#FF0000"/>
<path d="M70.9987 15.8058C70.9987 15.0666 70.3979 14.4638 69.6546 14.4638C68.9154 14.4638 68.3105 15.0666 68.3105 15.8058C68.3105 16.5471 68.9154 17.1519 69.6546 17.1519C70.3979 17.1519 70.9987 16.5471 70.9987 15.8058" stroke="#FF0000"/>
<path fill-rule="evenodd" clip-rule="evenodd" d="M70.9987 2.34404C70.9987 1.60276 70.3979 0.999966 69.6546 0.999966C68.9154 0.999966 68.3105 1.60276 68.3105 2.34404C68.3105 3.08531 68.9154 3.68811 69.6546 3.68811C70.3979 3.68811 70.9987 3.08531 70.9987 2.34404Z" fill="#FF0000"/>
<path d="M70.9987 2.34404C70.9987 1.60276 70.3979 0.999966 69.6546 0.999966C68.9154 0.999966 68.3105 1.60276 68.3105 2.34404C68.3105 3.08531 68.9154 3.68811 69.6546 3.68811C70.3979 3.68811 70.9987 3.08531 70.9987 2.34404" stroke="#FF0000"/>
<path fill-rule="evenodd" clip-rule="evenodd" d="M84.4635 69.6543C84.4635 68.9151 83.8628 68.3102 83.1195 68.3102C82.3762 68.3102 81.7754 68.9151 81.7754 69.6543C81.7754 70.3956 82.3762 71.0004 83.1195 71.0004C83.8628 71.0004 84.4635 70.3956 84.4635 69.6543Z" fill="#FF0000"/>
<path d="M84.4635 69.6543C84.4635 68.9151 83.8628 68.3102 83.1195 68.3102C82.3761 68.3102 81.7754 68.9151 81.7754 69.6543C81.7754 70.3956 82.3762 71.0004 83.1195 71.0004C83.8628 71.0004 84.4635 70.3956 84.4635 69.6543" stroke="#FF0000"/>
<path fill-rule="evenodd" clip-rule="evenodd" d="M84.4635 56.1935C84.4635 55.4502 83.8628 54.8474 83.1195 54.8474C82.3762 54.8474 81.7754 55.4502 81.7754 56.1935C81.7754 56.9327 82.3762 57.5355 83.1195 57.5355C83.8628 57.5355 84.4635 56.9327 84.4635 56.1935Z" fill="#FF0000"/>
<path d="M84.4635 56.1935C84.4635 55.4502 83.8628 54.8474 83.1195 54.8474C82.3761 54.8474 81.7754 55.4502 81.7754 56.1935C81.7754 56.9327 82.3762 57.5355 83.1195 57.5355C83.8628 57.5355 84.4635 56.9327 84.4635 56.1935" stroke="#FF0000"/>
<path fill-rule="evenodd" clip-rule="evenodd" d="M84.4635 42.7299C84.4635 41.9886 83.8628 41.3858 83.1195 41.3858C82.3762 41.3858 81.7754 41.9886 81.7754 42.7299C81.7754 43.4712 82.3762 44.074 83.1195 44.074C83.8628 44.074 84.4635 43.4712 84.4635 42.7299Z" fill="#FF0000"/>
<path d="M84.4635 42.7299C84.4635 41.9886 83.8628 41.3858 83.1195 41.3858C82.3761 41.3858 81.7754 41.9886 81.7754 42.7299C81.7754 43.4712 82.3762 44.074 83.1195 44.074C83.8628 44.074 84.4635 43.4712 84.4635 42.7299" stroke="#FF0000"/>
<path fill-rule="evenodd" clip-rule="evenodd" d="M84.4635 29.2705C84.4635 28.5292 83.8628 27.9264 83.1195 27.9264C82.3762 27.9264 81.7754 28.5292 81.7754 29.2705C81.7754 30.0097 82.3762 30.6146 83.1195 30.6146C83.8628 30.6146 84.4635 30.0097 84.4635 29.2705Z" fill="#FF0000"/>
<path d="M84.4635 29.2705C84.4635 28.5292 83.8628 27.9264 83.1195 27.9264C82.3761 27.9264 81.7754 28.5292 81.7754 29.2705C81.7754 30.0097 82.3762 30.6146 83.1195 30.6146C83.8628 30.6146 84.4635 30.0097 84.4635 29.2705" stroke="#FF0000"/>
<path fill-rule="evenodd" clip-rule="evenodd" d="M84.4635 15.8058C84.4635 15.0666 83.8628 14.4638 83.1195 14.4638C82.3762 14.4638 81.7754 15.0666 81.7754 15.8058C81.7754 16.5471 82.3762 17.1519 83.1195 17.1519C83.8628 17.1519 84.4635 16.5471 84.4635 15.8058Z" fill="#FF0000"/>
<path d="M84.4635 15.8058C84.4635 15.0666 83.8628 14.4638 83.1195 14.4638C82.3761 14.4638 81.7754 15.0666 81.7754 15.8058C81.7754 16.5471 82.3762 17.1519 83.1195 17.1519C83.8628 17.1519 84.4635 16.5471 84.4635 15.8058" stroke="#FF0000"/>
<path fill-rule="evenodd" clip-rule="evenodd" d="M84.4635 2.34404C84.4635 1.60276 83.8628 0.999966 83.1195 0.999966C82.3762 0.999966 81.7754 1.60276 81.7754 2.34404C81.7754 3.08531 82.3762 3.68811 83.1195 3.68811C83.8628 3.68811 84.4635 3.08531 84.4635 2.34404Z" fill="#FF0000"/>
<path d="M84.4635 2.34404C84.4635 1.60276 83.8628 0.999966 83.1195 0.999966C82.3761 0.999966 81.7754 1.60276 81.7754 2.34404C81.7754 3.08531 82.3762 3.68811 83.1195 3.68811C83.8628 3.68811 84.4635 3.08531 84.4635 2.34404" stroke="#FF0000"/>
<path fill-rule="evenodd" clip-rule="evenodd" d="M98.6881 69.6543C98.6881 68.9151 98.0874 68.3102 97.3441 68.3102C96.6028 68.3102 96 68.9151 96 69.6543C96 70.3956 96.6028 71.0004 97.3441 71.0004C98.0874 71.0004 98.6881 70.3956 98.6881 69.6543Z" fill="#FF0000"/>
<path d="M98.6881 69.6543C98.6881 68.9151 98.0874 68.3102 97.3441 68.3102C96.6028 68.3102 96 68.9151 96 69.6543C96 70.3956 96.6028 71.0004 97.3441 71.0004C98.0874 71.0004 98.6881 70.3956 98.6881 69.6543" stroke="#FF0000"/>
<path fill-rule="evenodd" clip-rule="evenodd" d="M98.6881 56.1935C98.6881 55.4502 98.0874 54.8474 97.3441 54.8474C96.6028 54.8474 96 55.4502 96 56.1935C96 56.9327 96.6028 57.5355 97.3441 57.5355C98.0874 57.5355 98.6881 56.9327 98.6881 56.1935Z" fill="#FF0000"/>
<path d="M98.6881 56.1935C98.6881 55.4502 98.0874 54.8474 97.3441 54.8474C96.6028 54.8474 96 55.4502 96 56.1935C96 56.9327 96.6028 57.5355 97.3441 57.5355C98.0874 57.5355 98.6881 56.9327 98.6881 56.1935" stroke="#FF0000"/>
<path fill-rule="evenodd" clip-rule="evenodd" d="M98.6881 42.7299C98.6881 41.9886 98.0874 41.3858 97.3441 41.3858C96.6028 41.3858 96 41.9886 96 42.7299C96 43.4712 96.6028 44.074 97.3441 44.074C98.0874 44.074 98.6881 43.4712 98.6881 42.7299Z" fill="#FF0000"/>
<path d="M98.6881 42.7299C98.6881 41.9886 98.0874 41.3858 97.3441 41.3858C96.6028 41.3858 96 41.9886 96 42.7299C96 43.4712 96.6028 44.074 97.3441 44.074C98.0874 44.074 98.6881 43.4712 98.6881 42.7299" stroke="#FF0000"/>
<path fill-rule="evenodd" clip-rule="evenodd" d="M98.6881 29.2706C98.6881 28.5293 98.0874 27.9265 97.3441 27.9265C96.6028 27.9265 96 28.5293 96 29.2706C96 30.0098 96.6028 30.6146 97.3441 30.6146C98.0874 30.6146 98.6881 30.0098 98.6881 29.2706Z" fill="#FF0000"/>
<path d="M98.6881 29.2706C98.6881 28.5293 98.0874 27.9265 97.3441 27.9265C96.6028 27.9265 96 28.5293 96 29.2706C96 30.0098 96.6028 30.6146 97.3441 30.6146C98.0874 30.6146 98.6881 30.0098 98.6881 29.2706" stroke="#FF0000"/>
<path fill-rule="evenodd" clip-rule="evenodd" d="M98.6881 15.8058C98.6881 15.0666 98.0874 14.4638 97.3441 14.4638C96.6028 14.4638 96 15.0666 96 15.8058C96 16.5471 96.6028 17.1519 97.3441 17.1519C98.0874 17.1519 98.6881 16.5471 98.6881 15.8058Z" fill="#FF0000"/>
<path d="M98.6881 15.8058C98.6881 15.0666 98.0874 14.4638 97.3441 14.4638C96.6028 14.4638 96 15.0666 96 15.8058C96 16.5471 96.6028 17.1519 97.3441 17.1519C98.0874 17.1519 98.6881 16.5471 98.6881 15.8058" stroke="#FF0000"/>
<path fill-rule="evenodd" clip-rule="evenodd" d="M98.6881 2.34404C98.6881 1.60276 98.0874 0.999966 97.3441 0.999966C96.6028 0.999966 96 1.60276 96 2.34404C96 3.08531 96.6028 3.68811 97.3441 3.68811C98.0874 3.68811 98.6881 3.08531 98.6881 2.34404Z" fill="#FF0000"/>
<path d="M98.6881 2.34404C98.6881 1.60276 98.0874 0.999966 97.3441 0.999966C96.6028 0.999966 96 1.60276 96 2.34404C96 3.08531 96.6028 3.68811 97.3441 3.68811C98.0874 3.68811 98.6881 3.08531 98.6881 2.34404" stroke="#FF0000"/>
<path fill-rule="evenodd" clip-rule="evenodd" d="M112.151 69.6543C112.151 68.9151 111.55 68.3102 110.807 68.3102C110.064 68.3102 109.463 68.9151 109.463 69.6543C109.463 70.3956 110.064 71.0004 110.807 71.0004C111.55 71.0004 112.151 70.3956 112.151 69.6543Z" fill="#FF0000"/>
<path d="M112.151 69.6543C112.151 68.9151 111.55 68.3102 110.807 68.3102C110.064 68.3102 109.463 68.9151 109.463 69.6543C109.463 70.3956 110.064 71.0004 110.807 71.0004C111.55 71.0004 112.151 70.3956 112.151 69.6543" stroke="#FF0000"/>
<path fill-rule="evenodd" clip-rule="evenodd" d="M112.151 56.1935C112.151 55.4502 111.55 54.8474 110.807 54.8474C110.064 54.8474 109.463 55.4502 109.463 56.1935C109.463 56.9327 110.064 57.5355 110.807 57.5355C111.55 57.5355 112.151 56.9327 112.151 56.1935Z" fill="#FF0000"/>
<path d="M112.151 56.1935C112.151 55.4502 111.55 54.8474 110.807 54.8474C110.064 54.8474 109.463 55.4502 109.463 56.1935C109.463 56.9327 110.064 57.5355 110.807 57.5355C111.55 57.5355 112.151 56.9327 112.151 56.1935" stroke="#FF0000"/>
<path fill-rule="evenodd" clip-rule="evenodd" d="M112.151 42.7299C112.151 41.9886 111.55 41.3858 110.807 41.3858C110.064 41.3858 109.463 41.9886 109.463 42.7299C109.463 43.4712 110.064 44.074 110.807 44.074C111.55 44.074 112.151 43.4712 112.151 42.7299Z" fill="#FF0000"/>
<path d="M112.151 42.7299C112.151 41.9886 111.55 41.3858 110.807 41.3858C110.064 41.3858 109.463 41.9886 109.463 42.7299C109.463 43.4712 110.064 44.074 110.807 44.074C111.55 44.074 112.151 43.4712 112.151 42.7299" stroke="#FF0000"/>
<path fill-rule="evenodd" clip-rule="evenodd" d="M112.151 29.2706C112.151 28.5293 111.55 27.9265 110.807 27.9265C110.064 27.9265 109.463 28.5293 109.463 29.2706C109.463 30.0098 110.064 30.6146 110.807 30.6146C111.55 30.6146 112.151 30.0098 112.151 29.2706Z" fill="#FF0000"/>
<path d="M112.151 29.2706C112.151 28.5293 111.55 27.9265 110.807 27.9265C110.064 27.9265 109.463 28.5293 109.463 29.2706C109.463 30.0098 110.064 30.6146 110.807 30.6146C111.55 30.6146 112.151 30.0098 112.151 29.2706" stroke="#FF0000"/>
<path fill-rule="evenodd" clip-rule="evenodd" d="M112.151 15.8058C112.151 15.0666 111.55 14.4638 110.807 14.4638C110.064 14.4638 109.463 15.0666 109.463 15.8058C109.463 16.5471 110.064 17.1519 110.807 17.1519C111.55 17.1519 112.151 16.5471 112.151 15.8058Z" fill="#FF0000"/>
<path d="M112.151 15.8058C112.151 15.0666 111.55 14.4638 110.807 14.4638C110.064 14.4638 109.463 15.0666 109.463 15.8058C109.463 16.5471 110.064 17.1519 110.807 17.1519C111.55 17.1519 112.151 16.5471 112.151 15.8058" stroke="#FF0000"/>
<path fill-rule="evenodd" clip-rule="evenodd" d="M112.151 2.34404C112.151 1.60276 111.55 0.999966 110.807 0.999966C110.064 0.999966 109.463 1.60276 109.463 2.34404C109.463 3.08531 110.064 3.68811 110.807 3.68811C111.55 3.68811 112.151 3.08531 112.151 2.34404Z" fill="#FF0000"/>
<path d="M112.151 2.34404C112.151 1.60276 111.55 0.999966 110.807 0.999966C110.064 0.999966 109.463 1.60276 109.463 2.34404C109.463 3.08531 110.064 3.68811 110.807 3.68811C111.55 3.68811 112.151 3.08531 112.151 2.34404" stroke="#FF0000"/>
<path fill-rule="evenodd" clip-rule="evenodd" d="M125.614 69.6543C125.614 68.9151 125.011 68.3102 124.27 68.3102C123.529 68.3102 122.926 68.9151 122.926 69.6543C122.926 70.3956 123.529 71.0004 124.27 71.0004C125.011 71.0004 125.614 70.3956 125.614 69.6543Z" fill="#FF0000"/>
<path d="M125.614 69.6543C125.614 68.9151 125.011 68.3102 124.27 68.3102C123.529 68.3102 122.926 68.9151 122.926 69.6543C122.926 70.3956 123.529 71.0004 124.27 71.0004C125.011 71.0004 125.614 70.3956 125.614 69.6543" stroke="#FF0000"/>
<path fill-rule="evenodd" clip-rule="evenodd" d="M125.614 56.1935C125.614 55.4502 125.011 54.8474 124.27 54.8474C123.529 54.8474 122.926 55.4502 122.926 56.1935C122.926 56.9327 123.529 57.5355 124.27 57.5355C125.011 57.5355 125.614 56.9327 125.614 56.1935Z" fill="#FF0000"/>
<path d="M125.614 56.1935C125.614 55.4502 125.011 54.8474 124.27 54.8474C123.529 54.8474 122.926 55.4502 122.926 56.1935C122.926 56.9327 123.529 57.5355 124.27 57.5355C125.011 57.5355 125.614 56.9327 125.614 56.1935" stroke="#FF0000"/>
<path fill-rule="evenodd" clip-rule="evenodd" d="M125.614 42.7299C125.614 41.9886 125.011 41.3858 124.27 41.3858C123.529 41.3858 122.926 41.9886 122.926 42.7299C122.926 43.4712 123.529 44.074 124.27 44.074C125.011 44.074 125.614 43.4712 125.614 42.7299Z" fill="#FF0000"/>
<path d="M125.614 42.7299C125.614 41.9886 125.011 41.3858 124.27 41.3858C123.529 41.3858 122.926 41.9886 122.926 42.7299C122.926 43.4712 123.529 44.074 124.27 44.074C125.011 44.074 125.614 43.4712 125.614 42.7299" stroke="#FF0000"/>
<path fill-rule="evenodd" clip-rule="evenodd" d="M125.614 29.2706C125.614 28.5293 125.011 27.9265 124.27 27.9265C123.529 27.9265 122.926 28.5293 122.926 29.2706C122.926 30.0098 123.529 30.6146 124.27 30.6146C125.011 30.6146 125.614 30.0098 125.614 29.2706Z" fill="#FF0000"/>
<path d="M125.614 29.2706C125.614 28.5293 125.011 27.9265 124.27 27.9265C123.529 27.9265 122.926 28.5293 122.926 29.2706C122.926 30.0098 123.529 30.6146 124.27 30.6146C125.011 30.6146 125.614 30.0098 125.614 29.2706" stroke="#FF0000"/>
<path fill-rule="evenodd" clip-rule="evenodd" d="M125.614 15.8058C125.614 15.0666 125.011 14.4638 124.27 14.4638C123.529 14.4638 122.926 15.0666 122.926 15.8058C122.926 16.5471 123.529 17.1519 124.27 17.1519C125.011 17.1519 125.614 16.5471 125.614 15.8058Z" fill="#FF0000"/>
<path d="M125.614 15.8058C125.614 15.0666 125.011 14.4638 124.27 14.4638C123.529 14.4638 122.926 15.0666 122.926 15.8058C122.926 16.5471 123.529 17.1519 124.27 17.1519C125.011 17.1519 125.614 16.5471 125.614 15.8058" stroke="#FF0000"/>
<path fill-rule="evenodd" clip-rule="evenodd" d="M125.614 2.34404C125.614 1.60276 125.011 0.999966 124.27 0.999966C123.529 0.999966 122.926 1.60276 122.926 2.34404C122.926 3.08531 123.529 3.68811 124.27 3.68811C125.011 3.68811 125.614 3.08531 125.614 2.34404Z" fill="#FF0000"/>
<path d="M125.614 2.34404C125.614 1.60276 125.011 0.999966 124.27 0.999966C123.529 0.999966 122.926 1.60276 122.926 2.34404C122.926 3.08531 123.529 3.68811 124.27 3.68811C125.011 3.68811 125.614 3.08531 125.614 2.34404" stroke="#FF0000"/>
<path fill-rule="evenodd" clip-rule="evenodd" d="M139.075 69.6543C139.075 68.9151 138.474 68.3102 137.731 68.3102C136.987 68.3102 136.387 68.9151 136.387 69.6543C136.387 70.3956 136.987 71.0004 137.731 71.0004C138.474 71.0004 139.075 70.3956 139.075 69.6543Z" fill="#FF0000"/>
<path d="M139.075 69.6543C139.075 68.9151 138.474 68.3102 137.731 68.3102C136.987 68.3102 136.387 68.9151 136.387 69.6543C136.387 70.3956 136.987 71.0004 137.731 71.0004C138.474 71.0004 139.075 70.3956 139.075 69.6543" stroke="#FF0000"/>
<path fill-rule="evenodd" clip-rule="evenodd" d="M139.075 56.1935C139.075 55.4502 138.474 54.8474 137.731 54.8474C136.987 54.8474 136.387 55.4502 136.387 56.1935C136.387 56.9327 136.987 57.5355 137.731 57.5355C138.474 57.5355 139.075 56.9327 139.075 56.1935Z" fill="#FF0000"/>
<path d="M139.075 56.1935C139.075 55.4502 138.474 54.8474 137.731 54.8474C136.987 54.8474 136.387 55.4502 136.387 56.1935C136.387 56.9327 136.987 57.5355 137.731 57.5355C138.474 57.5355 139.075 56.9327 139.075 56.1935" stroke="#FF0000"/>
<path fill-rule="evenodd" clip-rule="evenodd" d="M139.075 42.7299C139.075 41.9886 138.474 41.3858 137.731 41.3858C136.987 41.3858 136.387 41.9886 136.387 42.7299C136.387 43.4712 136.987 44.074 137.731 44.074C138.474 44.074 139.075 43.4712 139.075 42.7299Z" fill="#FF0000"/>
<path d="M139.075 42.7299C139.075 41.9886 138.474 41.3858 137.731 41.3858C136.987 41.3858 136.387 41.9886 136.387 42.7299C136.387 43.4712 136.987 44.074 137.731 44.074C138.474 44.074 139.075 43.4712 139.075 42.7299" stroke="#FF0000"/>
<path fill-rule="evenodd" clip-rule="evenodd" d="M139.075 29.2706C139.075 28.5293 138.474 27.9265 137.731 27.9265C136.987 27.9265 136.387 28.5293 136.387 29.2706C136.387 30.0098 136.987 30.6146 137.731 30.6146C138.474 30.6146 139.075 30.0098 139.075 29.2706Z" fill="#FF0000"/>
<path d="M139.075 29.2706C139.075 28.5293 138.474 27.9265 137.731 27.9265C136.987 27.9265 136.387 28.5293 136.387 29.2706C136.387 30.0098 136.987 30.6146 137.731 30.6146C138.474 30.6146 139.075 30.0098 139.075 29.2706" stroke="#FF0000"/>
<path fill-rule="evenodd" clip-rule="evenodd" d="M139.075 15.8058C139.075 15.0666 138.474 14.4638 137.731 14.4638C136.987 14.4638 136.387 15.0666 136.387 15.8058C136.387 16.5471 136.987 17.1519 137.731 17.1519C138.474 17.1519 139.075 16.5471 139.075 15.8058Z" fill="#FF0000"/>
<path d="M139.075 15.8058C139.075 15.0666 138.474 14.4638 137.731 14.4638C136.987 14.4638 136.387 15.0666 136.387 15.8058C136.387 16.5471 136.987 17.1519 137.731 17.1519C138.474 17.1519 139.075 16.5471 139.075 15.8058" stroke="#FF0000"/>
<path fill-rule="evenodd" clip-rule="evenodd" d="M139.075 2.34404C139.075 1.60276 138.474 0.999966 137.731 0.999966C136.987 0.999966 136.387 1.60276 136.387 2.34404C136.387 3.08531 136.987 3.68811 137.731 3.68811C138.474 3.68811 139.075 3.08531 139.075 2.34404Z" fill="#FF0000"/>
<path d="M139.075 2.34404C139.075 1.60276 138.474 0.999966 137.731 0.999966C136.987 0.999966 136.387 1.60276 136.387 2.34404C136.387 3.08531 136.987 3.68811 137.731 3.68811C138.474 3.68811 139.075 3.08531 139.075 2.34404" stroke="#FF0000"/>
<path fill-rule="evenodd" clip-rule="evenodd" d="M152.54 69.6543C152.54 68.9151 151.937 68.3102 151.196 68.3102C150.452 68.3102 149.852 68.9151 149.852 69.6543C149.852 70.3956 150.452 71.0004 151.196 71.0004C151.937 71.0004 152.54 70.3956 152.54 69.6543Z" fill="#FF0000"/>
<path d="M152.54 69.6543C152.54 68.9151 151.937 68.3102 151.196 68.3102C150.452 68.3102 149.852 68.9151 149.852 69.6543C149.852 70.3956 150.452 71.0004 151.196 71.0004C151.937 71.0004 152.54 70.3956 152.54 69.6543" stroke="#FF0000"/>
<path fill-rule="evenodd" clip-rule="evenodd" d="M152.54 56.1935C152.54 55.4502 151.937 54.8474 151.196 54.8474C150.452 54.8474 149.852 55.4502 149.852 56.1935C149.852 56.9327 150.452 57.5355 151.196 57.5355C151.937 57.5355 152.54 56.9327 152.54 56.1935Z" fill="#FF0000"/>
<path d="M152.54 56.1935C152.54 55.4502 151.937 54.8474 151.196 54.8474C150.452 54.8474 149.852 55.4502 149.852 56.1935C149.852 56.9327 150.452 57.5355 151.196 57.5355C151.937 57.5355 152.54 56.9327 152.54 56.1935" stroke="#FF0000"/>
<path fill-rule="evenodd" clip-rule="evenodd" d="M152.54 42.7299C152.54 41.9886 151.937 41.3858 151.196 41.3858C150.452 41.3858 149.852 41.9886 149.852 42.7299C149.852 43.4712 150.452 44.074 151.196 44.074C151.937 44.074 152.54 43.4712 152.54 42.7299Z" fill="#FF0000"/>
<path d="M152.54 42.7299C152.54 41.9886 151.937 41.3858 151.196 41.3858C150.452 41.3858 149.852 41.9886 149.852 42.7299C149.852 43.4712 150.452 44.074 151.196 44.074C151.937 44.074 152.54 43.4712 152.54 42.7299" stroke="#FF0000"/>
<path fill-rule="evenodd" clip-rule="evenodd" d="M152.54 29.2706C152.54 28.5293 151.937 27.9265 151.196 27.9265C150.452 27.9265 149.852 28.5293 149.852 29.2706C149.852 30.0098 150.452 30.6146 151.196 30.6146C151.937 30.6146 152.54 30.0098 152.54 29.2706Z" fill="#FF0000"/>
<path d="M152.54 29.2706C152.54 28.5293 151.937 27.9265 151.196 27.9265C150.452 27.9265 149.852 28.5293 149.852 29.2706C149.852 30.0098 150.452 30.6146 151.196 30.6146C151.937 30.6146 152.54 30.0098 152.54 29.2706" stroke="#FF0000"/>
<path fill-rule="evenodd" clip-rule="evenodd" d="M152.54 15.8058C152.54 15.0666 151.937 14.4638 151.196 14.4638C150.452 14.4638 149.852 15.0666 149.852 15.8058C149.852 16.5471 150.452 17.1519 151.196 17.1519C151.937 17.1519 152.54 16.5471 152.54 15.8058Z" fill="#FF0000"/>
<path d="M152.54 15.8058C152.54 15.0666 151.937 14.4638 151.196 14.4638C150.452 14.4638 149.852 15.0666 149.852 15.8058C149.852 16.5471 150.452 17.1519 151.196 17.1519C151.937 17.1519 152.54 16.5471 152.54 15.8058" stroke="#FF0000"/>
<path fill-rule="evenodd" clip-rule="evenodd" d="M152.54 2.34404C152.54 1.60276 151.937 0.999966 151.196 0.999966C150.452 0.999966 149.852 1.60276 149.852 2.34404C149.852 3.08531 150.452 3.68811 151.196 3.68811C151.937 3.68811 152.54 3.08531 152.54 2.34404Z" fill="#FF0000"/>
<path d="M152.54 2.34404C152.54 1.60276 151.937 0.999966 151.196 0.999966C150.452 0.999966 149.852 1.60276 149.852 2.34404C149.852 3.08531 150.452 3.68811 151.196 3.68811C151.937 3.68811 152.54 3.08531 152.54 2.34404" stroke="#FF0000"/>
<path fill-rule="evenodd" clip-rule="evenodd" d="M165.999 69.6543C165.999 68.9151 165.398 68.3102 164.655 68.3102C163.915 68.3102 163.311 68.9151 163.311 69.6543C163.311 70.3956 163.915 71.0004 164.655 71.0004C165.398 71.0004 165.999 70.3956 165.999 69.6543Z" fill="#FF0000"/>
<path d="M165.999 69.6543C165.999 68.9151 165.398 68.3102 164.655 68.3102C163.915 68.3102 163.311 68.9151 163.311 69.6543C163.311 70.3956 163.915 71.0004 164.655 71.0004C165.398 71.0004 165.999 70.3956 165.999 69.6543" stroke="#FF0000"/>
<path fill-rule="evenodd" clip-rule="evenodd" d="M165.999 56.1935C165.999 55.4502 165.398 54.8474 164.655 54.8474C163.915 54.8474 163.311 55.4502 163.311 56.1935C163.311 56.9327 163.915 57.5355 164.655 57.5355C165.398 57.5355 165.999 56.9327 165.999 56.1935Z" fill="#FF0000"/>
<path d="M165.999 56.1935C165.999 55.4502 165.398 54.8474 164.655 54.8474C163.915 54.8474 163.311 55.4502 163.311 56.1935C163.311 56.9327 163.915 57.5355 164.655 57.5355C165.398 57.5355 165.999 56.9327 165.999 56.1935" stroke="#FF0000"/>
<path fill-rule="evenodd" clip-rule="evenodd" d="M165.999 42.7299C165.999 41.9886 165.398 41.3858 164.655 41.3858C163.915 41.3858 163.311 41.9886 163.311 42.7299C163.311 43.4712 163.915 44.074 164.655 44.074C165.398 44.074 165.999 43.4712 165.999 42.7299Z" fill="#FF0000"/>
<path d="M165.999 42.7299C165.999 41.9886 165.398 41.3858 164.655 41.3858C163.915 41.3858 163.311 41.9886 163.311 42.7299C163.311 43.4712 163.915 44.074 164.655 44.074C165.398 44.074 165.999 43.4712 165.999 42.7299" stroke="#FF0000"/>
<path fill-rule="evenodd" clip-rule="evenodd" d="M165.999 29.2706C165.999 28.5293 165.398 27.9265 164.655 27.9265C163.915 27.9265 163.311 28.5293 163.311 29.2706C163.311 30.0098 163.915 30.6146 164.655 30.6146C165.398 30.6146 165.999 30.0098 165.999 29.2706Z" fill="#FF0000"/>
<path d="M165.999 29.2706C165.999 28.5293 165.398 27.9265 164.655 27.9265C163.915 27.9265 163.311 28.5293 163.311 29.2706C163.311 30.0098 163.915 30.6146 164.655 30.6146C165.398 30.6146 165.999 30.0098 165.999 29.2706" stroke="#FF0000"/>
<path fill-rule="evenodd" clip-rule="evenodd" d="M165.999 15.8058C165.999 15.0666 165.398 14.4638 164.655 14.4638C163.915 14.4638 163.311 15.0666 163.311 15.8058C163.311 16.5471 163.915 17.1519 164.655 17.1519C165.398 17.1519 165.999 16.5471 165.999 15.8058Z" fill="#FF0000"/>
<path d="M165.999 15.8058C165.999 15.0666 165.398 14.4638 164.655 14.4638C163.915 14.4638 163.311 15.0666 163.311 15.8058C163.311 16.5471 163.915 17.1519 164.655 17.1519C165.398 17.1519 165.999 16.5471 165.999 15.8058" stroke="#FF0000"/>
<path fill-rule="evenodd" clip-rule="evenodd" d="M165.999 2.34404C165.999 1.60276 165.398 0.999966 164.655 0.999966C163.915 0.999966 163.311 1.60276 163.311 2.34404C163.311 3.08531 163.915 3.68811 164.655 3.68811C165.398 3.68811 165.999 3.08531 165.999 2.34404Z" fill="#FF0000"/>
<path d="M165.999 2.34404C165.999 1.60276 165.398 0.999966 164.655 0.999966C163.915 0.999966 163.311 1.60276 163.311 2.34404C163.311 3.08531 163.915 3.68811 164.655 3.68811C165.398 3.68811 165.999 3.08531 165.999 2.34404" stroke="#FF0000"/>
<path fill-rule="evenodd" clip-rule="evenodd" d="M179.464 69.6543C179.464 68.9151 178.863 68.3102 178.119 68.3102C177.376 68.3102 176.775 68.9151 176.775 69.6543C176.775 70.3956 177.376 71.0004 178.119 71.0004C178.863 71.0004 179.464 70.3956 179.464 69.6543Z" fill="#FF0000"/>
<path d="M179.464 69.6543C179.464 68.9151 178.863 68.3102 178.119 68.3102C177.376 68.3102 176.775 68.9151 176.775 69.6543C176.775 70.3956 177.376 71.0004 178.119 71.0004C178.863 71.0004 179.464 70.3956 179.464 69.6543" stroke="#FF0000"/>
<path fill-rule="evenodd" clip-rule="evenodd" d="M179.464 56.1935C179.464 55.4502 178.863 54.8474 178.119 54.8474C177.376 54.8474 176.775 55.4502 176.775 56.1935C176.775 56.9327 177.376 57.5355 178.119 57.5355C178.863 57.5355 179.464 56.9327 179.464 56.1935Z" fill="#FF0000"/>
<path d="M179.464 56.1935C179.464 55.4502 178.863 54.8474 178.119 54.8474C177.376 54.8474 176.775 55.4502 176.775 56.1935C176.775 56.9327 177.376 57.5355 178.119 57.5355C178.863 57.5355 179.464 56.9327 179.464 56.1935" stroke="#FF0000"/>
<path fill-rule="evenodd" clip-rule="evenodd" d="M179.464 42.7299C179.464 41.9886 178.863 41.3858 178.119 41.3858C177.376 41.3858 176.775 41.9886 176.775 42.7299C176.775 43.4712 177.376 44.074 178.119 44.074C178.863 44.074 179.464 43.4712 179.464 42.7299Z" fill="#FF0000"/>
<path d="M179.464 42.7299C179.464 41.9886 178.863 41.3858 178.119 41.3858C177.376 41.3858 176.775 41.9886 176.775 42.7299C176.775 43.4712 177.376 44.074 178.119 44.074C178.863 44.074 179.464 43.4712 179.464 42.7299" stroke="#FF0000"/>
<path fill-rule="evenodd" clip-rule="evenodd" d="M179.464 29.2705C179.464 28.5292 178.863 27.9264 178.119 27.9264C177.376 27.9264 176.775 28.5292 176.775 29.2705C176.775 30.0097 177.376 30.6146 178.119 30.6146C178.863 30.6146 179.464 30.0097 179.464 29.2705Z" fill="#FF0000"/>
<path d="M179.464 29.2705C179.464 28.5292 178.863 27.9264 178.119 27.9264C177.376 27.9264 176.775 28.5292 176.775 29.2705C176.775 30.0097 177.376 30.6146 178.119 30.6146C178.863 30.6146 179.464 30.0097 179.464 29.2705" stroke="#FF0000"/>
<path fill-rule="evenodd" clip-rule="evenodd" d="M179.464 15.8058C179.464 15.0666 178.863 14.4638 178.119 14.4638C177.376 14.4638 176.775 15.0666 176.775 15.8058C176.775 16.5471 177.376 17.1519 178.119 17.1519C178.863 17.1519 179.464 16.5471 179.464 15.8058Z" fill="#FF0000"/>
<path d="M179.464 15.8058C179.464 15.0666 178.863 14.4638 178.119 14.4638C177.376 14.4638 176.775 15.0666 176.775 15.8058C176.775 16.5471 177.376 17.1519 178.119 17.1519C178.863 17.1519 179.464 16.5471 179.464 15.8058" stroke="#FF0000"/>
<path fill-rule="evenodd" clip-rule="evenodd" d="M179.464 2.34404C179.464 1.60276 178.863 0.999966 178.119 0.999966C177.376 0.999966 176.775 1.60276 176.775 2.34404C176.775 3.08531 177.376 3.68811 178.119 3.68811C178.863 3.68811 179.464 3.08531 179.464 2.34404Z" fill="#FF0000"/>
<path d="M179.464 2.34404C179.464 1.60276 178.863 0.999966 178.119 0.999966C177.376 0.999966 176.775 1.60276 176.775 2.34404C176.775 3.08531 177.376 3.68811 178.119 3.68811C178.863 3.68811 179.464 3.08531 179.464 2.34404" stroke="#FF0000"/>
</svg>
