<svg width="100" height="100" viewBox="0 0 100 100" fill="none" xmlns="http://www.w3.org/2000/svg">
<rect x="2" y="2" width="96" height="96" rx="48" stroke="#FF0000" stroke-width="2.5" stroke-linecap="round" stroke-linejoin="bevel" stroke-dasharray="0.5 4"/>
<rect x="2" y="2" width="96" height="96" rx="48" fill="white" stroke="#FF0000" stroke-width="2.5" stroke-linecap="round" stroke-linejoin="bevel" stroke-dasharray="0.5 4"/>
<path d="M64.0514 62.4177V68.5263H37.0063V63.4619L50.7899 49.2606C52.1126 47.9379 53.1742 46.6327 53.9748 45.3448C54.7753 44.0569 55.1756 42.9431 55.1756 42.0033C55.1756 40.6807 54.6535 39.6539 53.6093 38.9229C52.5651 38.1572 51.1206 37.7743 49.2758 37.7743C47.6747 37.7743 45.9691 38.1746 44.1592 38.9751C42.3492 39.7757 40.6437 40.8895 39.0425 42.3166L36.2754 36.9389C38.4334 35.2682 40.6959 33.9803 43.0628 33.0753C45.4644 32.1355 47.8661 31.6656 50.2678 31.6656C52.6695 31.6656 54.7927 32.0485 56.6375 32.8143C58.4823 33.58 59.9094 34.6765 60.9188 36.1035C61.963 37.4958 62.4851 39.1144 62.4851 40.9591C62.4851 42.7343 61.876 44.6139 60.6577 46.5979C59.4395 48.5819 57.7339 50.7225 55.5411 53.0198L46.2476 62.4177H64.0514Z" stroke="#FF0000" stroke-width="2.5" stroke-linecap="round" stroke-linejoin="bevel" stroke-dasharray="0.5 4"/>
</svg>
