<svg width="127" height="53" viewBox="0 0 127 53" fill="none" xmlns="http://www.w3.org/2000/svg">
<path fill-rule="evenodd" clip-rule="evenodd" d="M81.1234 0H81.127C84.925 0 88.4766 1.34051 91.1274 3.77307C93.1716 5.64734 95.8886 6.67803 98.782 6.67803C101.676 6.67803 104.396 5.64734 106.44 3.77307C109.095 1.34051 112.65 0 116.448 0H116.455C120.253 0 123.805 1.34051 126.456 3.77307C127.044 4.31602 127 5.15653 126.345 5.64734C125.698 6.13507 124.691 6.09826 124.103 5.55838C122.062 3.68411 119.345 2.65342 116.455 2.65342H116.448C113.558 2.65342 110.838 3.68411 108.79 5.55838C106.135 7.99093 102.58 9.32838 98.782 9.32838C94.9804 9.32838 91.4289 7.99093 88.7744 5.55838C86.7339 3.68411 84.0205 2.65342 81.127 2.65342H81.1234C78.2299 2.65342 75.5092 3.68411 73.4614 5.55838C70.8069 7.99093 67.2553 9.32838 63.4537 9.32838H63.45C59.6521 9.32838 56.0968 7.99093 53.4423 5.55838C49.3503 1.80985 42.214 1.80985 38.1146 5.55838C35.4638 7.99093 31.9049 9.32838 28.1033 9.32838C24.3017 9.32838 20.7427 7.99093 18.0882 5.55838C16.0477 3.68411 13.3271 2.65342 10.4299 2.65342H10.4262C7.53275 2.65342 4.81208 3.68411 2.76422 5.55838C2.16861 6.09826 1.1649 6.14121 0.517819 5.64427C-0.12926 5.15346 -0.177056 4.31296 0.414875 3.77307C3.07305 1.34051 6.62831 0 10.4262 0H10.4299C14.2315 0 17.7868 1.34051 20.4449 3.77307C22.4854 5.64734 25.2061 6.67803 28.1033 6.67803C31.0004 6.67803 33.7211 5.64734 35.769 3.77307C41.078 -1.08898 50.4827 -1.08898 55.7917 3.77307C57.8395 5.64734 60.5565 6.67803 63.45 6.67803H63.4537C66.3472 6.67803 69.0642 5.64734 71.1157 3.77307C73.7702 1.34051 77.3218 0 81.1234 0ZM81.1234 21.6994H81.127C84.925 21.6994 88.4766 23.0399 91.1274 25.4725C93.1716 27.3467 95.8886 28.3774 98.782 28.3774C101.676 28.3774 104.396 27.3467 106.44 25.4725C109.095 23.0399 112.65 21.6994 116.448 21.6994H116.455C120.253 21.6994 123.805 23.0399 126.456 25.4725C127.044 26.0154 127 26.8559 126.345 27.3467C125.698 27.8345 124.691 27.7977 124.103 27.2578C122.062 25.3835 119.345 24.3528 116.455 24.3528H116.448C113.558 24.3528 110.838 25.3835 108.79 27.2578C106.135 29.6903 102.58 31.0278 98.782 31.0278C94.9804 31.0278 91.4289 29.6903 88.7744 27.2578C86.7339 25.3835 84.0205 24.3528 81.127 24.3528H81.1234C78.2299 24.3528 75.5092 25.3835 73.4614 27.2578C70.8069 29.6903 67.2553 31.0278 63.4537 31.0278H63.45C59.6521 31.0278 56.0968 29.6903 53.4423 27.2578C49.3503 23.5092 42.214 23.5092 38.1146 27.2578C35.4638 29.6903 31.9049 31.0278 28.1033 31.0278C24.3017 31.0278 20.7427 29.6903 18.0882 27.2578C16.0477 25.3835 13.3271 24.3528 10.4299 24.3528H10.4262C7.53275 24.3528 4.81208 25.3835 2.76422 27.2578C2.16861 27.7977 1.1649 27.8406 0.51782 27.3437C-0.12926 26.8529 -0.177056 26.0124 0.414875 25.4725C3.07305 23.0399 6.62831 21.6994 10.4262 21.6994H10.4299C14.2315 21.6994 17.7868 23.0399 20.4449 25.4725C22.4854 27.3467 25.2061 28.3774 28.1033 28.3774C31.0004 28.3774 33.7211 27.3467 35.769 25.4725C41.078 20.6104 50.4827 20.6104 55.7917 25.4725C57.8395 27.3467 60.5565 28.3774 63.45 28.3774H63.4537C66.3472 28.3774 69.0642 27.3467 71.1157 25.4725C73.7702 23.0399 77.3218 21.6994 81.1234 21.6994ZM81.127 43.3201H81.1234C77.3218 43.3201 73.7702 44.6606 71.1157 47.0932C69.0642 48.9675 66.3472 49.9982 63.4537 49.9982H63.45C60.5565 49.9982 57.8395 48.9675 55.7917 47.0932C50.4827 42.2312 41.078 42.2312 35.769 47.0932C33.7211 48.9675 31.0004 49.9982 28.1033 49.9982C25.2061 49.9982 22.4854 48.9675 20.4449 47.0932C17.7868 44.6606 14.2315 43.3201 10.4299 43.3201H10.4262C6.62831 43.3201 3.07305 44.6606 0.414875 47.0932C-0.177056 47.6331 -0.12926 48.4736 0.51782 48.9644C1.1649 49.4613 2.16861 49.4184 2.76422 48.8785C4.81208 47.0042 7.53275 45.9735 10.4262 45.9735H10.4299C13.3271 45.9735 16.0477 47.0042 18.0882 48.8785C20.7427 51.3111 24.3017 52.6485 28.1033 52.6485C31.9049 52.6485 35.4638 51.3111 38.1146 48.8785C42.214 45.13 49.3503 45.13 53.4423 48.8785C56.0968 51.3111 59.6521 52.6485 63.45 52.6485H63.4537C67.2553 52.6485 70.8069 51.3111 73.4614 48.8785C75.5092 47.0042 78.2299 45.9735 81.1234 45.9735H81.127C84.0205 45.9735 86.7339 47.0042 88.7744 48.8785C91.4289 51.3111 94.9804 52.6485 98.782 52.6485C102.58 52.6485 106.135 51.3111 108.79 48.8785C110.838 47.0042 113.558 45.9735 116.448 45.9735H116.455C119.345 45.9735 122.062 47.0042 124.103 48.8785C124.691 49.4184 125.698 49.4552 126.345 48.9675C127 48.4767 127.044 47.6362 126.456 47.0932C123.805 44.6606 120.253 43.3201 116.455 43.3201H116.448C112.65 43.3201 109.095 44.6606 106.44 47.0932C104.396 48.9675 101.676 49.9982 98.782 49.9982C95.8886 49.9982 93.1716 48.9675 91.1274 47.0932C88.4766 44.6606 84.925 43.3201 81.127 43.3201Z" fill="#FF0000"/>
</svg>
