<svg width="489" height="187" viewBox="0 0 489 187" fill="none" xmlns="http://www.w3.org/2000/svg">
<path d="M141.901 109.028C146.32 109.028 149.901 112.61 149.901 117.028V136.704C149.901 141.122 146.32 144.704 141.901 144.704H134.752C130.333 144.704 126.752 148.286 126.752 152.704V175.46C126.752 179.878 123.17 183.46 118.752 183.46H91.5387C87.1204 183.46 83.5387 179.878 83.5387 175.46V152.704C83.5387 148.286 79.957 144.704 75.5387 144.704H10C5.58173 144.704 2 141.122 2 136.704V114.658C2 113.486 2.25763 112.328 2.75466 111.266L51.0295 8.14806C52.3458 5.33626 55.1701 3.53997 58.2748 3.53997H85.5028C91.3252 3.53997 95.1974 9.56136 92.7818 14.859L55.0041 97.709C52.5885 103.007 56.4607 109.028 62.2831 109.028H75.5387C79.957 109.028 83.5387 105.446 83.5387 101.028V78.7854C83.5387 74.3671 87.1204 70.7854 91.5387 70.7854H118.752C123.17 70.7854 126.752 74.3671 126.752 78.7854V101.028C126.752 105.446 130.333 109.028 134.752 109.028H141.901Z" stroke="#FF0000" stroke-width="4" stroke-linecap="round" stroke-linejoin="bevel" stroke-dasharray="0.5 6"/>
<path d="M249.297 2C274.847 2 294.482 9.87097 308.2 25.6129C322.09 41.3548 329.035 63.9411 329.035 93.3717C329.035 122.802 322.09 145.474 308.2 161.387C294.482 177.129 274.847 185 249.297 185C223.403 185 203.512 177.129 189.622 161.387C175.903 145.474 169.044 122.802 169.044 93.3717C169.044 63.9411 175.903 41.3548 189.622 25.6129C203.512 9.87097 223.403 2 249.297 2ZM249.297 36.906C237.979 36.906 229.834 41.3548 224.861 50.2524C219.888 58.979 217.402 73.352 217.402 93.3717C217.402 113.562 219.888 128.107 224.861 137.004C229.834 145.731 237.979 150.094 249.297 150.094C260.271 150.094 268.245 145.645 273.218 136.748C278.363 127.85 280.935 113.391 280.935 93.3717C280.935 73.352 278.363 58.979 273.218 50.2524C268.245 41.3548 260.271 36.906 249.297 36.906Z" stroke="#FF0000" stroke-width="4" stroke-linecap="round" stroke-linejoin="bevel" stroke-dasharray="0.5 6"/>
<path d="M479 109.028C483.418 109.028 487 112.61 487 117.028V136.704C487 141.122 483.418 144.704 479 144.704H471.85C467.432 144.704 463.85 148.286 463.85 152.704V175.46C463.85 179.878 460.269 183.46 455.85 183.46H428.637C424.219 183.46 420.637 179.878 420.637 175.46V152.704C420.637 148.286 417.056 144.704 412.637 144.704H347.099C342.68 144.704 339.099 141.122 339.099 136.704V114.658C339.099 113.486 339.356 112.328 339.853 111.266L388.128 8.14806C389.444 5.33626 392.269 3.53997 395.373 3.53997H422.601C428.424 3.53997 432.296 9.56136 429.88 14.859L392.103 97.709C389.687 103.007 393.559 109.028 399.382 109.028H412.637C417.056 109.028 420.637 105.446 420.637 101.028V78.7854C420.637 74.3671 424.219 70.7854 428.637 70.7854H455.85C460.269 70.7854 463.85 74.3671 463.85 78.7854V101.028C463.85 105.446 467.432 109.028 471.85 109.028H479Z" stroke="#FF0000" stroke-width="4" stroke-linecap="round" stroke-linejoin="bevel" stroke-dasharray="0.5 6"/>
</svg>
