<svg width="68" height="68" viewBox="0 0 68 68" fill="none" xmlns="http://www.w3.org/2000/svg">
<path d="M34 2C16.3545 2 2 16.3545 2 34C2 51.6455 16.3545 66 34 66C51.6455 66 66 51.6455 66 34C66 16.3545 51.6455 2 34 2ZM-nan -nanL49.2188 50.5518C48.6987 51.0718 48.0161 51.3335 47.3335 51.3335C46.6509 51.3335 45.9678 51.0718 45.4482 50.5518L32.1147 37.2188C31.6133 36.7202 31.3335 36.0425 31.3335 35.3335V18C31.3335 16.5254 32.5278 15.3335 34 15.3335C35.4722 15.3335 36.6665 16.5254 36.6665 18V32.5726C36.6665 33.6335 37.088 34.6509 37.8381 35.4011L49.2188 46.7812C50.2612 47.8242 50.2612 49.5093 49.2188 50.5518L-nan -nanL-nan -nanZ" stroke="#FF0000" stroke-width="2.5" stroke-linecap="round" stroke-linejoin="bevel" stroke-dasharray="0.5 4"/>
</svg>
