<svg width="487" height="95" viewBox="0 0 487 95" fill="none" xmlns="http://www.w3.org/2000/svg">
<path fill-rule="evenodd" clip-rule="evenodd" d="M4.26716 90.927C4.26716 89.9587 3.48026 89.1664 2.50663 89.1664C1.53567 89.1664 0.746094 89.9587 0.746094 90.927C0.746094 91.8979 1.53567 92.6902 2.50663 92.6902C3.48026 92.6902 4.26716 91.8979 4.26716 90.927Z" fill="#FF0000"/>
<path d="M4.26716 90.927C4.26716 89.9587 3.48026 89.1664 2.50663 89.1664C1.53567 89.1664 0.746094 89.9587 0.746094 90.927C0.746094 91.8979 1.53567 92.6902 2.50663 92.6902C3.48026 92.6902 4.26716 91.8979 4.26716 90.927" stroke="#FF0000"/>
<path fill-rule="evenodd" clip-rule="evenodd" d="M4.26716 73.2953C4.26716 72.3217 3.48026 71.5321 2.50663 71.5321C1.53567 71.5321 0.746094 72.3217 0.746094 73.2953C0.746094 74.2636 1.53567 75.0532 2.50663 75.0532C3.48026 75.0532 4.26716 74.2636 4.26716 73.2953Z" fill="#FF0000"/>
<path d="M4.26716 73.2953C4.26716 72.3217 3.48026 71.5321 2.50663 71.5321C1.53567 71.5321 0.746094 72.3217 0.746094 73.2953C0.746094 74.2636 1.53567 75.0532 2.50663 75.0532C3.48026 75.0532 4.26716 74.2636 4.26716 73.2953" stroke="#FF0000"/>
<path fill-rule="evenodd" clip-rule="evenodd" d="M4.26716 55.66C4.26716 54.689 3.48026 53.8995 2.50663 53.8995C1.53567 53.8995 0.746094 54.689 0.746094 55.66C0.746094 56.631 1.53567 57.4205 2.50663 57.4205C3.48026 57.4205 4.26716 56.631 4.26716 55.66Z" fill="#FF0000"/>
<path d="M4.26716 55.66C4.26716 54.689 3.48026 53.8995 2.50663 53.8995C1.53567 53.8995 0.746094 54.689 0.746094 55.66C0.746094 56.631 1.53567 57.4205 2.50663 57.4205C3.48026 57.4205 4.26716 56.631 4.26716 55.66" stroke="#FF0000"/>
<path fill-rule="evenodd" clip-rule="evenodd" d="M4.26716 38.0302C4.26716 37.0592 3.48026 36.2697 2.50663 36.2697C1.53567 36.2697 0.746094 37.0592 0.746094 38.0302C0.746094 38.9985 1.53567 39.7907 2.50663 39.7907C3.48026 39.7907 4.26716 38.9985 4.26716 38.0302Z" fill="#FF0000"/>
<path d="M4.26716 38.0302C4.26716 37.0592 3.48026 36.2697 2.50663 36.2697C1.53567 36.2697 0.746094 37.0592 0.746094 38.0302C0.746094 38.9985 1.53567 39.7907 2.50663 39.7907C3.48026 39.7907 4.26716 38.9985 4.26716 38.0302" stroke="#FF0000"/>
<path fill-rule="evenodd" clip-rule="evenodd" d="M4.26716 20.3934C4.26716 19.4251 3.48026 18.6355 2.50663 18.6355C1.53567 18.6355 0.746094 19.4251 0.746094 20.3934C0.746094 21.3644 1.53567 22.1566 2.50663 22.1566C3.48026 22.1566 4.26716 21.3644 4.26716 20.3934Z" fill="#FF0000"/>
<path d="M4.26716 20.3934C4.26716 19.4251 3.48026 18.6355 2.50663 18.6355C1.53567 18.6355 0.746094 19.4251 0.746094 20.3934C0.746094 21.3644 1.53567 22.1566 2.50663 22.1566C3.48026 22.1566 4.26716 21.3644 4.26716 20.3934" stroke="#FF0000"/>
<path fill-rule="evenodd" clip-rule="evenodd" d="M4.26716 2.76055C4.26716 1.78959 3.48026 1.00002 2.50663 1.00002C1.53567 1.00002 0.746094 1.78959 0.746094 2.76055C0.746094 3.73151 1.53567 4.52109 2.50663 4.52109C3.48026 4.52109 4.26716 3.73151 4.26716 2.76055Z" fill="#FF0000"/>
<path d="M4.26716 2.76055C4.26716 1.78959 3.48026 1.00002 2.50663 1.00002C1.53567 1.00002 0.746094 1.78959 0.746094 2.76055C0.746094 3.73151 1.53567 4.52109 2.50663 4.52109C3.48026 4.52109 4.26716 3.73151 4.26716 2.76055" stroke="#FF0000"/>
<path fill-rule="evenodd" clip-rule="evenodd" d="M21.9 90.927C21.9 89.9587 21.1131 89.1664 20.1394 89.1664C19.1658 89.1664 18.3789 89.9587 18.3789 90.927C18.3789 91.8979 19.1658 92.6902 20.1394 92.6902C21.1131 92.6902 21.9 91.8979 21.9 90.927Z" fill="#FF0000"/>
<path d="M21.9 90.927C21.9 89.9587 21.1131 89.1664 20.1394 89.1664C19.1658 89.1664 18.3789 89.9587 18.3789 90.927C18.3789 91.8979 19.1658 92.6902 20.1394 92.6902C21.1131 92.6902 21.9 91.8979 21.9 90.927" stroke="#FF0000"/>
<path fill-rule="evenodd" clip-rule="evenodd" d="M21.9 73.2953C21.9 72.3217 21.1131 71.5321 20.1394 71.5321C19.1658 71.5321 18.3789 72.3217 18.3789 73.2953C18.3789 74.2636 19.1658 75.0532 20.1394 75.0532C21.1131 75.0532 21.9 74.2636 21.9 73.2953Z" fill="#FF0000"/>
<path d="M21.9 73.2953C21.9 72.3217 21.1131 71.5321 20.1394 71.5321C19.1658 71.5321 18.3789 72.3217 18.3789 73.2953C18.3789 74.2636 19.1658 75.0532 20.1394 75.0532C21.1131 75.0532 21.9 74.2636 21.9 73.2953" stroke="#FF0000"/>
<path fill-rule="evenodd" clip-rule="evenodd" d="M21.9 55.66C21.9 54.689 21.1131 53.8995 20.1394 53.8995C19.1658 53.8995 18.3789 54.689 18.3789 55.66C18.3789 56.631 19.1658 57.4205 20.1394 57.4205C21.1131 57.4205 21.9 56.631 21.9 55.66Z" fill="#FF0000"/>
<path d="M21.9 55.66C21.9 54.689 21.1131 53.8995 20.1394 53.8995C19.1658 53.8995 18.3789 54.689 18.3789 55.66C18.3789 56.631 19.1658 57.4205 20.1394 57.4205C21.1131 57.4205 21.9 56.631 21.9 55.66" stroke="#FF0000"/>
<path fill-rule="evenodd" clip-rule="evenodd" d="M21.9 38.0302C21.9 37.0592 21.1131 36.2697 20.1394 36.2697C19.1658 36.2697 18.3789 37.0592 18.3789 38.0302C18.3789 38.9985 19.1658 39.7907 20.1394 39.7907C21.1131 39.7907 21.9 38.9985 21.9 38.0302Z" fill="#FF0000"/>
<path d="M21.9 38.0302C21.9 37.0592 21.1131 36.2697 20.1394 36.2697C19.1658 36.2697 18.3789 37.0592 18.3789 38.0302C18.3789 38.9985 19.1658 39.7907 20.1394 39.7907C21.1131 39.7907 21.9 38.9985 21.9 38.0302" stroke="#FF0000"/>
<path fill-rule="evenodd" clip-rule="evenodd" d="M21.9 20.3934C21.9 19.4251 21.1131 18.6355 20.1394 18.6355C19.1658 18.6355 18.3789 19.4251 18.3789 20.3934C18.3789 21.3644 19.1658 22.1566 20.1394 22.1566C21.1131 22.1566 21.9 21.3644 21.9 20.3934Z" fill="#FF0000"/>
<path d="M21.9 20.3934C21.9 19.4251 21.1131 18.6355 20.1394 18.6355C19.1658 18.6355 18.3789 19.4251 18.3789 20.3934C18.3789 21.3644 19.1658 22.1566 20.1394 22.1566C21.1131 22.1566 21.9 21.3644 21.9 20.3934" stroke="#FF0000"/>
<path fill-rule="evenodd" clip-rule="evenodd" d="M21.9 2.76055C21.9 1.78959 21.1131 1.00002 20.1394 1.00002C19.1658 1.00002 18.3789 1.78959 18.3789 2.76055C18.3789 3.73151 19.1658 4.52109 20.1394 4.52109C21.1131 4.52109 21.9 3.73151 21.9 2.76055Z" fill="#FF0000"/>
<path d="M21.9 2.76055C21.9 1.78959 21.1131 1.00002 20.1394 1.00002C19.1658 1.00002 18.3789 1.78959 18.3789 2.76055C18.3789 3.73151 19.1658 4.52109 20.1394 4.52109C21.1131 4.52109 21.9 3.73151 21.9 2.76055" stroke="#FF0000"/>
<path fill-rule="evenodd" clip-rule="evenodd" d="M39.5367 90.927C39.5367 89.9587 38.7471 89.1664 37.7762 89.1664C36.8052 89.1664 36.0156 89.9587 36.0156 90.927C36.0156 91.8979 36.8052 92.6902 37.7762 92.6902C38.7471 92.6902 39.5367 91.8979 39.5367 90.927Z" fill="#FF0000"/>
<path d="M39.5367 90.927C39.5367 89.9587 38.7471 89.1664 37.7762 89.1664C36.8052 89.1664 36.0156 89.9587 36.0156 90.927C36.0156 91.8979 36.8052 92.6902 37.7762 92.6902C38.7471 92.6902 39.5367 91.8979 39.5367 90.927" stroke="#FF0000"/>
<path fill-rule="evenodd" clip-rule="evenodd" d="M39.5367 73.2953C39.5367 72.3217 38.7471 71.5321 37.7762 71.5321C36.8052 71.5321 36.0156 72.3217 36.0156 73.2953C36.0156 74.2636 36.8052 75.0532 37.7762 75.0532C38.7471 75.0532 39.5367 74.2636 39.5367 73.2953Z" fill="#FF0000"/>
<path d="M39.5367 73.2953C39.5367 72.3217 38.7471 71.5321 37.7762 71.5321C36.8052 71.5321 36.0156 72.3217 36.0156 73.2953C36.0156 74.2636 36.8052 75.0532 37.7762 75.0532C38.7471 75.0532 39.5367 74.2636 39.5367 73.2953" stroke="#FF0000"/>
<path fill-rule="evenodd" clip-rule="evenodd" d="M39.5367 55.66C39.5367 54.689 38.7471 53.8995 37.7762 53.8995C36.8052 53.8995 36.0156 54.689 36.0156 55.66C36.0156 56.631 36.8052 57.4205 37.7762 57.4205C38.7471 57.4205 39.5367 56.631 39.5367 55.66Z" fill="#FF0000"/>
<path d="M39.5367 55.66C39.5367 54.689 38.7471 53.8995 37.7762 53.8995C36.8052 53.8995 36.0156 54.689 36.0156 55.66C36.0156 56.631 36.8052 57.4205 37.7762 57.4205C38.7471 57.4205 39.5367 56.631 39.5367 55.66" stroke="#FF0000"/>
<path fill-rule="evenodd" clip-rule="evenodd" d="M39.5367 38.0302C39.5367 37.0592 38.7471 36.2697 37.7762 36.2697C36.8052 36.2697 36.0156 37.0592 36.0156 38.0302C36.0156 38.9985 36.8052 39.7907 37.7762 39.7907C38.7471 39.7907 39.5367 38.9985 39.5367 38.0302Z" fill="#FF0000"/>
<path d="M39.5367 38.0302C39.5367 37.0592 38.7471 36.2697 37.7762 36.2697C36.8052 36.2697 36.0156 37.0592 36.0156 38.0302C36.0156 38.9985 36.8052 39.7907 37.7762 39.7907C38.7471 39.7907 39.5367 38.9985 39.5367 38.0302" stroke="#FF0000"/>
<path fill-rule="evenodd" clip-rule="evenodd" d="M39.5367 20.3934C39.5367 19.4251 38.7471 18.6355 37.7762 18.6355C36.8052 18.6355 36.0156 19.4251 36.0156 20.3934C36.0156 21.3644 36.8052 22.1566 37.7762 22.1566C38.7471 22.1566 39.5367 21.3644 39.5367 20.3934Z" fill="#FF0000"/>
<path d="M39.5367 20.3934C39.5367 19.4251 38.7471 18.6355 37.7762 18.6355C36.8052 18.6355 36.0156 19.4251 36.0156 20.3934C36.0156 21.3644 36.8052 22.1566 37.7762 22.1566C38.7471 22.1566 39.5367 21.3644 39.5367 20.3934" stroke="#FF0000"/>
<path fill-rule="evenodd" clip-rule="evenodd" d="M39.5367 2.76055C39.5367 1.78959 38.7471 1.00002 37.7762 1.00002C36.8052 1.00002 36.0156 1.78959 36.0156 2.76055C36.0156 3.73151 36.8052 4.52109 37.7762 4.52109C38.7471 4.52109 39.5367 3.73151 39.5367 2.76055Z" fill="#FF0000"/>
<path d="M39.5367 2.76055C39.5367 1.78959 38.7471 1.00002 37.7762 1.00002C36.8052 1.00002 36.0156 1.78959 36.0156 2.76055C36.0156 3.73151 36.8052 4.52109 37.7762 4.52109C38.7471 4.52109 39.5367 3.73151 39.5367 2.76055" stroke="#FF0000"/>
<path fill-rule="evenodd" clip-rule="evenodd" d="M57.1656 90.927C57.1656 89.9587 56.3787 89.1664 55.4051 89.1664C54.4314 89.1664 53.6445 89.9587 53.6445 90.927C53.6445 91.8979 54.4314 92.6902 55.4051 92.6902C56.3787 92.6902 57.1656 91.8979 57.1656 90.927Z" fill="#FF0000"/>
<path d="M57.1656 90.927C57.1656 89.9587 56.3787 89.1664 55.4051 89.1664C54.4314 89.1664 53.6445 89.9587 53.6445 90.927C53.6445 91.8979 54.4314 92.6902 55.4051 92.6902C56.3787 92.6902 57.1656 91.8979 57.1656 90.927" stroke="#FF0000"/>
<path fill-rule="evenodd" clip-rule="evenodd" d="M57.1656 73.2953C57.1656 72.3217 56.3787 71.5321 55.4051 71.5321C54.4314 71.5321 53.6445 72.3217 53.6445 73.2953C53.6445 74.2636 54.4314 75.0532 55.4051 75.0532C56.3787 75.0532 57.1656 74.2636 57.1656 73.2953Z" fill="#FF0000"/>
<path d="M57.1656 73.2953C57.1656 72.3217 56.3787 71.5321 55.4051 71.5321C54.4314 71.5321 53.6445 72.3217 53.6445 73.2953C53.6445 74.2636 54.4314 75.0532 55.4051 75.0532C56.3787 75.0532 57.1656 74.2636 57.1656 73.2953" stroke="#FF0000"/>
<path fill-rule="evenodd" clip-rule="evenodd" d="M57.1656 55.66C57.1656 54.689 56.3787 53.8995 55.4051 53.8995C54.4314 53.8995 53.6445 54.689 53.6445 55.66C53.6445 56.631 54.4314 57.4205 55.4051 57.4205C56.3787 57.4205 57.1656 56.631 57.1656 55.66Z" fill="#FF0000"/>
<path d="M57.1656 55.66C57.1656 54.689 56.3787 53.8995 55.4051 53.8995C54.4314 53.8995 53.6445 54.689 53.6445 55.66C53.6445 56.631 54.4314 57.4205 55.4051 57.4205C56.3787 57.4205 57.1656 56.631 57.1656 55.66" stroke="#FF0000"/>
<path fill-rule="evenodd" clip-rule="evenodd" d="M57.1656 38.0302C57.1656 37.0592 56.3787 36.2697 55.4051 36.2697C54.4314 36.2697 53.6445 37.0592 53.6445 38.0302C53.6445 38.9985 54.4314 39.7907 55.4051 39.7907C56.3787 39.7907 57.1656 38.9985 57.1656 38.0302Z" fill="#FF0000"/>
<path d="M57.1656 38.0302C57.1656 37.0592 56.3787 36.2697 55.4051 36.2697C54.4314 36.2697 53.6445 37.0592 53.6445 38.0302C53.6445 38.9985 54.4314 39.7907 55.4051 39.7907C56.3787 39.7907 57.1656 38.9985 57.1656 38.0302" stroke="#FF0000"/>
<path fill-rule="evenodd" clip-rule="evenodd" d="M57.1656 20.3934C57.1656 19.4251 56.3787 18.6355 55.4051 18.6355C54.4314 18.6355 53.6445 19.4251 53.6445 20.3934C53.6445 21.3644 54.4314 22.1566 55.4051 22.1566C56.3787 22.1566 57.1656 21.3644 57.1656 20.3934Z" fill="#FF0000"/>
<path d="M57.1656 20.3934C57.1656 19.4251 56.3787 18.6355 55.4051 18.6355C54.4314 18.6355 53.6445 19.4251 53.6445 20.3934C53.6445 21.3644 54.4314 22.1566 55.4051 22.1566C56.3787 22.1566 57.1656 21.3644 57.1656 20.3934" stroke="#FF0000"/>
<path fill-rule="evenodd" clip-rule="evenodd" d="M57.1656 2.76055C57.1656 1.78959 56.3787 1.00002 55.4051 1.00002C54.4314 1.00002 53.6445 1.78959 53.6445 2.76055C53.6445 3.73151 54.4314 4.52109 55.4051 4.52109C56.3787 4.52109 57.1656 3.73151 57.1656 2.76055Z" fill="#FF0000"/>
<path d="M57.1656 2.76055C57.1656 1.78959 56.3787 1.00002 55.4051 1.00002C54.4314 1.00002 53.6445 1.78959 53.6445 2.76055C53.6445 3.73151 54.4314 4.52109 55.4051 4.52109C56.3787 4.52109 57.1656 3.73151 57.1656 2.76055" stroke="#FF0000"/>
<path fill-rule="evenodd" clip-rule="evenodd" d="M74.8062 90.927C74.8062 89.9587 74.0167 89.1664 73.0457 89.1664C72.0721 89.1664 71.2852 89.9587 71.2852 90.927C71.2852 91.8979 72.0721 92.6902 73.0457 92.6902C74.0167 92.6902 74.8062 91.8979 74.8062 90.927Z" fill="#FF0000"/>
<path d="M74.8062 90.927C74.8062 89.9587 74.0167 89.1664 73.0457 89.1664C72.0721 89.1664 71.2852 89.9587 71.2852 90.927C71.2852 91.8979 72.0721 92.6902 73.0457 92.6902C74.0167 92.6902 74.8062 91.8979 74.8062 90.927" stroke="#FF0000"/>
<path fill-rule="evenodd" clip-rule="evenodd" d="M74.8062 73.2953C74.8062 72.3217 74.0167 71.5321 73.0457 71.5321C72.0721 71.5321 71.2852 72.3217 71.2852 73.2953C71.2852 74.2636 72.0721 75.0532 73.0457 75.0532C74.0167 75.0532 74.8062 74.2636 74.8062 73.2953Z" fill="#FF0000"/>
<path d="M74.8062 73.2953C74.8062 72.3217 74.0167 71.5321 73.0457 71.5321C72.0721 71.5321 71.2852 72.3217 71.2852 73.2953C71.2852 74.2636 72.0721 75.0532 73.0457 75.0532C74.0167 75.0532 74.8062 74.2636 74.8062 73.2953" stroke="#FF0000"/>
<path fill-rule="evenodd" clip-rule="evenodd" d="M74.8062 55.66C74.8062 54.689 74.0167 53.8995 73.0457 53.8995C72.0721 53.8995 71.2852 54.689 71.2852 55.66C71.2852 56.631 72.0721 57.4205 73.0457 57.4205C74.0167 57.4205 74.8062 56.631 74.8062 55.66Z" fill="#FF0000"/>
<path d="M74.8062 55.66C74.8062 54.689 74.0167 53.8995 73.0457 53.8995C72.0721 53.8995 71.2852 54.689 71.2852 55.66C71.2852 56.631 72.0721 57.4205 73.0457 57.4205C74.0167 57.4205 74.8062 56.631 74.8062 55.66" stroke="#FF0000"/>
<path fill-rule="evenodd" clip-rule="evenodd" d="M74.8062 38.0302C74.8062 37.0592 74.0167 36.2697 73.0457 36.2697C72.0721 36.2697 71.2852 37.0592 71.2852 38.0302C71.2852 38.9985 72.0721 39.7907 73.0457 39.7907C74.0167 39.7907 74.8062 38.9985 74.8062 38.0302Z" fill="#FF0000"/>
<path d="M74.8062 38.0302C74.8062 37.0592 74.0167 36.2697 73.0457 36.2697C72.0721 36.2697 71.2852 37.0592 71.2852 38.0302C71.2852 38.9985 72.0721 39.7907 73.0457 39.7907C74.0167 39.7907 74.8062 38.9985 74.8062 38.0302" stroke="#FF0000"/>
<path fill-rule="evenodd" clip-rule="evenodd" d="M74.8062 20.3934C74.8062 19.4251 74.0167 18.6355 73.0457 18.6355C72.0721 18.6355 71.2852 19.4251 71.2852 20.3934C71.2852 21.3644 72.0721 22.1566 73.0457 22.1566C74.0167 22.1566 74.8062 21.3644 74.8062 20.3934Z" fill="#FF0000"/>
<path d="M74.8062 20.3934C74.8062 19.4251 74.0167 18.6355 73.0457 18.6355C72.0721 18.6355 71.2852 19.4251 71.2852 20.3934C71.2852 21.3644 72.0721 22.1566 73.0457 22.1566C74.0167 22.1566 74.8062 21.3644 74.8062 20.3934" stroke="#FF0000"/>
<path fill-rule="evenodd" clip-rule="evenodd" d="M74.8062 2.76055C74.8062 1.78959 74.0167 1.00002 73.0457 1.00002C72.0721 1.00002 71.2852 1.78959 71.2852 2.76055C71.2852 3.73151 72.0721 4.52109 73.0457 4.52109C74.0167 4.52109 74.8062 3.73151 74.8062 2.76055Z" fill="#FF0000"/>
<path d="M74.8062 2.76055C74.8062 1.78959 74.0167 1.00002 73.0457 1.00002C72.0721 1.00002 71.2852 1.78959 71.2852 2.76055C71.2852 3.73151 72.0721 4.52109 73.0457 4.52109C74.0167 4.52109 74.8062 3.73151 74.8062 2.76055" stroke="#FF0000"/>
<path fill-rule="evenodd" clip-rule="evenodd" d="M92.4351 90.927C92.4351 89.9587 91.6482 89.1664 90.6746 89.1664C89.7063 89.1664 88.9141 89.9587 88.9141 90.927C88.9141 91.8979 89.7063 92.6902 90.6746 92.6902C91.6482 92.6902 92.4351 91.8979 92.4351 90.927Z" fill="#FF0000"/>
<path d="M92.4351 90.927C92.4351 89.9587 91.6482 89.1664 90.6746 89.1664C89.7063 89.1664 88.9141 89.9587 88.9141 90.927C88.9141 91.8979 89.7063 92.6902 90.6746 92.6902C91.6482 92.6902 92.4351 91.8979 92.4351 90.927" stroke="#FF0000"/>
<path fill-rule="evenodd" clip-rule="evenodd" d="M92.4351 73.2953C92.4351 72.3217 91.6482 71.5321 90.6746 71.5321C89.7063 71.5321 88.9141 72.3217 88.9141 73.2953C88.9141 74.2636 89.7063 75.0532 90.6746 75.0532C91.6482 75.0532 92.4351 74.2636 92.4351 73.2953Z" fill="#FF0000"/>
<path d="M92.4351 73.2953C92.4351 72.3217 91.6482 71.5321 90.6746 71.5321C89.7063 71.5321 88.9141 72.3217 88.9141 73.2953C88.9141 74.2636 89.7063 75.0532 90.6746 75.0532C91.6482 75.0532 92.4351 74.2636 92.4351 73.2953" stroke="#FF0000"/>
<path fill-rule="evenodd" clip-rule="evenodd" d="M92.4351 55.66C92.4351 54.689 91.6482 53.8995 90.6746 53.8995C89.7063 53.8995 88.9141 54.689 88.9141 55.66C88.9141 56.631 89.7063 57.4205 90.6746 57.4205C91.6482 57.4205 92.4351 56.631 92.4351 55.66Z" fill="#FF0000"/>
<path d="M92.4351 55.66C92.4351 54.689 91.6482 53.8995 90.6746 53.8995C89.7063 53.8995 88.9141 54.689 88.9141 55.66C88.9141 56.631 89.7063 57.4205 90.6746 57.4205C91.6482 57.4205 92.4351 56.631 92.4351 55.66" stroke="#FF0000"/>
<path fill-rule="evenodd" clip-rule="evenodd" d="M92.4351 38.0302C92.4351 37.0592 91.6482 36.2697 90.6746 36.2697C89.7063 36.2697 88.9141 37.0592 88.9141 38.0302C88.9141 38.9985 89.7063 39.7907 90.6746 39.7907C91.6482 39.7907 92.4351 38.9985 92.4351 38.0302Z" fill="#FF0000"/>
<path d="M92.4351 38.0302C92.4351 37.0592 91.6482 36.2697 90.6746 36.2697C89.7063 36.2697 88.9141 37.0592 88.9141 38.0302C88.9141 38.9985 89.7063 39.7907 90.6746 39.7907C91.6482 39.7907 92.4351 38.9985 92.4351 38.0302" stroke="#FF0000"/>
<path fill-rule="evenodd" clip-rule="evenodd" d="M92.4351 20.3934C92.4351 19.4251 91.6482 18.6355 90.6746 18.6355C89.7063 18.6355 88.9141 19.4251 88.9141 20.3934C88.9141 21.3644 89.7063 22.1566 90.6746 22.1566C91.6482 22.1566 92.4351 21.3644 92.4351 20.3934Z" fill="#FF0000"/>
<path d="M92.4351 20.3934C92.4351 19.4251 91.6482 18.6355 90.6746 18.6355C89.7063 18.6355 88.9141 19.4251 88.9141 20.3934C88.9141 21.3644 89.7063 22.1566 90.6746 22.1566C91.6482 22.1566 92.4351 21.3644 92.4351 20.3934" stroke="#FF0000"/>
<path fill-rule="evenodd" clip-rule="evenodd" d="M92.4351 2.76055C92.4351 1.78959 91.6482 1.00002 90.6746 1.00002C89.7063 1.00002 88.9141 1.78959 88.9141 2.76055C88.9141 3.73151 89.7063 4.52109 90.6746 4.52109C91.6482 4.52109 92.4351 3.73151 92.4351 2.76055Z" fill="#FF0000"/>
<path d="M92.4351 2.76055C92.4351 1.78959 91.6482 1.00002 90.6746 1.00002C89.7063 1.00002 88.9141 1.78959 88.9141 2.76055C88.9141 3.73151 89.7063 4.52109 90.6746 4.52109C91.6482 4.52109 92.4351 3.73151 92.4351 2.76055" stroke="#FF0000"/>
<path fill-rule="evenodd" clip-rule="evenodd" d="M110.068 90.927C110.068 89.9587 109.281 89.1664 108.307 89.1664C107.334 89.1664 106.547 89.9587 106.547 90.927C106.547 91.8979 107.334 92.6902 108.307 92.6902C109.281 92.6902 110.068 91.8979 110.068 90.927Z" fill="#FF0000"/>
<path d="M110.068 90.927C110.068 89.9587 109.281 89.1664 108.307 89.1664C107.334 89.1664 106.547 89.9587 106.547 90.927C106.547 91.8979 107.334 92.6902 108.307 92.6902C109.281 92.6902 110.068 91.8979 110.068 90.927" stroke="#FF0000"/>
<path fill-rule="evenodd" clip-rule="evenodd" d="M110.068 73.2953C110.068 72.3217 109.281 71.5321 108.307 71.5321C107.334 71.5321 106.547 72.3217 106.547 73.2953C106.547 74.2636 107.334 75.0532 108.307 75.0532C109.281 75.0532 110.068 74.2636 110.068 73.2953Z" fill="#FF0000"/>
<path d="M110.068 73.2953C110.068 72.3217 109.281 71.5321 108.307 71.5321C107.334 71.5321 106.547 72.3217 106.547 73.2953C106.547 74.2636 107.334 75.0532 108.307 75.0532C109.281 75.0532 110.068 74.2636 110.068 73.2953" stroke="#FF0000"/>
<path fill-rule="evenodd" clip-rule="evenodd" d="M110.068 55.66C110.068 54.689 109.281 53.8995 108.307 53.8995C107.334 53.8995 106.547 54.689 106.547 55.66C106.547 56.631 107.334 57.4205 108.307 57.4205C109.281 57.4205 110.068 56.631 110.068 55.66Z" fill="#FF0000"/>
<path d="M110.068 55.66C110.068 54.689 109.281 53.8995 108.307 53.8995C107.334 53.8995 106.547 54.689 106.547 55.66C106.547 56.631 107.334 57.4205 108.307 57.4205C109.281 57.4205 110.068 56.631 110.068 55.66" stroke="#FF0000"/>
<path fill-rule="evenodd" clip-rule="evenodd" d="M110.068 38.0302C110.068 37.0592 109.281 36.2697 108.307 36.2697C107.334 36.2697 106.547 37.0592 106.547 38.0302C106.547 38.9985 107.334 39.7907 108.307 39.7907C109.281 39.7907 110.068 38.9985 110.068 38.0302Z" fill="#FF0000"/>
<path d="M110.068 38.0302C110.068 37.0592 109.281 36.2697 108.307 36.2697C107.334 36.2697 106.547 37.0592 106.547 38.0302C106.547 38.9985 107.334 39.7907 108.307 39.7907C109.281 39.7907 110.068 38.9985 110.068 38.0302" stroke="#FF0000"/>
<path fill-rule="evenodd" clip-rule="evenodd" d="M110.068 20.3934C110.068 19.4251 109.281 18.6355 108.307 18.6355C107.334 18.6355 106.547 19.4251 106.547 20.3934C106.547 21.3644 107.334 22.1566 108.307 22.1566C109.281 22.1566 110.068 21.3644 110.068 20.3934Z" fill="#FF0000"/>
<path d="M110.068 20.3934C110.068 19.4251 109.281 18.6355 108.307 18.6355C107.334 18.6355 106.547 19.4251 106.547 20.3934C106.547 21.3644 107.334 22.1566 108.307 22.1566C109.281 22.1566 110.068 21.3644 110.068 20.3934" stroke="#FF0000"/>
<path fill-rule="evenodd" clip-rule="evenodd" d="M110.068 2.76055C110.068 1.78959 109.281 1.00002 108.307 1.00002C107.334 1.00002 106.547 1.78959 106.547 2.76055C106.547 3.73151 107.334 4.52109 108.307 4.52109C109.281 4.52109 110.068 3.73151 110.068 2.76055Z" fill="#FF0000"/>
<path d="M110.068 2.76055C110.068 1.78959 109.281 1.00002 108.307 1.00002C107.334 1.00002 106.547 1.78959 106.547 2.76055C106.547 3.73151 107.334 4.52109 108.307 4.52109C109.281 4.52109 110.068 3.73151 110.068 2.76055" stroke="#FF0000"/>
<path fill-rule="evenodd" clip-rule="evenodd" d="M130.013 90.927C130.013 89.9587 129.226 89.1664 128.253 89.1664C127.282 89.1664 126.492 89.9587 126.492 90.927C126.492 91.8979 127.282 92.6902 128.253 92.6902C129.226 92.6902 130.013 91.8979 130.013 90.927Z" fill="#FF0000"/>
<path d="M130.013 90.927C130.013 89.9587 129.226 89.1664 128.253 89.1664C127.282 89.1664 126.492 89.9587 126.492 90.927C126.492 91.8979 127.282 92.6902 128.253 92.6902C129.226 92.6902 130.013 91.8979 130.013 90.927" stroke="#FF0000"/>
<path fill-rule="evenodd" clip-rule="evenodd" d="M130.013 73.2953C130.013 72.3217 129.226 71.5321 128.253 71.5321C127.282 71.5321 126.492 72.3217 126.492 73.2953C126.492 74.2636 127.282 75.0532 128.253 75.0532C129.226 75.0532 130.013 74.2636 130.013 73.2953Z" fill="#FF0000"/>
<path d="M130.013 73.2953C130.013 72.3217 129.226 71.5321 128.253 71.5321C127.282 71.5321 126.492 72.3217 126.492 73.2953C126.492 74.2636 127.282 75.0532 128.253 75.0532C129.226 75.0532 130.013 74.2636 130.013 73.2953" stroke="#FF0000"/>
<path fill-rule="evenodd" clip-rule="evenodd" d="M130.013 55.66C130.013 54.689 129.226 53.8995 128.253 53.8995C127.282 53.8995 126.492 54.689 126.492 55.66C126.492 56.631 127.282 57.4205 128.253 57.4205C129.226 57.4205 130.013 56.631 130.013 55.66Z" fill="#FF0000"/>
<path d="M130.013 55.66C130.013 54.689 129.226 53.8995 128.253 53.8995C127.282 53.8995 126.492 54.689 126.492 55.66C126.492 56.631 127.282 57.4205 128.253 57.4205C129.226 57.4205 130.013 56.631 130.013 55.66" stroke="#FF0000"/>
<path fill-rule="evenodd" clip-rule="evenodd" d="M130.013 38.0302C130.013 37.0592 129.226 36.2697 128.253 36.2697C127.282 36.2697 126.492 37.0592 126.492 38.0302C126.492 38.9985 127.282 39.7907 128.253 39.7907C129.226 39.7907 130.013 38.9985 130.013 38.0302Z" fill="#FF0000"/>
<path d="M130.013 38.0302C130.013 37.0592 129.226 36.2697 128.253 36.2697C127.282 36.2697 126.492 37.0592 126.492 38.0302C126.492 38.9985 127.282 39.7907 128.253 39.7907C129.226 39.7907 130.013 38.9985 130.013 38.0302" stroke="#FF0000"/>
<path fill-rule="evenodd" clip-rule="evenodd" d="M130.013 20.3934C130.013 19.4251 129.226 18.6355 128.253 18.6355C127.282 18.6355 126.492 19.4251 126.492 20.3934C126.492 21.3644 127.282 22.1566 128.253 22.1566C129.226 22.1566 130.013 21.3644 130.013 20.3934Z" fill="#FF0000"/>
<path d="M130.013 20.3934C130.013 19.4251 129.226 18.6355 128.253 18.6355C127.282 18.6355 126.492 19.4251 126.492 20.3934C126.492 21.3644 127.282 22.1566 128.253 22.1566C129.226 22.1566 130.013 21.3644 130.013 20.3934" stroke="#FF0000"/>
<path fill-rule="evenodd" clip-rule="evenodd" d="M130.013 2.76055C130.013 1.78959 129.226 1.00002 128.253 1.00002C127.282 1.00002 126.492 1.78959 126.492 2.76055C126.492 3.73151 127.282 4.52109 128.253 4.52109C129.226 4.52109 130.013 3.73151 130.013 2.76055Z" fill="#FF0000"/>
<path d="M130.013 2.76055C130.013 1.78959 129.226 1.00002 128.253 1.00002C127.282 1.00002 126.492 1.78959 126.492 2.76055C126.492 3.73151 127.282 4.52109 128.253 4.52109C129.226 4.52109 130.013 3.73151 130.013 2.76055" stroke="#FF0000"/>
<path fill-rule="evenodd" clip-rule="evenodd" d="M147.646 90.927C147.646 89.9587 146.859 89.1664 145.886 89.1664C144.912 89.1664 144.125 89.9587 144.125 90.927C144.125 91.8979 144.912 92.6902 145.886 92.6902C146.859 92.6902 147.646 91.8979 147.646 90.927Z" fill="#FF0000"/>
<path d="M147.646 90.927C147.646 89.9587 146.859 89.1664 145.886 89.1664C144.912 89.1664 144.125 89.9587 144.125 90.927C144.125 91.8979 144.912 92.6902 145.886 92.6902C146.859 92.6902 147.646 91.8979 147.646 90.927" stroke="#FF0000"/>
<path fill-rule="evenodd" clip-rule="evenodd" d="M147.646 73.2953C147.646 72.3217 146.859 71.5321 145.886 71.5321C144.912 71.5321 144.125 72.3217 144.125 73.2953C144.125 74.2636 144.912 75.0532 145.886 75.0532C146.859 75.0532 147.646 74.2636 147.646 73.2953Z" fill="#FF0000"/>
<path d="M147.646 73.2953C147.646 72.3217 146.859 71.5321 145.886 71.5321C144.912 71.5321 144.125 72.3217 144.125 73.2953C144.125 74.2636 144.912 75.0532 145.886 75.0532C146.859 75.0532 147.646 74.2636 147.646 73.2953" stroke="#FF0000"/>
<path fill-rule="evenodd" clip-rule="evenodd" d="M147.646 55.66C147.646 54.689 146.859 53.8995 145.886 53.8995C144.912 53.8995 144.125 54.689 144.125 55.66C144.125 56.631 144.912 57.4205 145.886 57.4205C146.859 57.4205 147.646 56.631 147.646 55.66Z" fill="#FF0000"/>
<path d="M147.646 55.66C147.646 54.689 146.859 53.8995 145.886 53.8995C144.912 53.8995 144.125 54.689 144.125 55.66C144.125 56.631 144.912 57.4205 145.886 57.4205C146.859 57.4205 147.646 56.631 147.646 55.66" stroke="#FF0000"/>
<path fill-rule="evenodd" clip-rule="evenodd" d="M147.646 38.0302C147.646 37.0592 146.859 36.2697 145.886 36.2697C144.912 36.2697 144.125 37.0592 144.125 38.0302C144.125 38.9985 144.912 39.7907 145.886 39.7907C146.859 39.7907 147.646 38.9985 147.646 38.0302Z" fill="#FF0000"/>
<path d="M147.646 38.0302C147.646 37.0592 146.859 36.2697 145.886 36.2697C144.912 36.2697 144.125 37.0592 144.125 38.0302C144.125 38.9985 144.912 39.7907 145.886 39.7907C146.859 39.7907 147.646 38.9985 147.646 38.0302" stroke="#FF0000"/>
<path fill-rule="evenodd" clip-rule="evenodd" d="M147.646 20.3934C147.646 19.4251 146.859 18.6355 145.886 18.6355C144.912 18.6355 144.125 19.4251 144.125 20.3934C144.125 21.3644 144.912 22.1566 145.886 22.1566C146.859 22.1566 147.646 21.3644 147.646 20.3934Z" fill="#FF0000"/>
<path d="M147.646 20.3934C147.646 19.4251 146.859 18.6355 145.886 18.6355C144.912 18.6355 144.125 19.4251 144.125 20.3934C144.125 21.3644 144.912 22.1566 145.886 22.1566C146.859 22.1566 147.646 21.3644 147.646 20.3934" stroke="#FF0000"/>
<path fill-rule="evenodd" clip-rule="evenodd" d="M147.646 2.76055C147.646 1.78959 146.859 1.00002 145.886 1.00002C144.912 1.00002 144.125 1.78959 144.125 2.76055C144.125 3.73151 144.912 4.52109 145.886 4.52109C146.859 4.52109 147.646 3.73151 147.646 2.76055Z" fill="#FF0000"/>
<path d="M147.646 2.76055C147.646 1.78959 146.859 1.00002 145.886 1.00002C144.912 1.00002 144.125 1.78959 144.125 2.76055C144.125 3.73151 144.912 4.52109 145.886 4.52109C146.859 4.52109 147.646 3.73151 147.646 2.76055" stroke="#FF0000"/>
<path fill-rule="evenodd" clip-rule="evenodd" d="M165.283 90.927C165.283 89.9587 164.493 89.1664 163.522 89.1664C162.551 89.1664 161.762 89.9587 161.762 90.927C161.762 91.8979 162.551 92.6902 163.522 92.6902C164.493 92.6902 165.283 91.8979 165.283 90.927Z" fill="#FF0000"/>
<path d="M165.283 90.927C165.283 89.9587 164.493 89.1664 163.522 89.1664C162.551 89.1664 161.762 89.9587 161.762 90.927C161.762 91.8979 162.551 92.6902 163.522 92.6902C164.493 92.6902 165.283 91.8979 165.283 90.927" stroke="#FF0000"/>
<path fill-rule="evenodd" clip-rule="evenodd" d="M165.283 73.2953C165.283 72.3217 164.493 71.5321 163.522 71.5321C162.551 71.5321 161.762 72.3217 161.762 73.2953C161.762 74.2636 162.551 75.0532 163.522 75.0532C164.493 75.0532 165.283 74.2636 165.283 73.2953Z" fill="#FF0000"/>
<path d="M165.283 73.2953C165.283 72.3217 164.493 71.5321 163.522 71.5321C162.551 71.5321 161.762 72.3217 161.762 73.2953C161.762 74.2636 162.551 75.0532 163.522 75.0532C164.493 75.0532 165.283 74.2636 165.283 73.2953" stroke="#FF0000"/>
<path fill-rule="evenodd" clip-rule="evenodd" d="M165.283 55.66C165.283 54.689 164.493 53.8995 163.522 53.8995C162.551 53.8995 161.762 54.689 161.762 55.66C161.762 56.631 162.551 57.4205 163.522 57.4205C164.493 57.4205 165.283 56.631 165.283 55.66Z" fill="#FF0000"/>
<path d="M165.283 55.66C165.283 54.689 164.493 53.8995 163.522 53.8995C162.551 53.8995 161.762 54.689 161.762 55.66C161.762 56.631 162.551 57.4205 163.522 57.4205C164.493 57.4205 165.283 56.631 165.283 55.66" stroke="#FF0000"/>
<path fill-rule="evenodd" clip-rule="evenodd" d="M165.283 38.0302C165.283 37.0592 164.493 36.2697 163.522 36.2697C162.551 36.2697 161.762 37.0592 161.762 38.0302C161.762 38.9985 162.551 39.7907 163.522 39.7907C164.493 39.7907 165.283 38.9985 165.283 38.0302Z" fill="#FF0000"/>
<path d="M165.283 38.0302C165.283 37.0592 164.493 36.2697 163.522 36.2697C162.551 36.2697 161.762 37.0592 161.762 38.0302C161.762 38.9985 162.551 39.7907 163.522 39.7907C164.493 39.7907 165.283 38.9985 165.283 38.0302" stroke="#FF0000"/>
<path fill-rule="evenodd" clip-rule="evenodd" d="M165.283 20.3934C165.283 19.4251 164.493 18.6355 163.522 18.6355C162.551 18.6355 161.762 19.4251 161.762 20.3934C161.762 21.3644 162.551 22.1566 163.522 22.1566C164.493 22.1566 165.283 21.3644 165.283 20.3934Z" fill="#FF0000"/>
<path d="M165.283 20.3934C165.283 19.4251 164.493 18.6355 163.522 18.6355C162.551 18.6355 161.762 19.4251 161.762 20.3934C161.762 21.3644 162.551 22.1566 163.522 22.1566C164.493 22.1566 165.283 21.3644 165.283 20.3934" stroke="#FF0000"/>
<path fill-rule="evenodd" clip-rule="evenodd" d="M165.283 2.76055C165.283 1.78959 164.493 1.00002 163.522 1.00002C162.551 1.00002 161.762 1.78959 161.762 2.76055C161.762 3.73151 162.551 4.52109 163.522 4.52109C164.493 4.52109 165.283 3.73151 165.283 2.76055Z" fill="#FF0000"/>
<path d="M165.283 2.76055C165.283 1.78959 164.493 1.00002 163.522 1.00002C162.551 1.00002 161.762 1.78959 161.762 2.76055C161.762 3.73151 162.551 4.52109 163.522 4.52109C164.493 4.52109 165.283 3.73151 165.283 2.76055" stroke="#FF0000"/>
<path fill-rule="evenodd" clip-rule="evenodd" d="M182.912 90.927C182.912 89.9587 182.125 89.1664 181.151 89.1664C180.178 89.1664 179.391 89.9587 179.391 90.927C179.391 91.8979 180.178 92.6902 181.151 92.6902C182.125 92.6902 182.912 91.8979 182.912 90.927Z" fill="#FF0000"/>
<path d="M182.912 90.927C182.912 89.9587 182.125 89.1664 181.151 89.1664C180.178 89.1664 179.391 89.9587 179.391 90.927C179.391 91.8979 180.178 92.6902 181.151 92.6902C182.125 92.6902 182.912 91.8979 182.912 90.927" stroke="#FF0000"/>
<path fill-rule="evenodd" clip-rule="evenodd" d="M182.912 73.2953C182.912 72.3217 182.125 71.5321 181.151 71.5321C180.178 71.5321 179.391 72.3217 179.391 73.2953C179.391 74.2636 180.178 75.0532 181.151 75.0532C182.125 75.0532 182.912 74.2636 182.912 73.2953Z" fill="#FF0000"/>
<path d="M182.912 73.2953C182.912 72.3217 182.125 71.5321 181.151 71.5321C180.178 71.5321 179.391 72.3217 179.391 73.2953C179.391 74.2636 180.178 75.0532 181.151 75.0532C182.125 75.0532 182.912 74.2636 182.912 73.2953" stroke="#FF0000"/>
<path fill-rule="evenodd" clip-rule="evenodd" d="M182.912 55.66C182.912 54.689 182.125 53.8995 181.151 53.8995C180.178 53.8995 179.391 54.689 179.391 55.66C179.391 56.631 180.178 57.4205 181.151 57.4205C182.125 57.4205 182.912 56.631 182.912 55.66Z" fill="#FF0000"/>
<path d="M182.912 55.66C182.912 54.689 182.125 53.8995 181.151 53.8995C180.178 53.8995 179.391 54.689 179.391 55.66C179.391 56.631 180.178 57.4205 181.151 57.4205C182.125 57.4205 182.912 56.631 182.912 55.66" stroke="#FF0000"/>
<path fill-rule="evenodd" clip-rule="evenodd" d="M182.912 38.0302C182.912 37.0592 182.125 36.2697 181.151 36.2697C180.178 36.2697 179.391 37.0592 179.391 38.0302C179.391 38.9985 180.178 39.7907 181.151 39.7907C182.125 39.7907 182.912 38.9985 182.912 38.0302Z" fill="#FF0000"/>
<path d="M182.912 38.0302C182.912 37.0592 182.125 36.2697 181.151 36.2697C180.178 36.2697 179.391 37.0592 179.391 38.0302C179.391 38.9985 180.178 39.7907 181.151 39.7907C182.125 39.7907 182.912 38.9985 182.912 38.0302" stroke="#FF0000"/>
<path fill-rule="evenodd" clip-rule="evenodd" d="M182.912 20.3934C182.912 19.4251 182.125 18.6355 181.151 18.6355C180.178 18.6355 179.391 19.4251 179.391 20.3934C179.391 21.3644 180.178 22.1566 181.151 22.1566C182.125 22.1566 182.912 21.3644 182.912 20.3934Z" fill="#FF0000"/>
<path d="M182.912 20.3934C182.912 19.4251 182.125 18.6355 181.151 18.6355C180.178 18.6355 179.391 19.4251 179.391 20.3934C179.391 21.3644 180.178 22.1566 181.151 22.1566C182.125 22.1566 182.912 21.3644 182.912 20.3934" stroke="#FF0000"/>
<path fill-rule="evenodd" clip-rule="evenodd" d="M182.912 2.76055C182.912 1.78959 182.125 1.00002 181.151 1.00002C180.178 1.00002 179.391 1.78959 179.391 2.76055C179.391 3.73151 180.178 4.52109 181.151 4.52109C182.125 4.52109 182.912 3.73151 182.912 2.76055Z" fill="#FF0000"/>
<path d="M182.912 2.76055C182.912 1.78959 182.125 1.00002 181.151 1.00002C180.178 1.00002 179.391 1.78959 179.391 2.76055C179.391 3.73151 180.178 4.52109 181.151 4.52109C182.125 4.52109 182.912 3.73151 182.912 2.76055" stroke="#FF0000"/>
<path fill-rule="evenodd" clip-rule="evenodd" d="M200.552 90.927C200.552 89.9587 199.763 89.1664 198.792 89.1664C197.818 89.1664 197.031 89.9587 197.031 90.927C197.031 91.8979 197.818 92.6902 198.792 92.6902C199.763 92.6902 200.552 91.8979 200.552 90.927Z" fill="#FF0000"/>
<path d="M200.552 90.927C200.552 89.9587 199.763 89.1664 198.792 89.1664C197.818 89.1664 197.031 89.9587 197.031 90.927C197.031 91.8979 197.818 92.6902 198.792 92.6902C199.763 92.6902 200.552 91.8979 200.552 90.927" stroke="#FF0000"/>
<path fill-rule="evenodd" clip-rule="evenodd" d="M200.552 73.2953C200.552 72.3217 199.763 71.5321 198.792 71.5321C197.818 71.5321 197.031 72.3217 197.031 73.2953C197.031 74.2636 197.818 75.0532 198.792 75.0532C199.763 75.0532 200.552 74.2636 200.552 73.2953Z" fill="#FF0000"/>
<path d="M200.552 73.2953C200.552 72.3217 199.763 71.5321 198.792 71.5321C197.818 71.5321 197.031 72.3217 197.031 73.2953C197.031 74.2636 197.818 75.0532 198.792 75.0532C199.763 75.0532 200.552 74.2636 200.552 73.2953" stroke="#FF0000"/>
<path fill-rule="evenodd" clip-rule="evenodd" d="M200.552 55.66C200.552 54.689 199.763 53.8995 198.792 53.8995C197.818 53.8995 197.031 54.689 197.031 55.66C197.031 56.631 197.818 57.4205 198.792 57.4205C199.763 57.4205 200.552 56.631 200.552 55.66Z" fill="#FF0000"/>
<path d="M200.552 55.66C200.552 54.689 199.763 53.8995 198.792 53.8995C197.818 53.8995 197.031 54.689 197.031 55.66C197.031 56.631 197.818 57.4205 198.792 57.4205C199.763 57.4205 200.552 56.631 200.552 55.66" stroke="#FF0000"/>
<path fill-rule="evenodd" clip-rule="evenodd" d="M200.552 38.0302C200.552 37.0592 199.763 36.2697 198.792 36.2697C197.818 36.2697 197.031 37.0592 197.031 38.0302C197.031 38.9985 197.818 39.7907 198.792 39.7907C199.763 39.7907 200.552 38.9985 200.552 38.0302Z" fill="#FF0000"/>
<path d="M200.552 38.0302C200.552 37.0592 199.763 36.2697 198.792 36.2697C197.818 36.2697 197.031 37.0592 197.031 38.0302C197.031 38.9985 197.818 39.7907 198.792 39.7907C199.763 39.7907 200.552 38.9985 200.552 38.0302" stroke="#FF0000"/>
<path fill-rule="evenodd" clip-rule="evenodd" d="M200.552 20.3934C200.552 19.4251 199.763 18.6355 198.792 18.6355C197.818 18.6355 197.031 19.4251 197.031 20.3934C197.031 21.3644 197.818 22.1566 198.792 22.1566C199.763 22.1566 200.552 21.3644 200.552 20.3934Z" fill="#FF0000"/>
<path d="M200.552 20.3934C200.552 19.4251 199.763 18.6355 198.792 18.6355C197.818 18.6355 197.031 19.4251 197.031 20.3934C197.031 21.3644 197.818 22.1566 198.792 22.1566C199.763 22.1566 200.552 21.3644 200.552 20.3934" stroke="#FF0000"/>
<path fill-rule="evenodd" clip-rule="evenodd" d="M200.552 2.76055C200.552 1.78959 199.763 1.00002 198.792 1.00002C197.818 1.00002 197.031 1.78959 197.031 2.76055C197.031 3.73151 197.818 4.52109 198.792 4.52109C199.763 4.52109 200.552 3.73151 200.552 2.76055Z" fill="#FF0000"/>
<path d="M200.552 2.76055C200.552 1.78959 199.763 1.00002 198.792 1.00002C197.818 1.00002 197.031 1.78959 197.031 2.76055C197.031 3.73151 197.818 4.52109 198.792 4.52109C199.763 4.52109 200.552 3.73151 200.552 2.76055" stroke="#FF0000"/>
<path fill-rule="evenodd" clip-rule="evenodd" d="M218.181 90.927C218.181 89.9587 217.394 89.1664 216.421 89.1664C215.452 89.1664 214.66 89.9587 214.66 90.927C214.66 91.8979 215.452 92.6902 216.421 92.6902C217.394 92.6902 218.181 91.8979 218.181 90.927Z" fill="#FF0000"/>
<path d="M218.181 90.927C218.181 89.9587 217.394 89.1664 216.421 89.1664C215.452 89.1664 214.66 89.9587 214.66 90.927C214.66 91.8979 215.452 92.6902 216.421 92.6902C217.394 92.6902 218.181 91.8979 218.181 90.927" stroke="#FF0000"/>
<path fill-rule="evenodd" clip-rule="evenodd" d="M218.181 73.2953C218.181 72.3217 217.394 71.5321 216.421 71.5321C215.452 71.5321 214.66 72.3217 214.66 73.2953C214.66 74.2636 215.452 75.0532 216.421 75.0532C217.394 75.0532 218.181 74.2636 218.181 73.2953Z" fill="#FF0000"/>
<path d="M218.181 73.2953C218.181 72.3217 217.394 71.5321 216.421 71.5321C215.452 71.5321 214.66 72.3217 214.66 73.2953C214.66 74.2636 215.452 75.0532 216.421 75.0532C217.394 75.0532 218.181 74.2636 218.181 73.2953" stroke="#FF0000"/>
<path fill-rule="evenodd" clip-rule="evenodd" d="M218.181 55.66C218.181 54.689 217.394 53.8995 216.421 53.8995C215.452 53.8995 214.66 54.689 214.66 55.66C214.66 56.631 215.452 57.4205 216.421 57.4205C217.394 57.4205 218.181 56.631 218.181 55.66Z" fill="#FF0000"/>
<path d="M218.181 55.66C218.181 54.689 217.394 53.8995 216.421 53.8995C215.452 53.8995 214.66 54.689 214.66 55.66C214.66 56.631 215.452 57.4205 216.421 57.4205C217.394 57.4205 218.181 56.631 218.181 55.66" stroke="#FF0000"/>
<path fill-rule="evenodd" clip-rule="evenodd" d="M218.181 38.0302C218.181 37.0592 217.394 36.2697 216.421 36.2697C215.452 36.2697 214.66 37.0592 214.66 38.0302C214.66 38.9985 215.452 39.7907 216.421 39.7907C217.394 39.7907 218.181 38.9985 218.181 38.0302Z" fill="#FF0000"/>
<path d="M218.181 38.0302C218.181 37.0592 217.394 36.2697 216.421 36.2697C215.452 36.2697 214.66 37.0592 214.66 38.0302C214.66 38.9985 215.452 39.7907 216.421 39.7907C217.394 39.7907 218.181 38.9985 218.181 38.0302" stroke="#FF0000"/>
<path fill-rule="evenodd" clip-rule="evenodd" d="M218.181 20.3934C218.181 19.4251 217.394 18.6355 216.421 18.6355C215.452 18.6355 214.66 19.4251 214.66 20.3934C214.66 21.3644 215.452 22.1566 216.421 22.1566C217.394 22.1566 218.181 21.3644 218.181 20.3934Z" fill="#FF0000"/>
<path d="M218.181 20.3934C218.181 19.4251 217.394 18.6355 216.421 18.6355C215.452 18.6355 214.66 19.4251 214.66 20.3934C214.66 21.3644 215.452 22.1566 216.421 22.1566C217.394 22.1566 218.181 21.3644 218.181 20.3934" stroke="#FF0000"/>
<path fill-rule="evenodd" clip-rule="evenodd" d="M218.181 2.76055C218.181 1.78959 217.394 1.00002 216.421 1.00002C215.452 1.00002 214.66 1.78959 214.66 2.76055C214.66 3.73151 215.452 4.52109 216.421 4.52109C217.394 4.52109 218.181 3.73151 218.181 2.76055Z" fill="#FF0000"/>
<path d="M218.181 2.76055C218.181 1.78959 217.394 1.00002 216.421 1.00002C215.452 1.00002 214.66 1.78959 214.66 2.76055C214.66 3.73151 215.452 4.52109 216.421 4.52109C217.394 4.52109 218.181 3.73151 218.181 2.76055" stroke="#FF0000"/>
<path fill-rule="evenodd" clip-rule="evenodd" d="M235.814 90.927C235.814 89.9587 235.027 89.1664 234.054 89.1664C233.08 89.1664 232.293 89.9587 232.293 90.927C232.293 91.8979 233.08 92.6902 234.054 92.6902C235.027 92.6902 235.814 91.8979 235.814 90.927Z" fill="#FF0000"/>
<path d="M235.814 90.927C235.814 89.9587 235.027 89.1664 234.054 89.1664C233.08 89.1664 232.293 89.9587 232.293 90.927C232.293 91.8979 233.08 92.6902 234.054 92.6902C235.027 92.6902 235.814 91.8979 235.814 90.927" stroke="#FF0000"/>
<path fill-rule="evenodd" clip-rule="evenodd" d="M235.814 73.2953C235.814 72.3217 235.027 71.5321 234.054 71.5321C233.08 71.5321 232.293 72.3217 232.293 73.2953C232.293 74.2636 233.08 75.0532 234.054 75.0532C235.027 75.0532 235.814 74.2636 235.814 73.2953Z" fill="#FF0000"/>
<path d="M235.814 73.2953C235.814 72.3217 235.027 71.5321 234.054 71.5321C233.08 71.5321 232.293 72.3217 232.293 73.2953C232.293 74.2636 233.08 75.0532 234.054 75.0532C235.027 75.0532 235.814 74.2636 235.814 73.2953" stroke="#FF0000"/>
<path fill-rule="evenodd" clip-rule="evenodd" d="M235.814 55.66C235.814 54.689 235.027 53.8995 234.054 53.8995C233.08 53.8995 232.293 54.689 232.293 55.66C232.293 56.631 233.08 57.4205 234.054 57.4205C235.027 57.4205 235.814 56.631 235.814 55.66Z" fill="#FF0000"/>
<path d="M235.814 55.66C235.814 54.689 235.027 53.8995 234.054 53.8995C233.08 53.8995 232.293 54.689 232.293 55.66C232.293 56.631 233.08 57.4205 234.054 57.4205C235.027 57.4205 235.814 56.631 235.814 55.66" stroke="#FF0000"/>
<path fill-rule="evenodd" clip-rule="evenodd" d="M235.814 38.0302C235.814 37.0592 235.027 36.2697 234.054 36.2697C233.08 36.2697 232.293 37.0592 232.293 38.0302C232.293 38.9985 233.08 39.7907 234.054 39.7907C235.027 39.7907 235.814 38.9985 235.814 38.0302Z" fill="#FF0000"/>
<path d="M235.814 38.0302C235.814 37.0592 235.027 36.2697 234.054 36.2697C233.08 36.2697 232.293 37.0592 232.293 38.0302C232.293 38.9985 233.08 39.7907 234.054 39.7907C235.027 39.7907 235.814 38.9985 235.814 38.0302" stroke="#FF0000"/>
<path fill-rule="evenodd" clip-rule="evenodd" d="M235.814 20.3934C235.814 19.4251 235.027 18.6355 234.054 18.6355C233.08 18.6355 232.293 19.4251 232.293 20.3934C232.293 21.3644 233.08 22.1566 234.054 22.1566C235.027 22.1566 235.814 21.3644 235.814 20.3934Z" fill="#FF0000"/>
<path d="M235.814 20.3934C235.814 19.4251 235.027 18.6355 234.054 18.6355C233.08 18.6355 232.293 19.4251 232.293 20.3934C232.293 21.3644 233.08 22.1566 234.054 22.1566C235.027 22.1566 235.814 21.3644 235.814 20.3934" stroke="#FF0000"/>
<path fill-rule="evenodd" clip-rule="evenodd" d="M235.814 2.76055C235.814 1.78959 235.027 1.00002 234.054 1.00002C233.08 1.00002 232.293 1.78959 232.293 2.76055C232.293 3.73151 233.08 4.52109 234.054 4.52109C235.027 4.52109 235.814 3.73151 235.814 2.76055Z" fill="#FF0000"/>
<path d="M235.814 2.76055C235.814 1.78959 235.027 1.00002 234.054 1.00002C233.08 1.00002 232.293 1.78959 232.293 2.76055C232.293 3.73151 233.08 4.52109 234.054 4.52109C235.027 4.52109 235.814 3.73151 235.814 2.76055" stroke="#FF0000"/>
<path fill-rule="evenodd" clip-rule="evenodd" d="M254.455 92.2368C254.455 91.2685 253.668 90.4763 252.694 90.4763C251.723 90.4763 250.934 91.2685 250.934 92.2368C250.934 93.2078 251.723 94 252.694 94C253.668 94 254.455 93.2078 254.455 92.2368Z" fill="#FF0000"/>
<path d="M254.455 92.2368C254.455 91.2685 253.668 90.4763 252.694 90.4763C251.723 90.4763 250.934 91.2685 250.934 92.2368C250.934 93.2078 251.723 94 252.694 94C253.668 94 254.455 93.2078 254.455 92.2368" stroke="#FF0000"/>
<path fill-rule="evenodd" clip-rule="evenodd" d="M254.455 74.6052C254.455 73.6315 253.668 72.842 252.694 72.842C251.723 72.842 250.934 73.6315 250.934 74.6052C250.934 75.5735 251.723 76.363 252.694 76.363C253.668 76.363 254.455 75.5735 254.455 74.6052Z" fill="#FF0000"/>
<path d="M254.455 74.6052C254.455 73.6315 253.668 72.842 252.694 72.842C251.723 72.842 250.934 73.6315 250.934 74.6052C250.934 75.5735 251.723 76.363 252.694 76.363C253.668 76.363 254.455 75.5735 254.455 74.6052" stroke="#FF0000"/>
<path fill-rule="evenodd" clip-rule="evenodd" d="M254.455 56.9698C254.455 55.9989 253.668 55.2093 252.694 55.2093C251.723 55.2093 250.934 55.9989 250.934 56.9698C250.934 57.9408 251.723 58.7304 252.694 58.7304C253.668 58.7304 254.455 57.9408 254.455 56.9698Z" fill="#FF0000"/>
<path d="M254.455 56.9698C254.455 55.9989 253.668 55.2093 252.694 55.2093C251.723 55.2093 250.934 55.9989 250.934 56.9698C250.934 57.9408 251.723 58.7304 252.694 58.7304C253.668 58.7304 254.455 57.9408 254.455 56.9698" stroke="#FF0000"/>
<path fill-rule="evenodd" clip-rule="evenodd" d="M254.455 39.3401C254.455 38.3691 253.668 37.5795 252.694 37.5795C251.723 37.5795 250.934 38.3691 250.934 39.3401C250.934 40.3083 251.723 41.1006 252.694 41.1006C253.668 41.1006 254.455 40.3083 254.455 39.3401Z" fill="#FF0000"/>
<path d="M254.455 39.3401C254.455 38.3691 253.668 37.5795 252.694 37.5795C251.723 37.5795 250.934 38.3691 250.934 39.3401C250.934 40.3083 251.723 41.1006 252.694 41.1006C253.668 41.1006 254.455 40.3083 254.455 39.3401" stroke="#FF0000"/>
<path fill-rule="evenodd" clip-rule="evenodd" d="M254.455 21.7033C254.455 20.735 253.668 19.9454 252.694 19.9454C251.723 19.9454 250.934 20.735 250.934 21.7033C250.934 22.6742 251.723 23.4665 252.694 23.4665C253.668 23.4665 254.455 22.6742 254.455 21.7033Z" fill="#FF0000"/>
<path d="M254.455 21.7033C254.455 20.735 253.668 19.9454 252.694 19.9454C251.723 19.9454 250.934 20.735 250.934 21.7033C250.934 22.6742 251.723 23.4665 252.694 23.4665C253.668 23.4665 254.455 22.6742 254.455 21.7033" stroke="#FF0000"/>
<path fill-rule="evenodd" clip-rule="evenodd" d="M254.455 4.0704C254.455 3.09944 253.668 2.30986 252.694 2.30986C251.723 2.30986 250.934 3.09944 250.934 4.0704C250.934 5.04136 251.723 5.83093 252.694 5.83093C253.668 5.83093 254.455 5.04136 254.455 4.0704Z" fill="#FF0000"/>
<path d="M254.455 4.0704C254.455 3.09944 253.668 2.30986 252.694 2.30986C251.723 2.30986 250.934 3.09944 250.934 4.0704C250.934 5.04136 251.723 5.83093 252.694 5.83093C253.668 5.83093 254.455 5.04136 254.455 4.0704" stroke="#FF0000"/>
<path fill-rule="evenodd" clip-rule="evenodd" d="M272.087 92.2368C272.087 91.2685 271.301 90.4763 270.327 90.4763C269.353 90.4763 268.566 91.2685 268.566 92.2368C268.566 93.2078 269.353 94 270.327 94C271.301 94 272.087 93.2078 272.087 92.2368Z" fill="#FF0000"/>
<path d="M272.087 92.2368C272.087 91.2685 271.301 90.4763 270.327 90.4763C269.353 90.4763 268.566 91.2685 268.566 92.2368C268.566 93.2078 269.353 94 270.327 94C271.301 94 272.087 93.2078 272.087 92.2368" stroke="#FF0000"/>
<path fill-rule="evenodd" clip-rule="evenodd" d="M272.087 74.6052C272.087 73.6315 271.301 72.842 270.327 72.842C269.353 72.842 268.566 73.6315 268.566 74.6052C268.566 75.5735 269.353 76.363 270.327 76.363C271.301 76.363 272.087 75.5735 272.087 74.6052Z" fill="#FF0000"/>
<path d="M272.087 74.6052C272.087 73.6315 271.301 72.842 270.327 72.842C269.353 72.842 268.566 73.6315 268.566 74.6052C268.566 75.5735 269.353 76.363 270.327 76.363C271.301 76.363 272.087 75.5735 272.087 74.6052" stroke="#FF0000"/>
<path fill-rule="evenodd" clip-rule="evenodd" d="M272.087 56.9698C272.087 55.9989 271.301 55.2093 270.327 55.2093C269.353 55.2093 268.566 55.9989 268.566 56.9698C268.566 57.9408 269.353 58.7304 270.327 58.7304C271.301 58.7304 272.087 57.9408 272.087 56.9698Z" fill="#FF0000"/>
<path d="M272.087 56.9698C272.087 55.9989 271.301 55.2093 270.327 55.2093C269.353 55.2093 268.566 55.9989 268.566 56.9698C268.566 57.9408 269.353 58.7304 270.327 58.7304C271.301 58.7304 272.087 57.9408 272.087 56.9698" stroke="#FF0000"/>
<path fill-rule="evenodd" clip-rule="evenodd" d="M272.087 39.3401C272.087 38.3691 271.301 37.5795 270.327 37.5795C269.353 37.5795 268.566 38.3691 268.566 39.3401C268.566 40.3083 269.353 41.1006 270.327 41.1006C271.301 41.1006 272.087 40.3083 272.087 39.3401Z" fill="#FF0000"/>
<path d="M272.087 39.3401C272.087 38.3691 271.301 37.5795 270.327 37.5795C269.353 37.5795 268.566 38.3691 268.566 39.3401C268.566 40.3083 269.353 41.1006 270.327 41.1006C271.301 41.1006 272.087 40.3083 272.087 39.3401" stroke="#FF0000"/>
<path fill-rule="evenodd" clip-rule="evenodd" d="M272.087 21.7033C272.087 20.735 271.301 19.9454 270.327 19.9454C269.353 19.9454 268.566 20.735 268.566 21.7033C268.566 22.6742 269.353 23.4665 270.327 23.4665C271.301 23.4665 272.087 22.6742 272.087 21.7033Z" fill="#FF0000"/>
<path d="M272.087 21.7033C272.087 20.735 271.301 19.9454 270.327 19.9454C269.353 19.9454 268.566 20.735 268.566 21.7033C268.566 22.6742 269.353 23.4665 270.327 23.4665C271.301 23.4665 272.087 22.6742 272.087 21.7033" stroke="#FF0000"/>
<path fill-rule="evenodd" clip-rule="evenodd" d="M272.087 4.0704C272.087 3.09944 271.301 2.30986 270.327 2.30986C269.353 2.30986 268.566 3.09944 268.566 4.0704C268.566 5.04136 269.353 5.83093 270.327 5.83093C271.301 5.83093 272.087 5.04136 272.087 4.0704Z" fill="#FF0000"/>
<path d="M272.087 4.0704C272.087 3.09944 271.301 2.30986 270.327 2.30986C269.353 2.30986 268.566 3.09944 268.566 4.0704C268.566 5.04136 269.353 5.83093 270.327 5.83093C271.301 5.83093 272.087 5.04136 272.087 4.0704" stroke="#FF0000"/>
<path fill-rule="evenodd" clip-rule="evenodd" d="M289.724 92.2368C289.724 91.2685 288.935 90.4763 287.964 90.4763C286.993 90.4763 286.203 91.2685 286.203 92.2368C286.203 93.2078 286.993 94 287.964 94C288.935 94 289.724 93.2078 289.724 92.2368Z" fill="#FF0000"/>
<path d="M289.724 92.2368C289.724 91.2685 288.935 90.4763 287.964 90.4763C286.993 90.4763 286.203 91.2685 286.203 92.2368C286.203 93.2078 286.993 94 287.964 94C288.935 94 289.724 93.2078 289.724 92.2368" stroke="#FF0000"/>
<path fill-rule="evenodd" clip-rule="evenodd" d="M289.724 74.6052C289.724 73.6315 288.935 72.842 287.964 72.842C286.993 72.842 286.203 73.6315 286.203 74.6052C286.203 75.5735 286.993 76.363 287.964 76.363C288.935 76.363 289.724 75.5735 289.724 74.6052Z" fill="#FF0000"/>
<path d="M289.724 74.6052C289.724 73.6315 288.935 72.842 287.964 72.842C286.993 72.842 286.203 73.6315 286.203 74.6052C286.203 75.5735 286.993 76.363 287.964 76.363C288.935 76.363 289.724 75.5735 289.724 74.6052" stroke="#FF0000"/>
<path fill-rule="evenodd" clip-rule="evenodd" d="M289.724 56.9698C289.724 55.9989 288.935 55.2093 287.964 55.2093C286.993 55.2093 286.203 55.9989 286.203 56.9698C286.203 57.9408 286.993 58.7304 287.964 58.7304C288.935 58.7304 289.724 57.9408 289.724 56.9698Z" fill="#FF0000"/>
<path d="M289.724 56.9698C289.724 55.9989 288.935 55.2093 287.964 55.2093C286.993 55.2093 286.203 55.9989 286.203 56.9698C286.203 57.9408 286.993 58.7304 287.964 58.7304C288.935 58.7304 289.724 57.9408 289.724 56.9698" stroke="#FF0000"/>
<path fill-rule="evenodd" clip-rule="evenodd" d="M289.724 39.3401C289.724 38.3691 288.935 37.5795 287.964 37.5795C286.993 37.5795 286.203 38.3691 286.203 39.3401C286.203 40.3083 286.993 41.1006 287.964 41.1006C288.935 41.1006 289.724 40.3083 289.724 39.3401Z" fill="#FF0000"/>
<path d="M289.724 39.3401C289.724 38.3691 288.935 37.5795 287.964 37.5795C286.993 37.5795 286.203 38.3691 286.203 39.3401C286.203 40.3083 286.993 41.1006 287.964 41.1006C288.935 41.1006 289.724 40.3083 289.724 39.3401" stroke="#FF0000"/>
<path fill-rule="evenodd" clip-rule="evenodd" d="M289.724 21.7033C289.724 20.735 288.935 19.9454 287.964 19.9454C286.993 19.9454 286.203 20.735 286.203 21.7033C286.203 22.6742 286.993 23.4665 287.964 23.4665C288.935 23.4665 289.724 22.6742 289.724 21.7033Z" fill="#FF0000"/>
<path d="M289.724 21.7033C289.724 20.735 288.935 19.9454 287.964 19.9454C286.993 19.9454 286.203 20.735 286.203 21.7033C286.203 22.6742 286.993 23.4665 287.964 23.4665C288.935 23.4665 289.724 22.6742 289.724 21.7033" stroke="#FF0000"/>
<path fill-rule="evenodd" clip-rule="evenodd" d="M289.724 4.0704C289.724 3.09944 288.935 2.30986 287.964 2.30986C286.993 2.30986 286.203 3.09944 286.203 4.0704C286.203 5.04136 286.993 5.83093 287.964 5.83093C288.935 5.83093 289.724 5.04136 289.724 4.0704Z" fill="#FF0000"/>
<path d="M289.724 4.0704C289.724 3.09944 288.935 2.30986 287.964 2.30986C286.993 2.30986 286.203 3.09944 286.203 4.0704C286.203 5.04136 286.993 5.83093 287.964 5.83093C288.935 5.83093 289.724 5.04136 289.724 4.0704" stroke="#FF0000"/>
<path fill-rule="evenodd" clip-rule="evenodd" d="M307.353 92.2368C307.353 91.2685 306.566 90.4763 305.593 90.4763C304.619 90.4763 303.832 91.2685 303.832 92.2368C303.832 93.2078 304.619 94 305.593 94C306.566 94 307.353 93.2078 307.353 92.2368Z" fill="#FF0000"/>
<path d="M307.353 92.2368C307.353 91.2685 306.566 90.4763 305.593 90.4763C304.619 90.4763 303.832 91.2685 303.832 92.2368C303.832 93.2078 304.619 94 305.593 94C306.566 94 307.353 93.2078 307.353 92.2368" stroke="#FF0000"/>
<path fill-rule="evenodd" clip-rule="evenodd" d="M307.353 74.6052C307.353 73.6315 306.566 72.842 305.593 72.842C304.619 72.842 303.832 73.6315 303.832 74.6052C303.832 75.5735 304.619 76.363 305.593 76.363C306.566 76.363 307.353 75.5735 307.353 74.6052Z" fill="#FF0000"/>
<path d="M307.353 74.6052C307.353 73.6315 306.566 72.842 305.593 72.842C304.619 72.842 303.832 73.6315 303.832 74.6052C303.832 75.5735 304.619 76.363 305.593 76.363C306.566 76.363 307.353 75.5735 307.353 74.6052" stroke="#FF0000"/>
<path fill-rule="evenodd" clip-rule="evenodd" d="M307.353 56.9698C307.353 55.9989 306.566 55.2093 305.593 55.2093C304.619 55.2093 303.832 55.9989 303.832 56.9698C303.832 57.9408 304.619 58.7304 305.593 58.7304C306.566 58.7304 307.353 57.9408 307.353 56.9698Z" fill="#FF0000"/>
<path d="M307.353 56.9698C307.353 55.9989 306.566 55.2093 305.593 55.2093C304.619 55.2093 303.832 55.9989 303.832 56.9698C303.832 57.9408 304.619 58.7304 305.593 58.7304C306.566 58.7304 307.353 57.9408 307.353 56.9698" stroke="#FF0000"/>
<path fill-rule="evenodd" clip-rule="evenodd" d="M307.353 39.3401C307.353 38.3691 306.566 37.5795 305.593 37.5795C304.619 37.5795 303.832 38.3691 303.832 39.3401C303.832 40.3083 304.619 41.1006 305.593 41.1006C306.566 41.1006 307.353 40.3083 307.353 39.3401Z" fill="#FF0000"/>
<path d="M307.353 39.3401C307.353 38.3691 306.566 37.5795 305.593 37.5795C304.619 37.5795 303.832 38.3691 303.832 39.3401C303.832 40.3083 304.619 41.1006 305.593 41.1006C306.566 41.1006 307.353 40.3083 307.353 39.3401" stroke="#FF0000"/>
<path fill-rule="evenodd" clip-rule="evenodd" d="M307.353 21.7033C307.353 20.735 306.566 19.9454 305.593 19.9454C304.619 19.9454 303.832 20.735 303.832 21.7033C303.832 22.6742 304.619 23.4665 305.593 23.4665C306.566 23.4665 307.353 22.6742 307.353 21.7033Z" fill="#FF0000"/>
<path d="M307.353 21.7033C307.353 20.735 306.566 19.9454 305.593 19.9454C304.619 19.9454 303.832 20.735 303.832 21.7033C303.832 22.6742 304.619 23.4665 305.593 23.4665C306.566 23.4665 307.353 22.6742 307.353 21.7033" stroke="#FF0000"/>
<path fill-rule="evenodd" clip-rule="evenodd" d="M307.353 4.0704C307.353 3.09944 306.566 2.30986 305.593 2.30986C304.619 2.30986 303.832 3.09944 303.832 4.0704C303.832 5.04136 304.619 5.83093 305.593 5.83093C306.566 5.83093 307.353 5.04136 307.353 4.0704Z" fill="#FF0000"/>
<path d="M307.353 4.0704C307.353 3.09944 306.566 2.30986 305.593 2.30986C304.619 2.30986 303.832 3.09944 303.832 4.0704C303.832 5.04136 304.619 5.83093 305.593 5.83093C306.566 5.83093 307.353 5.04136 307.353 4.0704" stroke="#FF0000"/>
<path fill-rule="evenodd" clip-rule="evenodd" d="M324.994 92.2368C324.994 91.2685 324.204 90.4763 323.233 90.4763C322.26 90.4763 321.473 91.2685 321.473 92.2368C321.473 93.2078 322.26 94 323.233 94C324.204 94 324.994 93.2078 324.994 92.2368Z" fill="#FF0000"/>
<path d="M324.994 92.2368C324.994 91.2685 324.204 90.4763 323.233 90.4763C322.26 90.4763 321.473 91.2685 321.473 92.2368C321.473 93.2078 322.26 94 323.233 94C324.204 94 324.994 93.2078 324.994 92.2368" stroke="#FF0000"/>
<path fill-rule="evenodd" clip-rule="evenodd" d="M324.994 74.6052C324.994 73.6315 324.204 72.842 323.233 72.842C322.26 72.842 321.473 73.6315 321.473 74.6052C321.473 75.5735 322.26 76.363 323.233 76.363C324.204 76.363 324.994 75.5735 324.994 74.6052Z" fill="#FF0000"/>
<path d="M324.994 74.6052C324.994 73.6315 324.204 72.842 323.233 72.842C322.26 72.842 321.473 73.6315 321.473 74.6052C321.473 75.5735 322.26 76.363 323.233 76.363C324.204 76.363 324.994 75.5735 324.994 74.6052" stroke="#FF0000"/>
<path fill-rule="evenodd" clip-rule="evenodd" d="M324.994 56.9698C324.994 55.9989 324.204 55.2093 323.233 55.2093C322.26 55.2093 321.473 55.9989 321.473 56.9698C321.473 57.9408 322.26 58.7304 323.233 58.7304C324.204 58.7304 324.994 57.9408 324.994 56.9698Z" fill="#FF0000"/>
<path d="M324.994 56.9698C324.994 55.9989 324.204 55.2093 323.233 55.2093C322.26 55.2093 321.473 55.9989 321.473 56.9698C321.473 57.9408 322.26 58.7304 323.233 58.7304C324.204 58.7304 324.994 57.9408 324.994 56.9698" stroke="#FF0000"/>
<path fill-rule="evenodd" clip-rule="evenodd" d="M324.994 39.3401C324.994 38.3691 324.204 37.5795 323.233 37.5795C322.26 37.5795 321.473 38.3691 321.473 39.3401C321.473 40.3083 322.26 41.1006 323.233 41.1006C324.204 41.1006 324.994 40.3083 324.994 39.3401Z" fill="#FF0000"/>
<path d="M324.994 39.3401C324.994 38.3691 324.204 37.5795 323.233 37.5795C322.26 37.5795 321.473 38.3691 321.473 39.3401C321.473 40.3083 322.26 41.1006 323.233 41.1006C324.204 41.1006 324.994 40.3083 324.994 39.3401" stroke="#FF0000"/>
<path fill-rule="evenodd" clip-rule="evenodd" d="M324.994 21.7033C324.994 20.735 324.204 19.9454 323.233 19.9454C322.26 19.9454 321.473 20.735 321.473 21.7033C321.473 22.6742 322.26 23.4665 323.233 23.4665C324.204 23.4665 324.994 22.6742 324.994 21.7033Z" fill="#FF0000"/>
<path d="M324.994 21.7033C324.994 20.735 324.204 19.9454 323.233 19.9454C322.26 19.9454 321.473 20.735 321.473 21.7033C321.473 22.6742 322.26 23.4665 323.233 23.4665C324.204 23.4665 324.994 22.6742 324.994 21.7033" stroke="#FF0000"/>
<path fill-rule="evenodd" clip-rule="evenodd" d="M324.994 4.0704C324.994 3.09944 324.204 2.30986 323.233 2.30986C322.26 2.30986 321.473 3.09944 321.473 4.0704C321.473 5.04136 322.26 5.83093 323.233 5.83093C324.204 5.83093 324.994 5.04136 324.994 4.0704Z" fill="#FF0000"/>
<path d="M324.994 4.0704C324.994 3.09944 324.204 2.30986 323.233 2.30986C322.26 2.30986 321.473 3.09944 321.473 4.0704C321.473 5.04136 322.26 5.83093 323.233 5.83093C324.204 5.83093 324.994 5.04136 324.994 4.0704" stroke="#FF0000"/>
<path fill-rule="evenodd" clip-rule="evenodd" d="M342.623 92.2368C342.623 91.2685 341.836 90.4763 340.862 90.4763C339.894 90.4763 339.102 91.2685 339.102 92.2368C339.102 93.2078 339.894 94 340.862 94C341.836 94 342.623 93.2078 342.623 92.2368Z" fill="#FF0000"/>
<path d="M342.623 92.2368C342.623 91.2685 341.836 90.4763 340.862 90.4763C339.894 90.4763 339.102 91.2685 339.102 92.2368C339.102 93.2078 339.894 94 340.862 94C341.836 94 342.623 93.2078 342.623 92.2368" stroke="#FF0000"/>
<path fill-rule="evenodd" clip-rule="evenodd" d="M342.623 74.6051C342.623 73.6315 341.836 72.8419 340.862 72.8419C339.894 72.8419 339.102 73.6315 339.102 74.6051C339.102 75.5734 339.894 76.363 340.862 76.363C341.836 76.363 342.623 75.5734 342.623 74.6051Z" fill="#FF0000"/>
<path d="M342.623 74.6051C342.623 73.6315 341.836 72.8419 340.862 72.8419C339.894 72.8419 339.102 73.6315 339.102 74.6051C339.102 75.5734 339.894 76.363 340.862 76.363C341.836 76.363 342.623 75.5734 342.623 74.6051" stroke="#FF0000"/>
<path fill-rule="evenodd" clip-rule="evenodd" d="M342.623 56.9698C342.623 55.9989 341.836 55.2093 340.862 55.2093C339.894 55.2093 339.102 55.9989 339.102 56.9698C339.102 57.9408 339.894 58.7304 340.862 58.7304C341.836 58.7304 342.623 57.9408 342.623 56.9698Z" fill="#FF0000"/>
<path d="M342.623 56.9698C342.623 55.9989 341.836 55.2093 340.862 55.2093C339.894 55.2093 339.102 55.9989 339.102 56.9698C339.102 57.9408 339.894 58.7304 340.862 58.7304C341.836 58.7304 342.623 57.9408 342.623 56.9698" stroke="#FF0000"/>
<path fill-rule="evenodd" clip-rule="evenodd" d="M342.623 39.3401C342.623 38.3691 341.836 37.5795 340.862 37.5795C339.894 37.5795 339.102 38.3691 339.102 39.3401C339.102 40.3083 339.894 41.1006 340.862 41.1006C341.836 41.1006 342.623 40.3083 342.623 39.3401Z" fill="#FF0000"/>
<path d="M342.623 39.3401C342.623 38.3691 341.836 37.5795 340.862 37.5795C339.894 37.5795 339.102 38.3691 339.102 39.3401C339.102 40.3083 339.894 41.1006 340.862 41.1006C341.836 41.1006 342.623 40.3083 342.623 39.3401" stroke="#FF0000"/>
<path fill-rule="evenodd" clip-rule="evenodd" d="M342.623 21.7033C342.623 20.735 341.836 19.9454 340.862 19.9454C339.894 19.9454 339.102 20.735 339.102 21.7033C339.102 22.6742 339.894 23.4665 340.862 23.4665C341.836 23.4665 342.623 22.6742 342.623 21.7033Z" fill="#FF0000"/>
<path d="M342.623 21.7033C342.623 20.735 341.836 19.9454 340.862 19.9454C339.894 19.9454 339.102 20.735 339.102 21.7033C339.102 22.6742 339.894 23.4665 340.862 23.4665C341.836 23.4665 342.623 22.6742 342.623 21.7033" stroke="#FF0000"/>
<path fill-rule="evenodd" clip-rule="evenodd" d="M342.623 4.0704C342.623 3.09944 341.836 2.30986 340.862 2.30986C339.894 2.30986 339.102 3.09944 339.102 4.0704C339.102 5.04136 339.894 5.83093 340.862 5.83093C341.836 5.83093 342.623 5.04136 342.623 4.0704Z" fill="#FF0000"/>
<path d="M342.623 4.0704C342.623 3.09944 341.836 2.30986 340.862 2.30986C339.894 2.30986 339.102 3.09944 339.102 4.0704C339.102 5.04136 339.894 5.83093 340.862 5.83093C341.836 5.83093 342.623 5.04136 342.623 4.0704" stroke="#FF0000"/>
<path fill-rule="evenodd" clip-rule="evenodd" d="M360.255 92.2368C360.255 91.2685 359.469 90.4763 358.495 90.4763C357.521 90.4763 356.734 91.2685 356.734 92.2368C356.734 93.2078 357.521 94 358.495 94C359.469 94 360.255 93.2078 360.255 92.2368Z" fill="#FF0000"/>
<path d="M360.255 92.2368C360.255 91.2685 359.469 90.4763 358.495 90.4763C357.521 90.4763 356.734 91.2685 356.734 92.2368C356.734 93.2078 357.521 94 358.495 94C359.469 94 360.255 93.2078 360.255 92.2368" stroke="#FF0000"/>
<path fill-rule="evenodd" clip-rule="evenodd" d="M360.255 74.6051C360.255 73.6315 359.469 72.8419 358.495 72.8419C357.521 72.8419 356.734 73.6315 356.734 74.6051C356.734 75.5734 357.521 76.363 358.495 76.363C359.469 76.363 360.255 75.5734 360.255 74.6051Z" fill="#FF0000"/>
<path d="M360.255 74.6051C360.255 73.6315 359.469 72.8419 358.495 72.8419C357.521 72.8419 356.734 73.6315 356.734 74.6051C356.734 75.5734 357.521 76.363 358.495 76.363C359.469 76.363 360.255 75.5734 360.255 74.6051" stroke="#FF0000"/>
<path fill-rule="evenodd" clip-rule="evenodd" d="M360.255 56.9698C360.255 55.9989 359.469 55.2093 358.495 55.2093C357.521 55.2093 356.734 55.9989 356.734 56.9698C356.734 57.9408 357.521 58.7304 358.495 58.7304C359.469 58.7304 360.255 57.9408 360.255 56.9698Z" fill="#FF0000"/>
<path d="M360.255 56.9698C360.255 55.9989 359.469 55.2093 358.495 55.2093C357.521 55.2093 356.734 55.9989 356.734 56.9698C356.734 57.9408 357.521 58.7304 358.495 58.7304C359.469 58.7304 360.255 57.9408 360.255 56.9698" stroke="#FF0000"/>
<path fill-rule="evenodd" clip-rule="evenodd" d="M360.255 39.3401C360.255 38.3691 359.469 37.5795 358.495 37.5795C357.521 37.5795 356.734 38.3691 356.734 39.3401C356.734 40.3083 357.521 41.1006 358.495 41.1006C359.469 41.1006 360.255 40.3083 360.255 39.3401Z" fill="#FF0000"/>
<path d="M360.255 39.3401C360.255 38.3691 359.469 37.5795 358.495 37.5795C357.521 37.5795 356.734 38.3691 356.734 39.3401C356.734 40.3083 357.521 41.1006 358.495 41.1006C359.469 41.1006 360.255 40.3083 360.255 39.3401" stroke="#FF0000"/>
<path fill-rule="evenodd" clip-rule="evenodd" d="M360.255 21.7033C360.255 20.735 359.469 19.9454 358.495 19.9454C357.521 19.9454 356.734 20.735 356.734 21.7033C356.734 22.6742 357.521 23.4665 358.495 23.4665C359.469 23.4665 360.255 22.6742 360.255 21.7033Z" fill="#FF0000"/>
<path d="M360.255 21.7033C360.255 20.735 359.469 19.9454 358.495 19.9454C357.521 19.9454 356.734 20.735 356.734 21.7033C356.734 22.6742 357.521 23.4665 358.495 23.4665C359.469 23.4665 360.255 22.6742 360.255 21.7033" stroke="#FF0000"/>
<path fill-rule="evenodd" clip-rule="evenodd" d="M360.255 4.0704C360.255 3.09944 359.469 2.30986 358.495 2.30986C357.521 2.30986 356.734 3.09944 356.734 4.0704C356.734 5.04136 357.521 5.83093 358.495 5.83093C359.469 5.83093 360.255 5.04136 360.255 4.0704Z" fill="#FF0000"/>
<path d="M360.255 4.0704C360.255 3.09944 359.469 2.30986 358.495 2.30986C357.521 2.30986 356.734 3.09944 356.734 4.0704C356.734 5.04136 357.521 5.83093 358.495 5.83093C359.469 5.83093 360.255 5.04136 360.255 4.0704" stroke="#FF0000"/>
<path fill-rule="evenodd" clip-rule="evenodd" d="M380.197 92.2368C380.197 91.2685 379.41 90.4763 378.436 90.4763C377.465 90.4763 376.676 91.2685 376.676 92.2368C376.676 93.2078 377.465 94 378.436 94C379.41 94 380.197 93.2078 380.197 92.2368Z" fill="#FF0000"/>
<path d="M380.197 92.2368C380.197 91.2685 379.41 90.4763 378.436 90.4763C377.465 90.4763 376.676 91.2685 376.676 92.2368C376.676 93.2078 377.465 94 378.436 94C379.41 94 380.197 93.2078 380.197 92.2368" stroke="#FF0000"/>
<path fill-rule="evenodd" clip-rule="evenodd" d="M380.197 74.6051C380.197 73.6315 379.41 72.8419 378.436 72.8419C377.465 72.8419 376.676 73.6315 376.676 74.6051C376.676 75.5734 377.465 76.363 378.436 76.363C379.41 76.363 380.197 75.5734 380.197 74.6051Z" fill="#FF0000"/>
<path d="M380.197 74.6051C380.197 73.6315 379.41 72.8419 378.436 72.8419C377.465 72.8419 376.676 73.6315 376.676 74.6051C376.676 75.5734 377.465 76.363 378.436 76.363C379.41 76.363 380.197 75.5734 380.197 74.6051" stroke="#FF0000"/>
<path fill-rule="evenodd" clip-rule="evenodd" d="M380.197 56.9698C380.197 55.9989 379.41 55.2093 378.436 55.2093C377.465 55.2093 376.676 55.9989 376.676 56.9698C376.676 57.9408 377.465 58.7303 378.436 58.7303C379.41 58.7303 380.197 57.9408 380.197 56.9698Z" fill="#FF0000"/>
<path d="M380.197 56.9698C380.197 55.9989 379.41 55.2093 378.436 55.2093C377.465 55.2093 376.676 55.9989 376.676 56.9698C376.676 57.9408 377.465 58.7303 378.436 58.7303C379.41 58.7303 380.197 57.9408 380.197 56.9698" stroke="#FF0000"/>
<path fill-rule="evenodd" clip-rule="evenodd" d="M380.197 39.34C380.197 38.3691 379.41 37.5795 378.436 37.5795C377.465 37.5795 376.676 38.3691 376.676 39.34C376.676 40.3083 377.465 41.1006 378.436 41.1006C379.41 41.1006 380.197 40.3083 380.197 39.34Z" fill="#FF0000"/>
<path d="M380.197 39.34C380.197 38.3691 379.41 37.5795 378.436 37.5795C377.465 37.5795 376.676 38.3691 376.676 39.34C376.676 40.3083 377.465 41.1006 378.436 41.1006C379.41 41.1006 380.197 40.3083 380.197 39.34" stroke="#FF0000"/>
<path fill-rule="evenodd" clip-rule="evenodd" d="M380.197 21.7033C380.197 20.735 379.41 19.9454 378.436 19.9454C377.465 19.9454 376.676 20.735 376.676 21.7033C376.676 22.6742 377.465 23.4665 378.436 23.4665C379.41 23.4665 380.197 22.6742 380.197 21.7033Z" fill="#FF0000"/>
<path d="M380.197 21.7033C380.197 20.735 379.41 19.9454 378.436 19.9454C377.465 19.9454 376.676 20.735 376.676 21.7033C376.676 22.6742 377.465 23.4665 378.436 23.4665C379.41 23.4665 380.197 22.6742 380.197 21.7033" stroke="#FF0000"/>
<path fill-rule="evenodd" clip-rule="evenodd" d="M380.197 4.07037C380.197 3.09941 379.41 2.30983 378.436 2.30983C377.465 2.30983 376.676 3.09941 376.676 4.07037C376.676 5.04133 377.465 5.8309 378.436 5.8309C379.41 5.8309 380.197 5.04133 380.197 4.07037Z" fill="#FF0000"/>
<path d="M380.197 4.07037C380.197 3.09941 379.41 2.30983 378.436 2.30983C377.465 2.30983 376.676 3.09941 376.676 4.07037C376.676 5.04133 377.465 5.8309 378.436 5.8309C379.41 5.8309 380.197 5.04133 380.197 4.07037" stroke="#FF0000"/>
<path fill-rule="evenodd" clip-rule="evenodd" d="M397.837 92.2368C397.837 91.2685 397.051 90.4763 396.077 90.4763C395.103 90.4763 394.316 91.2685 394.316 92.2368C394.316 93.2078 395.103 94 396.077 94C397.051 94 397.837 93.2078 397.837 92.2368Z" fill="#FF0000"/>
<path d="M397.837 92.2368C397.837 91.2685 397.051 90.4763 396.077 90.4763C395.103 90.4763 394.316 91.2685 394.316 92.2368C394.316 93.2078 395.103 94 396.077 94C397.051 94 397.837 93.2078 397.837 92.2368" stroke="#FF0000"/>
<path fill-rule="evenodd" clip-rule="evenodd" d="M397.837 74.6051C397.837 73.6315 397.051 72.8419 396.077 72.8419C395.103 72.8419 394.316 73.6315 394.316 74.6051C394.316 75.5734 395.103 76.363 396.077 76.363C397.051 76.363 397.837 75.5734 397.837 74.6051Z" fill="#FF0000"/>
<path d="M397.837 74.6051C397.837 73.6315 397.051 72.8419 396.077 72.8419C395.103 72.8419 394.316 73.6315 394.316 74.6051C394.316 75.5734 395.103 76.363 396.077 76.363C397.051 76.363 397.837 75.5734 397.837 74.6051" stroke="#FF0000"/>
<path fill-rule="evenodd" clip-rule="evenodd" d="M397.837 56.9698C397.837 55.9989 397.051 55.2093 396.077 55.2093C395.103 55.2093 394.316 55.9989 394.316 56.9698C394.316 57.9408 395.103 58.7303 396.077 58.7303C397.051 58.7303 397.837 57.9408 397.837 56.9698Z" fill="#FF0000"/>
<path d="M397.837 56.9698C397.837 55.9989 397.051 55.2093 396.077 55.2093C395.103 55.2093 394.316 55.9989 394.316 56.9698C394.316 57.9408 395.103 58.7303 396.077 58.7303C397.051 58.7303 397.837 57.9408 397.837 56.9698" stroke="#FF0000"/>
<path fill-rule="evenodd" clip-rule="evenodd" d="M397.837 39.34C397.837 38.3691 397.051 37.5795 396.077 37.5795C395.103 37.5795 394.316 38.3691 394.316 39.34C394.316 40.3083 395.103 41.1006 396.077 41.1006C397.051 41.1006 397.837 40.3083 397.837 39.34Z" fill="#FF0000"/>
<path d="M397.837 39.34C397.837 38.3691 397.051 37.5795 396.077 37.5795C395.103 37.5795 394.316 38.3691 394.316 39.34C394.316 40.3083 395.103 41.1006 396.077 41.1006C397.051 41.1006 397.837 40.3083 397.837 39.34" stroke="#FF0000"/>
<path fill-rule="evenodd" clip-rule="evenodd" d="M397.837 21.7033C397.837 20.735 397.051 19.9454 396.077 19.9454C395.103 19.9454 394.316 20.735 394.316 21.7033C394.316 22.6742 395.103 23.4665 396.077 23.4665C397.051 23.4665 397.837 22.6742 397.837 21.7033Z" fill="#FF0000"/>
<path d="M397.837 21.7033C397.837 20.735 397.051 19.9454 396.077 19.9454C395.103 19.9454 394.316 20.735 394.316 21.7033C394.316 22.6742 395.103 23.4665 396.077 23.4665C397.051 23.4665 397.837 22.6742 397.837 21.7033" stroke="#FF0000"/>
<path fill-rule="evenodd" clip-rule="evenodd" d="M397.837 4.07037C397.837 3.09941 397.051 2.30983 396.077 2.30983C395.103 2.30983 394.316 3.09941 394.316 4.07037C394.316 5.04133 395.103 5.8309 396.077 5.8309C397.051 5.8309 397.837 5.04133 397.837 4.07037Z" fill="#FF0000"/>
<path d="M397.837 4.07037C397.837 3.09941 397.051 2.30983 396.077 2.30983C395.103 2.30983 394.316 3.09941 394.316 4.07037C394.316 5.04133 395.103 5.8309 396.077 5.8309C397.051 5.8309 397.837 5.04133 397.837 4.07037" stroke="#FF0000"/>
<path fill-rule="evenodd" clip-rule="evenodd" d="M415.466 92.2368C415.466 91.2685 414.677 90.4763 413.706 90.4763C412.735 90.4763 411.945 91.2685 411.945 92.2368C411.945 93.2078 412.735 94 413.706 94C414.677 94 415.466 93.2078 415.466 92.2368Z" fill="#FF0000"/>
<path d="M415.466 92.2368C415.466 91.2685 414.677 90.4763 413.706 90.4763C412.735 90.4763 411.945 91.2685 411.945 92.2368C411.945 93.2078 412.735 94 413.706 94C414.677 94 415.466 93.2078 415.466 92.2368" stroke="#FF0000"/>
<path fill-rule="evenodd" clip-rule="evenodd" d="M415.466 74.6051C415.466 73.6315 414.677 72.8419 413.706 72.8419C412.735 72.8419 411.945 73.6315 411.945 74.6051C411.945 75.5734 412.735 76.363 413.706 76.363C414.677 76.363 415.466 75.5734 415.466 74.6051Z" fill="#FF0000"/>
<path d="M415.466 74.6051C415.466 73.6315 414.677 72.8419 413.706 72.8419C412.735 72.8419 411.945 73.6315 411.945 74.6051C411.945 75.5734 412.735 76.363 413.706 76.363C414.677 76.363 415.466 75.5734 415.466 74.6051" stroke="#FF0000"/>
<path fill-rule="evenodd" clip-rule="evenodd" d="M415.466 56.9698C415.466 55.9989 414.677 55.2093 413.706 55.2093C412.735 55.2093 411.945 55.9989 411.945 56.9698C411.945 57.9408 412.735 58.7303 413.706 58.7303C414.677 58.7303 415.466 57.9408 415.466 56.9698Z" fill="#FF0000"/>
<path d="M415.466 56.9698C415.466 55.9989 414.677 55.2093 413.706 55.2093C412.735 55.2093 411.945 55.9989 411.945 56.9698C411.945 57.9408 412.735 58.7303 413.706 58.7303C414.677 58.7303 415.466 57.9408 415.466 56.9698" stroke="#FF0000"/>
<path fill-rule="evenodd" clip-rule="evenodd" d="M415.466 39.34C415.466 38.3691 414.677 37.5795 413.706 37.5795C412.735 37.5795 411.945 38.3691 411.945 39.34C411.945 40.3083 412.735 41.1006 413.706 41.1006C414.677 41.1006 415.466 40.3083 415.466 39.34Z" fill="#FF0000"/>
<path d="M415.466 39.34C415.466 38.3691 414.677 37.5795 413.706 37.5795C412.735 37.5795 411.945 38.3691 411.945 39.34C411.945 40.3083 412.735 41.1006 413.706 41.1006C414.677 41.1006 415.466 40.3083 415.466 39.34" stroke="#FF0000"/>
<path fill-rule="evenodd" clip-rule="evenodd" d="M415.466 21.7033C415.466 20.735 414.677 19.9454 413.706 19.9454C412.735 19.9454 411.945 20.735 411.945 21.7033C411.945 22.6742 412.735 23.4665 413.706 23.4665C414.677 23.4665 415.466 22.6742 415.466 21.7033Z" fill="#FF0000"/>
<path d="M415.466 21.7033C415.466 20.735 414.677 19.9454 413.706 19.9454C412.735 19.9454 411.945 20.735 411.945 21.7033C411.945 22.6742 412.735 23.4665 413.706 23.4665C414.677 23.4665 415.466 22.6742 415.466 21.7033" stroke="#FF0000"/>
<path fill-rule="evenodd" clip-rule="evenodd" d="M415.466 4.07037C415.466 3.09941 414.677 2.30983 413.706 2.30983C412.735 2.30983 411.945 3.09941 411.945 4.07037C411.945 5.04133 412.735 5.8309 413.706 5.8309C414.677 5.8309 415.466 5.04133 415.466 4.07037Z" fill="#FF0000"/>
<path d="M415.466 4.07037C415.466 3.09941 414.677 2.30983 413.706 2.30983C412.735 2.30983 411.945 3.09941 411.945 4.07037C411.945 5.04133 412.735 5.8309 413.706 5.8309C414.677 5.8309 415.466 5.04133 415.466 4.07037" stroke="#FF0000"/>
<path fill-rule="evenodd" clip-rule="evenodd" d="M433.099 92.2368C433.099 91.2685 432.312 90.4763 431.339 90.4763C430.365 90.4763 429.578 91.2685 429.578 92.2368C429.578 93.2078 430.365 94 431.339 94C432.312 94 433.099 93.2078 433.099 92.2368Z" fill="#FF0000"/>
<path d="M433.099 92.2368C433.099 91.2685 432.312 90.4763 431.339 90.4763C430.365 90.4763 429.578 91.2685 429.578 92.2368C429.578 93.2078 430.365 94 431.339 94C432.312 94 433.099 93.2078 433.099 92.2368" stroke="#FF0000"/>
<path fill-rule="evenodd" clip-rule="evenodd" d="M433.099 74.6051C433.099 73.6315 432.312 72.8419 431.339 72.8419C430.365 72.8419 429.578 73.6315 429.578 74.6051C429.578 75.5734 430.365 76.363 431.339 76.363C432.312 76.363 433.099 75.5734 433.099 74.6051Z" fill="#FF0000"/>
<path d="M433.099 74.6051C433.099 73.6315 432.312 72.8419 431.339 72.8419C430.365 72.8419 429.578 73.6315 429.578 74.6051C429.578 75.5734 430.365 76.363 431.339 76.363C432.312 76.363 433.099 75.5734 433.099 74.6051" stroke="#FF0000"/>
<path fill-rule="evenodd" clip-rule="evenodd" d="M433.099 56.9698C433.099 55.9989 432.312 55.2093 431.339 55.2093C430.365 55.2093 429.578 55.9989 429.578 56.9698C429.578 57.9408 430.365 58.7303 431.339 58.7303C432.312 58.7303 433.099 57.9408 433.099 56.9698Z" fill="#FF0000"/>
<path d="M433.099 56.9698C433.099 55.9989 432.312 55.2093 431.339 55.2093C430.365 55.2093 429.578 55.9989 429.578 56.9698C429.578 57.9408 430.365 58.7303 431.339 58.7303C432.312 58.7303 433.099 57.9408 433.099 56.9698" stroke="#FF0000"/>
<path fill-rule="evenodd" clip-rule="evenodd" d="M433.099 39.34C433.099 38.3691 432.312 37.5795 431.339 37.5795C430.365 37.5795 429.578 38.3691 429.578 39.34C429.578 40.3083 430.365 41.1006 431.339 41.1006C432.312 41.1006 433.099 40.3083 433.099 39.34Z" fill="#FF0000"/>
<path d="M433.099 39.34C433.099 38.3691 432.312 37.5795 431.339 37.5795C430.365 37.5795 429.578 38.3691 429.578 39.34C429.578 40.3083 430.365 41.1006 431.339 41.1006C432.312 41.1006 433.099 40.3083 433.099 39.34" stroke="#FF0000"/>
<path fill-rule="evenodd" clip-rule="evenodd" d="M433.099 21.7033C433.099 20.735 432.312 19.9454 431.339 19.9454C430.365 19.9454 429.578 20.735 429.578 21.7033C429.578 22.6742 430.365 23.4665 431.339 23.4665C432.312 23.4665 433.099 22.6742 433.099 21.7033Z" fill="#FF0000"/>
<path d="M433.099 21.7033C433.099 20.735 432.312 19.9454 431.339 19.9454C430.365 19.9454 429.578 20.735 429.578 21.7033C429.578 22.6742 430.365 23.4665 431.339 23.4665C432.312 23.4665 433.099 22.6742 433.099 21.7033" stroke="#FF0000"/>
<path fill-rule="evenodd" clip-rule="evenodd" d="M433.099 4.07037C433.099 3.09941 432.312 2.30983 431.339 2.30983C430.365 2.30983 429.578 3.09941 429.578 4.07037C429.578 5.04133 430.365 5.8309 431.339 5.8309C432.312 5.8309 433.099 5.04133 433.099 4.07037Z" fill="#FF0000"/>
<path d="M433.099 4.07037C433.099 3.09941 432.312 2.30983 431.339 2.30983C430.365 2.30983 429.578 3.09941 429.578 4.07037C429.578 5.04133 430.365 5.8309 431.339 5.8309C432.312 5.8309 433.099 5.04133 433.099 4.07037" stroke="#FF0000"/>
<path fill-rule="evenodd" clip-rule="evenodd" d="M450.736 92.2368C450.736 91.2685 449.946 90.4763 448.975 90.4763C448.002 90.4763 447.215 91.2685 447.215 92.2368C447.215 93.2078 448.002 94 448.975 94C449.946 94 450.736 93.2078 450.736 92.2368Z" fill="#FF0000"/>
<path d="M450.736 92.2368C450.736 91.2685 449.946 90.4763 448.975 90.4763C448.002 90.4763 447.215 91.2685 447.215 92.2368C447.215 93.2078 448.002 94 448.975 94C449.946 94 450.736 93.2078 450.736 92.2368" stroke="#FF0000"/>
<path fill-rule="evenodd" clip-rule="evenodd" d="M450.736 74.6051C450.736 73.6315 449.946 72.8419 448.975 72.8419C448.002 72.8419 447.215 73.6315 447.215 74.6051C447.215 75.5734 448.002 76.363 448.975 76.363C449.946 76.363 450.736 75.5734 450.736 74.6051Z" fill="#FF0000"/>
<path d="M450.736 74.6051C450.736 73.6315 449.946 72.8419 448.975 72.8419C448.002 72.8419 447.215 73.6315 447.215 74.6051C447.215 75.5734 448.002 76.363 448.975 76.363C449.946 76.363 450.736 75.5734 450.736 74.6051" stroke="#FF0000"/>
<path fill-rule="evenodd" clip-rule="evenodd" d="M450.736 56.9698C450.736 55.9989 449.946 55.2093 448.975 55.2093C448.002 55.2093 447.215 55.9989 447.215 56.9698C447.215 57.9408 448.002 58.7303 448.975 58.7303C449.946 58.7303 450.736 57.9408 450.736 56.9698Z" fill="#FF0000"/>
<path d="M450.736 56.9698C450.736 55.9989 449.946 55.2093 448.975 55.2093C448.002 55.2093 447.215 55.9989 447.215 56.9698C447.215 57.9408 448.002 58.7303 448.975 58.7303C449.946 58.7303 450.736 57.9408 450.736 56.9698" stroke="#FF0000"/>
<path fill-rule="evenodd" clip-rule="evenodd" d="M450.736 39.34C450.736 38.3691 449.946 37.5795 448.975 37.5795C448.002 37.5795 447.215 38.3691 447.215 39.34C447.215 40.3083 448.002 41.1006 448.975 41.1006C449.946 41.1006 450.736 40.3083 450.736 39.34Z" fill="#FF0000"/>
<path d="M450.736 39.34C450.736 38.3691 449.946 37.5795 448.975 37.5795C448.002 37.5795 447.215 38.3691 447.215 39.34C447.215 40.3083 448.002 41.1006 448.975 41.1006C449.946 41.1006 450.736 40.3083 450.736 39.34" stroke="#FF0000"/>
<path fill-rule="evenodd" clip-rule="evenodd" d="M450.736 21.7033C450.736 20.735 449.946 19.9454 448.975 19.9454C448.002 19.9454 447.215 20.735 447.215 21.7033C447.215 22.6742 448.002 23.4665 448.975 23.4665C449.946 23.4665 450.736 22.6742 450.736 21.7033Z" fill="#FF0000"/>
<path d="M450.736 21.7033C450.736 20.735 449.946 19.9454 448.975 19.9454C448.002 19.9454 447.215 20.735 447.215 21.7033C447.215 22.6742 448.002 23.4665 448.975 23.4665C449.946 23.4665 450.736 22.6742 450.736 21.7033" stroke="#FF0000"/>
<path fill-rule="evenodd" clip-rule="evenodd" d="M450.736 4.07037C450.736 3.09941 449.946 2.30983 448.975 2.30983C448.002 2.30983 447.215 3.09941 447.215 4.07037C447.215 5.04133 448.002 5.8309 448.975 5.8309C449.946 5.8309 450.736 5.04133 450.736 4.07037Z" fill="#FF0000"/>
<path d="M450.736 4.07037C450.736 3.09941 449.946 2.30983 448.975 2.30983C448.002 2.30983 447.215 3.09941 447.215 4.07037C447.215 5.04133 448.002 5.8309 448.975 5.8309C449.946 5.8309 450.736 5.04133 450.736 4.07037" stroke="#FF0000"/>
<path fill-rule="evenodd" clip-rule="evenodd" d="M468.369 92.2368C468.369 91.2685 467.582 90.4763 466.608 90.4763C465.64 90.4763 464.848 91.2685 464.848 92.2368C464.848 93.2078 465.64 94 466.608 94C467.582 94 468.369 93.2078 468.369 92.2368Z" fill="#FF0000"/>
<path d="M468.369 92.2368C468.369 91.2685 467.582 90.4763 466.608 90.4763C465.64 90.4763 464.848 91.2685 464.848 92.2368C464.848 93.2078 465.64 94 466.608 94C467.582 94 468.369 93.2078 468.369 92.2368" stroke="#FF0000"/>
<path fill-rule="evenodd" clip-rule="evenodd" d="M468.369 74.6051C468.369 73.6315 467.582 72.8419 466.608 72.8419C465.64 72.8419 464.848 73.6315 464.848 74.6051C464.848 75.5734 465.64 76.363 466.608 76.363C467.582 76.363 468.369 75.5734 468.369 74.6051Z" fill="#FF0000"/>
<path d="M468.369 74.6051C468.369 73.6315 467.582 72.8419 466.608 72.8419C465.64 72.8419 464.848 73.6315 464.848 74.6051C464.848 75.5734 465.64 76.363 466.608 76.363C467.582 76.363 468.369 75.5734 468.369 74.6051" stroke="#FF0000"/>
<path fill-rule="evenodd" clip-rule="evenodd" d="M468.369 56.9698C468.369 55.9989 467.582 55.2093 466.608 55.2093C465.64 55.2093 464.848 55.9989 464.848 56.9698C464.848 57.9408 465.64 58.7303 466.608 58.7303C467.582 58.7303 468.369 57.9408 468.369 56.9698Z" fill="#FF0000"/>
<path d="M468.369 56.9698C468.369 55.9989 467.582 55.2093 466.608 55.2093C465.64 55.2093 464.848 55.9989 464.848 56.9698C464.848 57.9408 465.64 58.7303 466.608 58.7303C467.582 58.7303 468.369 57.9408 468.369 56.9698" stroke="#FF0000"/>
<path fill-rule="evenodd" clip-rule="evenodd" d="M468.369 39.34C468.369 38.3691 467.582 37.5795 466.608 37.5795C465.64 37.5795 464.848 38.3691 464.848 39.34C464.848 40.3083 465.64 41.1006 466.608 41.1006C467.582 41.1006 468.369 40.3083 468.369 39.34Z" fill="#FF0000"/>
<path d="M468.369 39.34C468.369 38.3691 467.582 37.5795 466.608 37.5795C465.64 37.5795 464.848 38.3691 464.848 39.34C464.848 40.3083 465.64 41.1006 466.608 41.1006C467.582 41.1006 468.369 40.3083 468.369 39.34" stroke="#FF0000"/>
<path fill-rule="evenodd" clip-rule="evenodd" d="M468.369 21.7033C468.369 20.735 467.582 19.9454 466.608 19.9454C465.64 19.9454 464.848 20.735 464.848 21.7033C464.848 22.6742 465.64 23.4665 466.608 23.4665C467.582 23.4665 468.369 22.6742 468.369 21.7033Z" fill="#FF0000"/>
<path d="M468.369 21.7033C468.369 20.735 467.582 19.9454 466.608 19.9454C465.64 19.9454 464.848 20.735 464.848 21.7033C464.848 22.6742 465.64 23.4665 466.608 23.4665C467.582 23.4665 468.369 22.6742 468.369 21.7033" stroke="#FF0000"/>
<path fill-rule="evenodd" clip-rule="evenodd" d="M468.369 4.07037C468.369 3.09941 467.582 2.30983 466.608 2.30983C465.64 2.30983 464.848 3.09941 464.848 4.07037C464.848 5.04133 465.64 5.8309 466.608 5.8309C467.582 5.8309 468.369 5.04133 468.369 4.07037Z" fill="#FF0000"/>
<path d="M468.369 4.07037C468.369 3.09941 467.582 2.30983 466.608 2.30983C465.64 2.30983 464.848 3.09941 464.848 4.07037C464.848 5.04133 465.64 5.8309 466.608 5.8309C467.582 5.8309 468.369 5.04133 468.369 4.07037" stroke="#FF0000"/>
<path fill-rule="evenodd" clip-rule="evenodd" d="M486.002 92.2368C486.002 91.2685 485.215 90.4763 484.241 90.4763C483.267 90.4763 482.48 91.2685 482.48 92.2368C482.48 93.2078 483.267 94 484.241 94C485.215 94 486.002 93.2078 486.002 92.2368Z" fill="#FF0000"/>
<path d="M486.002 92.2368C486.002 91.2685 485.215 90.4763 484.241 90.4763C483.267 90.4763 482.48 91.2685 482.48 92.2368C482.48 93.2078 483.267 94 484.241 94C485.215 94 486.002 93.2078 486.002 92.2368" stroke="#FF0000"/>
<path fill-rule="evenodd" clip-rule="evenodd" d="M486.002 74.6051C486.002 73.6315 485.215 72.8419 484.241 72.8419C483.267 72.8419 482.48 73.6315 482.48 74.6051C482.48 75.5734 483.267 76.363 484.241 76.363C485.215 76.363 486.002 75.5734 486.002 74.6051Z" fill="#FF0000"/>
<path d="M486.002 74.6051C486.002 73.6315 485.215 72.8419 484.241 72.8419C483.267 72.8419 482.48 73.6315 482.48 74.6051C482.48 75.5734 483.267 76.363 484.241 76.363C485.215 76.363 486.002 75.5734 486.002 74.6051" stroke="#FF0000"/>
<path fill-rule="evenodd" clip-rule="evenodd" d="M486.002 56.9698C486.002 55.9989 485.215 55.2093 484.241 55.2093C483.267 55.2093 482.48 55.9989 482.48 56.9698C482.48 57.9408 483.267 58.7303 484.241 58.7303C485.215 58.7303 486.002 57.9408 486.002 56.9698Z" fill="#FF0000"/>
<path d="M486.002 56.9698C486.002 55.9989 485.215 55.2093 484.241 55.2093C483.267 55.2093 482.48 55.9989 482.48 56.9698C482.48 57.9408 483.267 58.7303 484.241 58.7303C485.215 58.7303 486.002 57.9408 486.002 56.9698" stroke="#FF0000"/>
<path fill-rule="evenodd" clip-rule="evenodd" d="M486.002 39.34C486.002 38.3691 485.215 37.5795 484.241 37.5795C483.267 37.5795 482.48 38.3691 482.48 39.34C482.48 40.3083 483.267 41.1006 484.241 41.1006C485.215 41.1006 486.002 40.3083 486.002 39.34Z" fill="#FF0000"/>
<path d="M486.002 39.34C486.002 38.3691 485.215 37.5795 484.241 37.5795C483.267 37.5795 482.48 38.3691 482.48 39.34C482.48 40.3083 483.267 41.1006 484.241 41.1006C485.215 41.1006 486.002 40.3083 486.002 39.34" stroke="#FF0000"/>
<path fill-rule="evenodd" clip-rule="evenodd" d="M486.002 21.7033C486.002 20.735 485.215 19.9454 484.241 19.9454C483.267 19.9454 482.48 20.735 482.48 21.7033C482.48 22.6742 483.267 23.4665 484.241 23.4665C485.215 23.4665 486.002 22.6742 486.002 21.7033Z" fill="#FF0000"/>
<path d="M486.002 21.7033C486.002 20.735 485.215 19.9454 484.241 19.9454C483.267 19.9454 482.48 20.735 482.48 21.7033C482.48 22.6742 483.267 23.4665 484.241 23.4665C485.215 23.4665 486.002 22.6742 486.002 21.7033" stroke="#FF0000"/>
<path fill-rule="evenodd" clip-rule="evenodd" d="M486.002 4.07037C486.002 3.09941 485.215 2.30983 484.241 2.30983C483.267 2.30983 482.48 3.09941 482.48 4.07037C482.48 5.04133 483.267 5.8309 484.241 5.8309C485.215 5.8309 486.002 5.04133 486.002 4.07037Z" fill="#FF0000"/>
<path d="M486.002 4.07037C486.002 3.09941 485.215 2.30983 484.241 2.30983C483.267 2.30983 482.48 3.09941 482.48 4.07037C482.48 5.04133 483.267 5.8309 484.241 5.8309C485.215 5.8309 486.002 5.04133 486.002 4.07037" stroke="#FF0000"/>
</svg>
