<svg width="42" height="41" viewBox="0 0 42 41" fill="none" xmlns="http://www.w3.org/2000/svg">
<g opacity="0.5" clip-path="url(#clip0)">
<path d="M20.711 40.5542C31.993 40.5542 41.1389 31.576 41.1389 20.5007C41.1389 9.42551 31.993 0.447266 20.711 0.447266C9.42906 0.447266 0.283203 9.42551 0.283203 20.5007C0.283203 31.576 9.42906 40.5542 20.711 40.5542Z" fill="#808080"/>
<path d="M25.849 21.2854H22.2039V34.3946H16.6813V21.2854H14.0547V16.6783H16.6813V13.697C16.6813 11.565 17.7129 8.22656 22.2531 8.22656L26.3439 8.24336V12.7153H23.3757C22.8889 12.7153 22.2043 12.9541 22.2043 13.9711V16.6826H26.3315L25.849 21.2854Z" fill="white"/>
</g>
<defs>
<clipPath id="clip0">
<rect width="40.8557" height="40.1069" fill="white" transform="translate(0.283203 0.447266)"/>
</clipPath>
</defs>
</svg>
