<svg width="358" height="368" viewBox="0 0 358 368" fill="none" xmlns="http://www.w3.org/2000/svg">
<path fill-rule="evenodd" clip-rule="evenodd" d="M139.71 0.422867C140.861 0.145776 142.058 0 143.283 0H149.202C152.755 0 155.635 2.88041 155.635 6.43358C155.635 9.98675 152.755 12.8672 149.202 12.8672H143.283C143.082 12.8672 142.895 12.8909 142.72 12.9328C142.279 13.0391 141.837 13.097 141.4 13.1101C141.315 13.5507 141.182 13.989 140.999 14.4185C140.931 14.5779 140.88 14.7423 140.847 14.9099L140.027 20.703C139.529 24.2211 136.274 26.6695 132.756 26.1717C129.237 25.6738 126.789 22.4183 127.287 18.9001L128.123 12.9899C128.132 12.9306 128.141 12.8713 128.151 12.8122C128.355 11.6125 128.699 10.4582 129.164 9.36878C130.181 6.98576 132.466 5.53279 134.896 5.46119C135.359 3.06099 137.178 1.03217 139.71 0.422867ZM166.444 6.43358C166.444 2.88041 169.324 0 172.877 0H184.715C188.268 0 191.149 2.88041 191.149 6.43358C191.149 9.98675 188.268 12.8672 184.715 12.8672H172.877C169.324 12.8672 166.444 9.98675 166.444 6.43358ZM201.957 6.43358C201.957 2.88041 204.837 0 208.391 0H214.309C215.538 0 216.739 0.14678 217.894 0.42545C220.424 1.03611 222.24 3.06443 222.704 5.46338C225.12 5.51745 227.404 6.93716 228.447 9.29337C228.921 10.365 229.28 11.5001 229.507 12.6801C229.526 12.783 229.543 12.8863 229.558 12.9899L230.394 18.9002C230.892 22.4183 228.444 25.6739 224.926 26.1717C221.408 26.6695 218.152 24.2211 217.654 20.703L216.846 14.994C216.807 14.8257 216.751 14.6606 216.681 14.5006C216.48 14.0461 216.335 13.5809 216.245 13.1129C215.792 13.1026 215.333 13.0441 214.875 12.9334C214.699 12.891 214.511 12.8672 214.309 12.8672H208.391C204.837 12.8672 201.957 9.98675 201.957 6.43358ZM131.213 37.0723C134.731 37.5701 137.18 40.8257 136.682 44.3438L135.845 50.254C135.623 51.8233 135.265 53.3483 134.785 54.8189C133.681 58.1964 130.049 60.0399 126.671 58.9364C123.294 57.833 121.45 54.2005 122.554 50.823C122.805 50.0547 122.99 49.2631 123.105 48.4511L123.941 42.5409C124.439 39.0228 127.695 36.5744 131.213 37.0723ZM226.468 37.0723C229.986 36.5744 233.242 39.0228 233.74 42.5409L234.576 48.4511C234.691 49.2633 234.877 50.0552 235.128 50.824C236.231 54.2015 234.388 57.834 231.01 58.9373C227.633 60.0406 224 58.1969 222.897 54.8194C222.416 53.3487 222.058 51.8235 221.836 50.254L221 44.3438C220.502 40.8257 222.95 37.5701 226.468 37.0723ZM308.188 66.1368C307.798 66.2716 307.39 66.3706 306.965 66.4294C306.799 66.4524 306.632 66.4955 306.466 66.5615C306.463 66.5625 306.461 66.5634 306.459 66.5643L300.926 68.7976C297.631 70.1274 293.882 68.5345 292.552 65.2395C291.222 61.9446 292.815 58.1955 296.11 56.8656L301.661 54.6249L301.68 54.6174C302.827 54.1585 304.008 53.8493 305.197 53.6844C307.795 53.3238 310.246 54.5686 311.547 56.6609C313.862 55.8602 316.533 56.424 318.327 58.3184C319.135 59.1724 319.854 60.1282 320.462 61.1751L320.473 61.1926L323.432 66.3199C325.208 69.3972 324.154 73.3318 321.076 75.1081C317.999 76.8843 314.064 75.8296 312.288 72.7523L309.339 67.6426C309.338 67.6406 309.336 67.6386 309.335 67.6366C309.23 67.4564 309.111 67.2997 308.982 67.164C308.678 66.8427 308.414 66.4983 308.188 66.1368ZM46.144 56.6704C47.4374 54.6092 49.8503 53.3743 52.4219 53.7067C53.5909 53.8578 54.7535 54.1448 55.8853 54.5723C55.9304 54.5893 55.9753 54.6069 56.02 54.6249L61.5587 56.8604C64.8536 58.1903 66.4466 61.9394 65.1167 65.2343C63.7869 68.5293 60.0377 70.1222 56.7428 68.7924L51.2916 66.5922C51.1201 66.5312 50.9463 66.4902 50.7723 66.4677C50.3232 66.4096 49.8909 66.3066 49.4794 66.1637C49.2534 66.5236 48.9881 66.8664 48.6834 67.1861C48.5616 67.3138 48.4478 67.4625 48.3463 67.6361C48.3452 67.638 48.3441 67.6398 48.343 67.6417L45.3931 72.7523C43.6169 75.8296 39.6822 76.8843 36.6049 75.108C33.5276 73.3318 32.4729 69.3971 34.2492 66.3198L37.2087 61.1926L37.2184 61.176C37.8307 60.1225 38.5546 59.1632 39.3695 58.3083C41.1666 56.4229 43.8345 55.8672 46.144 56.6704ZM125.49 60.2919C127.569 63.1736 126.918 67.1947 124.036 69.2734C122.83 70.1433 121.56 70.9295 120.237 71.625C119.709 71.9026 119.183 72.1838 118.66 72.4686C117.485 73.108 116.198 73.3431 114.96 73.2212C114.454 74.3577 113.614 75.3599 112.478 76.0656C111.971 76.3801 111.467 76.6981 110.966 77.0197C109.696 77.8336 108.373 78.5556 107.008 79.1786C103.776 80.6542 99.9593 79.2301 98.4837 75.9978C97.0081 72.7655 98.4322 68.9491 101.664 67.4735C102.472 67.1048 103.261 66.675 104.021 66.1873C104.575 65.8324 105.131 65.4814 105.69 65.1344C106.939 64.3588 108.351 64.0629 109.709 64.1965C110.264 62.9497 111.219 61.8688 112.51 61.1661C113.087 60.8521 113.667 60.5419 114.249 60.2358C115.041 59.8197 115.796 59.3517 116.509 58.838C119.39 56.7593 123.411 57.4102 125.49 60.2919ZM232.193 60.2932C234.276 57.4149 238.298 56.7703 241.176 58.8536C241.889 59.3694 242.645 59.8396 243.437 60.2581C244.022 60.5676 244.605 60.8811 245.186 61.1985C246.485 61.9091 247.441 63.0027 247.992 64.2622C249.359 64.1233 250.781 64.4194 252.037 65.2017C252.599 65.5511 253.158 65.9042 253.713 66.261C254.466 66.7437 255.245 67.1686 256.044 67.5325C259.277 69.0059 260.704 72.8215 259.23 76.0547C257.757 79.288 253.941 80.7146 250.708 79.2411C249.348 78.6213 248.029 77.9019 246.763 77.0897C246.257 76.7649 245.749 76.4434 245.238 76.1255C244.091 75.4116 243.247 74.3956 242.744 73.2447C241.495 73.3717 240.196 73.1354 239.011 72.4874C238.484 72.1993 237.955 71.9149 237.424 71.6342C236.104 70.9364 234.836 70.1484 233.632 69.2771C230.754 67.1938 230.109 63.1716 232.193 60.2932ZM75.3398 69.3605C76.6697 66.0656 80.4188 64.4726 83.7137 65.8025L89.2525 68.038C90.0205 68.348 90.8065 68.5851 91.6051 68.7526C95.0825 69.4821 97.3103 72.8925 96.5808 76.37C95.8513 79.8475 92.4409 82.0752 88.9634 81.3457C87.4351 81.0251 85.9207 80.569 84.4366 79.97L78.8978 77.7344C75.6029 76.4046 74.0099 72.6554 75.3398 69.3605ZM282.277 69.3865C283.607 72.6814 282.014 76.4306 278.719 77.7604L273.168 80.0011C271.693 80.5962 270.189 81.0505 268.67 81.3709C265.193 82.1044 261.78 79.8806 261.047 76.404C260.314 72.9273 262.537 69.5143 266.014 68.7809C266.807 68.6135 267.588 68.3773 268.352 68.0692L273.903 65.8285C277.198 64.4986 280.947 66.0916 282.277 69.3865ZM31.1993 84.4731C34.2766 86.2493 35.3313 90.184 33.555 93.2613L27.6359 103.516C25.8596 106.593 21.925 107.648 18.8477 105.871C15.7704 104.095 14.7157 100.161 16.492 97.0833L22.4111 86.8288C24.1873 83.7515 28.1219 82.6968 31.1993 84.4731ZM326.482 84.473C329.559 82.6968 333.494 83.7515 335.27 86.8288L341.189 97.0833C342.965 100.161 341.91 104.095 338.833 105.871C335.756 107.648 331.821 106.593 330.045 103.516L324.126 93.2612C322.35 90.1839 323.404 86.2493 326.482 84.473ZM13.442 115.236C16.5193 117.013 17.574 120.947 15.7978 124.025L12.8382 129.152L12.8281 129.169C12.7266 129.344 12.6534 129.518 12.6026 129.688C12.4758 130.115 12.3087 130.519 12.1066 130.897C12.4438 131.184 12.7563 131.511 13.0373 131.877C13.1495 132.022 13.2801 132.16 13.4303 132.287L18.0842 135.937C20.8799 138.13 21.3686 142.174 19.1757 144.97C16.9828 147.766 12.9387 148.254 10.143 146.061L5.42644 142.362L5.3305 142.285C4.39134 141.519 3.55777 140.657 2.83812 139.721C1.24593 137.651 1.1087 134.921 2.26603 132.759C0.386474 131.158 -0.480092 128.544 0.26791 126.025C0.606552 124.885 1.08295 123.773 1.69835 122.712C1.70038 122.709 1.70241 122.705 1.70444 122.702L4.65383 117.592C6.43011 114.515 10.3647 113.46 13.442 115.236ZM344.239 115.236C347.316 113.46 351.251 114.515 353.027 117.592L356.008 122.757C356.605 123.809 357.071 124.908 357.405 126.034C358.149 128.546 357.289 131.152 355.42 132.752C356.596 134.929 356.454 137.686 354.837 139.764C354.099 140.713 353.24 141.583 352.27 142.349L352.248 142.366L347.52 146.066C344.722 148.256 340.678 147.762 338.489 144.964C336.299 142.166 336.793 138.122 339.591 135.933L344.297 132.25C344.299 132.249 344.3 132.247 344.302 132.246C344.448 132.13 344.574 132.001 344.682 131.863C344.953 131.514 345.253 131.201 345.576 130.924C345.369 130.539 345.197 130.127 345.068 129.691C345.014 129.508 344.935 129.318 344.828 129.126C344.825 129.122 344.823 129.118 344.821 129.114L341.883 124.025C340.107 120.947 341.161 117.013 344.239 115.236ZM178.796 128.286C177.153 128.286 175.529 128.356 173.926 128.495C170.386 128.8 167.269 126.177 166.964 122.637C166.659 119.097 169.282 115.98 172.822 115.675C174.792 115.505 176.784 115.419 178.796 115.419C180.807 115.419 182.8 115.505 184.77 115.675C188.31 115.98 190.932 119.097 190.627 122.637C190.322 126.177 187.205 128.8 183.665 128.495C182.062 128.356 180.438 128.286 178.796 128.286ZM158.348 124.932C159.85 128.152 158.457 131.98 155.237 133.482C152.285 134.859 149.473 136.488 146.828 138.342C143.919 140.381 139.907 139.676 137.867 136.767C135.828 133.857 136.533 129.845 139.443 127.806C142.697 125.525 146.159 123.518 149.798 121.821C153.018 120.319 156.846 121.712 158.348 124.932ZM199.244 124.932C200.746 121.712 204.574 120.32 207.794 121.822C211.432 123.519 214.895 125.525 218.149 127.806C221.059 129.846 221.764 133.858 219.724 136.767C217.685 139.677 213.673 140.382 210.763 138.342C208.119 136.489 205.307 134.86 202.355 133.483C199.135 131.98 197.742 128.152 199.244 124.932ZM131.562 143.072C134.471 145.111 135.177 149.123 133.137 152.033C131.283 154.677 129.655 157.489 128.277 160.441C126.775 163.661 122.947 165.054 119.727 163.552C116.507 162.05 115.114 158.222 116.617 155.002C118.314 151.364 120.32 147.901 122.601 144.647C124.64 141.737 128.652 141.032 131.562 143.072ZM226.03 143.072C228.939 141.033 232.951 141.738 234.991 144.647C237.272 147.901 239.278 151.364 240.975 155.003C242.477 158.223 241.084 162.051 237.864 163.553C234.644 165.055 230.816 163.662 229.314 160.442C227.937 157.49 226.308 154.678 224.454 152.033C222.415 149.124 223.12 145.112 226.03 143.072ZM27.9175 151.827C30.1104 149.031 34.1545 148.542 36.9503 150.735L41.6668 154.435C42.9077 155.408 44.0431 156.477 45.0707 157.624C47.4416 160.27 47.2181 164.337 44.5716 166.708C41.9251 169.079 37.8577 168.856 35.4869 166.209C34.9534 165.614 34.3663 165.061 33.7256 164.559L29.0091 160.859C26.2133 158.667 25.7246 154.622 27.9175 151.827ZM329.711 151.833C331.9 154.632 331.407 158.675 328.609 160.865L323.881 164.564C323.239 165.067 322.65 165.619 322.116 166.215C319.742 168.859 315.675 169.079 313.03 166.705C310.386 164.332 310.167 160.264 312.54 157.62C313.57 156.473 314.708 155.404 315.951 154.431L320.679 150.731C323.477 148.542 327.521 149.035 329.711 151.833ZM45.1297 168.338C48.6682 168.016 51.7981 170.623 52.1206 174.161C52.2555 175.641 52.2831 177.135 52.2033 178.628C52.1872 178.928 52.1724 179.228 52.1588 179.528C52.1305 180.152 52.0143 180.751 51.8227 181.314C51.9821 181.884 52.0646 182.487 52.0586 183.109C52.0557 183.406 52.0542 183.703 52.0542 184C52.0542 184.297 52.0557 184.594 52.0586 184.891C52.0646 185.513 51.9821 186.116 51.8227 186.686C52.0143 187.249 52.1305 187.848 52.1588 188.472C52.1724 188.772 52.1872 189.072 52.2033 189.372C52.2831 190.865 52.2555 192.359 52.1206 193.839C51.7981 197.377 48.6682 199.984 45.1297 199.662C41.5912 199.339 38.9841 196.209 39.3066 192.671C39.3849 191.812 39.4015 190.938 39.3545 190.059C39.3366 189.725 39.32 189.39 39.3048 189.055C39.273 188.353 39.3549 187.672 39.5344 187.03C39.3188 186.397 39.1989 185.72 39.192 185.015C39.1888 184.678 39.1871 184.339 39.1871 184C39.1871 183.661 39.1888 183.322 39.192 182.985C39.1989 182.28 39.3188 181.603 39.5344 180.97C39.3549 180.328 39.273 179.647 39.3048 178.945C39.32 178.61 39.3366 178.275 39.3545 177.941C39.4015 177.062 39.3849 176.188 39.3066 175.329C38.9841 171.791 41.5912 168.661 45.1297 168.338ZM312.465 168.35C316.004 168.673 318.61 171.804 318.286 175.342C318.208 176.203 318.191 177.077 318.238 177.958C318.256 178.291 318.272 178.625 318.287 178.959C318.319 179.659 318.237 180.338 318.059 180.978C318.273 181.609 318.393 182.285 318.399 182.987C318.403 183.324 318.404 183.662 318.404 184C318.404 184.339 318.403 184.678 318.399 185.015C318.393 185.72 318.273 186.397 318.057 187.03C318.236 187.672 318.318 188.353 318.287 189.055C318.271 189.39 318.255 189.725 318.237 190.059C318.19 190.938 318.207 191.812 318.285 192.671C318.607 196.209 316 199.339 312.462 199.662C308.923 199.984 305.793 197.377 305.471 193.839C305.336 192.359 305.308 190.865 305.388 189.372C305.404 189.072 305.419 188.772 305.433 188.472C305.461 187.848 305.577 187.249 305.769 186.686C305.609 186.116 305.527 185.513 305.533 184.891C305.536 184.594 305.537 184.297 305.537 184C305.537 183.704 305.536 183.408 305.533 183.112C305.527 182.491 305.609 181.89 305.767 181.321C305.577 180.76 305.461 180.162 305.433 179.541C305.42 179.242 305.405 178.942 305.389 178.643C305.309 177.148 305.337 175.652 305.473 174.171C305.796 170.633 308.927 168.027 312.465 168.35ZM117.432 172.168C120.972 172.473 123.594 175.59 123.289 179.131C123.151 180.734 123.081 182.358 123.081 184C123.081 185.642 123.151 187.266 123.289 188.87C123.594 192.41 120.972 195.527 117.432 195.832C113.892 196.137 110.775 193.514 110.47 189.974C110.3 188.004 110.214 186.011 110.214 184C110.214 181.989 110.3 179.996 110.47 178.026C110.775 174.486 113.892 171.863 117.432 172.168ZM240.16 172.169C243.7 171.864 246.817 174.487 247.122 178.027C247.291 179.997 247.378 181.989 247.378 184.001C247.378 186.012 247.291 188.005 247.122 189.975C246.817 193.515 243.7 196.138 240.16 195.832C236.619 195.527 233.997 192.41 234.302 188.87C234.44 187.267 234.511 185.643 234.511 184.001C234.511 182.358 234.44 180.734 234.302 179.131C233.997 175.591 236.619 172.474 240.16 172.169ZM44.5716 201.292C47.2181 203.663 47.4416 207.73 45.0707 210.376C44.0431 211.524 42.9077 212.592 41.6668 213.565L36.9503 217.265C34.1545 219.458 30.1105 218.969 27.9175 216.173C25.7246 213.378 26.2133 209.334 29.0091 207.141L33.7256 203.441C34.3663 202.939 34.9534 202.386 35.4869 201.791C37.8577 199.144 41.9251 198.921 44.5716 201.292ZM313.02 201.292C315.666 198.921 319.734 199.144 322.105 201.791C322.638 202.386 323.225 202.939 323.866 203.441L328.582 207.141C331.378 209.334 331.867 213.378 329.674 216.173C327.481 218.969 323.437 219.458 320.641 217.265L315.925 213.565C314.684 212.592 313.548 211.524 312.521 210.376C310.15 207.73 310.373 203.663 313.02 201.292ZM119.727 204.448C122.947 202.946 126.775 204.339 128.277 207.559C129.655 210.511 131.283 213.323 133.137 215.967C135.177 218.877 134.471 222.889 131.562 224.929C128.652 226.968 124.64 226.263 122.601 223.353C120.32 220.099 118.314 216.637 116.616 212.998C115.114 209.778 116.507 205.95 119.727 204.448ZM237.864 204.449C241.084 205.951 242.477 209.779 240.975 212.999C239.278 216.637 237.272 220.1 234.991 223.354C232.951 226.264 228.939 226.969 226.03 224.929C223.12 222.889 222.415 218.877 224.454 215.968C226.308 213.324 227.937 210.512 229.314 207.56C230.816 204.34 234.644 202.947 237.864 204.449ZM19.1757 223.03C21.3686 225.826 20.8799 229.87 18.0842 232.063L13.3838 235.75C13.3816 235.752 13.3793 235.753 13.3771 235.755C13.2317 235.871 13.1061 235.999 12.9987 236.137C12.7273 236.486 12.4271 236.799 12.1042 237.076C12.3118 237.461 12.4831 237.873 12.6124 238.309C12.6667 238.492 12.7446 238.681 12.8521 238.872C12.8546 238.877 12.8571 238.881 12.8597 238.886L15.7977 243.975C17.574 247.053 16.5192 250.987 13.4419 252.764C10.3646 254.54 6.42997 253.485 4.65372 250.408L1.67267 245.243C1.07503 244.191 0.609575 243.092 0.275759 241.966C-0.4687 239.454 0.391724 236.848 2.26034 235.248C1.08472 233.071 1.22652 230.314 2.84304 228.236C3.58162 227.287 4.44034 226.417 5.41032 225.651L5.42644 225.638L10.143 221.939C12.9387 219.746 16.9828 220.234 19.1757 223.03ZM338.416 223.03C340.609 220.234 344.653 219.746 347.448 221.939L352.165 225.638L352.262 225.716C353.201 226.482 354.034 227.344 354.753 228.279C356.345 230.349 356.483 233.08 355.325 235.242C357.205 236.842 358.071 239.457 357.323 241.976C356.984 243.115 356.508 244.226 355.893 245.286C355.891 245.29 355.888 245.295 355.885 245.3L352.937 250.408C351.161 253.485 347.226 254.54 344.149 252.764C341.071 250.987 340.017 247.053 341.793 243.975L344.752 238.848L344.763 238.829C344.865 238.655 344.938 238.482 344.989 238.311C345.115 237.884 345.283 237.481 345.485 237.103C345.147 236.816 344.835 236.489 344.554 236.123C344.442 235.978 344.311 235.84 344.161 235.713L339.507 232.063C336.711 229.87 336.223 225.826 338.416 223.03ZM137.867 231.234C139.907 228.324 143.919 227.619 146.828 229.659C149.473 231.512 152.285 233.141 155.237 234.518C158.457 236.02 159.85 239.848 158.348 243.068C156.845 246.289 153.017 247.681 149.797 246.179C146.159 244.482 142.696 242.476 139.442 240.195C136.533 238.155 135.828 234.143 137.867 231.234ZM219.724 231.234C221.764 234.144 221.058 238.156 218.149 240.195C214.895 242.476 211.432 244.482 207.794 246.179C204.574 247.681 200.746 246.289 199.244 243.069C197.742 239.849 199.135 236.021 202.355 234.519C205.307 233.141 208.119 231.513 210.763 229.659C213.673 227.619 217.685 228.325 219.724 231.234ZM166.964 245.364C167.269 241.824 170.386 239.201 173.926 239.506C175.529 239.644 177.153 239.715 178.796 239.715C180.438 239.715 182.062 239.644 183.665 239.506C187.205 239.201 190.322 241.824 190.627 245.364C190.932 248.904 188.31 252.021 184.77 252.326C182.8 252.496 180.807 252.582 178.796 252.582C176.784 252.582 174.792 252.496 172.822 252.326C169.282 252.021 166.659 248.904 166.964 245.364ZM18.8474 262.129C21.9247 260.352 25.8593 261.407 27.6356 264.484L33.5545 274.739C35.3308 277.816 34.276 281.751 31.1987 283.527C28.1214 285.303 24.1868 284.249 22.4105 281.171L16.4916 270.917C14.7153 267.839 15.7701 263.905 18.8474 262.129ZM338.743 262.129C341.82 263.905 342.875 267.839 341.099 270.917L335.18 281.171C333.404 284.249 329.469 285.303 326.392 283.527C323.315 281.751 322.26 277.816 324.036 274.739L329.955 264.484C331.731 261.407 335.666 260.352 338.743 262.129ZM96.6335 291.596C97.367 295.073 95.1432 298.486 91.6666 299.219C90.8733 299.387 90.0923 299.623 89.3289 299.931L83.7773 302.172C80.4824 303.501 76.7332 301.908 75.4034 298.614C74.0735 295.319 75.6665 291.569 78.9614 290.24L84.513 287.999C85.9872 287.404 87.4917 286.95 89.0104 286.629C92.487 285.896 95.9 288.119 96.6335 291.596ZM261.011 291.63C261.74 288.153 265.15 285.925 268.628 286.654C270.156 286.975 271.671 287.431 273.155 288.03L278.694 290.266C281.989 291.595 283.581 295.345 282.252 298.639C280.922 301.934 277.173 303.527 273.878 302.198L268.339 299.962C267.571 299.652 266.785 299.415 265.986 299.247C262.509 298.518 260.281 295.108 261.011 291.63ZM98.4503 291.945C99.9237 288.712 103.739 287.285 106.973 288.759C108.333 289.379 109.652 290.098 110.917 290.91C111.423 291.235 111.932 291.557 112.443 291.875C113.589 292.588 114.434 293.604 114.937 294.755C116.186 294.628 117.485 294.865 118.669 295.513C119.196 295.801 119.725 296.085 120.256 296.366C121.577 297.064 122.845 297.852 124.048 298.723C126.927 300.806 127.571 304.828 125.488 307.707C123.405 310.585 119.382 311.23 116.504 309.146C115.791 308.631 115.036 308.16 114.244 307.742C113.658 307.432 113.075 307.119 112.495 306.802C111.196 306.091 110.239 304.997 109.689 303.738C108.322 303.877 106.9 303.581 105.643 302.798C105.082 302.449 104.523 302.096 103.967 301.739C103.215 301.256 102.435 300.831 101.637 300.468C98.4034 298.994 96.9768 295.179 98.4503 291.945ZM259.108 292.002C260.583 295.234 259.159 299.051 255.927 300.527C255.12 300.895 254.331 301.325 253.57 301.813C253.016 302.168 252.46 302.519 251.901 302.866C250.652 303.641 249.241 303.937 247.882 303.804C247.327 305.05 246.373 306.131 245.081 306.834C244.504 307.148 243.924 307.458 243.342 307.764C242.551 308.18 241.795 308.648 241.083 309.162C238.201 311.241 234.18 310.59 232.101 307.708C230.023 304.826 230.674 300.805 233.555 298.727C234.761 297.857 236.032 297.071 237.354 296.375C237.883 296.097 238.408 295.816 238.932 295.531C240.107 294.892 241.393 294.657 242.631 294.779C243.137 293.642 243.977 292.64 245.114 291.934C245.62 291.62 246.124 291.302 246.626 290.98C247.895 290.166 249.219 289.444 250.583 288.821C253.816 287.346 257.632 288.77 259.108 292.002ZM36.6042 292.892C39.6815 291.116 43.6162 292.17 45.3924 295.248L48.3417 300.357C48.343 300.36 48.3443 300.362 48.3456 300.364C48.4509 300.544 48.57 300.701 48.6983 300.836C49.0024 301.157 49.267 301.502 49.4921 301.863C49.8821 301.729 50.2909 301.629 50.7151 301.571C50.8811 301.548 51.0481 301.505 51.215 301.438C51.2172 301.438 51.2195 301.437 51.2218 301.436L56.7548 299.202C60.0498 297.873 63.7989 299.466 65.1288 302.76C66.4586 306.055 64.8657 309.805 61.5708 311.134L56.0191 313.375L56.0005 313.383C54.8533 313.842 53.6724 314.151 52.4838 314.316C49.8856 314.676 47.4349 313.431 46.1333 311.339C43.8186 312.14 41.1471 311.576 39.3538 309.682C38.5454 308.828 37.8267 307.872 37.2181 306.825L37.2079 306.807L34.2484 301.68C32.4722 298.603 33.5269 294.668 36.6042 292.892ZM320.986 292.892C324.064 294.668 325.118 298.603 323.342 301.68L320.383 306.807L320.373 306.824C319.761 307.878 319.037 308.837 318.222 309.692C316.425 311.577 313.757 312.133 311.447 311.33C310.154 313.391 307.741 314.626 305.169 314.293C304 314.142 302.838 313.855 301.706 313.428C301.685 313.42 301.664 313.412 301.642 313.403C301.619 313.394 301.595 313.385 301.571 313.375L296.033 311.14C292.738 309.81 291.145 306.061 292.475 302.766C293.805 299.471 297.554 297.878 300.849 299.208L306.3 301.408C306.471 301.469 306.645 301.51 306.819 301.532C307.268 301.59 307.7 301.693 308.112 301.836C308.338 301.476 308.603 301.134 308.908 300.814C309.03 300.686 309.144 300.537 309.245 300.363C309.246 300.362 309.247 300.36 309.248 300.358L312.198 295.248C313.974 292.17 317.909 291.116 320.986 292.892ZM126.67 309.063C130.048 307.959 133.68 309.803 134.784 313.181C135.264 314.651 135.622 316.176 135.845 317.746L136.681 323.656C137.179 327.174 134.73 330.43 131.212 330.928C127.694 331.426 124.438 328.977 123.941 325.459L123.104 319.549C122.989 318.737 122.804 317.945 122.553 317.176C121.449 313.798 123.293 310.166 126.67 309.063ZM230.92 309.064C234.298 310.167 236.141 313.8 235.038 317.177C234.787 317.945 234.601 318.737 234.486 319.549L233.65 325.459C233.152 328.977 229.897 331.426 226.378 330.928C222.86 330.43 220.412 327.174 220.91 323.656L221.746 317.746C221.968 316.177 222.326 314.652 222.807 313.181C223.91 309.804 227.543 307.96 230.92 309.064ZM132.755 341.828C136.273 341.33 139.528 343.779 140.026 347.297L140.846 353.09C140.879 353.258 140.93 353.422 140.998 353.582C141.181 354.011 141.314 354.449 141.399 354.89C141.836 354.903 142.278 354.961 142.719 355.067C142.894 355.109 143.081 355.133 143.282 355.133H149.201C152.754 355.133 155.635 358.013 155.635 361.566C155.635 365.12 152.754 368 149.201 368H143.282C142.057 368 140.86 367.854 139.709 367.577C137.177 366.968 135.359 364.939 134.895 362.539C132.465 362.467 130.18 361.014 129.163 358.631C128.698 357.542 128.354 356.387 128.15 355.188C128.14 355.129 128.131 355.069 128.122 355.01L127.286 349.1C126.788 345.582 129.237 342.326 132.755 341.828ZM224.836 341.828C228.354 342.326 230.802 345.582 230.305 349.1L229.468 355.01C229.46 355.069 229.451 355.129 229.44 355.188C229.236 356.387 228.893 357.542 228.428 358.631C227.411 361.014 225.126 362.467 222.696 362.539C222.232 364.939 220.414 366.968 217.882 367.577C216.731 367.854 215.533 368 214.309 368H208.39C204.836 368 201.956 365.12 201.956 361.566C201.956 358.013 204.836 355.133 208.39 355.133H214.309C214.51 355.133 214.697 355.109 214.871 355.067C215.313 354.961 215.755 354.903 216.191 354.89C216.277 354.449 216.41 354.011 216.593 353.582C216.661 353.422 216.712 353.258 216.745 353.09L217.564 347.297C218.062 343.779 221.318 341.33 224.836 341.828ZM166.443 361.566C166.443 358.013 169.323 355.133 172.876 355.133H184.714C188.267 355.133 191.148 358.013 191.148 361.566C191.148 365.12 188.267 368 184.714 368H172.876C169.323 368 166.443 365.12 166.443 361.566Z" fill="#FF0000"/>
</svg>
