<svg width="41" height="41" viewBox="0 0 41 41" fill="none" xmlns="http://www.w3.org/2000/svg">
<g opacity="0.5" clip-path="url(#clip0)">
<path d="M26.8073 10.9082H14.7743C12.8536 10.9082 11.291 12.4951 11.291 14.4455V26.6654C11.291 28.6159 12.8536 30.2032 14.7743 30.2032H26.8073C28.728 30.2032 30.2911 28.6164 30.2911 26.6654V14.4455C30.2911 12.4951 28.7284 10.9082 26.8073 10.9082ZM20.7908 26.9075C17.3422 26.9075 14.5363 24.0581 14.5363 20.5555C14.5363 17.0533 17.3422 14.2039 20.7908 14.2039C24.2399 14.2039 27.0457 17.0533 27.0457 20.5555C27.0457 24.0576 24.2394 26.9075 20.7908 26.9075ZM27.2468 15.5172C26.4304 15.5172 25.7665 14.8429 25.7665 14.0143C25.7665 13.1857 26.4304 12.5115 27.2468 12.5115C28.0627 12.5115 28.7266 13.1857 28.7266 14.0143C28.7266 14.8429 28.0627 15.5172 27.2468 15.5172Z" fill="#808080"/>
<path d="M20.7916 16.8872C18.8008 16.8872 17.1797 18.5325 17.1797 20.5543C17.1797 22.5769 18.8008 24.2227 20.7916 24.2227C22.7833 24.2227 24.4031 22.5769 24.4031 20.5543C24.4031 18.533 22.7829 16.8872 20.7916 16.8872Z" fill="#808080"/>
<path d="M20.7901 0C9.64182 0 0.603516 9.17861 0.603516 20.5C0.603516 31.8214 9.64182 41 20.7901 41C31.9385 41 40.9768 31.8214 40.9768 20.5C40.9768 9.17861 31.9385 0 20.7901 0ZM32.933 26.6652C32.933 30.0961 30.1851 32.8866 26.8067 32.8866H14.7736C11.3956 32.8866 8.64731 30.0961 8.64731 26.6652V14.4453C8.64731 11.0149 11.3956 8.22394 14.7736 8.22394H26.8067C30.1851 8.22394 32.933 11.0149 32.933 14.4453V26.6652Z" fill="#808080"/>
</g>
<defs>
<clipPath id="clip0">
<rect width="40.3732" height="41" fill="white" transform="translate(0.603516)"/>
</clipPath>
</defs>
</svg>
