<svg width="41" height="41" viewBox="0 0 41 41" fill="none" xmlns="http://www.w3.org/2000/svg">
<g opacity="0.5" clip-path="url(#clip0)">
<path d="M20.1866 40.999C31.3354 40.999 40.3732 31.8209 40.3732 20.499C40.3732 9.17719 31.3354 -0.000976562 20.1866 -0.000976562C9.03786 -0.000976562 0 9.17719 0 20.499C0 31.8209 9.03786 40.999 20.1866 40.999Z" fill="#808080"/>
<path d="M32.2459 22.1485V30.6002H27.4207V22.7149C27.4207 20.735 26.7241 19.3829 24.977 19.3829C23.6438 19.3829 22.8518 20.2932 22.502 21.1746C22.375 21.4896 22.3422 21.927 22.3422 22.3688V30.5998H17.5167C17.5167 30.5998 17.5815 17.2447 17.5167 15.8623H22.3426V17.9507C22.3329 17.9672 22.3192 17.9833 22.3106 17.999H22.3426V17.9507C22.9838 16.9487 24.1274 15.5162 26.6913 15.5162C29.8659 15.5162 32.2459 17.6226 32.2459 22.1485ZM12.4688 8.7583C10.8182 8.7583 9.73828 9.85862 9.73828 11.3043C9.73828 12.7192 10.7869 13.8513 12.4055 13.8513H12.4368C14.1198 13.8513 15.1662 12.7192 15.1662 11.3043C15.1342 9.85862 14.1198 8.7583 12.4688 8.7583ZM10.0251 30.6002H14.8488V15.8623H10.0251V30.6002Z" fill="white"/>
</g>
<defs>
<clipPath id="clip0">
<rect width="40.3732" height="41" fill="white"/>
</clipPath>
</defs>
</svg>
