<svg width="65" height="65" viewBox="0 0 65 65" fill="none" xmlns="http://www.w3.org/2000/svg">
<rect x="2" y="2" width="60.812" height="60.812" rx="30.406" stroke="#FF0000" stroke-width="2.5" stroke-linecap="round" stroke-linejoin="bevel" stroke-dasharray="0.5 4"/>
<rect x="2" y="2" width="60.812" height="60.812" rx="30.406" fill="white" stroke="#FF0000" stroke-width="2.5" stroke-linecap="round" stroke-linejoin="bevel" stroke-dasharray="0.5 4"/>
<path d="M41.3098 40.2721V44.1417H24.1779V40.9336L32.9092 31.9376C33.7471 31.0998 34.4195 30.273 34.9267 29.4572C35.4338 28.6414 35.6873 27.9358 35.6873 27.3405C35.6873 26.5026 35.3566 25.8522 34.6951 25.3892C34.0337 24.9041 33.1187 24.6615 31.9501 24.6615C30.9358 24.6615 29.8554 24.9151 28.7089 25.4222C27.5624 25.9293 26.482 26.6349 25.4677 27.5389L23.7148 24.1324C25.0819 23.074 26.515 22.2582 28.0144 21.685C29.5357 21.0896 31.0571 20.792 32.5785 20.792C34.0998 20.792 35.4448 21.0345 36.6134 21.5196C37.782 22.0047 38.686 22.6992 39.3254 23.6032C39.9869 24.4852 40.3176 25.5104 40.3176 26.679C40.3176 27.8035 39.9317 28.9941 39.16 30.2509C38.3883 31.5077 37.3079 32.8637 35.9189 34.3189L30.0318 40.2721H41.3098Z" stroke="#FF0000" stroke-width="2.5" stroke-linecap="round" stroke-linejoin="bevel" stroke-dasharray="0.5 4"/>
</svg>
