<svg width="100" height="100" viewBox="0 0 100 100" fill="none" xmlns="http://www.w3.org/2000/svg">
<rect x="2" y="2" width="96" height="96" rx="48" stroke="#FF0000" stroke-width="2.5" stroke-linecap="round" stroke-linejoin="bevel" stroke-dasharray="0.5 4"/>
<rect x="2" y="2" width="96" height="96" rx="48" fill="white" stroke="#FF0000" stroke-width="2.5" stroke-linecap="round" stroke-linejoin="bevel" stroke-dasharray="0.5 4"/>
<path d="M52.4899 47.2245C55.8662 47.5377 58.5463 48.5646 60.5303 50.3049C62.5491 52.0453 63.5585 54.3251 63.5585 57.1445C63.5585 59.4417 62.9668 61.478 61.7834 63.2531C60.5999 64.9935 58.9118 66.3683 56.719 67.3777C54.5261 68.3523 51.9678 68.8396 49.044 68.8396C46.5727 68.8396 44.1188 68.4742 41.6823 67.7432C39.2806 66.9775 37.227 65.9681 35.5215 64.715L38.2886 59.2851C39.7505 60.5034 41.3691 61.4431 43.1442 62.1045C44.9194 62.731 46.7293 63.0443 48.5741 63.0443C51.115 63.0443 53.099 62.5222 54.5261 61.478C55.988 60.4337 56.719 59.0241 56.719 57.2489C56.719 55.4389 56.0054 54.0641 54.5783 53.1243C53.1512 52.1497 51.115 51.6624 48.4697 51.6624H42.9354V47.4333L52.751 37.931H37.3489L37.2966 31.979H61.7312V36.3125L50.5581 47.0156L52.4899 47.2245Z" stroke="#FF0000" stroke-width="2.5" stroke-linecap="round" stroke-linejoin="bevel" stroke-dasharray="0.5 4"/>
</svg>
