<svg width="100" height="100" viewBox="0 0 100 100" fill="none" xmlns="http://www.w3.org/2000/svg">
<rect x="2" y="2" width="96" height="96" rx="48" stroke="#FF0000" stroke-width="2.5" stroke-linecap="round" stroke-linejoin="bevel" stroke-dasharray="0.5 4"/>
<rect x="2" y="2" width="96" height="96" rx="48" fill="white" stroke="#FF0000" stroke-width="2.5" stroke-linecap="round" stroke-linejoin="bevel" stroke-dasharray="0.5 4"/>
<path d="M50.07 45.08C52.9667 45.08 55.515 45.575 57.715 46.565C59.915 47.555 61.6017 48.9483 62.775 50.745C63.985 52.505 64.59 54.5033 64.59 56.74C64.59 59.3433 63.9667 61.635 62.72 63.615C61.4733 65.595 59.7133 67.135 57.44 68.235C55.1667 69.2983 52.5267 69.83 49.52 69.83C47.1 69.83 44.57 69.4267 41.93 68.62C39.3267 67.7767 37.0167 66.6583 35 65.265L37.915 59.49C39.565 60.7733 41.325 61.7817 43.195 62.515C45.065 63.2117 46.935 63.56 48.805 63.56C51.225 63.56 53.1317 63.01 54.525 61.91C55.955 60.7733 56.67 59.2333 56.67 57.29C56.67 55.42 55.9733 53.9717 54.58 52.945C53.1867 51.9183 51.115 51.405 48.365 51.405C47.045 51.405 45.3033 51.46 43.14 51.57C40.9767 51.6433 39.3083 51.735 38.135 51.845V31H62.885V37.435H44.955V45.08H50.07Z" stroke="#FF0000" stroke-width="2.5" stroke-linecap="round" stroke-linejoin="bevel" stroke-dasharray="0.5 4"/>
</svg>
