<svg width="21" height="21" viewBox="0 0 21 21" fill="none" xmlns="http://www.w3.org/2000/svg">
<path d="M5.04995 14.7152C5.37139 14.7152 5.64672 14.5207 5.87524 14.1311C7.96586 10.4239 9.05339 8.49422 9.13827 8.34135L7.05619 4.71052C6.83603 4.32964 6.55666 4.13916 6.21832 4.13916H3.18376C2.98877 4.13916 2.85373 4.20264 2.77743 4.3296C2.68423 4.45656 2.6885 4.61324 2.79006 4.79918L4.83406 8.34135C4.84238 8.35036 4.84238 8.35421 4.83406 8.35421L1.62188 14.0424C1.5375 14.2036 1.5375 14.3557 1.62188 14.4991C1.7063 14.6435 1.83777 14.7152 2.01539 14.7152H5.04995Z" fill="white"/>
<path d="M18.9794 0H15.9196C15.5896 0 15.3185 0.190442 15.1072 0.571364C10.765 8.27385 8.51764 12.2608 8.36523 12.5312L12.6692 20.4287C12.8722 20.8096 13.1516 21 13.507 21H16.5414C16.7275 21 16.863 20.9365 16.9477 20.8096C17.0321 20.6652 17.028 20.5085 16.9351 20.3395L12.6694 12.5312V12.5188L19.3731 0.660253C19.4661 0.48267 19.4661 0.326455 19.3731 0.190675C19.2968 0.0634806 19.1655 0 18.9794 0Z" fill="white"/>
</svg>
